M48
; DRILL file {KiCad 9.0.2} date 2026-05-13T09:57:28+0100
; FORMAT={-:-/ absolute / metric / decimal}
; #@! TF.CreationDate,2026-05-13T09:57:28+01:00
; #@! TF.GenerationSoftware,Kicad,Pcbnew,9.0.2
; #@! TF.FileFunction,MixedPlating,1,4
FMAT,2
METRIC
; #@! TA.AperFunction,Plated,PTH,ComponentDrill
T1C0.200
; #@! TA.AperFunction,Plated,PTH,ViaDrill
T2C0.305
; #@! TA.AperFunction,Plated,PTH,ComponentDrill
T3C0.600
; #@! TA.AperFunction,Plated,PTH,ComponentDrill
T4C1.200
; #@! TA.AperFunction,NonPlated,NPTH,ComponentDrill
T5C0.500
; #@! TA.AperFunction,NonPlated,NPTH,ComponentDrill
T6C0.650
; #@! TA.AperFunction,NonPlated,NPTH,ComponentDrill
T7C1.000
; #@! TA.AperFunction,NonPlated,NPTH,ComponentDrill
T8C3.200
%
G90
G05
T1
X131.38Y-103.137
X132.38Y-103.137
T2
X61.4Y-87.757
X62.63Y-95.007
X63.59Y-94.367
X64.18Y-93.667
X65.6Y-82.387
X65.62Y-76.977
X69.92Y-98.427
X70.41Y-99.327
X70.88Y-89.627
X71.24Y-99.987
X72.349Y-91.326
X73.59Y-105.147
X73.871Y-59.832
X73.947Y-57.85
X74.42Y-105.687
X75.09Y-98.998
X75.268Y-90.693
X78.23Y-114.987
X78.83Y-92.377
X81.33Y-99.727
X82.304Y-54.091
X82.71Y-55.691
X82.964Y-57.038
X83.56Y-127.607
X83.6Y-52.217
X84.042Y-51.659
X84.19Y-92.367
X84.37Y-132.677
X85.45Y-47.797
X85.45Y-52.927
X86.62Y-129.217
X87.308Y-52.897
X87.794Y-69.392
X87.96Y-70.677
X87.96Y-71.987
X88.04Y-47.027
X88.78Y-108.752
X88.86Y-130.657
X89.04Y-131.667
X89.38Y-90.8
X92.88Y-115.127
X93.38Y-74.627
X93.861Y-73.979
X94.54Y-103.447
X94.978Y-73.852
X95.38Y-83.127
X96.333Y-82.07
X96.42Y-81.147
X96.691Y-79.938
X96.833Y-73.929
X97.264Y-77.612
X97.308Y-79.381
X97.315Y-131.727
X97.33Y-130.52
X97.341Y-129.224
X97.38Y-86.627
X97.73Y-78.632
X97.91Y-76.987
X98.103Y-120.131
X98.128Y-118.709
X98.57Y-112.147
X98.68Y-106.987
X98.76Y-107.997
X98.871Y-80.758
X99.144Y-76.977
X99.802Y-81.062
X100.592Y-76.879
X101.62Y-71.237
X101.668Y-86.886
X101.975Y-76.574
X102.82Y-71.197
X104.47Y-70.957
X104.68Y-74.827
X104.83Y-84.277
X105.9Y-82.387
X105.92Y-70.957
X106.68Y-91.802
X107.423Y-75.736
X108.136Y-98.49
X109.519Y-101.969
X109.863Y-78.094
X109.88Y-72.627
X110.244Y-74.665
X110.252Y-85.12
X110.319Y-101.897
X110.353Y-87.097
X110.764Y-78.086
X110.827Y-72.764
X111.124Y-103.308
X111.184Y-84.266
X111.211Y-87.046
X111.432Y-73.374
X111.61Y-77.937
X111.692Y-102.707
X111.749Y-83.735
X111.869Y-74.64
X111.996Y-84.952
X112.151Y-94.052
X112.151Y-93.261
X112.269Y-89.127
X112.276Y-103.266
X112.301Y-99.76
X112.321Y-87.264
X112.38Y-69.127
X112.624Y-77.995
X112.785Y-66.991
X113.165Y-76.367
X113.503Y-82.26
X113.509Y-101.588
X113.963Y-76.686
X114.474Y-84.227
X115.166Y-101.939
X115.385Y-84.503
X115.68Y-75.377
X115.88Y-92.127
X116.12Y-87.437
X116.252Y-93.431
X116.743Y-83.27
X116.875Y-103.673
X117.534Y-82.95
X117.63Y-118.427
X117.635Y-120.106
X117.755Y-108.177
X117.864Y-94.186
X118.245Y-129.25
X118.245Y-131.739
X118.27Y-130.545
X118.295Y-82.666
X118.38Y-69.627
X118.644Y-88.552
X118.78Y-108.202
X119.06Y-102.416
X119.35Y-92.667
X119.439Y-88.2
X119.5Y-79.557
X119.73Y-108.227
X119.794Y-80.279
X120.031Y-101.741
X120.384Y-89.86
X120.44Y-88.367
X120.652Y-80.841
X120.66Y-115.297
X120.683Y-81.98
X120.709Y-73.268
X120.728Y-101.306
X121.267Y-72.76
X121.279Y-87.991
X121.3Y-100.734
X121.4Y-114.187
X121.73Y-81.774
X121.73Y-90.577
X121.801Y-73.802
X121.926Y-95.789
X121.973Y-67.011
X122.029Y-115.153
X122.031Y-113.108
X122.15Y-85.303
X122.309Y-73.243
X122.443Y-96.474
X122.88Y-108.627
X123.096Y-113.146
X123.13Y-65.677
X123.14Y-85.532
X123.49Y-95.474
X123.51Y-103.367
X123.54Y-102.517
X123.57Y-101.547
X123.643Y-86.759
X123.844Y-85.924
X124.0Y-78.217
X124.22Y-108.517
X124.8Y-99.967
X124.849Y-105.018
X124.874Y-103.342
X125.13Y-108.517
X125.687Y-47.233
X125.701Y-86.806
X125.73Y-99.977
X125.77Y-69.927
X125.82Y-129.617
X125.88Y-131.137
X126.322Y-81.066
X126.34Y-86.23
X126.389Y-67.863
X126.525Y-90.482
X126.652Y-79.491
X127.84Y-125.127
X127.98Y-121.887
X128.278Y-79.339
X128.954Y-99.424
X129.386Y-94.87
X129.986Y-95.47
X130.313Y-93.193
X130.49Y-99.937
X130.661Y-96.145
X131.18Y-99.057
X131.453Y-87.437
X131.62Y-114.037
X131.75Y-89.557
X131.811Y-98.346
X132.69Y-55.337
X132.76Y-127.507
X132.77Y-128.397
X132.901Y-97.83
X133.111Y-61.217
X133.256Y-70.398
X134.16Y-61.907
X134.425Y-84.063
X134.5Y-100.177
X134.856Y-102.377
X134.856Y-103.189
X134.88Y-105.127
X134.89Y-107.277
X134.9Y-106.417
X135.246Y-84.111
X135.68Y-57.307
X135.73Y-83.401
X136.457Y-82.942
X136.482Y-108.727
X137.1Y-107.447
X137.219Y-85.638
X137.38Y-57.217
X137.74Y-97.637
X137.88Y-79.127
X137.91Y-103.497
X138.48Y-57.237
X139.06Y-94.237
X139.073Y-78.628
X139.327Y-83.022
X139.399Y-56.565
X139.46Y-57.527
X139.936Y-82.082
X142.76Y-94.077
X143.38Y-95.627
X143.75Y-91.047
X143.848Y-63.438
X143.88Y-94.127
X144.26Y-65.067
X145.29Y-67.967
X146.29Y-70.297
X146.947Y-71.465
X147.45Y-72.857
X148.06Y-74.667
X149.51Y-77.817
X149.81Y-90.947
X150.38Y-80.127
X150.55Y-87.567
X150.56Y-86.717
X150.62Y-95.077
X151.63Y-85.937
X152.54Y-85.927
X154.5Y-87.937
X155.57Y-90.547
T4
X136.918Y-117.713
X138.668Y-114.682
X144.919Y-102.713
X146.669Y-99.682
T5
X60.128Y-90.464
X84.38Y-130.897
X88.042Y-48.839
X130.38Y-130.964
X134.88Y-53.789
X153.65Y-90.127
T6
X113.24Y-65.022
X119.02Y-65.022
T7
X97.88Y-62.627
X105.88Y-62.627
T8
X84.971Y-62.143
X92.489Y-127.37
X122.131Y-127.37
X128.176Y-56.072
T3
X111.812Y-61.672G85X111.812Y-61.072
G05
X111.812Y-66.102G85X111.812Y-65.002
G05
X120.448Y-61.672G85X120.448Y-61.072
G05
X120.448Y-66.102G85X120.448Y-65.002
G05
M30
