%TF.GenerationSoftware,KiCad,Pcbnew,9.0.2*%
%TF.CreationDate,2026-05-13T09:57:27+01:00*%
%TF.ProjectId,raylar_v1_00,7261796c-6172-45f7-9631-5f30302e6b69,1*%
%TF.SameCoordinates,Original*%
%TF.FileFunction,Other,User*%
%FSLAX46Y46*%
G04 Gerber Fmt 4.6, Leading zero omitted, Abs format (unit mm)*
G04 Created by KiCad (PCBNEW 9.0.2) date 2026-05-13 09:57:27*
%MOMM*%
%LPD*%
G01*
G04 APERTURE LIST*
%ADD10C,0.050000*%
%ADD11C,0.100000*%
G04 APERTURE END LIST*
D10*
%TO.C,TP2*%
X118062843Y-113242400D02*
G75*
G02*
X117497157Y-113242400I-282843J0D01*
G01*
X117497157Y-113242400D02*
G75*
G02*
X118062843Y-113242400I282843J0D01*
G01*
%TO.C,R18*%
X98670000Y-74576668D02*
X99610000Y-74576668D01*
X98670000Y-76436668D02*
X98670000Y-74576668D01*
X99610000Y-74576668D02*
X99610000Y-76436668D01*
X99610000Y-76436668D02*
X98670000Y-76436668D01*
%TO.C,R16*%
X135428100Y-102166600D02*
X137288100Y-102166600D01*
X135428100Y-103106600D02*
X135428100Y-102166600D01*
X137288100Y-102166600D02*
X137288100Y-103106600D01*
X137288100Y-103106600D02*
X135428100Y-103106600D01*
%TO.C,REF\u002A\u002A*%
X88020800Y-62143068D02*
G75*
G02*
X81920800Y-62143068I-3050000J0D01*
G01*
X81920800Y-62143068D02*
G75*
G02*
X88020800Y-62143068I3050000J0D01*
G01*
%TO.C,R28*%
X92950000Y-83656700D02*
X94810000Y-83656700D01*
X92950000Y-84596700D02*
X92950000Y-83656700D01*
X94810000Y-83656700D02*
X94810000Y-84596700D01*
X94810000Y-84596700D02*
X92950000Y-84596700D01*
%TO.C,C7*%
X109411264Y-91808470D02*
X110061802Y-91157932D01*
X110061802Y-91157932D02*
X111348736Y-92444866D01*
X110698198Y-93095404D02*
X109411264Y-91808470D01*
X111348736Y-92444866D02*
X110698198Y-93095404D01*
%TO.C,J10*%
X97070000Y-115776700D02*
X76070000Y-115776700D01*
X76070000Y-121176700D01*
X97070000Y-121176700D01*
X97070000Y-115776700D01*
%TO.C,D8*%
X85710490Y-56293195D02*
X88670490Y-56293195D01*
X85710490Y-57753195D02*
X85710490Y-56293195D01*
X88670490Y-56293195D02*
X88670490Y-57753195D01*
X88670490Y-57753195D02*
X85710490Y-57753195D01*
%TO.C,R33*%
X72640000Y-97666668D02*
X73580000Y-97666668D01*
X72640000Y-99526668D02*
X72640000Y-97666668D01*
X73580000Y-97666668D02*
X73580000Y-99526668D01*
X73580000Y-99526668D02*
X72640000Y-99526668D01*
%TO.C,R27*%
X92940000Y-82156700D02*
X94800000Y-82156700D01*
X92940000Y-83096700D02*
X92940000Y-82156700D01*
X94800000Y-82156700D02*
X94800000Y-83096700D01*
X94800000Y-83096700D02*
X92940000Y-83096700D01*
%TO.C,R20*%
X106130000Y-74386668D02*
X107070000Y-74386668D01*
X106130000Y-76246668D02*
X106130000Y-74386668D01*
X107070000Y-74386668D02*
X107070000Y-76246668D01*
X107070000Y-76246668D02*
X106130000Y-76246668D01*
%TO.C,J7*%
X72014395Y-105775550D02*
X72880419Y-105275551D01*
X74830421Y-108653050D01*
X73964395Y-109153050D01*
X74614395Y-110278883D01*
X72535934Y-111478883D01*
X72685934Y-111738690D01*
X70650774Y-112913690D01*
X67100774Y-106764910D01*
X69135934Y-105589910D01*
X69285934Y-105849717D01*
X71364395Y-104649717D01*
X72014395Y-105775550D01*
%TO.C,REF\u002A\u002A*%
X95539200Y-127370268D02*
G75*
G02*
X89439200Y-127370268I-3050000J0D01*
G01*
X89439200Y-127370268D02*
G75*
G02*
X95539200Y-127370268I3050000J0D01*
G01*
%TO.C,D5*%
X128107700Y-107963268D02*
X130207700Y-107963268D01*
X128107700Y-112643268D02*
X128107700Y-107963268D01*
X130207700Y-107963268D02*
X130207700Y-112643268D01*
X130207700Y-112643268D02*
X128107700Y-112643268D01*
%TO.C,C6*%
X112536264Y-94533470D02*
X113186802Y-93882932D01*
X113186802Y-93882932D02*
X114473736Y-95169866D01*
X113823198Y-95820404D02*
X112536264Y-94533470D01*
X114473736Y-95169866D02*
X113823198Y-95820404D01*
%TO.C,Y1*%
X106786608Y-95981357D02*
X109120060Y-93647905D01*
X106786608Y-95981357D02*
X109685746Y-98880495D01*
X109120060Y-93647905D02*
X112019198Y-96547043D01*
X112019198Y-96547043D02*
X109685746Y-98880495D01*
%TO.C,Y2*%
X110026320Y-91117353D02*
X108470685Y-92672988D01*
X105783680Y-89985983D01*
X107339315Y-88430348D01*
X110026320Y-91117353D01*
%TO.C,R12*%
X120410000Y-67696700D02*
X121350000Y-67696700D01*
X120410000Y-69556700D02*
X120410000Y-67696700D01*
X121350000Y-67696700D02*
X121350000Y-69556700D01*
X121350000Y-69556700D02*
X120410000Y-69556700D01*
%TO.C,JP6*%
D11*
X93959300Y-77026700D02*
X91759300Y-77026700D01*
X91759300Y-75226700D01*
X93959300Y-75226700D01*
X93959300Y-77026700D01*
D10*
%TO.C,C9*%
X119571864Y-74969102D02*
X120222402Y-74318564D01*
X120222402Y-74318564D02*
X121509336Y-75605498D01*
X120858798Y-76256036D02*
X119571864Y-74969102D01*
X121509336Y-75605498D02*
X120858798Y-76256036D01*
%TO.C,C38*%
X151160000Y-86556668D02*
X152980000Y-86556668D01*
X151160000Y-87476668D02*
X151160000Y-86556668D01*
X152980000Y-86556668D02*
X152980000Y-87476668D01*
X152980000Y-87476668D02*
X151160000Y-87476668D01*
%TO.C,R3*%
X125440000Y-122156700D02*
X127300000Y-122156700D01*
X125440000Y-123096700D02*
X125440000Y-122156700D01*
X127300000Y-122156700D02*
X127300000Y-123096700D01*
X127300000Y-123096700D02*
X125440000Y-123096700D01*
%TO.C,J6*%
X97070000Y-98876700D02*
X76070000Y-98876700D01*
X76070000Y-93476700D01*
X97070000Y-93476700D01*
X97070000Y-98876700D01*
%TO.C,R38*%
X70604200Y-61292068D02*
X72464200Y-61292068D01*
X70604200Y-62232068D02*
X70604200Y-61292068D01*
X72464200Y-61292068D02*
X72464200Y-62232068D01*
X72464200Y-62232068D02*
X70604200Y-62232068D01*
%TO.C,J9*%
X135899440Y-67273917D02*
X143088009Y-64514483D01*
X143088009Y-64514483D02*
X150520560Y-83876941D01*
X143331991Y-86636375D02*
X135899440Y-67273917D01*
X150520560Y-83876941D02*
X143331991Y-86636375D01*
%TO.C,TP1*%
X118062843Y-111626700D02*
G75*
G02*
X117497157Y-111626700I-282843J0D01*
G01*
X117497157Y-111626700D02*
G75*
G02*
X118062843Y-111626700I282843J0D01*
G01*
%TO.C,C2*%
X108725264Y-92488870D02*
X109375802Y-91838332D01*
X109375802Y-91838332D02*
X110662736Y-93125266D01*
X110012198Y-93775804D02*
X108725264Y-92488870D01*
X110662736Y-93125266D02*
X110012198Y-93775804D01*
%TO.C,C46*%
X86420000Y-130236700D02*
X87340000Y-130236700D01*
X86420000Y-132056700D02*
X86420000Y-130236700D01*
X87340000Y-130236700D02*
X87340000Y-132056700D01*
X87340000Y-132056700D02*
X86420000Y-132056700D01*
%TO.C,C35*%
X64670000Y-77556668D02*
X65590000Y-77556668D01*
X64670000Y-79376668D02*
X64670000Y-77556668D01*
X65590000Y-77556668D02*
X65590000Y-79376668D01*
X65590000Y-79376668D02*
X64670000Y-79376668D01*
%TO.C,C33*%
X101528800Y-74593468D02*
X102448800Y-74593468D01*
X101528800Y-76413468D02*
X101528800Y-74593468D01*
X102448800Y-74593468D02*
X102448800Y-76413468D01*
X102448800Y-76413468D02*
X101528800Y-76413468D01*
%TO.C,C30*%
X117820000Y-108736700D02*
X118740000Y-108736700D01*
X117820000Y-110556700D02*
X117820000Y-108736700D01*
X118740000Y-108736700D02*
X118740000Y-110556700D01*
X118740000Y-110556700D02*
X117820000Y-110556700D01*
%TO.C,D3*%
X138282200Y-96576699D02*
X142962199Y-96576700D01*
X138282201Y-98676700D02*
X138282200Y-96576699D01*
X142962199Y-96576700D02*
X142962200Y-98676701D01*
X142962200Y-98676701D02*
X138282201Y-98676700D01*
%TO.C,D2*%
X144386647Y-89211769D02*
X149066646Y-89211770D01*
X144386648Y-91311770D02*
X144386647Y-89211769D01*
X149066646Y-89211770D02*
X149066647Y-91311771D01*
X149066647Y-91311771D02*
X144386648Y-91311770D01*
%TO.C,R35*%
X77440000Y-103156700D02*
X79300000Y-103156700D01*
X77440000Y-104096700D02*
X77440000Y-103156700D01*
X79300000Y-103156700D02*
X79300000Y-104096700D01*
X79300000Y-104096700D02*
X77440000Y-104096700D01*
%TO.C,TP8*%
X135962843Y-57306668D02*
G75*
G02*
X135397157Y-57306668I-282843J0D01*
G01*
X135397157Y-57306668D02*
G75*
G02*
X135962843Y-57306668I282843J0D01*
G01*
%TO.C,R4*%
X125440000Y-123156700D02*
X127300000Y-123156700D01*
X125440000Y-124096700D02*
X125440000Y-123156700D01*
X127300000Y-123156700D02*
X127300000Y-124096700D01*
X127300000Y-124096700D02*
X125440000Y-124096700D01*
%TO.C,C24*%
X135180000Y-99646700D02*
X138580000Y-99646700D01*
X135180000Y-101606700D02*
X135180000Y-99646700D01*
X138580000Y-99646700D02*
X138580000Y-101606700D01*
X138580000Y-101606700D02*
X135180000Y-101606700D01*
%TO.C,REF\u002A\u002A*%
X131226200Y-56072468D02*
G75*
G02*
X125126200Y-56072468I-3050000J0D01*
G01*
X125126200Y-56072468D02*
G75*
G02*
X131226200Y-56072468I3050000J0D01*
G01*
%TO.C,C39*%
X127501001Y-129477908D02*
X128421001Y-129477908D01*
X127501001Y-131297908D02*
X127501001Y-129477908D01*
X128421001Y-129477908D02*
X128421001Y-131297908D01*
X128421001Y-131297908D02*
X127501001Y-131297908D01*
%TO.C,J5*%
X107480000Y-59226701D02*
X108230000Y-59226701D01*
X108230000Y-61826701D01*
X109380000Y-61826700D01*
X109380000Y-64226700D01*
X108330000Y-64226700D01*
X108330000Y-71626700D01*
X109380000Y-71626700D01*
X109380000Y-73426700D01*
X107930000Y-73426700D01*
X107930000Y-74076700D01*
X98180000Y-74076700D01*
X98180000Y-73426700D01*
X93180000Y-73426700D01*
X93180000Y-71826700D01*
X93530000Y-71826700D01*
X93530000Y-64226700D01*
X92480000Y-64226700D01*
X92480000Y-61826700D01*
X93630001Y-61826700D01*
X93630000Y-58526700D01*
X96280000Y-58526700D01*
X96280000Y-46126700D01*
X107480000Y-46126700D01*
X107480000Y-59226701D01*
%TO.C,U7*%
X66630000Y-66276700D02*
X88630000Y-66276700D01*
X66630000Y-88276700D02*
X66630000Y-66276700D01*
X88630000Y-66276700D02*
X88630000Y-88276700D01*
X88630000Y-88276700D02*
X66630000Y-88276700D01*
%TO.C,C50*%
X142297500Y-91716668D02*
X143217500Y-91716668D01*
X142297500Y-93536668D02*
X142297500Y-91716668D01*
X143217500Y-91716668D02*
X143217500Y-93536668D01*
X143217500Y-93536668D02*
X142297500Y-93536668D01*
%TO.C,C42*%
X60950000Y-93166700D02*
X62770000Y-93166700D01*
X60950000Y-94086700D02*
X60950000Y-93166700D01*
X62770000Y-93166700D02*
X62770000Y-94086700D01*
X62770000Y-94086700D02*
X60950000Y-94086700D01*
%TO.C,C10*%
X106351133Y-83916878D02*
X107638067Y-82629944D01*
X107001671Y-84567416D02*
X106351133Y-83916878D01*
X107638067Y-82629944D02*
X108288605Y-83280482D01*
X108288605Y-83280482D02*
X107001671Y-84567416D01*
%TO.C,R5*%
X145860613Y-93376407D02*
X147720613Y-93376407D01*
X145860613Y-94316407D02*
X145860613Y-93376407D01*
X147720613Y-93376407D02*
X147720613Y-94316407D01*
X147720613Y-94316407D02*
X145860613Y-94316407D01*
%TO.C,C53*%
X143297500Y-91716668D02*
X144217500Y-91716668D01*
X143297500Y-93536668D02*
X143297500Y-91716668D01*
X144217500Y-91716668D02*
X144217500Y-93536668D01*
X144217500Y-93536668D02*
X143297500Y-93536668D01*
%TO.C,JP8*%
D11*
X66510000Y-79506668D02*
X64710000Y-79506668D01*
X64710000Y-81706668D01*
X66510000Y-81706668D01*
X66510000Y-79506668D01*
D10*
%TO.C,J2*%
X150859492Y-100022964D02*
X147309492Y-106171746D01*
X140900904Y-102471746D01*
X144450904Y-96322964D01*
X150859492Y-100022964D01*
%TO.C,C45*%
X126540000Y-129466668D02*
X127460000Y-129466668D01*
X126540000Y-131286668D02*
X126540000Y-129466668D01*
X127460000Y-129466668D02*
X127460000Y-131286668D01*
X127460000Y-131286668D02*
X126540000Y-131286668D01*
%TO.C,SW2*%
X126840000Y-67256700D02*
X131920000Y-67256700D01*
X131920000Y-69996700D01*
X126840000Y-69996700D01*
X126840000Y-67256700D01*
%TO.C,R14*%
X128360000Y-114186668D02*
X129300000Y-114186668D01*
X128360000Y-116046668D02*
X128360000Y-114186668D01*
X129300000Y-114186668D02*
X129300000Y-116046668D01*
X129300000Y-116046668D02*
X128360000Y-116046668D01*
%TO.C,U9*%
X135930000Y-91384168D02*
X138430000Y-91384168D01*
X135930000Y-93884168D02*
X135930000Y-91384168D01*
X138430000Y-91384168D02*
X138430000Y-93884168D01*
X138430000Y-93884168D02*
X135930000Y-93884168D01*
%TO.C,C5*%
X130161264Y-92119866D02*
X131448198Y-90832932D01*
X130811802Y-92770404D02*
X130161264Y-92119866D01*
X131448198Y-90832932D02*
X132098736Y-91483470D01*
X132098736Y-91483470D02*
X130811802Y-92770404D01*
%TO.C,R9*%
X117450000Y-68156700D02*
X119310000Y-68156700D01*
X117450000Y-69096700D02*
X117450000Y-68156700D01*
X119310000Y-68156700D02*
X119310000Y-69096700D01*
X119310000Y-69096700D02*
X117450000Y-69096700D01*
%TO.C,U5*%
X99280000Y-106626700D02*
X116280000Y-106626700D01*
X99280000Y-133626700D02*
X99280000Y-106626700D01*
X116280000Y-106626700D02*
X116280000Y-133626700D01*
X116280000Y-133626700D02*
X99280000Y-133626700D01*
%TO.C,C48*%
X84500000Y-50496668D02*
X85420000Y-50496668D01*
X84500000Y-52316668D02*
X84500000Y-50496668D01*
X85420000Y-50496668D02*
X85420000Y-52316668D01*
X85420000Y-52316668D02*
X84500000Y-52316668D01*
%TO.C,D10*%
X85710490Y-53293195D02*
X88670490Y-53293195D01*
X85710490Y-54753195D02*
X85710490Y-53293195D01*
X88670490Y-53293195D02*
X88670490Y-54753195D01*
X88670490Y-54753195D02*
X85710490Y-54753195D01*
%TO.C,C18*%
X125470000Y-124166700D02*
X127290000Y-124166700D01*
X125470000Y-125086700D02*
X125470000Y-124166700D01*
X127290000Y-124166700D02*
X127290000Y-125086700D01*
X127290000Y-125086700D02*
X125470000Y-125086700D01*
%TO.C,J8*%
X68194194Y-99137550D02*
X69060219Y-98637551D01*
X71010221Y-102015049D01*
X70144194Y-102515049D01*
X70794196Y-103640883D01*
X68715734Y-104840883D01*
X68865733Y-105100690D01*
X66830574Y-106275692D01*
X63280576Y-100126910D01*
X65315734Y-98951910D01*
X65465733Y-99211717D01*
X67544195Y-98011718D01*
X68194194Y-99137550D01*
%TO.C,R11*%
X130010000Y-114166668D02*
X130950000Y-114166668D01*
X130010000Y-116026668D02*
X130010000Y-114166668D01*
X130950000Y-114166668D02*
X130950000Y-116026668D01*
X130950000Y-116026668D02*
X130010000Y-116026668D01*
%TO.C,U10*%
X77630000Y-104376700D02*
X88130000Y-104376700D01*
X77630000Y-113876700D02*
X77630000Y-104376700D01*
X88130000Y-104376700D02*
X88130000Y-113876700D01*
X88130000Y-113876700D02*
X77630000Y-113876700D01*
%TO.C,C51*%
X136490000Y-94024168D02*
X137410000Y-94024168D01*
X136490000Y-95844168D02*
X136490000Y-94024168D01*
X137410000Y-94024168D02*
X137410000Y-95844168D01*
X137410000Y-95844168D02*
X136490000Y-95844168D01*
%TO.C,TP7*%
X153792843Y-87956668D02*
G75*
G02*
X153227157Y-87956668I-282843J0D01*
G01*
X153227157Y-87956668D02*
G75*
G02*
X153792843Y-87956668I282843J0D01*
G01*
%TO.C,U8*%
X139757500Y-91356668D02*
X142257500Y-91356668D01*
X139757500Y-93856668D02*
X139757500Y-91356668D01*
X142257500Y-91356668D02*
X142257500Y-93856668D01*
X142257500Y-93856668D02*
X139757500Y-93856668D01*
%TO.C,C43*%
X85500000Y-50496668D02*
X86420000Y-50496668D01*
X85500000Y-52316668D02*
X85500000Y-50496668D01*
X86420000Y-50496668D02*
X86420000Y-52316668D01*
X86420000Y-52316668D02*
X85500000Y-52316668D01*
%TO.C,C40*%
X136950000Y-54666700D02*
X138770000Y-54666700D01*
X136950000Y-55586700D02*
X136950000Y-54666700D01*
X138770000Y-54666700D02*
X138770000Y-55586700D01*
X138770000Y-55586700D02*
X136950000Y-55586700D01*
%TO.C,C49*%
X137470000Y-94024168D02*
X138390000Y-94024168D01*
X137470000Y-95844168D02*
X137470000Y-94024168D01*
X138390000Y-94024168D02*
X138390000Y-95844168D01*
X138390000Y-95844168D02*
X137470000Y-95844168D01*
%TO.C,SW3*%
X73286800Y-60315868D02*
X78366800Y-60315868D01*
X78366800Y-63055868D01*
X73286800Y-63055868D01*
X73286800Y-60315868D01*
%TO.C,C13*%
X106354064Y-94770066D02*
X107640998Y-93483132D01*
X107004602Y-95420604D02*
X106354064Y-94770066D01*
X107640998Y-93483132D02*
X108291536Y-94133670D01*
X108291536Y-94133670D02*
X107004602Y-95420604D01*
%TO.C,R30*%
X83557990Y-53553195D02*
X85417990Y-53553195D01*
X83557990Y-54493195D02*
X83557990Y-53553195D01*
X85417990Y-53553195D02*
X85417990Y-54493195D01*
X85417990Y-54493195D02*
X83557990Y-54493195D01*
%TO.C,J3*%
X120630000Y-60516700D02*
X121030000Y-60516700D01*
X121030000Y-62266700D01*
X120630000Y-62266700D01*
X120630000Y-64416700D01*
X121030000Y-64416700D01*
X121030000Y-66716700D01*
X111230000Y-66716700D01*
X111230000Y-64416700D01*
X111630000Y-64416700D01*
X111630000Y-62266700D01*
X111230000Y-62266700D01*
X111230000Y-60516700D01*
X111630000Y-60516700D01*
X111630000Y-58616700D01*
X120630000Y-58616700D01*
X120630000Y-60516700D01*
%TO.C,R37*%
X127536300Y-49989068D02*
X129396300Y-49989068D01*
X127536300Y-50929068D02*
X127536300Y-49989068D01*
X129396300Y-49989068D02*
X129396300Y-50929068D01*
X129396300Y-50929068D02*
X127536300Y-50929068D01*
%TO.C,R29*%
X83537990Y-55053195D02*
X85397990Y-55053195D01*
X83537990Y-55993195D02*
X83537990Y-55053195D01*
X85397990Y-55053195D02*
X85397990Y-55993195D01*
X85397990Y-55993195D02*
X83537990Y-55993195D01*
%TO.C,TP3*%
X74662843Y-90126700D02*
G75*
G02*
X74097157Y-90126700I-282843J0D01*
G01*
X74097157Y-90126700D02*
G75*
G02*
X74662843Y-90126700I282843J0D01*
G01*
%TO.C,C15*%
X106411264Y-93269866D02*
X107698198Y-91982932D01*
X107061802Y-93920404D02*
X106411264Y-93269866D01*
X107698198Y-91982932D02*
X108348736Y-92633470D01*
X108348736Y-92633470D02*
X107061802Y-93920404D01*
%TO.C,JP4*%
D11*
X125828400Y-105534068D02*
X127628400Y-105534068D01*
X127628400Y-103334068D01*
X125828400Y-103334068D01*
X125828400Y-105534068D01*
D10*
%TO.C,R8*%
X122223012Y-77006501D02*
X123538230Y-75691283D01*
X122887692Y-77671181D02*
X122223012Y-77006501D01*
X123538230Y-75691283D02*
X124202910Y-76355963D01*
X124202910Y-76355963D02*
X122887692Y-77671181D01*
%TO.C,C21*%
X126100000Y-105576668D02*
X128060000Y-105576668D01*
X126100000Y-108976668D02*
X126100000Y-105576668D01*
X128060000Y-105576668D02*
X128060000Y-108976668D01*
X128060000Y-108976668D02*
X126100000Y-108976668D01*
D11*
%TO.C,JP2*%
X115673503Y-98922379D02*
X114400711Y-100195171D01*
X112986497Y-98780957D01*
X114259289Y-97508165D01*
X115673503Y-98922379D01*
D10*
%TO.C,REF\u002A\u002A*%
X125181000Y-127370268D02*
G75*
G02*
X119081000Y-127370268I-3050000J0D01*
G01*
X119081000Y-127370268D02*
G75*
G02*
X125181000Y-127370268I3050000J0D01*
G01*
%TO.C,R25*%
X83537990Y-56553195D02*
X85397990Y-56553195D01*
X83537990Y-57493195D02*
X83537990Y-56553195D01*
X85397990Y-56553195D02*
X85397990Y-57493195D01*
X85397990Y-57493195D02*
X83537990Y-57493195D01*
%TO.C,C32*%
X119745800Y-108736700D02*
X120665800Y-108736700D01*
X119745800Y-110556700D02*
X119745800Y-108736700D01*
X120665800Y-108736700D02*
X120665800Y-110556700D01*
X120665800Y-110556700D02*
X119745800Y-110556700D01*
%TO.C,C17*%
X128680000Y-119146700D02*
X132080000Y-119146700D01*
X128680000Y-121106700D02*
X128680000Y-119146700D01*
X132080000Y-119146700D02*
X132080000Y-121106700D01*
X132080000Y-121106700D02*
X128680000Y-121106700D01*
%TO.C,R7*%
X121310372Y-76118860D02*
X122625590Y-74803642D01*
X121975052Y-76783540D02*
X121310372Y-76118860D01*
X122625590Y-74803642D02*
X123290270Y-75468322D01*
X123290270Y-75468322D02*
X121975052Y-76783540D01*
%TO.C,MK5*%
X58898000Y-88884200D02*
X62898000Y-88884200D01*
X58898000Y-92044200D02*
X58898000Y-88884200D01*
X62898000Y-88884200D02*
X62898000Y-92044200D01*
X62898000Y-92044200D02*
X58898000Y-92044200D01*
%TO.C,C26*%
X124340000Y-100706668D02*
X125260000Y-100706668D01*
X124340000Y-102526668D02*
X124340000Y-100706668D01*
X125260000Y-100706668D02*
X125260000Y-102526668D01*
X125260000Y-102526668D02*
X124340000Y-102526668D01*
%TO.C,JP5*%
D11*
X128070000Y-105517368D02*
X129870000Y-105517368D01*
X129870000Y-103317368D01*
X128070000Y-103317368D01*
X128070000Y-105517368D01*
D10*
%TO.C,C3*%
X111861264Y-95208470D02*
X112511802Y-94557932D01*
X112511802Y-94557932D02*
X113798736Y-95844866D01*
X113148198Y-96495404D02*
X111861264Y-95208470D01*
X113798736Y-95844866D02*
X113148198Y-96495404D01*
%TO.C,U4*%
X126560000Y-100376700D02*
X126560000Y-102876700D01*
X126560000Y-102876700D02*
X129200000Y-102876700D01*
X129200000Y-100376700D02*
X126560000Y-100376700D01*
X129200000Y-102876700D02*
X129200000Y-100376700D01*
%TO.C,MK2*%
X150880000Y-88546700D02*
X154880000Y-88546700D01*
X150880000Y-91706700D02*
X150880000Y-88546700D01*
X154880000Y-88546700D02*
X154880000Y-91706700D01*
X154880000Y-91706700D02*
X150880000Y-91706700D01*
%TO.C,C16*%
X132140000Y-67736668D02*
X133060000Y-67736668D01*
X132140000Y-69556668D02*
X132140000Y-67736668D01*
X133060000Y-67736668D02*
X133060000Y-69556668D01*
X133060000Y-69556668D02*
X132140000Y-69556668D01*
%TO.C,C47*%
X60950000Y-92166700D02*
X62770000Y-92166700D01*
X60950000Y-93086700D02*
X60950000Y-92166700D01*
X62770000Y-92166700D02*
X62770000Y-93086700D01*
X62770000Y-93086700D02*
X60950000Y-93086700D01*
%TO.C,C36*%
X65640000Y-77556668D02*
X66560000Y-77556668D01*
X65640000Y-79376668D02*
X65640000Y-77556668D01*
X66560000Y-77556668D02*
X66560000Y-79376668D01*
X66560000Y-79376668D02*
X65640000Y-79376668D01*
%TO.C,C19*%
X145880613Y-91386407D02*
X147700613Y-91386407D01*
X145880613Y-92306407D02*
X145880613Y-91386407D01*
X147700613Y-91386407D02*
X147700613Y-92306407D01*
X147700613Y-92306407D02*
X145880613Y-92306407D01*
%TO.C,JP7*%
D11*
X122827800Y-110065068D02*
X121027800Y-110065068D01*
X121027800Y-112265068D01*
X122827800Y-112265068D01*
X122827800Y-110065068D01*
D10*
%TO.C,C54*%
X78618000Y-60750468D02*
X79538000Y-60750468D01*
X78618000Y-62570468D02*
X78618000Y-60750468D01*
X79538000Y-60750468D02*
X79538000Y-62570468D01*
X79538000Y-62570468D02*
X78618000Y-62570468D01*
%TO.C,D9*%
X85710490Y-54793195D02*
X88670490Y-54793195D01*
X85710490Y-56253195D02*
X85710490Y-54793195D01*
X88670490Y-54793195D02*
X88670490Y-56253195D01*
X88670490Y-56253195D02*
X85710490Y-56253195D01*
%TO.C,R10*%
X112950000Y-68156700D02*
X114810000Y-68156700D01*
X112950000Y-69096700D02*
X112950000Y-68156700D01*
X114810000Y-68156700D02*
X114810000Y-69096700D01*
X114810000Y-69096700D02*
X112950000Y-69096700D01*
%TO.C,C34*%
X116820000Y-108736700D02*
X117740000Y-108736700D01*
X116820000Y-110556700D02*
X116820000Y-108736700D01*
X117740000Y-108736700D02*
X117740000Y-110556700D01*
X117740000Y-110556700D02*
X116820000Y-110556700D01*
D11*
%TO.C,JP3*%
X100926014Y-86353479D02*
X99370379Y-87909114D01*
X98097586Y-86636321D01*
X99653221Y-85080686D01*
X100926014Y-86353479D01*
D10*
%TO.C,C28*%
X118820000Y-108736700D02*
X119740000Y-108736700D01*
X118820000Y-110556700D02*
X118820000Y-108736700D01*
X119740000Y-108736700D02*
X119740000Y-110556700D01*
X119740000Y-110556700D02*
X118820000Y-110556700D01*
%TO.C,C29*%
X94920000Y-75216700D02*
X95840000Y-75216700D01*
X94920000Y-77036700D02*
X94920000Y-75216700D01*
X95840000Y-75216700D02*
X95840000Y-77036700D01*
X95840000Y-77036700D02*
X94920000Y-77036700D01*
%TO.C,C1*%
X105701133Y-83241878D02*
X106988067Y-81954944D01*
X106351671Y-83892416D02*
X105701133Y-83241878D01*
X106988067Y-81954944D02*
X107638605Y-82605482D01*
X107638605Y-82605482D02*
X106351671Y-83892416D01*
%TO.C,C44*%
X151140000Y-87556668D02*
X152960000Y-87556668D01*
X151140000Y-88476668D02*
X151140000Y-87556668D01*
X152960000Y-87556668D02*
X152960000Y-88476668D01*
X152960000Y-88476668D02*
X151140000Y-88476668D01*
%TO.C,C25*%
X135440000Y-103166700D02*
X137260000Y-103166700D01*
X135440000Y-104086700D02*
X135440000Y-103166700D01*
X137260000Y-103166700D02*
X137260000Y-104086700D01*
X137260000Y-104086700D02*
X135440000Y-104086700D01*
%TO.C,C23*%
X130630000Y-105656700D02*
X134030000Y-105656700D01*
X130630000Y-107616700D02*
X130630000Y-105656700D01*
X134030000Y-105656700D02*
X134030000Y-107616700D01*
X134030000Y-107616700D02*
X130630000Y-107616700D01*
%TO.C,R6*%
X145850613Y-92376407D02*
X147710613Y-92376407D01*
X145850613Y-93316407D02*
X145850613Y-92376407D01*
X147710613Y-92376407D02*
X147710613Y-93316407D01*
X147710613Y-93316407D02*
X145850613Y-93316407D01*
%TO.C,C31*%
X95920000Y-75216700D02*
X96840000Y-75216700D01*
X95920000Y-77036700D02*
X95920000Y-75216700D01*
X96840000Y-75216700D02*
X96840000Y-77036700D01*
X96840000Y-77036700D02*
X95920000Y-77036700D01*
%TO.C,C4*%
X120240964Y-74288502D02*
X120891502Y-73637964D01*
X120891502Y-73637964D02*
X122178436Y-74924898D01*
X121527898Y-75575436D02*
X120240964Y-74288502D01*
X122178436Y-74924898D02*
X121527898Y-75575436D01*
%TO.C,MK3*%
X128800000Y-128194200D02*
X131960000Y-128194200D01*
X128800000Y-132194200D02*
X128800000Y-128194200D01*
X131960000Y-128194200D02*
X131960000Y-132194200D01*
X131960000Y-132194200D02*
X128800000Y-132194200D01*
%TO.C,L1*%
X127035234Y-91275932D02*
X129804264Y-88506902D01*
X128955736Y-93196434D02*
X127035234Y-91275932D01*
X128955736Y-93196434D02*
X131724766Y-90427404D01*
X131724766Y-90427404D02*
X129804264Y-88506902D01*
%TO.C,C22*%
X126130000Y-109236668D02*
X128090000Y-109236668D01*
X126130000Y-112636668D02*
X126130000Y-109236668D01*
X128090000Y-109236668D02*
X128090000Y-112636668D01*
X128090000Y-112636668D02*
X126130000Y-112636668D01*
%TO.C,U3*%
X130630000Y-101586700D02*
X130630000Y-104686700D01*
X130630000Y-104686700D02*
X133130000Y-104686700D01*
X133130000Y-101586700D02*
X130630000Y-101586700D01*
X133130000Y-104686700D02*
X133130000Y-101586700D01*
%TO.C,D4*%
X121830000Y-60286700D02*
X123930000Y-60286700D01*
X121830000Y-64966700D02*
X121830000Y-60286700D01*
X123930000Y-60286700D02*
X123930000Y-64966700D01*
X123930000Y-64966700D02*
X121830000Y-64966700D01*
%TO.C,R26*%
X107950000Y-74186668D02*
X109810000Y-74186668D01*
X107950000Y-75126668D02*
X107950000Y-74186668D01*
X109810000Y-74186668D02*
X109810000Y-75126668D01*
X109810000Y-75126668D02*
X107950000Y-75126668D01*
%TO.C,R15*%
X133410000Y-102196700D02*
X134350000Y-102196700D01*
X133410000Y-104056700D02*
X133410000Y-102196700D01*
X134350000Y-102196700D02*
X134350000Y-104056700D01*
X134350000Y-104056700D02*
X133410000Y-104056700D01*
%TO.C,R1*%
X133128800Y-62187368D02*
X134068800Y-62187368D01*
X133128800Y-64047368D02*
X133128800Y-62187368D01*
X134068800Y-62187368D02*
X134068800Y-64047368D01*
X134068800Y-64047368D02*
X133128800Y-64047368D01*
%TO.C,TP5*%
X72662843Y-90126700D02*
G75*
G02*
X72097157Y-90126700I-282843J0D01*
G01*
X72097157Y-90126700D02*
G75*
G02*
X72662843Y-90126700I282843J0D01*
G01*
%TO.C,D11*%
X124486300Y-47729068D02*
X127446300Y-47729068D01*
X124486300Y-49189068D02*
X124486300Y-47729068D01*
X127446300Y-47729068D02*
X127446300Y-49189068D01*
X127446300Y-49189068D02*
X124486300Y-49189068D01*
%TO.C,R32*%
X140380000Y-90306668D02*
X142240000Y-90306668D01*
X140380000Y-91246668D02*
X140380000Y-90306668D01*
X142240000Y-90306668D02*
X142240000Y-91246668D01*
X142240000Y-91246668D02*
X140380000Y-91246668D01*
%TO.C,U2*%
X128330000Y-116076700D02*
X130960000Y-116076700D01*
X128330000Y-118676700D02*
X128330000Y-116076700D01*
X130960000Y-116076700D02*
X130960000Y-118676700D01*
X130960000Y-118676700D02*
X128330000Y-118676700D01*
%TO.C,R36*%
X127536300Y-47989068D02*
X129396300Y-47989068D01*
X127536300Y-48929068D02*
X127536300Y-47989068D01*
X129396300Y-47989068D02*
X129396300Y-48929068D01*
X129396300Y-48929068D02*
X127536300Y-48929068D01*
%TO.C,R2*%
X133130000Y-67716668D02*
X134070000Y-67716668D01*
X133130000Y-69576668D02*
X133130000Y-67716668D01*
X134070000Y-67716668D02*
X134070000Y-69576668D01*
X134070000Y-69576668D02*
X133130000Y-69576668D01*
%TO.C,MK4*%
X82800000Y-128126700D02*
X85960000Y-128126700D01*
X82800000Y-132126700D02*
X82800000Y-128126700D01*
X85960000Y-128126700D02*
X85960000Y-132126700D01*
X85960000Y-132126700D02*
X82800000Y-132126700D01*
%TO.C,R19*%
X97400000Y-74566668D02*
X98340000Y-74566668D01*
X97400000Y-76426668D02*
X97400000Y-74566668D01*
X98340000Y-74566668D02*
X98340000Y-76426668D01*
X98340000Y-76426668D02*
X97400000Y-76426668D01*
%TO.C,R31*%
X140120000Y-94066668D02*
X141980000Y-94066668D01*
X140120000Y-95006668D02*
X140120000Y-94066668D01*
X141980000Y-94066668D02*
X141980000Y-95006668D01*
X141980000Y-95006668D02*
X140120000Y-95006668D01*
%TO.C,J4*%
X136108367Y-110355513D02*
X143036570Y-114355513D01*
X140558367Y-102647887D02*
X136108367Y-110355513D01*
X143036570Y-114355513D02*
X147486570Y-106647887D01*
X147486570Y-106647887D02*
X140558367Y-102647887D01*
%TO.C,R23*%
X103760000Y-75286668D02*
X105620000Y-75286668D01*
X103760000Y-76226668D02*
X103760000Y-75286668D01*
X105620000Y-75286668D02*
X105620000Y-76226668D01*
X105620000Y-76226668D02*
X103760000Y-76226668D01*
%TO.C,C20*%
X124130000Y-109236668D02*
X126090000Y-109236668D01*
X124130000Y-112636668D02*
X124130000Y-109236668D01*
X126090000Y-109236668D02*
X126090000Y-112636668D01*
X126090000Y-112636668D02*
X124130000Y-112636668D01*
%TO.C,C11*%
X132160000Y-62216668D02*
X133080000Y-62216668D01*
X132160000Y-64036668D02*
X132160000Y-62216668D01*
X133080000Y-62216668D02*
X133080000Y-64036668D01*
X133080000Y-64036668D02*
X132160000Y-64036668D01*
%TO.C,C12*%
X104561264Y-91444866D02*
X105848198Y-90157932D01*
X105211802Y-92095404D02*
X104561264Y-91444866D01*
X105848198Y-90157932D02*
X106498736Y-90808470D01*
X106498736Y-90808470D02*
X105211802Y-92095404D01*
%TO.C,D1*%
X128540000Y-122076699D02*
X133219999Y-122076700D01*
X128540001Y-124176700D02*
X128540000Y-122076699D01*
X133219999Y-122076700D02*
X133220000Y-124176701D01*
X133220000Y-124176701D02*
X128540001Y-124176700D01*
%TO.C,TP4*%
X70162843Y-90126700D02*
G75*
G02*
X69597157Y-90126700I-282843J0D01*
G01*
X69597157Y-90126700D02*
G75*
G02*
X70162843Y-90126700I282843J0D01*
G01*
%TO.C,C37*%
X136950000Y-55666700D02*
X138770000Y-55666700D01*
X136950000Y-56586700D02*
X136950000Y-55666700D01*
X138770000Y-55666700D02*
X138770000Y-56586700D01*
X138770000Y-56586700D02*
X136950000Y-56586700D01*
%TO.C,D12*%
X124486300Y-49729068D02*
X127446300Y-49729068D01*
X124486300Y-51189068D02*
X124486300Y-49729068D01*
X127446300Y-49729068D02*
X127446300Y-51189068D01*
X127446300Y-51189068D02*
X124486300Y-51189068D01*
%TO.C,C52*%
X138490000Y-91696668D02*
X139410000Y-91696668D01*
X138490000Y-93516668D02*
X138490000Y-91696668D01*
X139410000Y-91696668D02*
X139410000Y-93516668D01*
X139410000Y-93516668D02*
X138490000Y-93516668D01*
%TO.C,C8*%
X127150675Y-89805455D02*
X128437609Y-88518521D01*
X127801213Y-90455993D02*
X127150675Y-89805455D01*
X128437609Y-88518521D02*
X129088147Y-89169059D01*
X129088147Y-89169059D02*
X127801213Y-90455993D01*
%TO.C,U1*%
X107181474Y-84479141D02*
X116232441Y-75428174D01*
X107181474Y-87774259D02*
X108227992Y-86727741D01*
X107626952Y-86126700D02*
X108227992Y-85525659D01*
X108227992Y-85525659D02*
X107181474Y-84479141D01*
X108227992Y-86727741D02*
X107626952Y-86126700D01*
X116232441Y-75428174D02*
X117278959Y-76474692D01*
X116232441Y-96825226D02*
X107181474Y-87774259D01*
X117278959Y-76474692D02*
X117880000Y-75873652D01*
X117278959Y-95778708D02*
X116232441Y-96825226D01*
X117880000Y-75873652D02*
X118481041Y-76474692D01*
X117880000Y-96379748D02*
X117278959Y-95778708D01*
X118481041Y-76474692D02*
X119527559Y-75428174D01*
X118481041Y-95778708D02*
X117880000Y-96379748D01*
X119527559Y-75428174D02*
X128578526Y-84479141D01*
X119527559Y-96825226D02*
X118481041Y-95778708D01*
X127532008Y-85525659D02*
X128133048Y-86126700D01*
X127532008Y-86727741D02*
X128578526Y-87774259D01*
X128133048Y-86126700D02*
X127532008Y-86727741D01*
X128578526Y-84479141D02*
X127532008Y-85525659D01*
X128578526Y-87774259D02*
X119527559Y-96825226D01*
D11*
%TO.C,JP1*%
X129926014Y-96853479D02*
X128370379Y-98409114D01*
X127097586Y-97136321D01*
X128653221Y-95580686D01*
X129926014Y-96853479D01*
D10*
%TO.C,MK1*%
X133300000Y-52559200D02*
X136460000Y-52559200D01*
X133300000Y-56559200D02*
X133300000Y-52559200D01*
X136460000Y-52559200D02*
X136460000Y-56559200D01*
X136460000Y-56559200D02*
X133300000Y-56559200D01*
%TO.C,R34*%
X71650000Y-97666668D02*
X72590000Y-97666668D01*
X71650000Y-99526668D02*
X71650000Y-97666668D01*
X72590000Y-97666668D02*
X72590000Y-99526668D01*
X72590000Y-99526668D02*
X71650000Y-99526668D01*
%TO.C,R24*%
X100130000Y-74573468D02*
X101070000Y-74573468D01*
X100130000Y-76433468D02*
X100130000Y-74573468D01*
X101070000Y-74573468D02*
X101070000Y-76433468D01*
X101070000Y-76433468D02*
X100130000Y-76433468D01*
%TO.C,R13*%
X121410000Y-67696700D02*
X122350000Y-67696700D01*
X121410000Y-69556700D02*
X121410000Y-67696700D01*
X122350000Y-67696700D02*
X122350000Y-69556700D01*
X122350000Y-69556700D02*
X121410000Y-69556700D01*
%TO.C,C41*%
X87420000Y-130236700D02*
X88340000Y-130236700D01*
X87420000Y-132056700D02*
X87420000Y-130236700D01*
X88340000Y-130236700D02*
X88340000Y-132056700D01*
X88340000Y-132056700D02*
X87420000Y-132056700D01*
%TO.C,SW1*%
X126840000Y-61256700D02*
X131920000Y-61256700D01*
X131920000Y-63996700D01*
X126840000Y-63996700D01*
X126840000Y-61256700D01*
%TO.C,MK6*%
X86462500Y-47608700D02*
X89622500Y-47608700D01*
X86462500Y-51608700D02*
X86462500Y-47608700D01*
X89622500Y-47608700D02*
X89622500Y-51608700D01*
X89622500Y-51608700D02*
X86462500Y-51608700D01*
%TO.C,TP6*%
X134362843Y-57276668D02*
G75*
G02*
X133797157Y-57276668I-282843J0D01*
G01*
X133797157Y-57276668D02*
G75*
G02*
X134362843Y-57276668I282843J0D01*
G01*
%TO.C,J1*%
X142859297Y-115022964D02*
X139309297Y-121171746D01*
X132900709Y-117471746D01*
X136450709Y-111322964D01*
X142859297Y-115022964D01*
%TO.C,C14*%
X110087864Y-98605466D02*
X111374798Y-97318532D01*
X110738402Y-99256004D02*
X110087864Y-98605466D01*
X111374798Y-97318532D02*
X112025336Y-97969070D01*
X112025336Y-97969070D02*
X110738402Y-99256004D01*
%TO.C,C27*%
X125340000Y-100706668D02*
X126260000Y-100706668D01*
X125340000Y-102526668D02*
X125340000Y-100706668D01*
X126260000Y-100706668D02*
X126260000Y-102526668D01*
X126260000Y-102526668D02*
X125340000Y-102526668D01*
%TO.C,R17*%
X135450000Y-104156700D02*
X137310000Y-104156700D01*
X135450000Y-105096700D02*
X135450000Y-104156700D01*
X137310000Y-104156700D02*
X137310000Y-105096700D01*
X137310000Y-105096700D02*
X135450000Y-105096700D01*
%TO.C,L2*%
X125522000Y-121084700D02*
X125522000Y-117168700D01*
X128238000Y-117168700D02*
X125522000Y-117168700D01*
X128238000Y-121084700D02*
X125522000Y-121084700D01*
X128238000Y-121084700D02*
X128238000Y-117168700D01*
%TD*%
M02*
