%TF.GenerationSoftware,KiCad,Pcbnew,9.0.2*%
%TF.CreationDate,2026-04-27T10:03:40+01:00*%
%TF.ProjectId,raylar_v1_00,7261796c-6172-45f7-9631-5f30302e6b69,1*%
%TF.SameCoordinates,Original*%
%TF.FileFunction,Copper,L2,Inr*%
%TF.FilePolarity,Positive*%
%FSLAX46Y46*%
G04 Gerber Fmt 4.6, Leading zero omitted, Abs format (unit mm)*
G04 Created by KiCad (PCBNEW 9.0.2) date 2026-04-27 10:03:40*
%MOMM*%
%LPD*%
G01*
G04 APERTURE LIST*
G04 Aperture macros list*
%AMRotRect*
0 Rectangle, with rotation*
0 The origin of the aperture is its center*
0 $1 length*
0 $2 width*
0 $3 Rotation angle, in degrees counterclockwise*
0 Add horizontal line*
21,1,$1,$2,0,0,$3*%
G04 Aperture macros list end*
%ADD10C,0.200000*%
%TA.AperFunction,NonConductor*%
%ADD11C,0.200000*%
%TD*%
%TA.AperFunction,ComponentPad*%
%ADD12RotRect,2.500000X2.500000X60.000000*%
%TD*%
%TA.AperFunction,ComponentPad*%
%ADD13C,2.500000*%
%TD*%
%TA.AperFunction,ComponentPad*%
%ADD14O,1.000000X1.600000*%
%TD*%
%TA.AperFunction,ComponentPad*%
%ADD15O,1.000000X2.100000*%
%TD*%
%TA.AperFunction,ComponentPad*%
%ADD16C,0.300000*%
%TD*%
%TA.AperFunction,ViaPad*%
%ADD17C,0.609600*%
%TD*%
%TA.AperFunction,Conductor*%
%ADD18C,0.508000*%
%TD*%
G04 APERTURE END LIST*
D10*
D11*
X92203486Y-132200925D02*
X92251105Y-132153306D01*
X92251105Y-132153306D02*
X92346343Y-132105687D01*
X92346343Y-132105687D02*
X92584438Y-132105687D01*
X92584438Y-132105687D02*
X92679676Y-132153306D01*
X92679676Y-132153306D02*
X92727295Y-132200925D01*
X92727295Y-132200925D02*
X92774914Y-132296163D01*
X92774914Y-132296163D02*
X92774914Y-132391401D01*
X92774914Y-132391401D02*
X92727295Y-132534258D01*
X92727295Y-132534258D02*
X92155867Y-133105687D01*
X92155867Y-133105687D02*
X92774914Y-133105687D01*
D12*
%TO.N,GND*%
%TO.C,J2*%
X144918595Y-102712900D03*
D13*
%TO.N,Net-(J2-Pin_2)*%
X146668595Y-99681811D03*
%TD*%
D14*
%TO.N,unconnected-(J3-NC-PadNC1)*%
%TO.C,J3*%
X120448000Y-61371700D03*
D15*
%TO.N,unconnected-(J3-NC-PadNC2)*%
X120448000Y-65551700D03*
%TO.N,unconnected-(J3-NC-PadNC3)*%
X111812000Y-65551700D03*
D14*
%TO.N,GND*%
X111812000Y-61371700D03*
%TD*%
D16*
%TO.N,N/C*%
%TO.C,U3*%
X131380000Y-103136700D03*
X132380000Y-103136700D03*
%TD*%
D12*
%TO.N,GND*%
%TO.C,J1*%
X136918400Y-117712900D03*
D13*
%TO.N,Net-(J1-Pin_2)*%
X138668400Y-114681811D03*
%TD*%
D17*
%TO.N,V_ADC_DC*%
X121925738Y-95789104D03*
X122880000Y-108626668D03*
%TO.N,V_ADC_SOLAR*%
X123489720Y-95474387D03*
X143380000Y-95626668D03*
%TO.N,Net-(JP4-B)*%
X124874200Y-103341868D03*
X130490000Y-99936668D03*
%TO.N,VDD_MCU*%
X125700862Y-86805668D03*
X104830000Y-84276668D03*
X130661443Y-96145226D03*
X112269000Y-89126668D03*
X97380000Y-86626668D03*
X120708600Y-73268268D03*
X129386443Y-94870226D03*
X129986443Y-95470226D03*
X121267400Y-72760268D03*
X116252327Y-93430919D03*
X112301200Y-99760468D03*
%TO.N,3.3V*%
X70410000Y-99326668D03*
X62630000Y-95006668D03*
X83600000Y-52216668D03*
X81330000Y-99726668D03*
X65600000Y-82386668D03*
X124800000Y-99966668D03*
X125730000Y-99976668D03*
X142760000Y-94076668D03*
X123096199Y-113146267D03*
X73947200Y-57850468D03*
X134160000Y-61906668D03*
X88860000Y-130656668D03*
X125770000Y-69926668D03*
X96333315Y-82069983D03*
X125820000Y-129616668D03*
X143750000Y-91046668D03*
X122029400Y-115152868D03*
X144260000Y-65066668D03*
X138480000Y-57236668D03*
X128954498Y-99423536D03*
X150550000Y-87566668D03*
X137380000Y-57216668D03*
X74420000Y-105686668D03*
X122031000Y-113108390D03*
X84042255Y-51658923D03*
X150560000Y-86716668D03*
X96420000Y-81146668D03*
%TO.N,GND*%
X134856400Y-102376668D03*
X112785015Y-66990868D03*
X134500000Y-100176668D03*
X101975077Y-76574268D03*
X150620000Y-95076668D03*
X115880000Y-92126668D03*
X133111000Y-61216668D03*
X121973288Y-67011436D03*
X94978400Y-73852468D03*
X118244800Y-131739068D03*
X105900400Y-82386868D03*
X134900000Y-106416668D03*
X104470000Y-70956668D03*
X118780000Y-108201668D03*
X105920000Y-70956668D03*
X118380000Y-69626668D03*
X73871000Y-59831668D03*
X73590000Y-105146668D03*
X133256200Y-70398068D03*
X126339626Y-86230431D03*
X139060000Y-94236668D03*
X87307600Y-52897468D03*
X65620000Y-76976668D03*
X151630000Y-85936668D03*
X117630000Y-118426668D03*
X88040000Y-47026668D03*
X125687000Y-47233268D03*
X155570000Y-90546668D03*
X152540000Y-85926668D03*
X134856400Y-103189468D03*
X118244800Y-129249868D03*
X137100000Y-107446668D03*
X117755000Y-108176668D03*
X131620000Y-114036668D03*
X117635200Y-120105868D03*
X123570000Y-101546668D03*
X130313411Y-93193257D03*
X96832600Y-73928668D03*
X118270200Y-130545268D03*
X97315200Y-131726700D03*
X87960000Y-71986668D03*
X89040000Y-131666668D03*
X122308800Y-73242868D03*
X143880000Y-94126668D03*
X125880000Y-131136668D03*
X139398821Y-56565272D03*
X87960000Y-70676668D03*
X98760000Y-107996668D03*
X84370000Y-132676668D03*
X146290000Y-70296668D03*
X108135600Y-98490468D03*
X106680000Y-91801668D03*
X119730000Y-108226668D03*
X61400000Y-87756668D03*
X139460000Y-57526668D03*
X117864268Y-94185562D03*
X127840000Y-125126668D03*
X134890000Y-107276668D03*
X127980000Y-121886668D03*
X85450000Y-52926668D03*
X87794131Y-69392320D03*
X112380000Y-69126668D03*
X125130000Y-108516668D03*
X88780000Y-108751668D03*
X97340600Y-129224468D03*
X123510000Y-103366668D03*
X121800800Y-73801668D03*
X78230000Y-114986668D03*
X69920000Y-98426668D03*
X97330000Y-130519868D03*
X136482000Y-108726668D03*
X98102600Y-120131268D03*
X137910000Y-103496668D03*
X109880000Y-72626668D03*
X123540000Y-102516668D03*
X98128000Y-118708868D03*
X78830000Y-92376668D03*
X124220000Y-108516668D03*
%TO.N,SDIO_D3*%
X110763564Y-78085873D03*
X111432163Y-73374087D03*
%TO.N,SDIO_D2*%
X109862800Y-78094268D03*
X110826728Y-72763870D03*
%TO.N,SD_SW*%
X111869400Y-74639868D03*
X111610160Y-77936904D03*
%TO.N,SDIO_D1*%
X119794200Y-80278668D03*
X113962921Y-76686317D03*
%TO.N,SDIO_D0*%
X120652109Y-80840868D03*
X113164800Y-76367068D03*
%TO.N,Net-(C5-Pad1)*%
X131750000Y-89556668D03*
X110252025Y-85119631D03*
%TO.N,Net-(JP3-A)*%
X112321370Y-87263799D03*
X101667599Y-86886068D03*
%TO.N,NRST*%
X148060000Y-74666668D03*
X114473841Y-84226760D03*
X134424600Y-84063268D03*
X143848000Y-63438468D03*
%TO.N,BOOT0*%
X111749000Y-83735387D03*
X126389185Y-67862836D03*
%TO.N,CHG_INT*%
X121730000Y-90576668D03*
X131180000Y-99056668D03*
%TO.N,Net-(JP4-A)*%
X123130000Y-65676668D03*
X124848800Y-105018268D03*
X137740000Y-97636668D03*
%TO.N,V_ADC_BATT*%
X122442859Y-96474266D03*
X134880000Y-105126668D03*
%TO.N,SYS_SD_BLUE*%
X97730212Y-78632422D03*
X82964200Y-57037668D03*
%TO.N,SYS_GPS_RED*%
X97307602Y-79380965D03*
X82710200Y-55691468D03*
%TO.N,SYS_GPS_GREEN*%
X82303800Y-54091268D03*
X96691000Y-79937668D03*
%TO.N,GPS_RX_STM_TX*%
X75268000Y-90692668D03*
X72348685Y-91325983D03*
%TO.N,GPS_PPS*%
X70880000Y-89626668D03*
X95380000Y-83126668D03*
%TO.N,TRACE_SWCLK*%
X115680000Y-75376668D03*
X145290000Y-67966668D03*
%TO.N,MIC_SD1*%
X149810000Y-90946668D03*
X115385352Y-84503467D03*
X132760000Y-127506668D03*
%TO.N,MIC_SD0*%
X135680000Y-57306668D03*
X112624311Y-77995346D03*
%TO.N,MIC_CCLK1*%
X85450000Y-47796668D03*
X132770000Y-128396668D03*
X116120000Y-87436668D03*
X131452800Y-87436668D03*
X86620000Y-129216668D03*
X154500000Y-87936668D03*
X63590000Y-94366668D03*
%TO.N,TRACE_SWDIO*%
X147450000Y-72856668D03*
X119500000Y-79556668D03*
%TO.N,RF_MOSI*%
X98680000Y-106986668D03*
X98570000Y-112146668D03*
%TO.N,RF_NRST*%
X120727632Y-101305614D03*
X120660000Y-115296668D03*
%TO.N,RF_CS*%
X120384100Y-89859751D03*
X120031000Y-101740805D03*
%TO.N,RF_BUSY*%
X119060500Y-102416168D03*
X119438728Y-88199518D03*
%TO.N,RF_IRQ*%
X121299729Y-100733517D03*
X121400000Y-114186668D03*
%TO.N,QWIIC_SDA*%
X99801619Y-81062468D03*
X71240000Y-99986668D03*
%TO.N,QWIIC_SCL*%
X98871105Y-80757606D03*
X75090200Y-98998468D03*
%TO.N,MIC_CCLK0*%
X132690000Y-55336668D03*
X111183600Y-84266468D03*
%TO.N,MIC_SD2*%
X64180000Y-93666668D03*
X118644275Y-88552393D03*
X83560000Y-127606668D03*
%TO.N,SENS_I2C_SDA*%
X132900600Y-97830068D03*
X121279432Y-87991361D03*
%TO.N,SENS_I2C_SCL*%
X120440000Y-88366668D03*
X131810915Y-98346275D03*
%TO.N,TRACE_SWO*%
X113503179Y-82260067D03*
X149510000Y-77816668D03*
%TO.N,MBUS_SCK*%
X115165711Y-101938842D03*
X123844328Y-85923655D03*
%TO.N,MBUS_RST*%
X110318502Y-101897468D03*
X111211165Y-87045963D03*
%TO.N,MBUS_MISO*%
X113509000Y-101587555D03*
X123140000Y-85532468D03*
%TO.N,MBUS_MOSI*%
X89380000Y-90800468D03*
X84190000Y-92367268D03*
%TO.N,MBUS_CS*%
X109518704Y-101969145D03*
X110353059Y-87096668D03*
%TO.N,MBUS_SDA*%
X112151157Y-94051665D03*
X111691600Y-102706868D03*
%TO.N,MBUS_SCL*%
X111124046Y-103307714D03*
X112151158Y-93261169D03*
%TO.N,MBUS_INT*%
X111996400Y-84952268D03*
X92880000Y-115126668D03*
%TO.N,VCC_SD*%
X110243800Y-74665268D03*
X102820000Y-71196668D03*
X93380000Y-74626668D03*
X93860800Y-73979468D03*
X104680000Y-74826668D03*
X100591800Y-76879068D03*
X101620000Y-71236668D03*
X97264400Y-77611668D03*
X107423200Y-75736068D03*
X97910000Y-76986668D03*
X99144000Y-76976668D03*
%TO.N,EXT_OPA_VINP*%
X135246292Y-84111404D03*
X116742619Y-83270468D03*
%TO.N,RCC_MCO*%
X146946800Y-71464868D03*
X124000000Y-78216668D03*
%TO.N,EXT_1*%
X139936400Y-82082068D03*
X121729802Y-81774268D03*
%TO.N,EXT_I2C_SCL*%
X137218600Y-85638068D03*
X126524921Y-90481746D03*
%TO.N,EXT_2*%
X120683198Y-81980467D03*
X139326800Y-83021868D03*
%TO.N,EXT_3*%
X126322000Y-81066068D03*
X150380000Y-80126668D03*
%TO.N,EXT_OPA_VOUT*%
X136456600Y-82941668D03*
X118295430Y-82666268D03*
%TO.N,EXT_I2C_SDA*%
X126652200Y-79491268D03*
X139072800Y-78627668D03*
%TO.N,EXT_AN_IN*%
X128277800Y-79338868D03*
X137880000Y-79126668D03*
%TO.N,EXT_OPA_VINM*%
X135729810Y-83400681D03*
X117533828Y-82949668D03*
%TO.N,PWM_BUZ*%
X94540000Y-103446668D03*
X119350000Y-92666668D03*
%TO.N,MBUS_TX_STM_TX*%
X112275800Y-103265668D03*
X122150000Y-85303066D03*
%TO.N,MBUS_RX_STM_RX*%
X123642841Y-86759310D03*
X116874510Y-103673378D03*
%TD*%
D18*
%TO.N,Net-(JP4-A)*%
X137740000Y-97636668D02*
X137640000Y-97736668D01*
%TD*%
%TA.AperFunction,Conductor*%
%TO.N,GND*%
G36*
X123570435Y-43746243D02*
G01*
X135524085Y-51252024D01*
X136484316Y-51854960D01*
X136486302Y-51856233D01*
X144333748Y-56994442D01*
X144346135Y-57002552D01*
X144391439Y-57055744D01*
X144393945Y-57061781D01*
X157312694Y-90651789D01*
X157318387Y-90721426D01*
X157304469Y-90758088D01*
X132505867Y-133907658D01*
X132505744Y-133907871D01*
X132415506Y-134064168D01*
X132364939Y-134112384D01*
X132308119Y-134126168D01*
X96395862Y-134126168D01*
X96328823Y-134106483D01*
X96283068Y-134053679D01*
X96273124Y-133984521D01*
X96299200Y-133927422D01*
X96299200Y-131383468D01*
X89949200Y-131383468D01*
X89949200Y-133930934D01*
X89973704Y-133975810D01*
X89968720Y-134045502D01*
X89926848Y-134101435D01*
X89861384Y-134125852D01*
X89852538Y-134126168D01*
X82451880Y-134126168D01*
X82384841Y-134106483D01*
X82344493Y-134064168D01*
X82298509Y-133984521D01*
X80477712Y-130830808D01*
X83879500Y-130830808D01*
X83879500Y-130962592D01*
X83881189Y-130968894D01*
X83913608Y-131089887D01*
X83937065Y-131130515D01*
X83979500Y-131204014D01*
X84072686Y-131297200D01*
X84186814Y-131363092D01*
X84314108Y-131397200D01*
X84314110Y-131397200D01*
X84445890Y-131397200D01*
X84445892Y-131397200D01*
X84573186Y-131363092D01*
X84687314Y-131297200D01*
X84780500Y-131204014D01*
X84846392Y-131089886D01*
X84880500Y-130962592D01*
X84880500Y-130830808D01*
X84846392Y-130703514D01*
X84846390Y-130703510D01*
X84811799Y-130643596D01*
X84811798Y-130643594D01*
X84791022Y-130607611D01*
X84780695Y-130589723D01*
X88351500Y-130589723D01*
X88351500Y-130723613D01*
X88386153Y-130852942D01*
X88453099Y-130968894D01*
X88547774Y-131063569D01*
X88663726Y-131130515D01*
X88793055Y-131165168D01*
X88793057Y-131165168D01*
X88926943Y-131165168D01*
X88926945Y-131165168D01*
X89056274Y-131130515D01*
X89172226Y-131063569D01*
X89266901Y-130968894D01*
X89307655Y-130898308D01*
X129879500Y-130898308D01*
X129879500Y-131030091D01*
X129913608Y-131157387D01*
X129940528Y-131204013D01*
X129979500Y-131271514D01*
X130072686Y-131364700D01*
X130186814Y-131430592D01*
X130314108Y-131464700D01*
X130314110Y-131464700D01*
X130445890Y-131464700D01*
X130445892Y-131464700D01*
X130573186Y-131430592D01*
X130687314Y-131364700D01*
X130780500Y-131271514D01*
X130846392Y-131157386D01*
X130880500Y-131030092D01*
X130880500Y-130898308D01*
X130846392Y-130771014D01*
X130780500Y-130656886D01*
X130687314Y-130563700D01*
X130630250Y-130530754D01*
X130573187Y-130497808D01*
X130509539Y-130480754D01*
X130445892Y-130463700D01*
X130314108Y-130463700D01*
X130186812Y-130497808D01*
X130072686Y-130563700D01*
X130072683Y-130563702D01*
X129979502Y-130656883D01*
X129979500Y-130656886D01*
X129913608Y-130771012D01*
X129879500Y-130898308D01*
X89307655Y-130898308D01*
X89333847Y-130852942D01*
X89368500Y-130723613D01*
X89368500Y-130589723D01*
X89333847Y-130460394D01*
X89266901Y-130344442D01*
X89172226Y-130249767D01*
X89056274Y-130182821D01*
X88926945Y-130148168D01*
X88793055Y-130148168D01*
X88663725Y-130182821D01*
X88547774Y-130249767D01*
X88547771Y-130249769D01*
X88453101Y-130344439D01*
X88453099Y-130344442D01*
X88386153Y-130460393D01*
X88386153Y-130460394D01*
X88351500Y-130589723D01*
X84780695Y-130589723D01*
X84780500Y-130589386D01*
X84687314Y-130496200D01*
X84625295Y-130460393D01*
X84573187Y-130430308D01*
X84509539Y-130413254D01*
X84445892Y-130396200D01*
X84314108Y-130396200D01*
X84186812Y-130430308D01*
X84072686Y-130496200D01*
X84072683Y-130496202D01*
X83979502Y-130589383D01*
X83979500Y-130589386D01*
X83913608Y-130703512D01*
X83879500Y-130830808D01*
X80477712Y-130830808D01*
X79507137Y-129149723D01*
X86111500Y-129149723D01*
X86111500Y-129283613D01*
X86146153Y-129412942D01*
X86213099Y-129528894D01*
X86307774Y-129623569D01*
X86423726Y-129690515D01*
X86553055Y-129725168D01*
X86553057Y-129725168D01*
X86686943Y-129725168D01*
X86686945Y-129725168D01*
X86816274Y-129690515D01*
X86932226Y-129623569D01*
X87006072Y-129549723D01*
X125311500Y-129549723D01*
X125311500Y-129683613D01*
X125346153Y-129812942D01*
X125413099Y-129928894D01*
X125507774Y-130023569D01*
X125623726Y-130090515D01*
X125753055Y-130125168D01*
X125753057Y-130125168D01*
X125886943Y-130125168D01*
X125886945Y-130125168D01*
X126016274Y-130090515D01*
X126132226Y-130023569D01*
X126226901Y-129928894D01*
X126293847Y-129812942D01*
X126328500Y-129683613D01*
X126328500Y-129549723D01*
X126293847Y-129420394D01*
X126226901Y-129304442D01*
X126132226Y-129209767D01*
X126016274Y-129142821D01*
X125886945Y-129108168D01*
X125753055Y-129108168D01*
X125623725Y-129142821D01*
X125507774Y-129209767D01*
X125507771Y-129209769D01*
X125413101Y-129304439D01*
X125413099Y-129304442D01*
X125346153Y-129420393D01*
X125346153Y-129420394D01*
X125311500Y-129549723D01*
X87006072Y-129549723D01*
X87026901Y-129528894D01*
X87093847Y-129412942D01*
X87128500Y-129283613D01*
X87128500Y-129149723D01*
X87093847Y-129020394D01*
X87026901Y-128904442D01*
X86932226Y-128809767D01*
X86816274Y-128742821D01*
X86686945Y-128708168D01*
X86553055Y-128708168D01*
X86423725Y-128742821D01*
X86307774Y-128809767D01*
X86307771Y-128809769D01*
X86213101Y-128904439D01*
X86213099Y-128904442D01*
X86146153Y-129020393D01*
X86146153Y-129020394D01*
X86111500Y-129149723D01*
X79507137Y-129149723D01*
X78577603Y-127539723D01*
X83051500Y-127539723D01*
X83051500Y-127673613D01*
X83086153Y-127802942D01*
X83153099Y-127918894D01*
X83247774Y-128013569D01*
X83363726Y-128080515D01*
X83493055Y-128115168D01*
X83493057Y-128115168D01*
X83626943Y-128115168D01*
X83626945Y-128115168D01*
X83756274Y-128080515D01*
X83872226Y-128013569D01*
X83966901Y-127918894D01*
X84033847Y-127802942D01*
X84068500Y-127673613D01*
X84068500Y-127539723D01*
X84041706Y-127439723D01*
X132251500Y-127439723D01*
X132251500Y-127573613D01*
X132286153Y-127702942D01*
X132353099Y-127818894D01*
X132353101Y-127818896D01*
X132403191Y-127868986D01*
X132436676Y-127930309D01*
X132431692Y-128000001D01*
X132403193Y-128044346D01*
X132363102Y-128084438D01*
X132363099Y-128084442D01*
X132296153Y-128200393D01*
X132296153Y-128200394D01*
X132261500Y-128329723D01*
X132261500Y-128463613D01*
X132296153Y-128592942D01*
X132363099Y-128708894D01*
X132457774Y-128803569D01*
X132573726Y-128870515D01*
X132703055Y-128905168D01*
X132703057Y-128905168D01*
X132836943Y-128905168D01*
X132836945Y-128905168D01*
X132966274Y-128870515D01*
X133082226Y-128803569D01*
X133176901Y-128708894D01*
X133243847Y-128592942D01*
X133278500Y-128463613D01*
X133278500Y-128329723D01*
X133243847Y-128200394D01*
X133176901Y-128084442D01*
X133126808Y-128034349D01*
X133093323Y-127973026D01*
X133098307Y-127903334D01*
X133126808Y-127858987D01*
X133166901Y-127818894D01*
X133233847Y-127702942D01*
X133268500Y-127573613D01*
X133268500Y-127439723D01*
X133233847Y-127310394D01*
X133166901Y-127194442D01*
X133072226Y-127099767D01*
X132956274Y-127032821D01*
X132826945Y-126998168D01*
X132693055Y-126998168D01*
X132563725Y-127032821D01*
X132447774Y-127099767D01*
X132447771Y-127099769D01*
X132353101Y-127194439D01*
X132353099Y-127194442D01*
X132286153Y-127310393D01*
X132251500Y-127439723D01*
X84041706Y-127439723D01*
X84033847Y-127410394D01*
X83966901Y-127294442D01*
X83872226Y-127199767D01*
X83756274Y-127132821D01*
X83626945Y-127098168D01*
X83493055Y-127098168D01*
X83363725Y-127132821D01*
X83247774Y-127199767D01*
X83247771Y-127199769D01*
X83153101Y-127294439D01*
X83153099Y-127294442D01*
X83086153Y-127410393D01*
X83086153Y-127410394D01*
X83051500Y-127539723D01*
X78577603Y-127539723D01*
X73161300Y-118158410D01*
X134705868Y-118158410D01*
X134722939Y-118301173D01*
X134779535Y-118433339D01*
X134871079Y-118544212D01*
X134871081Y-118544213D01*
X134919440Y-118579524D01*
X134919454Y-118579534D01*
X135826893Y-119103443D01*
X135826894Y-119103443D01*
X136427652Y-118062898D01*
X136438281Y-118081308D01*
X136549992Y-118193019D01*
X136686809Y-118272011D01*
X136839409Y-118312900D01*
X136860663Y-118312900D01*
X136259906Y-119353443D01*
X136259906Y-119353444D01*
X137167347Y-119877355D01*
X137222127Y-119901589D01*
X137363908Y-119925430D01*
X137363910Y-119925431D01*
X137506673Y-119908360D01*
X137638839Y-119851764D01*
X137749712Y-119760220D01*
X137749713Y-119760218D01*
X137785024Y-119711859D01*
X137785034Y-119711845D01*
X138308943Y-118804405D01*
X138308943Y-118804404D01*
X137268400Y-118203646D01*
X137286808Y-118193019D01*
X137398519Y-118081308D01*
X137477511Y-117944491D01*
X137518400Y-117791891D01*
X137518400Y-117770634D01*
X138558943Y-118371392D01*
X138558944Y-118371392D01*
X139082859Y-117463945D01*
X139107089Y-117409172D01*
X139130930Y-117267391D01*
X139130931Y-117267389D01*
X139113860Y-117124626D01*
X139057264Y-116992460D01*
X138965720Y-116881587D01*
X138965718Y-116881586D01*
X138917359Y-116846275D01*
X138917345Y-116846265D01*
X138009905Y-116322355D01*
X138009904Y-116322355D01*
X137409146Y-117362898D01*
X137398519Y-117344492D01*
X137286808Y-117232781D01*
X137149991Y-117153789D01*
X136997391Y-117112900D01*
X136976134Y-117112900D01*
X137576892Y-116072355D01*
X137576892Y-116072354D01*
X136669452Y-115548444D01*
X136614672Y-115524210D01*
X136472891Y-115500369D01*
X136472889Y-115500368D01*
X136330126Y-115517439D01*
X136197960Y-115574035D01*
X136087087Y-115665579D01*
X136087086Y-115665581D01*
X136051775Y-115713940D01*
X136051765Y-115713954D01*
X135527855Y-116621393D01*
X135527855Y-116621394D01*
X136568400Y-117222152D01*
X136549992Y-117232781D01*
X136438281Y-117344492D01*
X136359289Y-117481309D01*
X136318400Y-117633909D01*
X136318400Y-117655164D01*
X135277855Y-117054406D01*
X135277854Y-117054406D01*
X134753944Y-117961847D01*
X134729710Y-118016627D01*
X134705869Y-118158408D01*
X134705868Y-118158410D01*
X73161300Y-118158410D01*
X71372272Y-115059723D01*
X92371500Y-115059723D01*
X92371500Y-115193613D01*
X92406153Y-115322942D01*
X92473099Y-115438894D01*
X92567774Y-115533569D01*
X92683726Y-115600515D01*
X92813055Y-115635168D01*
X92813057Y-115635168D01*
X92946943Y-115635168D01*
X92946945Y-115635168D01*
X93076274Y-115600515D01*
X93192226Y-115533569D01*
X93286901Y-115438894D01*
X93353847Y-115322942D01*
X93378825Y-115229723D01*
X120151500Y-115229723D01*
X120151500Y-115363613D01*
X120186153Y-115492942D01*
X120253099Y-115608894D01*
X120347774Y-115703569D01*
X120463726Y-115770515D01*
X120593055Y-115805168D01*
X120593057Y-115805168D01*
X120726943Y-115805168D01*
X120726945Y-115805168D01*
X120856274Y-115770515D01*
X120972226Y-115703569D01*
X121066901Y-115608894D01*
X121133847Y-115492942D01*
X121168500Y-115363613D01*
X121168500Y-115229723D01*
X121133847Y-115100394D01*
X121066901Y-114984442D01*
X120972226Y-114889767D01*
X120856274Y-114822821D01*
X120726945Y-114788168D01*
X120593055Y-114788168D01*
X120463725Y-114822821D01*
X120347774Y-114889767D01*
X120347771Y-114889769D01*
X120253101Y-114984439D01*
X120253099Y-114984442D01*
X120186153Y-115100393D01*
X120161176Y-115193611D01*
X120151500Y-115229723D01*
X93378825Y-115229723D01*
X93388500Y-115193613D01*
X93388500Y-115059723D01*
X93353847Y-114930394D01*
X93286901Y-114814442D01*
X93192226Y-114719767D01*
X93076274Y-114652821D01*
X92946945Y-114618168D01*
X92813055Y-114618168D01*
X92683725Y-114652821D01*
X92567774Y-114719767D01*
X92567771Y-114719769D01*
X92473101Y-114814439D01*
X92473099Y-114814442D01*
X92406153Y-114930393D01*
X92406153Y-114930394D01*
X92371500Y-115059723D01*
X71372272Y-115059723D01*
X71267638Y-114878492D01*
X70860666Y-114173596D01*
X70829562Y-114119723D01*
X120891500Y-114119723D01*
X120891500Y-114253613D01*
X120926153Y-114382942D01*
X120993099Y-114498894D01*
X121087774Y-114593569D01*
X121203726Y-114660515D01*
X121333055Y-114695168D01*
X121333057Y-114695168D01*
X121466943Y-114695168D01*
X121466945Y-114695168D01*
X121466946Y-114695167D01*
X121475001Y-114694107D01*
X121475389Y-114697055D01*
X121531011Y-114698378D01*
X121588875Y-114737538D01*
X121616382Y-114801766D01*
X121604797Y-114870668D01*
X121600646Y-114878492D01*
X121555553Y-114956592D01*
X121527920Y-115059723D01*
X121520900Y-115085923D01*
X121520900Y-115219813D01*
X121555553Y-115349142D01*
X121622499Y-115465094D01*
X121717174Y-115559769D01*
X121833126Y-115626715D01*
X121962455Y-115661368D01*
X121962457Y-115661368D01*
X122096343Y-115661368D01*
X122096345Y-115661368D01*
X122225674Y-115626715D01*
X122341626Y-115559769D01*
X122436301Y-115465094D01*
X122503247Y-115349142D01*
X122537900Y-115219813D01*
X122537900Y-115085923D01*
X122503247Y-114956594D01*
X122436301Y-114840642D01*
X122341626Y-114745967D01*
X122225674Y-114679021D01*
X122096345Y-114644368D01*
X121962455Y-114644368D01*
X121962453Y-114644368D01*
X121954399Y-114645429D01*
X121954012Y-114642491D01*
X121898320Y-114641136D01*
X121840479Y-114601942D01*
X121825710Y-114567402D01*
X137214700Y-114567402D01*
X137214700Y-114796220D01*
X137217586Y-114814439D01*
X137250495Y-115022221D01*
X137321201Y-115239835D01*
X137321202Y-115239838D01*
X137376896Y-115349142D01*
X137425084Y-115443716D01*
X137559580Y-115628833D01*
X137721378Y-115790631D01*
X137906495Y-115925127D01*
X138006491Y-115976077D01*
X138110372Y-116029008D01*
X138110375Y-116029009D01*
X138219182Y-116064362D01*
X138327991Y-116099716D01*
X138553991Y-116135511D01*
X138553992Y-116135511D01*
X138782808Y-116135511D01*
X138782809Y-116135511D01*
X139008809Y-116099716D01*
X139226427Y-116029008D01*
X139430305Y-115925127D01*
X139615422Y-115790631D01*
X139777220Y-115628833D01*
X139911716Y-115443716D01*
X140015597Y-115239838D01*
X140086305Y-115022220D01*
X140122100Y-114796220D01*
X140122100Y-114567402D01*
X140086305Y-114341402D01*
X140015597Y-114123784D01*
X140015597Y-114123783D01*
X139911715Y-113919905D01*
X139878682Y-113874439D01*
X139777220Y-113734789D01*
X139615422Y-113572991D01*
X139430305Y-113438495D01*
X139226427Y-113334613D01*
X139226424Y-113334612D01*
X139008810Y-113263906D01*
X138895809Y-113246008D01*
X138782809Y-113228111D01*
X138553991Y-113228111D01*
X138478657Y-113240042D01*
X138327989Y-113263906D01*
X138110375Y-113334612D01*
X138110372Y-113334613D01*
X137906494Y-113438495D01*
X137878970Y-113458493D01*
X137721378Y-113572991D01*
X137721376Y-113572993D01*
X137721375Y-113572993D01*
X137559582Y-113734786D01*
X137559582Y-113734787D01*
X137559580Y-113734789D01*
X137526900Y-113779769D01*
X137425084Y-113919905D01*
X137321202Y-114123783D01*
X137321201Y-114123786D01*
X137250495Y-114341400D01*
X137214700Y-114567402D01*
X121825710Y-114567402D01*
X121813009Y-114537699D01*
X121824633Y-114468803D01*
X121828740Y-114461068D01*
X121873847Y-114382942D01*
X121908500Y-114253613D01*
X121908500Y-114119723D01*
X121873847Y-113990394D01*
X121806901Y-113874442D01*
X121712226Y-113779767D01*
X121596274Y-113712821D01*
X121570141Y-113705818D01*
X121570140Y-113705818D01*
X121501283Y-113687368D01*
X121466945Y-113678168D01*
X121333055Y-113678168D01*
X121203725Y-113712821D01*
X121087774Y-113779767D01*
X121087771Y-113779769D01*
X120993101Y-113874439D01*
X120993099Y-113874442D01*
X120926153Y-113990393D01*
X120926153Y-113990394D01*
X120891500Y-114119723D01*
X70829562Y-114119723D01*
X70207018Y-113041445D01*
X121522500Y-113041445D01*
X121522500Y-113175335D01*
X121557153Y-113304664D01*
X121624099Y-113420616D01*
X121718774Y-113515291D01*
X121834726Y-113582237D01*
X121964055Y-113616890D01*
X121964057Y-113616890D01*
X122097943Y-113616890D01*
X122097945Y-113616890D01*
X122227274Y-113582237D01*
X122343226Y-113515291D01*
X122437901Y-113420616D01*
X122445279Y-113407837D01*
X122495843Y-113359623D01*
X122564450Y-113346399D01*
X122629315Y-113372366D01*
X122660051Y-113407837D01*
X122665281Y-113416896D01*
X122689295Y-113458489D01*
X122689297Y-113458491D01*
X122689298Y-113458493D01*
X122783973Y-113553168D01*
X122899925Y-113620114D01*
X123029254Y-113654767D01*
X123029256Y-113654767D01*
X123163142Y-113654767D01*
X123163144Y-113654767D01*
X123292473Y-113620114D01*
X123408425Y-113553168D01*
X123503100Y-113458493D01*
X123570046Y-113342541D01*
X123604699Y-113213212D01*
X123604699Y-113079322D01*
X123570046Y-112949993D01*
X123503100Y-112834041D01*
X123408425Y-112739366D01*
X123292473Y-112672420D01*
X123163144Y-112637767D01*
X123029254Y-112637767D01*
X122899924Y-112672420D01*
X122783973Y-112739366D01*
X122783970Y-112739368D01*
X122689300Y-112834038D01*
X122689293Y-112834047D01*
X122681917Y-112846823D01*
X122631348Y-112895036D01*
X122562740Y-112908256D01*
X122497877Y-112882285D01*
X122467147Y-112846819D01*
X122437901Y-112796164D01*
X122343226Y-112701489D01*
X122227274Y-112634543D01*
X122097945Y-112599890D01*
X121964055Y-112599890D01*
X121834725Y-112634543D01*
X121718774Y-112701489D01*
X121718771Y-112701491D01*
X121624101Y-112796161D01*
X121624099Y-112796164D01*
X121557153Y-112912115D01*
X121557153Y-112912116D01*
X121522500Y-113041445D01*
X70207018Y-113041445D01*
X70032613Y-112739366D01*
X69651768Y-112079723D01*
X98061500Y-112079723D01*
X98061500Y-112213613D01*
X98096153Y-112342942D01*
X98163099Y-112458894D01*
X98257774Y-112553569D01*
X98373726Y-112620515D01*
X98503055Y-112655168D01*
X98503057Y-112655168D01*
X98636943Y-112655168D01*
X98636945Y-112655168D01*
X98766274Y-112620515D01*
X98882226Y-112553569D01*
X98976901Y-112458894D01*
X99043847Y-112342942D01*
X99078500Y-112213613D01*
X99078500Y-112079723D01*
X99043847Y-111950394D01*
X98976901Y-111834442D01*
X98882226Y-111739767D01*
X98766274Y-111672821D01*
X98636945Y-111638168D01*
X98503055Y-111638168D01*
X98373725Y-111672821D01*
X98257774Y-111739767D01*
X98257771Y-111739769D01*
X98163101Y-111834439D01*
X98163099Y-111834442D01*
X98096153Y-111950393D01*
X98096153Y-111950394D01*
X98061500Y-112079723D01*
X69651768Y-112079723D01*
X67619495Y-108559723D01*
X122371500Y-108559723D01*
X122371500Y-108693613D01*
X122406153Y-108822942D01*
X122473099Y-108938894D01*
X122567774Y-109033569D01*
X122683726Y-109100515D01*
X122813055Y-109135168D01*
X122813057Y-109135168D01*
X122946943Y-109135168D01*
X122946945Y-109135168D01*
X123076274Y-109100515D01*
X123192226Y-109033569D01*
X123286901Y-108938894D01*
X123353847Y-108822942D01*
X123388500Y-108693613D01*
X123388500Y-108559723D01*
X123353847Y-108430394D01*
X123286901Y-108314442D01*
X123192226Y-108219767D01*
X123076274Y-108152821D01*
X122946945Y-108118168D01*
X122813055Y-108118168D01*
X122683725Y-108152821D01*
X122567774Y-108219767D01*
X122567771Y-108219769D01*
X122473101Y-108314439D01*
X122473099Y-108314442D01*
X122406153Y-108430393D01*
X122406153Y-108430394D01*
X122371500Y-108559723D01*
X67619495Y-108559723D01*
X66672640Y-106919723D01*
X98171500Y-106919723D01*
X98171500Y-107053613D01*
X98206153Y-107182942D01*
X98273099Y-107298894D01*
X98367774Y-107393569D01*
X98483726Y-107460515D01*
X98613055Y-107495168D01*
X98613057Y-107495168D01*
X98746943Y-107495168D01*
X98746945Y-107495168D01*
X98876274Y-107460515D01*
X98992226Y-107393569D01*
X99086901Y-107298894D01*
X99153847Y-107182942D01*
X99188500Y-107053613D01*
X99188500Y-106919723D01*
X99153847Y-106790394D01*
X99086901Y-106674442D01*
X98992226Y-106579767D01*
X98876274Y-106512821D01*
X98746945Y-106478168D01*
X98613055Y-106478168D01*
X98483725Y-106512821D01*
X98367774Y-106579767D01*
X98367771Y-106579769D01*
X98273101Y-106674439D01*
X98273099Y-106674442D01*
X98206153Y-106790393D01*
X98206153Y-106790394D01*
X98171500Y-106919723D01*
X66672640Y-106919723D01*
X65922085Y-105619723D01*
X73911500Y-105619723D01*
X73911500Y-105753613D01*
X73946153Y-105882942D01*
X74013099Y-105998894D01*
X74107774Y-106093569D01*
X74223726Y-106160515D01*
X74353055Y-106195168D01*
X74353057Y-106195168D01*
X74486943Y-106195168D01*
X74486945Y-106195168D01*
X74616274Y-106160515D01*
X74732226Y-106093569D01*
X74826901Y-105998894D01*
X74893847Y-105882942D01*
X74928500Y-105753613D01*
X74928500Y-105619723D01*
X74893847Y-105490394D01*
X74826901Y-105374442D01*
X74732226Y-105279767D01*
X74616274Y-105212821D01*
X74486945Y-105178168D01*
X74353055Y-105178168D01*
X74223725Y-105212821D01*
X74107774Y-105279767D01*
X74107771Y-105279769D01*
X74013101Y-105374439D01*
X74013099Y-105374442D01*
X73946153Y-105490393D01*
X73946153Y-105490394D01*
X73911500Y-105619723D01*
X65922085Y-105619723D01*
X65536184Y-104951323D01*
X124340300Y-104951323D01*
X124340300Y-105085213D01*
X124374953Y-105214542D01*
X124441899Y-105330494D01*
X124536574Y-105425169D01*
X124652526Y-105492115D01*
X124781855Y-105526768D01*
X124781857Y-105526768D01*
X124915743Y-105526768D01*
X124915745Y-105526768D01*
X125045074Y-105492115D01*
X125161026Y-105425169D01*
X125255701Y-105330494D01*
X125322647Y-105214542D01*
X125357300Y-105085213D01*
X125357300Y-105059723D01*
X134371500Y-105059723D01*
X134371500Y-105193613D01*
X134406153Y-105322942D01*
X134473099Y-105438894D01*
X134567774Y-105533569D01*
X134683726Y-105600515D01*
X134813055Y-105635168D01*
X134813057Y-105635168D01*
X134946943Y-105635168D01*
X134946945Y-105635168D01*
X135076274Y-105600515D01*
X135192226Y-105533569D01*
X135286901Y-105438894D01*
X135353847Y-105322942D01*
X135388500Y-105193613D01*
X135388500Y-105059723D01*
X135353847Y-104930394D01*
X135286901Y-104814442D01*
X135192226Y-104719767D01*
X135076274Y-104652821D01*
X134946945Y-104618168D01*
X134813055Y-104618168D01*
X134683725Y-104652821D01*
X134567774Y-104719767D01*
X134567771Y-104719769D01*
X134473101Y-104814439D01*
X134473099Y-104814442D01*
X134406153Y-104930393D01*
X134386110Y-105005196D01*
X134371500Y-105059723D01*
X125357300Y-105059723D01*
X125357300Y-104951323D01*
X125322647Y-104821994D01*
X125255701Y-104706042D01*
X125161026Y-104611367D01*
X125045074Y-104544421D01*
X124915745Y-104509768D01*
X124781855Y-104509768D01*
X124652525Y-104544421D01*
X124536574Y-104611367D01*
X124536571Y-104611369D01*
X124441901Y-104706039D01*
X124441899Y-104706042D01*
X124374953Y-104821993D01*
X124374953Y-104821994D01*
X124340300Y-104951323D01*
X65536184Y-104951323D01*
X64628820Y-103379723D01*
X94031500Y-103379723D01*
X94031500Y-103513613D01*
X94066153Y-103642942D01*
X94133099Y-103758894D01*
X94227774Y-103853569D01*
X94343726Y-103920515D01*
X94473055Y-103955168D01*
X94473057Y-103955168D01*
X94606943Y-103955168D01*
X94606945Y-103955168D01*
X94736274Y-103920515D01*
X94852226Y-103853569D01*
X94946901Y-103758894D01*
X95013847Y-103642942D01*
X95048500Y-103513613D01*
X95048500Y-103379723D01*
X95013847Y-103250394D01*
X95008290Y-103240769D01*
X110615546Y-103240769D01*
X110615546Y-103374659D01*
X110650199Y-103503988D01*
X110717145Y-103619940D01*
X110811820Y-103714615D01*
X110927772Y-103781561D01*
X111057101Y-103816214D01*
X111057103Y-103816214D01*
X111190989Y-103816214D01*
X111190991Y-103816214D01*
X111320320Y-103781561D01*
X111436272Y-103714615D01*
X111530947Y-103619940D01*
X111597893Y-103503988D01*
X111597893Y-103503987D01*
X111601957Y-103496949D01*
X111603600Y-103497897D01*
X111640872Y-103451627D01*
X111707162Y-103429549D01*
X111774865Y-103446814D01*
X111818999Y-103491468D01*
X111868894Y-103577887D01*
X111868897Y-103577891D01*
X111868899Y-103577894D01*
X111963574Y-103672569D01*
X112079526Y-103739515D01*
X112208855Y-103774168D01*
X112208857Y-103774168D01*
X112342743Y-103774168D01*
X112342745Y-103774168D01*
X112472074Y-103739515D01*
X112588026Y-103672569D01*
X112654162Y-103606433D01*
X116366010Y-103606433D01*
X116366010Y-103740323D01*
X116400663Y-103869652D01*
X116467609Y-103985604D01*
X116562284Y-104080279D01*
X116678236Y-104147225D01*
X116807565Y-104181878D01*
X116807567Y-104181878D01*
X116941453Y-104181878D01*
X116941455Y-104181878D01*
X117070784Y-104147225D01*
X117186736Y-104080279D01*
X117281411Y-103985604D01*
X117348357Y-103869652D01*
X117383010Y-103740323D01*
X117383010Y-103606433D01*
X117348357Y-103477104D01*
X117281411Y-103361152D01*
X117195182Y-103274923D01*
X124365700Y-103274923D01*
X124365700Y-103408813D01*
X124400353Y-103538142D01*
X124467299Y-103654094D01*
X124561974Y-103748769D01*
X124677926Y-103815715D01*
X124807255Y-103850368D01*
X124807257Y-103850368D01*
X124941143Y-103850368D01*
X124941145Y-103850368D01*
X125070474Y-103815715D01*
X125186426Y-103748769D01*
X125281101Y-103654094D01*
X125348047Y-103538142D01*
X125382700Y-103408813D01*
X125382700Y-103274923D01*
X125348047Y-103145594D01*
X125347131Y-103144007D01*
X125347130Y-103144004D01*
X125316028Y-103090135D01*
X131026300Y-103090135D01*
X131026300Y-103183265D01*
X131050404Y-103273223D01*
X131096970Y-103353877D01*
X131162823Y-103419730D01*
X131243477Y-103466296D01*
X131333435Y-103490400D01*
X131333437Y-103490400D01*
X131426563Y-103490400D01*
X131426565Y-103490400D01*
X131516523Y-103466296D01*
X131597177Y-103419730D01*
X131663030Y-103353877D01*
X131709596Y-103273223D01*
X131733700Y-103183265D01*
X131733700Y-103090135D01*
X132026300Y-103090135D01*
X132026300Y-103183265D01*
X132050404Y-103273223D01*
X132096970Y-103353877D01*
X132162823Y-103419730D01*
X132243477Y-103466296D01*
X132333435Y-103490400D01*
X132333437Y-103490400D01*
X132426563Y-103490400D01*
X132426565Y-103490400D01*
X132516523Y-103466296D01*
X132597177Y-103419730D01*
X132663030Y-103353877D01*
X132709596Y-103273223D01*
X132733700Y-103183265D01*
X132733700Y-103158410D01*
X142706063Y-103158410D01*
X142723134Y-103301173D01*
X142779730Y-103433339D01*
X142871274Y-103544212D01*
X142871276Y-103544213D01*
X142919635Y-103579524D01*
X142919649Y-103579534D01*
X143827088Y-104103443D01*
X143827089Y-104103443D01*
X144427847Y-103062898D01*
X144438476Y-103081308D01*
X144550187Y-103193019D01*
X144687004Y-103272011D01*
X144839604Y-103312900D01*
X144860858Y-103312900D01*
X144260101Y-104353443D01*
X144260101Y-104353444D01*
X145167542Y-104877355D01*
X145222322Y-104901589D01*
X145364103Y-104925430D01*
X145364105Y-104925431D01*
X145506868Y-104908360D01*
X145639034Y-104851764D01*
X145749907Y-104760220D01*
X145749908Y-104760218D01*
X145785219Y-104711859D01*
X145785229Y-104711845D01*
X146309138Y-103804405D01*
X146309138Y-103804404D01*
X145268595Y-103203646D01*
X145287003Y-103193019D01*
X145398714Y-103081308D01*
X145477706Y-102944491D01*
X145518595Y-102791891D01*
X145518595Y-102770634D01*
X146559138Y-103371392D01*
X146559139Y-103371392D01*
X147083054Y-102463945D01*
X147107284Y-102409172D01*
X147131125Y-102267391D01*
X147131126Y-102267389D01*
X147114055Y-102124626D01*
X147057459Y-101992460D01*
X146965915Y-101881587D01*
X146965913Y-101881586D01*
X146917554Y-101846275D01*
X146917540Y-101846265D01*
X146010100Y-101322355D01*
X146010099Y-101322355D01*
X145409341Y-102362898D01*
X145398714Y-102344492D01*
X145287003Y-102232781D01*
X145150186Y-102153789D01*
X144997586Y-102112900D01*
X144976329Y-102112900D01*
X145577087Y-101072355D01*
X145577087Y-101072354D01*
X144669647Y-100548444D01*
X144614867Y-100524210D01*
X144473086Y-100500369D01*
X144473084Y-100500368D01*
X144330321Y-100517439D01*
X144198155Y-100574035D01*
X144087282Y-100665579D01*
X144087281Y-100665581D01*
X144051970Y-100713940D01*
X144051960Y-100713954D01*
X143528050Y-101621393D01*
X143528050Y-101621394D01*
X144568595Y-102222152D01*
X144550187Y-102232781D01*
X144438476Y-102344492D01*
X144359484Y-102481309D01*
X144318595Y-102633909D01*
X144318595Y-102655164D01*
X143278050Y-102054406D01*
X143278049Y-102054406D01*
X142754139Y-102961847D01*
X142729905Y-103016627D01*
X142706064Y-103158408D01*
X142706063Y-103158410D01*
X132733700Y-103158410D01*
X132733700Y-103090135D01*
X132709596Y-103000177D01*
X132663030Y-102919523D01*
X132597177Y-102853670D01*
X132516523Y-102807104D01*
X132426565Y-102783000D01*
X132333435Y-102783000D01*
X132243476Y-102807104D01*
X132162823Y-102853670D01*
X132162820Y-102853672D01*
X132096972Y-102919520D01*
X132096970Y-102919523D01*
X132050404Y-103000176D01*
X132050404Y-103000177D01*
X132026300Y-103090135D01*
X131733700Y-103090135D01*
X131709596Y-103000177D01*
X131663030Y-102919523D01*
X131597177Y-102853670D01*
X131516523Y-102807104D01*
X131426565Y-102783000D01*
X131333435Y-102783000D01*
X131243476Y-102807104D01*
X131162823Y-102853670D01*
X131162820Y-102853672D01*
X131096972Y-102919520D01*
X131096970Y-102919523D01*
X131050404Y-103000176D01*
X131050404Y-103000177D01*
X131026300Y-103090135D01*
X125316028Y-103090135D01*
X125286948Y-103039769D01*
X125281101Y-103029642D01*
X125186426Y-102934967D01*
X125070474Y-102868021D01*
X124941145Y-102833368D01*
X124807255Y-102833368D01*
X124677925Y-102868021D01*
X124561974Y-102934967D01*
X124561971Y-102934969D01*
X124467301Y-103029639D01*
X124467299Y-103029642D01*
X124400353Y-103145593D01*
X124390259Y-103183265D01*
X124365700Y-103274923D01*
X117195182Y-103274923D01*
X117186736Y-103266477D01*
X117070784Y-103199531D01*
X116941455Y-103164878D01*
X116807565Y-103164878D01*
X116678235Y-103199531D01*
X116562284Y-103266477D01*
X116562281Y-103266479D01*
X116467611Y-103361149D01*
X116467609Y-103361152D01*
X116400663Y-103477103D01*
X116373659Y-103577887D01*
X116366010Y-103606433D01*
X112654162Y-103606433D01*
X112682701Y-103577894D01*
X112749647Y-103461942D01*
X112784300Y-103332613D01*
X112784300Y-103198723D01*
X112749647Y-103069394D01*
X112682701Y-102953442D01*
X112588026Y-102858767D01*
X112472074Y-102791821D01*
X112342745Y-102757168D01*
X112324100Y-102757168D01*
X112257061Y-102737483D01*
X112211306Y-102684679D01*
X112203262Y-102647706D01*
X112201161Y-102647983D01*
X112200100Y-102639930D01*
X112200100Y-102639923D01*
X112165447Y-102510594D01*
X112098501Y-102394642D01*
X112003826Y-102299967D01*
X111887874Y-102233021D01*
X111758545Y-102198368D01*
X111624655Y-102198368D01*
X111495325Y-102233021D01*
X111379374Y-102299967D01*
X111379371Y-102299969D01*
X111284701Y-102394639D01*
X111284699Y-102394642D01*
X111217753Y-102510593D01*
X111183100Y-102639923D01*
X111183100Y-102675214D01*
X111163415Y-102742253D01*
X111110611Y-102788008D01*
X111065128Y-102797902D01*
X111065161Y-102798153D01*
X111062161Y-102798547D01*
X111059100Y-102799214D01*
X111057101Y-102799214D01*
X110927771Y-102833867D01*
X110811820Y-102900813D01*
X110811817Y-102900815D01*
X110717147Y-102995485D01*
X110717145Y-102995488D01*
X110650199Y-103111439D01*
X110630954Y-103183263D01*
X110615546Y-103240769D01*
X95008290Y-103240769D01*
X94946901Y-103134442D01*
X94852226Y-103039767D01*
X94736274Y-102972821D01*
X94606945Y-102938168D01*
X94473055Y-102938168D01*
X94343725Y-102972821D01*
X94227774Y-103039767D01*
X94227771Y-103039769D01*
X94133101Y-103134439D01*
X94133099Y-103134442D01*
X94066153Y-103250393D01*
X94059580Y-103274925D01*
X94031500Y-103379723D01*
X64628820Y-103379723D01*
X63775772Y-101902200D01*
X109010204Y-101902200D01*
X109010204Y-102036090D01*
X109044857Y-102165419D01*
X109111803Y-102281371D01*
X109206478Y-102376046D01*
X109322430Y-102442992D01*
X109451759Y-102477645D01*
X109451761Y-102477645D01*
X109585647Y-102477645D01*
X109585649Y-102477645D01*
X109714978Y-102442992D01*
X109830930Y-102376046D01*
X109873272Y-102333704D01*
X109934595Y-102300219D01*
X110004287Y-102305203D01*
X110022952Y-102313997D01*
X110122228Y-102371315D01*
X110251557Y-102405968D01*
X110251559Y-102405968D01*
X110385445Y-102405968D01*
X110385447Y-102405968D01*
X110514776Y-102371315D01*
X110630728Y-102304369D01*
X110725403Y-102209694D01*
X110792349Y-102093742D01*
X110827002Y-101964413D01*
X110827002Y-101830523D01*
X110792349Y-101701194D01*
X110725403Y-101585242D01*
X110660771Y-101520610D01*
X113000500Y-101520610D01*
X113000500Y-101654500D01*
X113035153Y-101783829D01*
X113102099Y-101899781D01*
X113196774Y-101994456D01*
X113312726Y-102061402D01*
X113442055Y-102096055D01*
X113442057Y-102096055D01*
X113575943Y-102096055D01*
X113575945Y-102096055D01*
X113705274Y-102061402D01*
X113821226Y-101994456D01*
X113915901Y-101899781D01*
X113932000Y-101871897D01*
X114657211Y-101871897D01*
X114657211Y-102005787D01*
X114691864Y-102135116D01*
X114758810Y-102251068D01*
X114853485Y-102345743D01*
X114969437Y-102412689D01*
X115098766Y-102447342D01*
X115098768Y-102447342D01*
X115232654Y-102447342D01*
X115232656Y-102447342D01*
X115361985Y-102412689D01*
X115471910Y-102349223D01*
X118552000Y-102349223D01*
X118552000Y-102483113D01*
X118586653Y-102612442D01*
X118653599Y-102728394D01*
X118748274Y-102823069D01*
X118864226Y-102890015D01*
X118993555Y-102924668D01*
X118993557Y-102924668D01*
X119127443Y-102924668D01*
X119127445Y-102924668D01*
X119256774Y-102890015D01*
X119372726Y-102823069D01*
X119467401Y-102728394D01*
X119534347Y-102612442D01*
X119569000Y-102483113D01*
X119569000Y-102349223D01*
X119555191Y-102297686D01*
X119556854Y-102227840D01*
X119596016Y-102169977D01*
X119660245Y-102142473D01*
X119729147Y-102154059D01*
X119736967Y-102158210D01*
X119834720Y-102214649D01*
X119834721Y-102214649D01*
X119834726Y-102214652D01*
X119964055Y-102249305D01*
X119964057Y-102249305D01*
X120097943Y-102249305D01*
X120097945Y-102249305D01*
X120227274Y-102214652D01*
X120343226Y-102147706D01*
X120437901Y-102053031D01*
X120504847Y-101937079D01*
X120513933Y-101903165D01*
X120550297Y-101843506D01*
X120613143Y-101812976D01*
X120652395Y-101814844D01*
X120652631Y-101813053D01*
X120660685Y-101814113D01*
X120660687Y-101814114D01*
X120660689Y-101814114D01*
X120794575Y-101814114D01*
X120794577Y-101814114D01*
X120923906Y-101779461D01*
X121039858Y-101712515D01*
X121134533Y-101617840D01*
X121201479Y-101501888D01*
X121236132Y-101372559D01*
X121236132Y-101347089D01*
X121241780Y-101329021D01*
X121251091Y-101315070D01*
X121255817Y-101298978D01*
X121270085Y-101286614D01*
X121280569Y-101270908D01*
X121295946Y-101264205D01*
X121308621Y-101253223D01*
X121333623Y-101247783D01*
X121344620Y-101242991D01*
X121350952Y-101244013D01*
X121360132Y-101242017D01*
X121366672Y-101242017D01*
X121366674Y-101242017D01*
X121496003Y-101207364D01*
X121611955Y-101140418D01*
X121706630Y-101045743D01*
X121773576Y-100929791D01*
X121808229Y-100800462D01*
X121808229Y-100666572D01*
X121773576Y-100537243D01*
X121706630Y-100421291D01*
X121611955Y-100326616D01*
X121496003Y-100259670D01*
X121366674Y-100225017D01*
X121232784Y-100225017D01*
X121103454Y-100259670D01*
X120987503Y-100326616D01*
X120987500Y-100326618D01*
X120892830Y-100421288D01*
X120892828Y-100421291D01*
X120825882Y-100537242D01*
X120791229Y-100666572D01*
X120791229Y-100673114D01*
X120771544Y-100740153D01*
X120718740Y-100785908D01*
X120667229Y-100797114D01*
X120660687Y-100797114D01*
X120531357Y-100831767D01*
X120415406Y-100898713D01*
X120415403Y-100898715D01*
X120320733Y-100993385D01*
X120320731Y-100993388D01*
X120253786Y-101109337D01*
X120244698Y-101143255D01*
X120208332Y-101202915D01*
X120145485Y-101233443D01*
X120106234Y-101231574D01*
X120105999Y-101233366D01*
X120097948Y-101232306D01*
X120097945Y-101232305D01*
X119964055Y-101232305D01*
X119834725Y-101266958D01*
X119718774Y-101333904D01*
X119718771Y-101333906D01*
X119624101Y-101428576D01*
X119624099Y-101428579D01*
X119557153Y-101544530D01*
X119522500Y-101673860D01*
X119522500Y-101807751D01*
X119536308Y-101859284D01*
X119534645Y-101929133D01*
X119495482Y-101986996D01*
X119431253Y-102014499D01*
X119362351Y-102002912D01*
X119354542Y-101998768D01*
X119256774Y-101942321D01*
X119127445Y-101907668D01*
X118993555Y-101907668D01*
X118864225Y-101942321D01*
X118748274Y-102009267D01*
X118748271Y-102009269D01*
X118653601Y-102103939D01*
X118653599Y-102103942D01*
X118586653Y-102219893D01*
X118570180Y-102281373D01*
X118552000Y-102349223D01*
X115471910Y-102349223D01*
X115477937Y-102345743D01*
X115572612Y-102251068D01*
X115639558Y-102135116D01*
X115674211Y-102005787D01*
X115674211Y-101871897D01*
X115639558Y-101742568D01*
X115572612Y-101626616D01*
X115477937Y-101531941D01*
X115361985Y-101464995D01*
X115232656Y-101430342D01*
X115098766Y-101430342D01*
X114969436Y-101464995D01*
X114853485Y-101531941D01*
X114853482Y-101531943D01*
X114758812Y-101626613D01*
X114758810Y-101626616D01*
X114691864Y-101742567D01*
X114672978Y-101813053D01*
X114657211Y-101871897D01*
X113932000Y-101871897D01*
X113982847Y-101783829D01*
X114017500Y-101654500D01*
X114017500Y-101520610D01*
X113982847Y-101391281D01*
X113915901Y-101275329D01*
X113821226Y-101180654D01*
X113705274Y-101113708D01*
X113575945Y-101079055D01*
X113442055Y-101079055D01*
X113312725Y-101113708D01*
X113196774Y-101180654D01*
X113196771Y-101180656D01*
X113102101Y-101275326D01*
X113102099Y-101275329D01*
X113035153Y-101391280D01*
X113025160Y-101428576D01*
X113000500Y-101520610D01*
X110660771Y-101520610D01*
X110630728Y-101490567D01*
X110514776Y-101423621D01*
X110385447Y-101388968D01*
X110251557Y-101388968D01*
X110122227Y-101423621D01*
X110006276Y-101490567D01*
X110006272Y-101490570D01*
X109963932Y-101532910D01*
X109902609Y-101566394D01*
X109832917Y-101561409D01*
X109814251Y-101552614D01*
X109714983Y-101495300D01*
X109714980Y-101495299D01*
X109714979Y-101495298D01*
X109714978Y-101495298D01*
X109585649Y-101460645D01*
X109451759Y-101460645D01*
X109322429Y-101495298D01*
X109206478Y-101562244D01*
X109206475Y-101562246D01*
X109111805Y-101656916D01*
X109111803Y-101656919D01*
X109044857Y-101772870D01*
X109018323Y-101871899D01*
X109010204Y-101902200D01*
X63775772Y-101902200D01*
X62250137Y-99259723D01*
X69901500Y-99259723D01*
X69901500Y-99393613D01*
X69936153Y-99522942D01*
X70003099Y-99638894D01*
X70097774Y-99733569D01*
X70213726Y-99800515D01*
X70343055Y-99835168D01*
X70343057Y-99835168D01*
X70476943Y-99835168D01*
X70476945Y-99835168D01*
X70575409Y-99808785D01*
X70645257Y-99810448D01*
X70703119Y-99849611D01*
X70730623Y-99913839D01*
X70731500Y-99928560D01*
X70731500Y-100053613D01*
X70766153Y-100182942D01*
X70833099Y-100298894D01*
X70927774Y-100393569D01*
X71043726Y-100460515D01*
X71173055Y-100495168D01*
X71173057Y-100495168D01*
X71306943Y-100495168D01*
X71306945Y-100495168D01*
X71436274Y-100460515D01*
X71552226Y-100393569D01*
X71646901Y-100298894D01*
X71713847Y-100182942D01*
X71748500Y-100053613D01*
X71748500Y-99919723D01*
X71713847Y-99790394D01*
X71708073Y-99780394D01*
X71669509Y-99713599D01*
X71669508Y-99713598D01*
X71646901Y-99674442D01*
X71632182Y-99659723D01*
X80821500Y-99659723D01*
X80821500Y-99793613D01*
X80856153Y-99922942D01*
X80923099Y-100038894D01*
X81017774Y-100133569D01*
X81133726Y-100200515D01*
X81263055Y-100235168D01*
X81263057Y-100235168D01*
X81396943Y-100235168D01*
X81396945Y-100235168D01*
X81526274Y-100200515D01*
X81642226Y-100133569D01*
X81736901Y-100038894D01*
X81803847Y-99922942D01*
X81838500Y-99793613D01*
X81838500Y-99693523D01*
X111792700Y-99693523D01*
X111792700Y-99827413D01*
X111827353Y-99956742D01*
X111894299Y-100072694D01*
X111988974Y-100167369D01*
X112104926Y-100234315D01*
X112234255Y-100268968D01*
X112234257Y-100268968D01*
X112368143Y-100268968D01*
X112368145Y-100268968D01*
X112497474Y-100234315D01*
X112613426Y-100167369D01*
X112708101Y-100072694D01*
X112775047Y-99956742D01*
X112790325Y-99899723D01*
X124291500Y-99899723D01*
X124291500Y-100033613D01*
X124326153Y-100162942D01*
X124393099Y-100278894D01*
X124487774Y-100373569D01*
X124603726Y-100440515D01*
X124733055Y-100475168D01*
X124733057Y-100475168D01*
X124866943Y-100475168D01*
X124866945Y-100475168D01*
X124996274Y-100440515D01*
X125112226Y-100373569D01*
X125172319Y-100313476D01*
X125233642Y-100279991D01*
X125303334Y-100284975D01*
X125347681Y-100313476D01*
X125417774Y-100383569D01*
X125533726Y-100450515D01*
X125663055Y-100485168D01*
X125663057Y-100485168D01*
X125796943Y-100485168D01*
X125796945Y-100485168D01*
X125926274Y-100450515D01*
X126042226Y-100383569D01*
X126136901Y-100288894D01*
X126203847Y-100172942D01*
X126238500Y-100043613D01*
X126238500Y-99909723D01*
X126203847Y-99780394D01*
X126136901Y-99664442D01*
X126042226Y-99569767D01*
X125926274Y-99502821D01*
X125797208Y-99468238D01*
X125796946Y-99468168D01*
X125796945Y-99468168D01*
X125663055Y-99468168D01*
X125533725Y-99502821D01*
X125417774Y-99569767D01*
X125357679Y-99629861D01*
X125296355Y-99663345D01*
X125226664Y-99658359D01*
X125182318Y-99629859D01*
X125112228Y-99559769D01*
X125112226Y-99559767D01*
X124996274Y-99492821D01*
X124866945Y-99458168D01*
X124733055Y-99458168D01*
X124603725Y-99492821D01*
X124487774Y-99559767D01*
X124487771Y-99559769D01*
X124393101Y-99654439D01*
X124393099Y-99654442D01*
X124326153Y-99770393D01*
X124310065Y-99830436D01*
X124291500Y-99899723D01*
X112790325Y-99899723D01*
X112809700Y-99827413D01*
X112809700Y-99693523D01*
X112775047Y-99564194D01*
X112708101Y-99448242D01*
X112616450Y-99356591D01*
X128445998Y-99356591D01*
X128445998Y-99490481D01*
X128480651Y-99619810D01*
X128547597Y-99735762D01*
X128642272Y-99830437D01*
X128758224Y-99897383D01*
X128887553Y-99932036D01*
X128887555Y-99932036D01*
X129021441Y-99932036D01*
X129021443Y-99932036D01*
X129150772Y-99897383D01*
X129198680Y-99869723D01*
X129981500Y-99869723D01*
X129981500Y-100003613D01*
X130016153Y-100132942D01*
X130083099Y-100248894D01*
X130177774Y-100343569D01*
X130293726Y-100410515D01*
X130423055Y-100445168D01*
X130423057Y-100445168D01*
X130556943Y-100445168D01*
X130556945Y-100445168D01*
X130686274Y-100410515D01*
X130802226Y-100343569D01*
X130896901Y-100248894D01*
X130963847Y-100132942D01*
X130998500Y-100003613D01*
X130998500Y-99869723D01*
X130963847Y-99740394D01*
X130963844Y-99740389D01*
X130960735Y-99732880D01*
X130963324Y-99731807D01*
X130950068Y-99677149D01*
X130972924Y-99611123D01*
X131027848Y-99567936D01*
X131033444Y-99567402D01*
X145214895Y-99567402D01*
X145214895Y-99796220D01*
X145221064Y-99835167D01*
X145250690Y-100022221D01*
X145321396Y-100239835D01*
X145321397Y-100239838D01*
X145399726Y-100393566D01*
X145425279Y-100443716D01*
X145559775Y-100628833D01*
X145721573Y-100790631D01*
X145906690Y-100925127D01*
X145915844Y-100929791D01*
X146110567Y-101029008D01*
X146110570Y-101029009D01*
X146162070Y-101045742D01*
X146328186Y-101099716D01*
X146554186Y-101135511D01*
X146554187Y-101135511D01*
X146783003Y-101135511D01*
X146783004Y-101135511D01*
X147009004Y-101099716D01*
X147226622Y-101029008D01*
X147430500Y-100925127D01*
X147615617Y-100790631D01*
X147777415Y-100628833D01*
X147911911Y-100443716D01*
X148015792Y-100239838D01*
X148086500Y-100022220D01*
X148122295Y-99796220D01*
X148122295Y-99567402D01*
X148086500Y-99341402D01*
X148017940Y-99130394D01*
X148015793Y-99123786D01*
X148015792Y-99123783D01*
X147960078Y-99014439D01*
X147911911Y-98919906D01*
X147777415Y-98734789D01*
X147615617Y-98572991D01*
X147430500Y-98438495D01*
X147380895Y-98413220D01*
X147226622Y-98334613D01*
X147226619Y-98334612D01*
X147009005Y-98263906D01*
X146838931Y-98236969D01*
X146783004Y-98228111D01*
X146554186Y-98228111D01*
X146498259Y-98236969D01*
X146328184Y-98263906D01*
X146110570Y-98334612D01*
X146110567Y-98334613D01*
X145906689Y-98438495D01*
X145801073Y-98515230D01*
X145721573Y-98572991D01*
X145721571Y-98572993D01*
X145721570Y-98572993D01*
X145559777Y-98734786D01*
X145559777Y-98734787D01*
X145559775Y-98734789D01*
X145546417Y-98753175D01*
X145425279Y-98919905D01*
X145321397Y-99123783D01*
X145321396Y-99123786D01*
X145250690Y-99341400D01*
X145220737Y-99530515D01*
X145214895Y-99567402D01*
X131033444Y-99567402D01*
X131097402Y-99561299D01*
X131105989Y-99563274D01*
X131113055Y-99565168D01*
X131113059Y-99565168D01*
X131246943Y-99565168D01*
X131246945Y-99565168D01*
X131376274Y-99530515D01*
X131492226Y-99463569D01*
X131586901Y-99368894D01*
X131653847Y-99252942D01*
X131688500Y-99123613D01*
X131688500Y-98989723D01*
X131688500Y-98981596D01*
X131691271Y-98981596D01*
X131699963Y-98925910D01*
X131746350Y-98873660D01*
X131812129Y-98854775D01*
X131877858Y-98854775D01*
X131877860Y-98854775D01*
X132007189Y-98820122D01*
X132123141Y-98753176D01*
X132217816Y-98658501D01*
X132284762Y-98542549D01*
X132319415Y-98413220D01*
X132319415Y-98279330D01*
X132319415Y-98271203D01*
X132321731Y-98271203D01*
X132330659Y-98213945D01*
X132377037Y-98161687D01*
X132444305Y-98142800D01*
X132511107Y-98163278D01*
X132530515Y-98179110D01*
X132588374Y-98236969D01*
X132704326Y-98303915D01*
X132833655Y-98338568D01*
X132833657Y-98338568D01*
X132967543Y-98338568D01*
X132967545Y-98338568D01*
X133096874Y-98303915D01*
X133212826Y-98236969D01*
X133307501Y-98142294D01*
X133374447Y-98026342D01*
X133409100Y-97897013D01*
X133409100Y-97763123D01*
X133393155Y-97703613D01*
X133392289Y-97700381D01*
X133392287Y-97700376D01*
X133385866Y-97676410D01*
X137182300Y-97676410D01*
X137182300Y-97796926D01*
X137191951Y-97832942D01*
X137213492Y-97913335D01*
X137213495Y-97913340D01*
X137273744Y-98017696D01*
X137273748Y-98017701D01*
X137273749Y-98017703D01*
X137358965Y-98102919D01*
X137358967Y-98102920D01*
X137358971Y-98102923D01*
X137427163Y-98142293D01*
X137463334Y-98163176D01*
X137579742Y-98194368D01*
X137579744Y-98194368D01*
X137700256Y-98194368D01*
X137700258Y-98194368D01*
X137816666Y-98163176D01*
X137869157Y-98132870D01*
X137899053Y-98120487D01*
X137936274Y-98110515D01*
X138052226Y-98043569D01*
X138146901Y-97948894D01*
X138213847Y-97832942D01*
X138248500Y-97703613D01*
X138248500Y-97569723D01*
X138213847Y-97440394D01*
X138146901Y-97324442D01*
X138052226Y-97229767D01*
X137936274Y-97162821D01*
X137806945Y-97128168D01*
X137673055Y-97128168D01*
X137543725Y-97162821D01*
X137427774Y-97229767D01*
X137427771Y-97229769D01*
X137333101Y-97324439D01*
X137333096Y-97324445D01*
X137266153Y-97440394D01*
X137266151Y-97440398D01*
X137256179Y-97477614D01*
X137254274Y-97482212D01*
X137253421Y-97486546D01*
X137249586Y-97497482D01*
X137213492Y-97560002D01*
X137182300Y-97676410D01*
X133385866Y-97676410D01*
X133374447Y-97633794D01*
X133307501Y-97517842D01*
X133212826Y-97423167D01*
X133096874Y-97356221D01*
X132967545Y-97321568D01*
X132833655Y-97321568D01*
X132704325Y-97356221D01*
X132588374Y-97423167D01*
X132588371Y-97423169D01*
X132493701Y-97517839D01*
X132493699Y-97517842D01*
X132426753Y-97633793D01*
X132392100Y-97763123D01*
X132392100Y-97905140D01*
X132389787Y-97905140D01*
X132380845Y-97962419D01*
X132334457Y-98014667D01*
X132267185Y-98033542D01*
X132200387Y-98013050D01*
X132180999Y-97997232D01*
X132123143Y-97939376D01*
X132123141Y-97939374D01*
X132007189Y-97872428D01*
X131877860Y-97837775D01*
X131743970Y-97837775D01*
X131614640Y-97872428D01*
X131498689Y-97939374D01*
X131498686Y-97939376D01*
X131404016Y-98034046D01*
X131404014Y-98034049D01*
X131337068Y-98150000D01*
X131302415Y-98279330D01*
X131302415Y-98421347D01*
X131299644Y-98421347D01*
X131290952Y-98477033D01*
X131244565Y-98529283D01*
X131178786Y-98548168D01*
X131113055Y-98548168D01*
X130983725Y-98582821D01*
X130867774Y-98649767D01*
X130867771Y-98649769D01*
X130773101Y-98744439D01*
X130773099Y-98744442D01*
X130706153Y-98860393D01*
X130706153Y-98860394D01*
X130671500Y-98989723D01*
X130671500Y-99123613D01*
X130699272Y-99227262D01*
X130706154Y-99252944D01*
X130709265Y-99260456D01*
X130706677Y-99261527D01*
X130719930Y-99316203D01*
X130697065Y-99382225D01*
X130642135Y-99425405D01*
X130572581Y-99432032D01*
X130563980Y-99430053D01*
X130556946Y-99428168D01*
X130556945Y-99428168D01*
X130423055Y-99428168D01*
X130293725Y-99462821D01*
X130177774Y-99529767D01*
X130177771Y-99529769D01*
X130083101Y-99624439D01*
X130083099Y-99624442D01*
X130016153Y-99740393D01*
X129992837Y-99827412D01*
X129981500Y-99869723D01*
X129198680Y-99869723D01*
X129266724Y-99830437D01*
X129361399Y-99735762D01*
X129428345Y-99619810D01*
X129462998Y-99490481D01*
X129462998Y-99356591D01*
X129428345Y-99227262D01*
X129361399Y-99111310D01*
X129266724Y-99016635D01*
X129150772Y-98949689D01*
X129021443Y-98915036D01*
X128887553Y-98915036D01*
X128758223Y-98949689D01*
X128642272Y-99016635D01*
X128642269Y-99016637D01*
X128547599Y-99111307D01*
X128547597Y-99111310D01*
X128480651Y-99227261D01*
X128471953Y-99259723D01*
X128445998Y-99356591D01*
X112616450Y-99356591D01*
X112613426Y-99353567D01*
X112497474Y-99286621D01*
X112368145Y-99251968D01*
X112234255Y-99251968D01*
X112104925Y-99286621D01*
X111988974Y-99353567D01*
X111988971Y-99353569D01*
X111894301Y-99448239D01*
X111894299Y-99448242D01*
X111827353Y-99564193D01*
X111801756Y-99659725D01*
X111792700Y-99693523D01*
X81838500Y-99693523D01*
X81838500Y-99659723D01*
X81803847Y-99530394D01*
X81736901Y-99414442D01*
X81642226Y-99319767D01*
X81526274Y-99252821D01*
X81396945Y-99218168D01*
X81263055Y-99218168D01*
X81133725Y-99252821D01*
X81017774Y-99319767D01*
X81017771Y-99319769D01*
X80923101Y-99414439D01*
X80923099Y-99414442D01*
X80856153Y-99530393D01*
X80842924Y-99579767D01*
X80821500Y-99659723D01*
X71632182Y-99659723D01*
X71552226Y-99579767D01*
X71436274Y-99512821D01*
X71306945Y-99478168D01*
X71173055Y-99478168D01*
X71173053Y-99478168D01*
X71074592Y-99504550D01*
X71004742Y-99502887D01*
X70946880Y-99463724D01*
X70919377Y-99399495D01*
X70918500Y-99384775D01*
X70918500Y-99259725D01*
X70918500Y-99259723D01*
X70883847Y-99130394D01*
X70816901Y-99014442D01*
X70733982Y-98931523D01*
X74581700Y-98931523D01*
X74581700Y-99065413D01*
X74616353Y-99194742D01*
X74683299Y-99310694D01*
X74777974Y-99405369D01*
X74893926Y-99472315D01*
X75023255Y-99506968D01*
X75023257Y-99506968D01*
X75157143Y-99506968D01*
X75157145Y-99506968D01*
X75286474Y-99472315D01*
X75402426Y-99405369D01*
X75497101Y-99310694D01*
X75564047Y-99194742D01*
X75598700Y-99065413D01*
X75598700Y-98931523D01*
X75564047Y-98802194D01*
X75497101Y-98686242D01*
X75402426Y-98591567D01*
X75286474Y-98524621D01*
X75157145Y-98489968D01*
X75023255Y-98489968D01*
X74893925Y-98524621D01*
X74777974Y-98591567D01*
X74777971Y-98591569D01*
X74683301Y-98686239D01*
X74683299Y-98686242D01*
X74616353Y-98802193D01*
X74597204Y-98873660D01*
X74581700Y-98931523D01*
X70733982Y-98931523D01*
X70722226Y-98919767D01*
X70606274Y-98852821D01*
X70476945Y-98818168D01*
X70343055Y-98818168D01*
X70213725Y-98852821D01*
X70097774Y-98919767D01*
X70097771Y-98919769D01*
X70003101Y-99014439D01*
X70003099Y-99014442D01*
X69936153Y-99130393D01*
X69936153Y-99130394D01*
X69901500Y-99259723D01*
X62250137Y-99259723D01*
X60368377Y-96000419D01*
X60238827Y-95776032D01*
X60207723Y-95722159D01*
X121417238Y-95722159D01*
X121417238Y-95856049D01*
X121451891Y-95985378D01*
X121518837Y-96101330D01*
X121613512Y-96196005D01*
X121729464Y-96262951D01*
X121842453Y-96293225D01*
X121902113Y-96329590D01*
X121932642Y-96392436D01*
X121934359Y-96413000D01*
X121934359Y-96541211D01*
X121969012Y-96670540D01*
X122035958Y-96786492D01*
X122130633Y-96881167D01*
X122246585Y-96948113D01*
X122375914Y-96982766D01*
X122375916Y-96982766D01*
X122509802Y-96982766D01*
X122509804Y-96982766D01*
X122639133Y-96948113D01*
X122755085Y-96881167D01*
X122849760Y-96786492D01*
X122916706Y-96670540D01*
X122951359Y-96541211D01*
X122951359Y-96407321D01*
X122916706Y-96277992D01*
X122849760Y-96162040D01*
X122755085Y-96067365D01*
X122639133Y-96000419D01*
X122551689Y-95976988D01*
X122526144Y-95970144D01*
X122466484Y-95933779D01*
X122435955Y-95870932D01*
X122434238Y-95850369D01*
X122434238Y-95722161D01*
X122434238Y-95722159D01*
X122399585Y-95592830D01*
X122332639Y-95476878D01*
X122263203Y-95407442D01*
X122981220Y-95407442D01*
X122981220Y-95541332D01*
X123015873Y-95670661D01*
X123082819Y-95786613D01*
X123177494Y-95881288D01*
X123293446Y-95948234D01*
X123422775Y-95982887D01*
X123422777Y-95982887D01*
X123556663Y-95982887D01*
X123556665Y-95982887D01*
X123685994Y-95948234D01*
X123801946Y-95881288D01*
X123896621Y-95786613D01*
X123963567Y-95670661D01*
X123998220Y-95541332D01*
X123998220Y-95407442D01*
X123963567Y-95278113D01*
X123896621Y-95162161D01*
X123801946Y-95067486D01*
X123685994Y-95000540D01*
X123556665Y-94965887D01*
X123422775Y-94965887D01*
X123293445Y-95000540D01*
X123177494Y-95067486D01*
X123177491Y-95067488D01*
X123082821Y-95162158D01*
X123082819Y-95162161D01*
X123015873Y-95278112D01*
X123006139Y-95314442D01*
X122981220Y-95407442D01*
X122263203Y-95407442D01*
X122237964Y-95382203D01*
X122122012Y-95315257D01*
X121992683Y-95280604D01*
X121858793Y-95280604D01*
X121729463Y-95315257D01*
X121613512Y-95382203D01*
X121613509Y-95382205D01*
X121518839Y-95476875D01*
X121518837Y-95476878D01*
X121451891Y-95592829D01*
X121431037Y-95670661D01*
X121417238Y-95722159D01*
X60207723Y-95722159D01*
X59974898Y-95318894D01*
X59755983Y-94939723D01*
X62121500Y-94939723D01*
X62121500Y-95073613D01*
X62156153Y-95202942D01*
X62223099Y-95318894D01*
X62317774Y-95413569D01*
X62433726Y-95480515D01*
X62563055Y-95515168D01*
X62563057Y-95515168D01*
X62696943Y-95515168D01*
X62696945Y-95515168D01*
X62826274Y-95480515D01*
X62942226Y-95413569D01*
X63036901Y-95318894D01*
X63103847Y-95202942D01*
X63138500Y-95073613D01*
X63138500Y-94939723D01*
X63137824Y-94937200D01*
X63137876Y-94934989D01*
X63137439Y-94931667D01*
X63137957Y-94931598D01*
X63139483Y-94867352D01*
X63178643Y-94809488D01*
X63242870Y-94781981D01*
X63311773Y-94793564D01*
X63319598Y-94797717D01*
X63393720Y-94840512D01*
X63393721Y-94840512D01*
X63393726Y-94840515D01*
X63523055Y-94875168D01*
X63523057Y-94875168D01*
X63656943Y-94875168D01*
X63656945Y-94875168D01*
X63786274Y-94840515D01*
X63850764Y-94803281D01*
X128877943Y-94803281D01*
X128877943Y-94937171D01*
X128912596Y-95066500D01*
X128979542Y-95182452D01*
X129074217Y-95277127D01*
X129190169Y-95344073D01*
X129319498Y-95378726D01*
X129319500Y-95378726D01*
X129353943Y-95378726D01*
X129420982Y-95398411D01*
X129466737Y-95451215D01*
X129477943Y-95502726D01*
X129477943Y-95537171D01*
X129512596Y-95666500D01*
X129579542Y-95782452D01*
X129674217Y-95877127D01*
X129790169Y-95944073D01*
X129919498Y-95978726D01*
X129919500Y-95978726D01*
X130028943Y-95978726D01*
X130095982Y-95998411D01*
X130141737Y-96051215D01*
X130152943Y-96102726D01*
X130152943Y-96212171D01*
X130187596Y-96341500D01*
X130254542Y-96457452D01*
X130349217Y-96552127D01*
X130465169Y-96619073D01*
X130594498Y-96653726D01*
X130594500Y-96653726D01*
X130728386Y-96653726D01*
X130728388Y-96653726D01*
X130857717Y-96619073D01*
X130973669Y-96552127D01*
X131068344Y-96457452D01*
X131135290Y-96341500D01*
X131169943Y-96212171D01*
X131169943Y-96078281D01*
X131135290Y-95948952D01*
X131068344Y-95833000D01*
X130973669Y-95738325D01*
X130857717Y-95671379D01*
X130857684Y-95671370D01*
X130809755Y-95658527D01*
X130728388Y-95636726D01*
X130618943Y-95636726D01*
X130551904Y-95617041D01*
X130506149Y-95564237D01*
X130505167Y-95559723D01*
X142871500Y-95559723D01*
X142871500Y-95693613D01*
X142906153Y-95822942D01*
X142973099Y-95938894D01*
X143067774Y-96033569D01*
X143183726Y-96100515D01*
X143313055Y-96135168D01*
X143313057Y-96135168D01*
X143446943Y-96135168D01*
X143446945Y-96135168D01*
X143576274Y-96100515D01*
X143692226Y-96033569D01*
X143786901Y-95938894D01*
X143853847Y-95822942D01*
X143888500Y-95693613D01*
X143888500Y-95559723D01*
X143853847Y-95430394D01*
X143786901Y-95314442D01*
X143692226Y-95219767D01*
X143576274Y-95152821D01*
X143446945Y-95118168D01*
X143313055Y-95118168D01*
X143183725Y-95152821D01*
X143067774Y-95219767D01*
X143067771Y-95219769D01*
X142973101Y-95314439D01*
X142973099Y-95314442D01*
X142906153Y-95430393D01*
X142883438Y-95515168D01*
X142871500Y-95559723D01*
X130505167Y-95559723D01*
X130494943Y-95512726D01*
X130494943Y-95403283D01*
X130494943Y-95403281D01*
X130460290Y-95273952D01*
X130393344Y-95158000D01*
X130298669Y-95063325D01*
X130182717Y-94996379D01*
X130053388Y-94961726D01*
X130018943Y-94961726D01*
X129951904Y-94942041D01*
X129906149Y-94889237D01*
X129894943Y-94837726D01*
X129894943Y-94803283D01*
X129894943Y-94803281D01*
X129860290Y-94673952D01*
X129793344Y-94558000D01*
X129698669Y-94463325D01*
X129582717Y-94396379D01*
X129453388Y-94361726D01*
X129319498Y-94361726D01*
X129190168Y-94396379D01*
X129074217Y-94463325D01*
X129074214Y-94463327D01*
X128979544Y-94557997D01*
X128979542Y-94558000D01*
X128912596Y-94673951D01*
X128907106Y-94694442D01*
X128877943Y-94803281D01*
X63850764Y-94803281D01*
X63902226Y-94773569D01*
X63996901Y-94678894D01*
X64063847Y-94562942D01*
X64098500Y-94433613D01*
X64098500Y-94299723D01*
X64098500Y-94299168D01*
X64118185Y-94232129D01*
X64170989Y-94186374D01*
X64222500Y-94175168D01*
X64246943Y-94175168D01*
X64246945Y-94175168D01*
X64376274Y-94140515D01*
X64492226Y-94073569D01*
X64581075Y-93984720D01*
X111642657Y-93984720D01*
X111642657Y-94118610D01*
X111677310Y-94247939D01*
X111744256Y-94363891D01*
X111838931Y-94458566D01*
X111954883Y-94525512D01*
X112084212Y-94560165D01*
X112084214Y-94560165D01*
X112218100Y-94560165D01*
X112218102Y-94560165D01*
X112347431Y-94525512D01*
X112463383Y-94458566D01*
X112558058Y-94363891D01*
X112625004Y-94247939D01*
X112659657Y-94118610D01*
X112659657Y-94009723D01*
X142251500Y-94009723D01*
X142251500Y-94143613D01*
X142286153Y-94272942D01*
X142353099Y-94388894D01*
X142447774Y-94483569D01*
X142563726Y-94550515D01*
X142693055Y-94585168D01*
X142693057Y-94585168D01*
X142826943Y-94585168D01*
X142826945Y-94585168D01*
X142956274Y-94550515D01*
X143072226Y-94483569D01*
X143166901Y-94388894D01*
X143233847Y-94272942D01*
X143268500Y-94143613D01*
X143268500Y-94009723D01*
X143233847Y-93880394D01*
X143166901Y-93764442D01*
X143072226Y-93669767D01*
X142956274Y-93602821D01*
X142826945Y-93568168D01*
X142693055Y-93568168D01*
X142563725Y-93602821D01*
X142447774Y-93669767D01*
X142447771Y-93669769D01*
X142353101Y-93764439D01*
X142353099Y-93764442D01*
X142286153Y-93880393D01*
X142264885Y-93959767D01*
X142251500Y-94009723D01*
X112659657Y-94009723D01*
X112659657Y-93984720D01*
X112625004Y-93855391D01*
X112558058Y-93739439D01*
X112558053Y-93739434D01*
X112553111Y-93732993D01*
X112555607Y-93731077D01*
X112529232Y-93682775D01*
X112534216Y-93613083D01*
X112554775Y-93581123D01*
X112553110Y-93579846D01*
X112558054Y-93573401D01*
X112558055Y-93573398D01*
X112558059Y-93573395D01*
X112625005Y-93457443D01*
X112650050Y-93363974D01*
X115743827Y-93363974D01*
X115743827Y-93497864D01*
X115778480Y-93627193D01*
X115845426Y-93743145D01*
X115940101Y-93837820D01*
X116056053Y-93904766D01*
X116185382Y-93939419D01*
X116185384Y-93939419D01*
X116319270Y-93939419D01*
X116319272Y-93939419D01*
X116448601Y-93904766D01*
X116466886Y-93894209D01*
X116466889Y-93894208D01*
X116521032Y-93862947D01*
X116564553Y-93837820D01*
X116659228Y-93743145D01*
X116726174Y-93627193D01*
X116760827Y-93497864D01*
X116760827Y-93363974D01*
X116726174Y-93234645D01*
X116659228Y-93118693D01*
X116564553Y-93024018D01*
X116448601Y-92957072D01*
X116319272Y-92922419D01*
X116185382Y-92922419D01*
X116056052Y-92957072D01*
X115940101Y-93024018D01*
X115940098Y-93024020D01*
X115845428Y-93118690D01*
X115845426Y-93118693D01*
X115778480Y-93234644D01*
X115771748Y-93259769D01*
X115743827Y-93363974D01*
X112650050Y-93363974D01*
X112659658Y-93328114D01*
X112659658Y-93194224D01*
X112625005Y-93064895D01*
X112558059Y-92948943D01*
X112463384Y-92854268D01*
X112347432Y-92787322D01*
X112218103Y-92752669D01*
X112084213Y-92752669D01*
X111954883Y-92787322D01*
X111838932Y-92854268D01*
X111838929Y-92854270D01*
X111744259Y-92948940D01*
X111744257Y-92948943D01*
X111677311Y-93064894D01*
X111674987Y-93073568D01*
X111642658Y-93194224D01*
X111642658Y-93328114D01*
X111677311Y-93457443D01*
X111744257Y-93573395D01*
X111744260Y-93573398D01*
X111749204Y-93579841D01*
X111746707Y-93581756D01*
X111773082Y-93630058D01*
X111768098Y-93699750D01*
X111747556Y-93731729D01*
X111749203Y-93732993D01*
X111744256Y-93739439D01*
X111677310Y-93855390D01*
X111642657Y-93984720D01*
X64581075Y-93984720D01*
X64586901Y-93978894D01*
X64653847Y-93862942D01*
X64688500Y-93733613D01*
X64688500Y-93599723D01*
X64653847Y-93470394D01*
X64586901Y-93354442D01*
X64492226Y-93259767D01*
X64376274Y-93192821D01*
X64246945Y-93158168D01*
X64113055Y-93158168D01*
X63983725Y-93192821D01*
X63867774Y-93259767D01*
X63867771Y-93259769D01*
X63773101Y-93354439D01*
X63773099Y-93354442D01*
X63706153Y-93470393D01*
X63671500Y-93599723D01*
X63671500Y-93734168D01*
X63651815Y-93801207D01*
X63599011Y-93846962D01*
X63547500Y-93858168D01*
X63523055Y-93858168D01*
X63393725Y-93892821D01*
X63277774Y-93959767D01*
X63277771Y-93959769D01*
X63183101Y-94054439D01*
X63183099Y-94054442D01*
X63116153Y-94170393D01*
X63081500Y-94299723D01*
X63081500Y-94433617D01*
X63082177Y-94436141D01*
X63082124Y-94438352D01*
X63082561Y-94441669D01*
X63082043Y-94441737D01*
X63080513Y-94505991D01*
X63041350Y-94563853D01*
X62977120Y-94591355D01*
X62908218Y-94579767D01*
X62900401Y-94575619D01*
X62826275Y-94532821D01*
X62726141Y-94505991D01*
X62696945Y-94498168D01*
X62563055Y-94498168D01*
X62433725Y-94532821D01*
X62317774Y-94599767D01*
X62317771Y-94599769D01*
X62223101Y-94694439D01*
X62223099Y-94694442D01*
X62156153Y-94810393D01*
X62148082Y-94840515D01*
X62121500Y-94939723D01*
X59755983Y-94939723D01*
X58232125Y-92300323D01*
X83681500Y-92300323D01*
X83681500Y-92434213D01*
X83716153Y-92563542D01*
X83783099Y-92679494D01*
X83877774Y-92774169D01*
X83993726Y-92841115D01*
X84123055Y-92875768D01*
X84123057Y-92875768D01*
X84256943Y-92875768D01*
X84256945Y-92875768D01*
X84386274Y-92841115D01*
X84502226Y-92774169D01*
X84596901Y-92679494D01*
X84642958Y-92599723D01*
X118841500Y-92599723D01*
X118841500Y-92733613D01*
X118876153Y-92862942D01*
X118943099Y-92978894D01*
X119037774Y-93073569D01*
X119153726Y-93140515D01*
X119283055Y-93175168D01*
X119283057Y-93175168D01*
X119416943Y-93175168D01*
X119416945Y-93175168D01*
X119546274Y-93140515D01*
X119662226Y-93073569D01*
X119756901Y-92978894D01*
X119823847Y-92862942D01*
X119858500Y-92733613D01*
X119858500Y-92599723D01*
X119823847Y-92470394D01*
X119756901Y-92354442D01*
X119662226Y-92259767D01*
X119546274Y-92192821D01*
X119416945Y-92158168D01*
X119283055Y-92158168D01*
X119153725Y-92192821D01*
X119037774Y-92259767D01*
X119037771Y-92259769D01*
X118943101Y-92354439D01*
X118943099Y-92354442D01*
X118876153Y-92470393D01*
X118851194Y-92563543D01*
X118841500Y-92599723D01*
X84642958Y-92599723D01*
X84663847Y-92563542D01*
X84698500Y-92434213D01*
X84698500Y-92300323D01*
X84663847Y-92170994D01*
X84596901Y-92055042D01*
X84502226Y-91960367D01*
X84386274Y-91893421D01*
X84256945Y-91858768D01*
X84123055Y-91858768D01*
X83993725Y-91893421D01*
X83877774Y-91960367D01*
X83877771Y-91960369D01*
X83783101Y-92055039D01*
X83783099Y-92055042D01*
X83716153Y-92170993D01*
X83692367Y-92259767D01*
X83681500Y-92300323D01*
X58232125Y-92300323D01*
X57630939Y-91259038D01*
X71840185Y-91259038D01*
X71840185Y-91392928D01*
X71874838Y-91522257D01*
X71941784Y-91638209D01*
X72036459Y-91732884D01*
X72152411Y-91799830D01*
X72281740Y-91834483D01*
X72281742Y-91834483D01*
X72415628Y-91834483D01*
X72415630Y-91834483D01*
X72544959Y-91799830D01*
X72660911Y-91732884D01*
X72755586Y-91638209D01*
X72822532Y-91522257D01*
X72857185Y-91392928D01*
X72857185Y-91259038D01*
X72822532Y-91129709D01*
X72755586Y-91013757D01*
X72660911Y-90919082D01*
X72544959Y-90852136D01*
X72415630Y-90817483D01*
X72281740Y-90817483D01*
X72152410Y-90852136D01*
X72036459Y-90919082D01*
X72036456Y-90919084D01*
X71941786Y-91013754D01*
X71941784Y-91013757D01*
X71874838Y-91129708D01*
X71874838Y-91129709D01*
X71840185Y-91259038D01*
X57630939Y-91259038D01*
X57474885Y-90988745D01*
X57458413Y-90920847D01*
X57465372Y-90885394D01*
X57637726Y-90398308D01*
X59627500Y-90398308D01*
X59627500Y-90530092D01*
X59630093Y-90539769D01*
X59661608Y-90657387D01*
X59673521Y-90678020D01*
X59727500Y-90771514D01*
X59820686Y-90864700D01*
X59934814Y-90930592D01*
X60062108Y-90964700D01*
X60062110Y-90964700D01*
X60193890Y-90964700D01*
X60193892Y-90964700D01*
X60321186Y-90930592D01*
X60435314Y-90864700D01*
X60528500Y-90771514D01*
X60594392Y-90657386D01*
X60602876Y-90625723D01*
X74759500Y-90625723D01*
X74759500Y-90759613D01*
X74794153Y-90888942D01*
X74861099Y-91004894D01*
X74955774Y-91099569D01*
X75071726Y-91166515D01*
X75201055Y-91201168D01*
X75201057Y-91201168D01*
X75334943Y-91201168D01*
X75334945Y-91201168D01*
X75464274Y-91166515D01*
X75580226Y-91099569D01*
X75674901Y-91004894D01*
X75741847Y-90888942D01*
X75776500Y-90759613D01*
X75776500Y-90733523D01*
X88871500Y-90733523D01*
X88871500Y-90867413D01*
X88906153Y-90996742D01*
X88973099Y-91112694D01*
X89067774Y-91207369D01*
X89183726Y-91274315D01*
X89313055Y-91308968D01*
X89313057Y-91308968D01*
X89446943Y-91308968D01*
X89446945Y-91308968D01*
X89576274Y-91274315D01*
X89692226Y-91207369D01*
X89786901Y-91112694D01*
X89853847Y-90996742D01*
X89888500Y-90867413D01*
X89888500Y-90733523D01*
X89853847Y-90604194D01*
X89835733Y-90572821D01*
X89830408Y-90563597D01*
X89830407Y-90563594D01*
X89799304Y-90509723D01*
X121221500Y-90509723D01*
X121221500Y-90643613D01*
X121256153Y-90772942D01*
X121323099Y-90888894D01*
X121417774Y-90983569D01*
X121533726Y-91050515D01*
X121663055Y-91085168D01*
X121663057Y-91085168D01*
X121796943Y-91085168D01*
X121796945Y-91085168D01*
X121926274Y-91050515D01*
X122042226Y-90983569D01*
X122136901Y-90888894D01*
X122203847Y-90772942D01*
X122238500Y-90643613D01*
X122238500Y-90509723D01*
X122213066Y-90414801D01*
X126016421Y-90414801D01*
X126016421Y-90548691D01*
X126051074Y-90678020D01*
X126118020Y-90793972D01*
X126212695Y-90888647D01*
X126328647Y-90955593D01*
X126457976Y-90990246D01*
X126457978Y-90990246D01*
X126591864Y-90990246D01*
X126591866Y-90990246D01*
X126631139Y-90979723D01*
X143241500Y-90979723D01*
X143241500Y-91113613D01*
X143276153Y-91242942D01*
X143343099Y-91358894D01*
X143437774Y-91453569D01*
X143553726Y-91520515D01*
X143683055Y-91555168D01*
X143683057Y-91555168D01*
X143816943Y-91555168D01*
X143816945Y-91555168D01*
X143946274Y-91520515D01*
X144062226Y-91453569D01*
X144156901Y-91358894D01*
X144223847Y-91242942D01*
X144258500Y-91113613D01*
X144258500Y-90979723D01*
X144231706Y-90879723D01*
X149301500Y-90879723D01*
X149301500Y-91013613D01*
X149336153Y-91142942D01*
X149403099Y-91258894D01*
X149497774Y-91353569D01*
X149613726Y-91420515D01*
X149743055Y-91455168D01*
X149743057Y-91455168D01*
X149876943Y-91455168D01*
X149876945Y-91455168D01*
X150006274Y-91420515D01*
X150122226Y-91353569D01*
X150216901Y-91258894D01*
X150283847Y-91142942D01*
X150318500Y-91013613D01*
X150318500Y-90879723D01*
X150283847Y-90750394D01*
X150216901Y-90634442D01*
X150122226Y-90539767D01*
X150006274Y-90472821D01*
X149876945Y-90438168D01*
X149743055Y-90438168D01*
X149613725Y-90472821D01*
X149497774Y-90539767D01*
X149497771Y-90539769D01*
X149403101Y-90634439D01*
X149403099Y-90634442D01*
X149336153Y-90750393D01*
X149308892Y-90852136D01*
X149301500Y-90879723D01*
X144231706Y-90879723D01*
X144223847Y-90850394D01*
X144156901Y-90734442D01*
X144062226Y-90639767D01*
X143946274Y-90572821D01*
X143816945Y-90538168D01*
X143683055Y-90538168D01*
X143553725Y-90572821D01*
X143437774Y-90639767D01*
X143437771Y-90639769D01*
X143343101Y-90734439D01*
X143343099Y-90734442D01*
X143276153Y-90850393D01*
X143245526Y-90964699D01*
X143241500Y-90979723D01*
X126631139Y-90979723D01*
X126721195Y-90955593D01*
X126837147Y-90888647D01*
X126931822Y-90793972D01*
X126998768Y-90678020D01*
X127033421Y-90548691D01*
X127033421Y-90414801D01*
X126998768Y-90285472D01*
X126931822Y-90169520D01*
X126837147Y-90074845D01*
X126721195Y-90007899D01*
X126591866Y-89973246D01*
X126457976Y-89973246D01*
X126328646Y-90007899D01*
X126212695Y-90074845D01*
X126212692Y-90074847D01*
X126118022Y-90169517D01*
X126118020Y-90169520D01*
X126051074Y-90285471D01*
X126022110Y-90393569D01*
X126016421Y-90414801D01*
X122213066Y-90414801D01*
X122203847Y-90380394D01*
X122136901Y-90264442D01*
X122042226Y-90169767D01*
X121926274Y-90102821D01*
X121796945Y-90068168D01*
X121663055Y-90068168D01*
X121533725Y-90102821D01*
X121417774Y-90169767D01*
X121417771Y-90169769D01*
X121323101Y-90264439D01*
X121323099Y-90264442D01*
X121256153Y-90380393D01*
X121227256Y-90488242D01*
X121221500Y-90509723D01*
X89799304Y-90509723D01*
X89786905Y-90488248D01*
X89786902Y-90488245D01*
X89786901Y-90488242D01*
X89692226Y-90393567D01*
X89576274Y-90326621D01*
X89446945Y-90291968D01*
X89313055Y-90291968D01*
X89183725Y-90326621D01*
X89067774Y-90393567D01*
X89067771Y-90393569D01*
X88973101Y-90488239D01*
X88973099Y-90488242D01*
X88906153Y-90604193D01*
X88898049Y-90634439D01*
X88871500Y-90733523D01*
X75776500Y-90733523D01*
X75776500Y-90625723D01*
X75741847Y-90496394D01*
X75674901Y-90380442D01*
X75580226Y-90285767D01*
X75464274Y-90218821D01*
X75334945Y-90184168D01*
X75201055Y-90184168D01*
X75071725Y-90218821D01*
X74955774Y-90285767D01*
X74955771Y-90285769D01*
X74861101Y-90380439D01*
X74861099Y-90380442D01*
X74794153Y-90496393D01*
X74768243Y-90593092D01*
X74759500Y-90625723D01*
X60602876Y-90625723D01*
X60628500Y-90530092D01*
X60628500Y-90398308D01*
X60594392Y-90271014D01*
X60528500Y-90156886D01*
X60435314Y-90063700D01*
X60377834Y-90030514D01*
X60321187Y-89997808D01*
X60229518Y-89973246D01*
X60193892Y-89963700D01*
X60062108Y-89963700D01*
X59934812Y-89997808D01*
X59820686Y-90063700D01*
X59820683Y-90063702D01*
X59727502Y-90156883D01*
X59727500Y-90156886D01*
X59661608Y-90271012D01*
X59646708Y-90326621D01*
X59627500Y-90398308D01*
X57637726Y-90398308D01*
X57934456Y-89559723D01*
X70371500Y-89559723D01*
X70371500Y-89693613D01*
X70406153Y-89822942D01*
X70473099Y-89938894D01*
X70567774Y-90033569D01*
X70683726Y-90100515D01*
X70813055Y-90135168D01*
X70813057Y-90135168D01*
X70946943Y-90135168D01*
X70946945Y-90135168D01*
X71076274Y-90100515D01*
X71192226Y-90033569D01*
X71286901Y-89938894D01*
X71353847Y-89822942D01*
X71361922Y-89792806D01*
X119875600Y-89792806D01*
X119875600Y-89926696D01*
X119910253Y-90056025D01*
X119977199Y-90171977D01*
X120071874Y-90266652D01*
X120187826Y-90333598D01*
X120317155Y-90368251D01*
X120317157Y-90368251D01*
X120451043Y-90368251D01*
X120451045Y-90368251D01*
X120580374Y-90333598D01*
X120696326Y-90266652D01*
X120791001Y-90171977D01*
X120857947Y-90056025D01*
X120892600Y-89926696D01*
X120892600Y-89792806D01*
X120857947Y-89663477D01*
X120791001Y-89547525D01*
X120733199Y-89489723D01*
X131241500Y-89489723D01*
X131241500Y-89623613D01*
X131276153Y-89752942D01*
X131343099Y-89868894D01*
X131437774Y-89963569D01*
X131553726Y-90030515D01*
X131683055Y-90065168D01*
X131683057Y-90065168D01*
X131816943Y-90065168D01*
X131816945Y-90065168D01*
X131833217Y-90060808D01*
X153149500Y-90060808D01*
X153149500Y-90192591D01*
X153183608Y-90319887D01*
X153211531Y-90368250D01*
X153249500Y-90434014D01*
X153342686Y-90527200D01*
X153421704Y-90572821D01*
X153443669Y-90585503D01*
X153456814Y-90593092D01*
X153584108Y-90627200D01*
X153584110Y-90627200D01*
X153715890Y-90627200D01*
X153715892Y-90627200D01*
X153843186Y-90593092D01*
X153957314Y-90527200D01*
X154050500Y-90434014D01*
X154116392Y-90319886D01*
X154150500Y-90192592D01*
X154150500Y-90060808D01*
X154116392Y-89933514D01*
X154112454Y-89926694D01*
X154107563Y-89918221D01*
X154050500Y-89819386D01*
X153957314Y-89726200D01*
X153900250Y-89693254D01*
X153843187Y-89660308D01*
X153749361Y-89635168D01*
X153715892Y-89626200D01*
X153584108Y-89626200D01*
X153456812Y-89660308D01*
X153342686Y-89726200D01*
X153342683Y-89726202D01*
X153249502Y-89819383D01*
X153249500Y-89819386D01*
X153183608Y-89933512D01*
X153149500Y-90060808D01*
X131833217Y-90060808D01*
X131946274Y-90030515D01*
X132062226Y-89963569D01*
X132156901Y-89868894D01*
X132223847Y-89752942D01*
X132258500Y-89623613D01*
X132258500Y-89489723D01*
X132223847Y-89360394D01*
X132156901Y-89244442D01*
X132062226Y-89149767D01*
X131946274Y-89082821D01*
X131816945Y-89048168D01*
X131683055Y-89048168D01*
X131553725Y-89082821D01*
X131437774Y-89149767D01*
X131437771Y-89149769D01*
X131343101Y-89244439D01*
X131343099Y-89244442D01*
X131276153Y-89360393D01*
X131276153Y-89360394D01*
X131241500Y-89489723D01*
X120733199Y-89489723D01*
X120696326Y-89452850D01*
X120580374Y-89385904D01*
X120451045Y-89351251D01*
X120317155Y-89351251D01*
X120187825Y-89385904D01*
X120071874Y-89452850D01*
X120071871Y-89452852D01*
X119977201Y-89547522D01*
X119977199Y-89547525D01*
X119910253Y-89663476D01*
X119910253Y-89663477D01*
X119875600Y-89792806D01*
X71361922Y-89792806D01*
X71388500Y-89693613D01*
X71388500Y-89559723D01*
X71353847Y-89430394D01*
X71286901Y-89314442D01*
X71192226Y-89219767D01*
X71192223Y-89219765D01*
X71192219Y-89219762D01*
X71086949Y-89158983D01*
X71086948Y-89158983D01*
X71076277Y-89152822D01*
X71076274Y-89152821D01*
X70946945Y-89118168D01*
X70813055Y-89118168D01*
X70683725Y-89152821D01*
X70567774Y-89219767D01*
X70567771Y-89219769D01*
X70473101Y-89314439D01*
X70473099Y-89314442D01*
X70406153Y-89430393D01*
X70378509Y-89533566D01*
X70371500Y-89559723D01*
X57934456Y-89559723D01*
X58111379Y-89059723D01*
X111760500Y-89059723D01*
X111760500Y-89193613D01*
X111795153Y-89322942D01*
X111862099Y-89438894D01*
X111956774Y-89533569D01*
X112072726Y-89600515D01*
X112202055Y-89635168D01*
X112202057Y-89635168D01*
X112335943Y-89635168D01*
X112335945Y-89635168D01*
X112465274Y-89600515D01*
X112581226Y-89533569D01*
X112675901Y-89438894D01*
X112742847Y-89322942D01*
X112777500Y-89193613D01*
X112777500Y-89059723D01*
X112742847Y-88930394D01*
X112675901Y-88814442D01*
X112581226Y-88719767D01*
X112465274Y-88652821D01*
X112335945Y-88618168D01*
X112202055Y-88618168D01*
X112072725Y-88652821D01*
X111956774Y-88719767D01*
X111956771Y-88719769D01*
X111862101Y-88814439D01*
X111862099Y-88814442D01*
X111795153Y-88930393D01*
X111787409Y-88959294D01*
X111760500Y-89059723D01*
X58111379Y-89059723D01*
X58314584Y-88485448D01*
X118135775Y-88485448D01*
X118135775Y-88619338D01*
X118170428Y-88748667D01*
X118237374Y-88864619D01*
X118332049Y-88959294D01*
X118448001Y-89026240D01*
X118577330Y-89060893D01*
X118577332Y-89060893D01*
X118711218Y-89060893D01*
X118711220Y-89060893D01*
X118840549Y-89026240D01*
X118956501Y-88959294D01*
X119051176Y-88864619D01*
X119118122Y-88748667D01*
X119118122Y-88748666D01*
X119122186Y-88741628D01*
X119124008Y-88742680D01*
X119160827Y-88696976D01*
X119227117Y-88674900D01*
X119263648Y-88679043D01*
X119371783Y-88708018D01*
X119371786Y-88708018D01*
X119505671Y-88708018D01*
X119505673Y-88708018D01*
X119635002Y-88673365D01*
X119750954Y-88606419D01*
X119789031Y-88568341D01*
X119850352Y-88534857D01*
X119920043Y-88539841D01*
X119975977Y-88581711D01*
X119984092Y-88594013D01*
X120033099Y-88678894D01*
X120127774Y-88773569D01*
X120243726Y-88840515D01*
X120373055Y-88875168D01*
X120373057Y-88875168D01*
X120506943Y-88875168D01*
X120506945Y-88875168D01*
X120636274Y-88840515D01*
X120752226Y-88773569D01*
X120846901Y-88678894D01*
X120913847Y-88562942D01*
X120917737Y-88548423D01*
X120954098Y-88488766D01*
X121016944Y-88458235D01*
X121074850Y-88464806D01*
X121075307Y-88463104D01*
X121083156Y-88465207D01*
X121083158Y-88465208D01*
X121212487Y-88499861D01*
X121212489Y-88499861D01*
X121346375Y-88499861D01*
X121346377Y-88499861D01*
X121475706Y-88465208D01*
X121591658Y-88398262D01*
X121686333Y-88303587D01*
X121753279Y-88187635D01*
X121787932Y-88058306D01*
X121787932Y-87924416D01*
X121753279Y-87795087D01*
X121686333Y-87679135D01*
X121591658Y-87584460D01*
X121475706Y-87517514D01*
X121346377Y-87482861D01*
X121212487Y-87482861D01*
X121083157Y-87517514D01*
X120967206Y-87584460D01*
X120967203Y-87584462D01*
X120872533Y-87679132D01*
X120872531Y-87679135D01*
X120805584Y-87795087D01*
X120801694Y-87809607D01*
X120765328Y-87869267D01*
X120702480Y-87899795D01*
X120644580Y-87893224D01*
X120644125Y-87894925D01*
X120636275Y-87892821D01*
X120636274Y-87892821D01*
X120506945Y-87858168D01*
X120373055Y-87858168D01*
X120243725Y-87892821D01*
X120127774Y-87959767D01*
X120127770Y-87959770D01*
X120089696Y-87997844D01*
X120028373Y-88031329D01*
X119958681Y-88026343D01*
X119902748Y-87984471D01*
X119894633Y-87972168D01*
X119845629Y-87887292D01*
X119750954Y-87792617D01*
X119635002Y-87725671D01*
X119505673Y-87691018D01*
X119371783Y-87691018D01*
X119242453Y-87725671D01*
X119126502Y-87792617D01*
X119126499Y-87792619D01*
X119031829Y-87887289D01*
X119031827Y-87887292D01*
X118982827Y-87972162D01*
X118960817Y-88010283D01*
X118958998Y-88009232D01*
X118922150Y-88054952D01*
X118855854Y-88077011D01*
X118819348Y-88072865D01*
X118711220Y-88043893D01*
X118577330Y-88043893D01*
X118448000Y-88078546D01*
X118332049Y-88145492D01*
X118332046Y-88145494D01*
X118237376Y-88240164D01*
X118237374Y-88240167D01*
X118170428Y-88356118D01*
X118170428Y-88356119D01*
X118135775Y-88485448D01*
X58314584Y-88485448D01*
X58995994Y-86559723D01*
X96871500Y-86559723D01*
X96871500Y-86693613D01*
X96906153Y-86822942D01*
X96973099Y-86938894D01*
X97067774Y-87033569D01*
X97183726Y-87100515D01*
X97313055Y-87135168D01*
X97313057Y-87135168D01*
X97446943Y-87135168D01*
X97446945Y-87135168D01*
X97576274Y-87100515D01*
X97692226Y-87033569D01*
X97786901Y-86938894D01*
X97853847Y-86822942D01*
X97854870Y-86819123D01*
X101159099Y-86819123D01*
X101159099Y-86953013D01*
X101193752Y-87082342D01*
X101260698Y-87198294D01*
X101355373Y-87292969D01*
X101471325Y-87359915D01*
X101600654Y-87394568D01*
X101600656Y-87394568D01*
X101734542Y-87394568D01*
X101734544Y-87394568D01*
X101863873Y-87359915D01*
X101979825Y-87292969D01*
X102074500Y-87198294D01*
X102141446Y-87082342D01*
X102155545Y-87029723D01*
X109844559Y-87029723D01*
X109844559Y-87163613D01*
X109879212Y-87292942D01*
X109946158Y-87408894D01*
X110040833Y-87503569D01*
X110156785Y-87570515D01*
X110286114Y-87605168D01*
X110286116Y-87605168D01*
X110420002Y-87605168D01*
X110420004Y-87605168D01*
X110549333Y-87570515D01*
X110665285Y-87503569D01*
X110719786Y-87449067D01*
X110781105Y-87415585D01*
X110850797Y-87420569D01*
X110895145Y-87449070D01*
X110898939Y-87452864D01*
X111014891Y-87519810D01*
X111144220Y-87554463D01*
X111144222Y-87554463D01*
X111278108Y-87554463D01*
X111278110Y-87554463D01*
X111407439Y-87519810D01*
X111523391Y-87452864D01*
X111618066Y-87358189D01*
X111618066Y-87358188D01*
X111623813Y-87352442D01*
X111625784Y-87354413D01*
X111671227Y-87321214D01*
X111740972Y-87317041D01*
X111801901Y-87351238D01*
X111832979Y-87405797D01*
X111847522Y-87460072D01*
X111860680Y-87482861D01*
X111914469Y-87576025D01*
X112009144Y-87670700D01*
X112125096Y-87737646D01*
X112254425Y-87772299D01*
X112254427Y-87772299D01*
X112388313Y-87772299D01*
X112388315Y-87772299D01*
X112517644Y-87737646D01*
X112633596Y-87670700D01*
X112728271Y-87576025D01*
X112795217Y-87460073D01*
X112819426Y-87369723D01*
X115611500Y-87369723D01*
X115611500Y-87503613D01*
X115646153Y-87632942D01*
X115713099Y-87748894D01*
X115807774Y-87843569D01*
X115923726Y-87910515D01*
X116053055Y-87945168D01*
X116053057Y-87945168D01*
X116186943Y-87945168D01*
X116186945Y-87945168D01*
X116316274Y-87910515D01*
X116432226Y-87843569D01*
X116526901Y-87748894D01*
X116593847Y-87632942D01*
X116628500Y-87503613D01*
X116628500Y-87369723D01*
X130944300Y-87369723D01*
X130944300Y-87503613D01*
X130978953Y-87632942D01*
X131045899Y-87748894D01*
X131140574Y-87843569D01*
X131256526Y-87910515D01*
X131385855Y-87945168D01*
X131385857Y-87945168D01*
X131519743Y-87945168D01*
X131519745Y-87945168D01*
X131649074Y-87910515D01*
X131765026Y-87843569D01*
X131859701Y-87748894D01*
X131926647Y-87632942D01*
X131961300Y-87503613D01*
X131961300Y-87499723D01*
X150041500Y-87499723D01*
X150041500Y-87633613D01*
X150076153Y-87762942D01*
X150143099Y-87878894D01*
X150237774Y-87973569D01*
X150353726Y-88040515D01*
X150483055Y-88075168D01*
X150483057Y-88075168D01*
X150616943Y-88075168D01*
X150616945Y-88075168D01*
X150746274Y-88040515D01*
X150862226Y-87973569D01*
X150956901Y-87878894D01*
X150962196Y-87869723D01*
X153991500Y-87869723D01*
X153991500Y-88003613D01*
X154026153Y-88132942D01*
X154093099Y-88248894D01*
X154187774Y-88343569D01*
X154303726Y-88410515D01*
X154433055Y-88445168D01*
X154433057Y-88445168D01*
X154566943Y-88445168D01*
X154566945Y-88445168D01*
X154696274Y-88410515D01*
X154812226Y-88343569D01*
X154906901Y-88248894D01*
X154973847Y-88132942D01*
X155008500Y-88003613D01*
X155008500Y-87869723D01*
X154973847Y-87740394D01*
X154906901Y-87624442D01*
X154812226Y-87529767D01*
X154696274Y-87462821D01*
X154566945Y-87428168D01*
X154433055Y-87428168D01*
X154303725Y-87462821D01*
X154187774Y-87529767D01*
X154187771Y-87529769D01*
X154093101Y-87624439D01*
X154093099Y-87624442D01*
X154026153Y-87740393D01*
X154011498Y-87795087D01*
X153991500Y-87869723D01*
X150962196Y-87869723D01*
X151023847Y-87762942D01*
X151058500Y-87633613D01*
X151058500Y-87499723D01*
X151023847Y-87370394D01*
X150956901Y-87254442D01*
X150936806Y-87234347D01*
X150903322Y-87173023D01*
X150908308Y-87103331D01*
X150936807Y-87058987D01*
X150966901Y-87028894D01*
X151033847Y-86912942D01*
X151068500Y-86783613D01*
X151068500Y-86649723D01*
X151033847Y-86520394D01*
X150966901Y-86404442D01*
X150872226Y-86309767D01*
X150756274Y-86242821D01*
X150626945Y-86208168D01*
X150493055Y-86208168D01*
X150363725Y-86242821D01*
X150247774Y-86309767D01*
X150247771Y-86309769D01*
X150153101Y-86404439D01*
X150153099Y-86404442D01*
X150086153Y-86520393D01*
X150074727Y-86563036D01*
X150051500Y-86649723D01*
X150051500Y-86783613D01*
X150086153Y-86912942D01*
X150153099Y-87028894D01*
X150153101Y-87028896D01*
X150173191Y-87048986D01*
X150206676Y-87110309D01*
X150201692Y-87180001D01*
X150173194Y-87224346D01*
X150143099Y-87254442D01*
X150076153Y-87370393D01*
X150064044Y-87415585D01*
X150041500Y-87499723D01*
X131961300Y-87499723D01*
X131961300Y-87369723D01*
X131926647Y-87240394D01*
X131859701Y-87124442D01*
X131765026Y-87029767D01*
X131649074Y-86962821D01*
X131519745Y-86928168D01*
X131385855Y-86928168D01*
X131256525Y-86962821D01*
X131140574Y-87029767D01*
X131140571Y-87029769D01*
X131045901Y-87124439D01*
X131045899Y-87124442D01*
X130978953Y-87240393D01*
X130964866Y-87292968D01*
X130944300Y-87369723D01*
X116628500Y-87369723D01*
X116593847Y-87240394D01*
X116526901Y-87124442D01*
X116432226Y-87029767D01*
X116316274Y-86962821D01*
X116186945Y-86928168D01*
X116053055Y-86928168D01*
X115923725Y-86962821D01*
X115807774Y-87029767D01*
X115807771Y-87029769D01*
X115713101Y-87124439D01*
X115713099Y-87124442D01*
X115646153Y-87240393D01*
X115632066Y-87292968D01*
X115611500Y-87369723D01*
X112819426Y-87369723D01*
X112829870Y-87330744D01*
X112829870Y-87196854D01*
X112795217Y-87067525D01*
X112728271Y-86951573D01*
X112633596Y-86856898D01*
X112517644Y-86789952D01*
X112388315Y-86755299D01*
X112254425Y-86755299D01*
X112125095Y-86789952D01*
X112009144Y-86856898D01*
X112009141Y-86856900D01*
X111908722Y-86957320D01*
X111906757Y-86955355D01*
X111861249Y-86988568D01*
X111791502Y-86992706D01*
X111730590Y-86958479D01*
X111699554Y-86903962D01*
X111691154Y-86872612D01*
X111685012Y-86849689D01*
X111618066Y-86733737D01*
X111523391Y-86639062D01*
X111407439Y-86572116D01*
X111278110Y-86537463D01*
X111144220Y-86537463D01*
X111014890Y-86572116D01*
X110898939Y-86639061D01*
X110844440Y-86693561D01*
X110783116Y-86727045D01*
X110713424Y-86722060D01*
X110669078Y-86693560D01*
X110665287Y-86689769D01*
X110665285Y-86689767D01*
X110549333Y-86622821D01*
X110420004Y-86588168D01*
X110286114Y-86588168D01*
X110156784Y-86622821D01*
X110040833Y-86689767D01*
X110040830Y-86689769D01*
X109946160Y-86784439D01*
X109946158Y-86784442D01*
X109879212Y-86900393D01*
X109852003Y-87001942D01*
X109844559Y-87029723D01*
X102155545Y-87029723D01*
X102176099Y-86953013D01*
X102176099Y-86819123D01*
X102141446Y-86689794D01*
X102074500Y-86573842D01*
X101979825Y-86479167D01*
X101863873Y-86412221D01*
X101734544Y-86377568D01*
X101600654Y-86377568D01*
X101471324Y-86412221D01*
X101355373Y-86479167D01*
X101355370Y-86479169D01*
X101260700Y-86573839D01*
X101260698Y-86573842D01*
X101193752Y-86689793D01*
X101181978Y-86733737D01*
X101159099Y-86819123D01*
X97854870Y-86819123D01*
X97888500Y-86693613D01*
X97888500Y-86559723D01*
X97853847Y-86430394D01*
X97786901Y-86314442D01*
X97692226Y-86219767D01*
X97576274Y-86152821D01*
X97446945Y-86118168D01*
X97313055Y-86118168D01*
X97183725Y-86152821D01*
X97067774Y-86219767D01*
X97067771Y-86219769D01*
X96973101Y-86314439D01*
X96973099Y-86314442D01*
X96906153Y-86430393D01*
X96883932Y-86513326D01*
X96871500Y-86559723D01*
X58995994Y-86559723D01*
X59529254Y-85052686D01*
X109743525Y-85052686D01*
X109743525Y-85186576D01*
X109778178Y-85315905D01*
X109845124Y-85431857D01*
X109939799Y-85526532D01*
X110055751Y-85593478D01*
X110185080Y-85628131D01*
X110185082Y-85628131D01*
X110318968Y-85628131D01*
X110318970Y-85628131D01*
X110448299Y-85593478D01*
X110564251Y-85526532D01*
X110658926Y-85431857D01*
X110725872Y-85315905D01*
X110760525Y-85186576D01*
X110760525Y-85052686D01*
X110725872Y-84923357D01*
X110710172Y-84896165D01*
X110688191Y-84858093D01*
X110658926Y-84807405D01*
X110564251Y-84712730D01*
X110448299Y-84645784D01*
X110318970Y-84611131D01*
X110185080Y-84611131D01*
X110055750Y-84645784D01*
X109939799Y-84712730D01*
X109939796Y-84712732D01*
X109845126Y-84807402D01*
X109845124Y-84807405D01*
X109778178Y-84923356D01*
X109760097Y-84990837D01*
X109743525Y-85052686D01*
X59529254Y-85052686D01*
X59827533Y-84209723D01*
X104321500Y-84209723D01*
X104321500Y-84343613D01*
X104356153Y-84472942D01*
X104423099Y-84588894D01*
X104517774Y-84683569D01*
X104633726Y-84750515D01*
X104763055Y-84785168D01*
X104763057Y-84785168D01*
X104896943Y-84785168D01*
X104896945Y-84785168D01*
X105026274Y-84750515D01*
X105142226Y-84683569D01*
X105236901Y-84588894D01*
X105303847Y-84472942D01*
X105338500Y-84343613D01*
X105338500Y-84209723D01*
X105335767Y-84199523D01*
X110675100Y-84199523D01*
X110675100Y-84333413D01*
X110709753Y-84462742D01*
X110776699Y-84578694D01*
X110871374Y-84673369D01*
X110987326Y-84740315D01*
X111116655Y-84774968D01*
X111116657Y-84774968D01*
X111250542Y-84774968D01*
X111250545Y-84774968D01*
X111332386Y-84753039D01*
X111402232Y-84754702D01*
X111460095Y-84793864D01*
X111487599Y-84858093D01*
X111487487Y-84877196D01*
X111487900Y-84877196D01*
X111487900Y-84885323D01*
X111487900Y-85019213D01*
X111522553Y-85148542D01*
X111589499Y-85264494D01*
X111684174Y-85359169D01*
X111800126Y-85426115D01*
X111929455Y-85460768D01*
X111929457Y-85460768D01*
X112063343Y-85460768D01*
X112063345Y-85460768D01*
X112192674Y-85426115D01*
X112308626Y-85359169D01*
X112403301Y-85264494D01*
X112419682Y-85236121D01*
X121641500Y-85236121D01*
X121641500Y-85370011D01*
X121676153Y-85499340D01*
X121743099Y-85615292D01*
X121837774Y-85709967D01*
X121953726Y-85776913D01*
X122083055Y-85811566D01*
X122083057Y-85811566D01*
X122216943Y-85811566D01*
X122216945Y-85811566D01*
X122346274Y-85776913D01*
X122462226Y-85709967D01*
X122470368Y-85701824D01*
X122531688Y-85668339D01*
X122601379Y-85673321D01*
X122657314Y-85715190D01*
X122665436Y-85727502D01*
X122713972Y-85811565D01*
X122733099Y-85844694D01*
X122827774Y-85939369D01*
X122943726Y-86006315D01*
X123073055Y-86040968D01*
X123073057Y-86040968D01*
X123206942Y-86040968D01*
X123206945Y-86040968D01*
X123220010Y-86037467D01*
X123289857Y-86039128D01*
X123347721Y-86078289D01*
X123361509Y-86098875D01*
X123368200Y-86111418D01*
X123370481Y-86119929D01*
X123400218Y-86171434D01*
X123401199Y-86173273D01*
X123407884Y-86205512D01*
X123415654Y-86237538D01*
X123414948Y-86239577D01*
X123415386Y-86241688D01*
X123403575Y-86272435D01*
X123392802Y-86303565D01*
X123390984Y-86305217D01*
X123390334Y-86306911D01*
X123384054Y-86311517D01*
X123353796Y-86339025D01*
X123330618Y-86352407D01*
X123330612Y-86352411D01*
X123235942Y-86447081D01*
X123235940Y-86447084D01*
X123168994Y-86563035D01*
X123148623Y-86639062D01*
X123134341Y-86692365D01*
X123134341Y-86826255D01*
X123168994Y-86955584D01*
X123235940Y-87071536D01*
X123330615Y-87166211D01*
X123446567Y-87233157D01*
X123575896Y-87267810D01*
X123575898Y-87267810D01*
X123709784Y-87267810D01*
X123709786Y-87267810D01*
X123839115Y-87233157D01*
X123955067Y-87166211D01*
X124049742Y-87071536D01*
X124116688Y-86955584D01*
X124151341Y-86826255D01*
X124151341Y-86738723D01*
X125192362Y-86738723D01*
X125192362Y-86872613D01*
X125227015Y-87001942D01*
X125293961Y-87117894D01*
X125388636Y-87212569D01*
X125504588Y-87279515D01*
X125633917Y-87314168D01*
X125633919Y-87314168D01*
X125767805Y-87314168D01*
X125767807Y-87314168D01*
X125897136Y-87279515D01*
X126013088Y-87212569D01*
X126107763Y-87117894D01*
X126174709Y-87001942D01*
X126209362Y-86872613D01*
X126209362Y-86738723D01*
X126174709Y-86609394D01*
X126107763Y-86493442D01*
X126013088Y-86398767D01*
X125897136Y-86331821D01*
X125767807Y-86297168D01*
X125633917Y-86297168D01*
X125504587Y-86331821D01*
X125388636Y-86398767D01*
X125388633Y-86398769D01*
X125293963Y-86493439D01*
X125293961Y-86493442D01*
X125227015Y-86609393D01*
X125204449Y-86693612D01*
X125192362Y-86738723D01*
X124151341Y-86738723D01*
X124151341Y-86692365D01*
X124116688Y-86563036D01*
X124116685Y-86563030D01*
X124087988Y-86513326D01*
X124071514Y-86445426D01*
X124094366Y-86379399D01*
X124133372Y-86343940D01*
X124156554Y-86330556D01*
X124251229Y-86235881D01*
X124318175Y-86119929D01*
X124352828Y-85990600D01*
X124352828Y-85856710D01*
X124318175Y-85727381D01*
X124311136Y-85715190D01*
X124259063Y-85624997D01*
X124259062Y-85624996D01*
X124251231Y-85611432D01*
X124251226Y-85611426D01*
X124210923Y-85571123D01*
X136710100Y-85571123D01*
X136710100Y-85705013D01*
X136744753Y-85834342D01*
X136811699Y-85950294D01*
X136906374Y-86044969D01*
X137022326Y-86111915D01*
X137151655Y-86146568D01*
X137151657Y-86146568D01*
X137285543Y-86146568D01*
X137285545Y-86146568D01*
X137414874Y-86111915D01*
X137530826Y-86044969D01*
X137625501Y-85950294D01*
X137692447Y-85834342D01*
X137727100Y-85705013D01*
X137727100Y-85571123D01*
X137692447Y-85441794D01*
X137625501Y-85325842D01*
X137530826Y-85231167D01*
X137414874Y-85164221D01*
X137285545Y-85129568D01*
X137151655Y-85129568D01*
X137022325Y-85164221D01*
X136906374Y-85231167D01*
X136906371Y-85231169D01*
X136811701Y-85325839D01*
X136811699Y-85325842D01*
X136744753Y-85441793D01*
X136742101Y-85451690D01*
X136710100Y-85571123D01*
X124210923Y-85571123D01*
X124156556Y-85516756D01*
X124156554Y-85516754D01*
X124040602Y-85449808D01*
X123911273Y-85415155D01*
X123777383Y-85415155D01*
X123777378Y-85415155D01*
X123764310Y-85418657D01*
X123694461Y-85416991D01*
X123636600Y-85377826D01*
X123618649Y-85342994D01*
X123616954Y-85343697D01*
X123613846Y-85336192D01*
X123572450Y-85264494D01*
X123546901Y-85220242D01*
X123452226Y-85125567D01*
X123336274Y-85058621D01*
X123206945Y-85023968D01*
X123073055Y-85023968D01*
X122943725Y-85058621D01*
X122827774Y-85125567D01*
X122827769Y-85125571D01*
X122819627Y-85133713D01*
X122758303Y-85167196D01*
X122688611Y-85162209D01*
X122632679Y-85120336D01*
X122624563Y-85108030D01*
X122556905Y-84990846D01*
X122556902Y-84990843D01*
X122556901Y-84990840D01*
X122462226Y-84896165D01*
X122346274Y-84829219D01*
X122216945Y-84794566D01*
X122083055Y-84794566D01*
X121953725Y-84829219D01*
X121837774Y-84896165D01*
X121837771Y-84896167D01*
X121743101Y-84990837D01*
X121743099Y-84990840D01*
X121676153Y-85106791D01*
X121654775Y-85186576D01*
X121641500Y-85236121D01*
X112419682Y-85236121D01*
X112470247Y-85148542D01*
X112504900Y-85019213D01*
X112504900Y-84885323D01*
X112470247Y-84755994D01*
X112403301Y-84640042D01*
X112308626Y-84545367D01*
X112192674Y-84478421D01*
X112063345Y-84443768D01*
X112001824Y-84443768D01*
X111934785Y-84424083D01*
X111889030Y-84371279D01*
X111879086Y-84302121D01*
X111908111Y-84238565D01*
X111939823Y-84212381D01*
X111945274Y-84209234D01*
X112030869Y-84159815D01*
X113965341Y-84159815D01*
X113965341Y-84293705D01*
X113999994Y-84423034D01*
X114066940Y-84538986D01*
X114161615Y-84633661D01*
X114277567Y-84700607D01*
X114406896Y-84735260D01*
X114406898Y-84735260D01*
X114540784Y-84735260D01*
X114540786Y-84735260D01*
X114670115Y-84700607D01*
X114744144Y-84657865D01*
X114812042Y-84641392D01*
X114878069Y-84664243D01*
X114913530Y-84703251D01*
X114978446Y-84815686D01*
X114978449Y-84815690D01*
X114978451Y-84815693D01*
X115073126Y-84910368D01*
X115189078Y-84977314D01*
X115318407Y-85011967D01*
X115318409Y-85011967D01*
X115452295Y-85011967D01*
X115452297Y-85011967D01*
X115581626Y-84977314D01*
X115697578Y-84910368D01*
X115792253Y-84815693D01*
X115859199Y-84699741D01*
X115893852Y-84570412D01*
X115893852Y-84436522D01*
X115859199Y-84307193D01*
X115792253Y-84191241D01*
X115697578Y-84096566D01*
X115669566Y-84080393D01*
X115581627Y-84029620D01*
X115516961Y-84012293D01*
X115457358Y-83996323D01*
X133916100Y-83996323D01*
X133916100Y-84130213D01*
X133950753Y-84259542D01*
X134017699Y-84375494D01*
X134112374Y-84470169D01*
X134228326Y-84537115D01*
X134357655Y-84571768D01*
X134357657Y-84571768D01*
X134491543Y-84571768D01*
X134491545Y-84571768D01*
X134620874Y-84537115D01*
X134736826Y-84470169D01*
X134736827Y-84470167D01*
X134743864Y-84466105D01*
X134744841Y-84467797D01*
X134800079Y-84446438D01*
X134868525Y-84460471D01*
X134898087Y-84482326D01*
X134934066Y-84518305D01*
X135050018Y-84585251D01*
X135179347Y-84619904D01*
X135179349Y-84619904D01*
X135313235Y-84619904D01*
X135313237Y-84619904D01*
X135442566Y-84585251D01*
X135558518Y-84518305D01*
X135653193Y-84423630D01*
X135720139Y-84307678D01*
X135754792Y-84178349D01*
X135754792Y-84044459D01*
X135754791Y-84044457D01*
X135753731Y-84036403D01*
X135756173Y-84036081D01*
X135757537Y-83978665D01*
X135796695Y-83920800D01*
X135843554Y-83896641D01*
X135926084Y-83874528D01*
X136042036Y-83807582D01*
X136136711Y-83712907D01*
X136203657Y-83596955D01*
X136220719Y-83533275D01*
X136257081Y-83473617D01*
X136319928Y-83443086D01*
X136372583Y-83445593D01*
X136389655Y-83450168D01*
X136389657Y-83450168D01*
X136523543Y-83450168D01*
X136523545Y-83450168D01*
X136652874Y-83415515D01*
X136768826Y-83348569D01*
X136863501Y-83253894D01*
X136930447Y-83137942D01*
X136965100Y-83008613D01*
X136965100Y-82954923D01*
X138818300Y-82954923D01*
X138818300Y-83088813D01*
X138852953Y-83218142D01*
X138919899Y-83334094D01*
X139014574Y-83428769D01*
X139130526Y-83495715D01*
X139259855Y-83530368D01*
X139259857Y-83530368D01*
X139393743Y-83530368D01*
X139393745Y-83530368D01*
X139523074Y-83495715D01*
X139639026Y-83428769D01*
X139733701Y-83334094D01*
X139800647Y-83218142D01*
X139835300Y-83088813D01*
X139835300Y-82954923D01*
X139800647Y-82825594D01*
X139782156Y-82793568D01*
X139772342Y-82776569D01*
X139755869Y-82708669D01*
X139778721Y-82642642D01*
X139833642Y-82599451D01*
X139879729Y-82590568D01*
X140003343Y-82590568D01*
X140003345Y-82590568D01*
X140132674Y-82555915D01*
X140248626Y-82488969D01*
X140343301Y-82394294D01*
X140410247Y-82278342D01*
X140444900Y-82149013D01*
X140444900Y-82015123D01*
X140410247Y-81885794D01*
X140343301Y-81769842D01*
X140248626Y-81675167D01*
X140132674Y-81608221D01*
X140003345Y-81573568D01*
X139869455Y-81573568D01*
X139740125Y-81608221D01*
X139624174Y-81675167D01*
X139624171Y-81675169D01*
X139529501Y-81769839D01*
X139529499Y-81769842D01*
X139462553Y-81885793D01*
X139427900Y-82015123D01*
X139427900Y-82149012D01*
X139462553Y-82278343D01*
X139490858Y-82327367D01*
X139507331Y-82395267D01*
X139484479Y-82461294D01*
X139429558Y-82504485D01*
X139383471Y-82513368D01*
X139259855Y-82513368D01*
X139130525Y-82548021D01*
X139014574Y-82614967D01*
X139014571Y-82614969D01*
X138919901Y-82709639D01*
X138919899Y-82709642D01*
X138852953Y-82825593D01*
X138835111Y-82892181D01*
X138818300Y-82954923D01*
X136965100Y-82954923D01*
X136965100Y-82874723D01*
X136930447Y-82745394D01*
X136863501Y-82629442D01*
X136768826Y-82534767D01*
X136652874Y-82467821D01*
X136523545Y-82433168D01*
X136389655Y-82433168D01*
X136260325Y-82467821D01*
X136144374Y-82534767D01*
X136144371Y-82534769D01*
X136049701Y-82629439D01*
X136049699Y-82629442D01*
X135982753Y-82745393D01*
X135965691Y-82809072D01*
X135929326Y-82868733D01*
X135866479Y-82899262D01*
X135813826Y-82896755D01*
X135807899Y-82895167D01*
X135796755Y-82892181D01*
X135662865Y-82892181D01*
X135533535Y-82926834D01*
X135417584Y-82993780D01*
X135417581Y-82993782D01*
X135322911Y-83088452D01*
X135322909Y-83088455D01*
X135255963Y-83204406D01*
X135221310Y-83333736D01*
X135221310Y-83467624D01*
X135222371Y-83475682D01*
X135219932Y-83476003D01*
X135218558Y-83533440D01*
X135179388Y-83591298D01*
X135132543Y-83615445D01*
X135050017Y-83637557D01*
X135017435Y-83656369D01*
X134934066Y-83704503D01*
X134934064Y-83704504D01*
X134927028Y-83708567D01*
X134926053Y-83706878D01*
X134870782Y-83728236D01*
X134802339Y-83714186D01*
X134772804Y-83692345D01*
X134736828Y-83656369D01*
X134736826Y-83656367D01*
X134620874Y-83589421D01*
X134491545Y-83554768D01*
X134357655Y-83554768D01*
X134228325Y-83589421D01*
X134112374Y-83656367D01*
X134112371Y-83656369D01*
X134017701Y-83751039D01*
X134017699Y-83751042D01*
X133950753Y-83866993D01*
X133948734Y-83874528D01*
X133916100Y-83996323D01*
X115457358Y-83996323D01*
X115452297Y-83994967D01*
X115318407Y-83994967D01*
X115189078Y-84029620D01*
X115189077Y-84029620D01*
X115189075Y-84029621D01*
X115189074Y-84029621D01*
X115115048Y-84072361D01*
X115047148Y-84088834D01*
X114981121Y-84065982D01*
X114945662Y-84026975D01*
X114890630Y-83931661D01*
X114880742Y-83914534D01*
X114786067Y-83819859D01*
X114670115Y-83752913D01*
X114540786Y-83718260D01*
X114406896Y-83718260D01*
X114277566Y-83752913D01*
X114161615Y-83819859D01*
X114161612Y-83819861D01*
X114066942Y-83914531D01*
X114066940Y-83914534D01*
X113999994Y-84030485D01*
X113970037Y-84142288D01*
X113965341Y-84159815D01*
X112030869Y-84159815D01*
X112061226Y-84142288D01*
X112155901Y-84047613D01*
X112222847Y-83931661D01*
X112257500Y-83802332D01*
X112257500Y-83668442D01*
X112222847Y-83539113D01*
X112155901Y-83423161D01*
X112061226Y-83328486D01*
X112016705Y-83302781D01*
X112016704Y-83302780D01*
X111945279Y-83261542D01*
X111945276Y-83261541D01*
X111945275Y-83261540D01*
X111945274Y-83261540D01*
X111815945Y-83226887D01*
X111682055Y-83226887D01*
X111552725Y-83261540D01*
X111436774Y-83328486D01*
X111436771Y-83328488D01*
X111342101Y-83423158D01*
X111342099Y-83423161D01*
X111275153Y-83539112D01*
X111241138Y-83666061D01*
X111204773Y-83725722D01*
X111141926Y-83756251D01*
X111121363Y-83757968D01*
X111116655Y-83757968D01*
X110987325Y-83792621D01*
X110871374Y-83859567D01*
X110871371Y-83859569D01*
X110776701Y-83954239D01*
X110776699Y-83954242D01*
X110709753Y-84070193D01*
X110680774Y-84178347D01*
X110675100Y-84199523D01*
X105335767Y-84199523D01*
X105303847Y-84080394D01*
X105236901Y-83964442D01*
X105142226Y-83869767D01*
X105026274Y-83802821D01*
X104896945Y-83768168D01*
X104763055Y-83768168D01*
X104633725Y-83802821D01*
X104517774Y-83869767D01*
X104517771Y-83869769D01*
X104423101Y-83964439D01*
X104423099Y-83964442D01*
X104356153Y-84080393D01*
X104329907Y-84178347D01*
X104321500Y-84209723D01*
X59827533Y-84209723D01*
X60234456Y-83059723D01*
X94871500Y-83059723D01*
X94871500Y-83193613D01*
X94906153Y-83322942D01*
X94973099Y-83438894D01*
X95067774Y-83533569D01*
X95183726Y-83600515D01*
X95313055Y-83635168D01*
X95313057Y-83635168D01*
X95446943Y-83635168D01*
X95446945Y-83635168D01*
X95576274Y-83600515D01*
X95692226Y-83533569D01*
X95786901Y-83438894D01*
X95853847Y-83322942D01*
X95885845Y-83203523D01*
X116234119Y-83203523D01*
X116234119Y-83337413D01*
X116268772Y-83466742D01*
X116335718Y-83582694D01*
X116430393Y-83677369D01*
X116546345Y-83744315D01*
X116675674Y-83778968D01*
X116675676Y-83778968D01*
X116809562Y-83778968D01*
X116809564Y-83778968D01*
X116938893Y-83744315D01*
X117054845Y-83677369D01*
X117149520Y-83582694D01*
X117206729Y-83483605D01*
X117257295Y-83435392D01*
X117325903Y-83422170D01*
X117346198Y-83425831D01*
X117466883Y-83458168D01*
X117466885Y-83458168D01*
X117600771Y-83458168D01*
X117600773Y-83458168D01*
X117730102Y-83423515D01*
X117846054Y-83356569D01*
X117940729Y-83261894D01*
X117975271Y-83202065D01*
X118025837Y-83153852D01*
X118094445Y-83140630D01*
X118114746Y-83144292D01*
X118228485Y-83174768D01*
X118228487Y-83174768D01*
X118362373Y-83174768D01*
X118362375Y-83174768D01*
X118491704Y-83140115D01*
X118607656Y-83073169D01*
X118702331Y-82978494D01*
X118769277Y-82862542D01*
X118803930Y-82733213D01*
X118803930Y-82599323D01*
X118769277Y-82469994D01*
X118702331Y-82354042D01*
X118607656Y-82259367D01*
X118491704Y-82192421D01*
X118362375Y-82157768D01*
X118228485Y-82157768D01*
X118099155Y-82192421D01*
X117983204Y-82259367D01*
X117983201Y-82259369D01*
X117888531Y-82354039D01*
X117888529Y-82354042D01*
X117853986Y-82413870D01*
X117803421Y-82462084D01*
X117734813Y-82475306D01*
X117714511Y-82471643D01*
X117600773Y-82441168D01*
X117466883Y-82441168D01*
X117337553Y-82475821D01*
X117221602Y-82542767D01*
X117221599Y-82542769D01*
X117126929Y-82637439D01*
X117126925Y-82637445D01*
X117069717Y-82736529D01*
X117019149Y-82784744D01*
X116950542Y-82797965D01*
X116930238Y-82794302D01*
X116809564Y-82761968D01*
X116675674Y-82761968D01*
X116546344Y-82796621D01*
X116430393Y-82863567D01*
X116430390Y-82863569D01*
X116335720Y-82958239D01*
X116335718Y-82958242D01*
X116268772Y-83074193D01*
X116247428Y-83153852D01*
X116234119Y-83203523D01*
X95885845Y-83203523D01*
X95888500Y-83193613D01*
X95888500Y-83059723D01*
X95853847Y-82930394D01*
X95786901Y-82814442D01*
X95692226Y-82719767D01*
X95576274Y-82652821D01*
X95446945Y-82618168D01*
X95313055Y-82618168D01*
X95183725Y-82652821D01*
X95067774Y-82719767D01*
X95067771Y-82719769D01*
X94973101Y-82814439D01*
X94973099Y-82814442D01*
X94906153Y-82930393D01*
X94885195Y-83008611D01*
X94871500Y-83059723D01*
X60234456Y-83059723D01*
X60496302Y-82319723D01*
X65091500Y-82319723D01*
X65091500Y-82453613D01*
X65126153Y-82582942D01*
X65193099Y-82698894D01*
X65287774Y-82793569D01*
X65403726Y-82860515D01*
X65533055Y-82895168D01*
X65533057Y-82895168D01*
X65666943Y-82895168D01*
X65666945Y-82895168D01*
X65796274Y-82860515D01*
X65912226Y-82793569D01*
X66006901Y-82698894D01*
X66073847Y-82582942D01*
X66108500Y-82453613D01*
X66108500Y-82319723D01*
X66073847Y-82190394D01*
X66006901Y-82074442D01*
X65935497Y-82003038D01*
X95824815Y-82003038D01*
X95824815Y-82136928D01*
X95859468Y-82266257D01*
X95926414Y-82382209D01*
X96021089Y-82476884D01*
X96137041Y-82543830D01*
X96266370Y-82578483D01*
X96266372Y-82578483D01*
X96400258Y-82578483D01*
X96400260Y-82578483D01*
X96529589Y-82543830D01*
X96645541Y-82476884D01*
X96740216Y-82382209D01*
X96807162Y-82266257D01*
X96826758Y-82193122D01*
X112994679Y-82193122D01*
X112994679Y-82327012D01*
X113029332Y-82456341D01*
X113096278Y-82572293D01*
X113190953Y-82666968D01*
X113306905Y-82733914D01*
X113436234Y-82768567D01*
X113436236Y-82768567D01*
X113570122Y-82768567D01*
X113570124Y-82768567D01*
X113699453Y-82733914D01*
X113815405Y-82666968D01*
X113910080Y-82572293D01*
X113977026Y-82456341D01*
X114011679Y-82327012D01*
X114011679Y-82193122D01*
X113977026Y-82063793D01*
X113910080Y-81947841D01*
X113815405Y-81853166D01*
X113699453Y-81786220D01*
X113570124Y-81751567D01*
X113436234Y-81751567D01*
X113306904Y-81786220D01*
X113190953Y-81853166D01*
X113190950Y-81853168D01*
X113096280Y-81947838D01*
X113096278Y-81947841D01*
X113029332Y-82063792D01*
X112999068Y-82176740D01*
X112994679Y-82193122D01*
X96826758Y-82193122D01*
X96841815Y-82136928D01*
X96841815Y-82003038D01*
X96807162Y-81873709D01*
X96740216Y-81757757D01*
X96721193Y-81738734D01*
X96687708Y-81677411D01*
X96692692Y-81607719D01*
X96727629Y-81560466D01*
X96726479Y-81559316D01*
X96758767Y-81527028D01*
X96826901Y-81458894D01*
X96893847Y-81342942D01*
X96928500Y-81213613D01*
X96928500Y-81079723D01*
X96893847Y-80950394D01*
X96826901Y-80834442D01*
X96732226Y-80739767D01*
X96647173Y-80690661D01*
X98362605Y-80690661D01*
X98362605Y-80824551D01*
X98397258Y-80953880D01*
X98464204Y-81069832D01*
X98558879Y-81164507D01*
X98674831Y-81231453D01*
X98804160Y-81266106D01*
X98804162Y-81266106D01*
X98938048Y-81266106D01*
X98938050Y-81266106D01*
X99067379Y-81231453D01*
X99146605Y-81185710D01*
X99214500Y-81169238D01*
X99280528Y-81192089D01*
X99323720Y-81247009D01*
X99327026Y-81256942D01*
X99327771Y-81258741D01*
X99348305Y-81294305D01*
X99394718Y-81374694D01*
X99489393Y-81469369D01*
X99605345Y-81536315D01*
X99734674Y-81570968D01*
X99734676Y-81570968D01*
X99868562Y-81570968D01*
X99868564Y-81570968D01*
X99997893Y-81536315D01*
X100113845Y-81469369D01*
X100208520Y-81374694D01*
X100275466Y-81258742D01*
X100310119Y-81129413D01*
X100310119Y-80995523D01*
X100275466Y-80866194D01*
X100208520Y-80750242D01*
X100113845Y-80655567D01*
X99997893Y-80588621D01*
X99868564Y-80553968D01*
X99734674Y-80553968D01*
X99605343Y-80588621D01*
X99526121Y-80634362D01*
X99458221Y-80650835D01*
X99392194Y-80627983D01*
X99349003Y-80573062D01*
X99345698Y-80563133D01*
X99344952Y-80561332D01*
X99305797Y-80493515D01*
X99278006Y-80445380D01*
X99183331Y-80350705D01*
X99067379Y-80283759D01*
X98938050Y-80249106D01*
X98804160Y-80249106D01*
X98674830Y-80283759D01*
X98558879Y-80350705D01*
X98558876Y-80350707D01*
X98464206Y-80445377D01*
X98464204Y-80445380D01*
X98397258Y-80561331D01*
X98377690Y-80634362D01*
X98362605Y-80690661D01*
X96647173Y-80690661D01*
X96620320Y-80675157D01*
X96616353Y-80672437D01*
X96597186Y-80648937D01*
X96576258Y-80626987D01*
X96575321Y-80622127D01*
X96572193Y-80618292D01*
X96568773Y-80588152D01*
X96563036Y-80558380D01*
X96564875Y-80553786D01*
X96564317Y-80548867D01*
X96577733Y-80521666D01*
X96589004Y-80493515D01*
X96593035Y-80490644D01*
X96595225Y-80486206D01*
X96621215Y-80470578D01*
X96645919Y-80452988D01*
X96652237Y-80451925D01*
X96655104Y-80450202D01*
X96661373Y-80450389D01*
X96686474Y-80446168D01*
X96757943Y-80446168D01*
X96757945Y-80446168D01*
X96887274Y-80411515D01*
X97003226Y-80344569D01*
X97097901Y-80249894D01*
X97164847Y-80133942D01*
X97199500Y-80004613D01*
X97199500Y-80004610D01*
X97199501Y-80004607D01*
X97200467Y-79997274D01*
X97228736Y-79933379D01*
X97287062Y-79894910D01*
X97323405Y-79889465D01*
X97374545Y-79889465D01*
X97374547Y-79889465D01*
X97503876Y-79854812D01*
X97619828Y-79787866D01*
X97714503Y-79693191D01*
X97781449Y-79577239D01*
X97804898Y-79489723D01*
X118991500Y-79489723D01*
X118991500Y-79623613D01*
X119026153Y-79752942D01*
X119093099Y-79868894D01*
X119187774Y-79963569D01*
X119187775Y-79963570D01*
X119187777Y-79963571D01*
X119247763Y-79998204D01*
X119295979Y-80048771D01*
X119309201Y-80117378D01*
X119305538Y-80137683D01*
X119285700Y-80211721D01*
X119285700Y-80211723D01*
X119285700Y-80345613D01*
X119320353Y-80474942D01*
X119387299Y-80590894D01*
X119481974Y-80685569D01*
X119597926Y-80752515D01*
X119727255Y-80787168D01*
X119727257Y-80787168D01*
X119861143Y-80787168D01*
X119861145Y-80787168D01*
X119987517Y-80753307D01*
X120057366Y-80754970D01*
X120115228Y-80794133D01*
X120142732Y-80858361D01*
X120143609Y-80873082D01*
X120143609Y-80907813D01*
X120178262Y-81037142D01*
X120245208Y-81153094D01*
X120339883Y-81247769D01*
X120365124Y-81262342D01*
X120451574Y-81312256D01*
X120499789Y-81362823D01*
X120513011Y-81431430D01*
X120487043Y-81496295D01*
X120451575Y-81527028D01*
X120370975Y-81573564D01*
X120370969Y-81573568D01*
X120276299Y-81668238D01*
X120276297Y-81668241D01*
X120209351Y-81784192D01*
X120185366Y-81873708D01*
X120174698Y-81913522D01*
X120174698Y-82047412D01*
X120209351Y-82176741D01*
X120276297Y-82292693D01*
X120370972Y-82387368D01*
X120486924Y-82454314D01*
X120616253Y-82488967D01*
X120616255Y-82488967D01*
X120750141Y-82488967D01*
X120750143Y-82488967D01*
X120879472Y-82454314D01*
X120995424Y-82387368D01*
X121090099Y-82292693D01*
X121157045Y-82176741D01*
X121157045Y-82176738D01*
X121160153Y-82169237D01*
X121162823Y-82170343D01*
X121191900Y-82122592D01*
X121254732Y-82092033D01*
X121324112Y-82100296D01*
X121363033Y-82126626D01*
X121417576Y-82181169D01*
X121533528Y-82248115D01*
X121662857Y-82282768D01*
X121662859Y-82282768D01*
X121796745Y-82282768D01*
X121796747Y-82282768D01*
X121926076Y-82248115D01*
X122042028Y-82181169D01*
X122136703Y-82086494D01*
X122203649Y-81970542D01*
X122238302Y-81841213D01*
X122238302Y-81707323D01*
X122203649Y-81577994D01*
X122136703Y-81462042D01*
X122042028Y-81367367D01*
X121926076Y-81300421D01*
X121796747Y-81265768D01*
X121662857Y-81265768D01*
X121533527Y-81300421D01*
X121417576Y-81367367D01*
X121417573Y-81367369D01*
X121322903Y-81462039D01*
X121322901Y-81462042D01*
X121255954Y-81577994D01*
X121252847Y-81585498D01*
X121250184Y-81584395D01*
X121221054Y-81632184D01*
X121158206Y-81662711D01*
X121088831Y-81654414D01*
X121065001Y-81640919D01*
X121056974Y-81635116D01*
X120995424Y-81573566D01*
X120879472Y-81506620D01*
X120879076Y-81506514D01*
X120873087Y-81502184D01*
X120855418Y-81479382D01*
X120835517Y-81458511D01*
X120834283Y-81452109D01*
X120830290Y-81446956D01*
X120827752Y-81418222D01*
X120822295Y-81389903D01*
X120824717Y-81383851D01*
X120824144Y-81377357D01*
X120837542Y-81351816D01*
X120848263Y-81325039D01*
X120854363Y-81319753D01*
X120856603Y-81315484D01*
X120864401Y-81311055D01*
X120883731Y-81294306D01*
X120964335Y-81247769D01*
X121059010Y-81153094D01*
X121125956Y-81037142D01*
X121136143Y-80999123D01*
X125813500Y-80999123D01*
X125813500Y-81133013D01*
X125848153Y-81262342D01*
X125915099Y-81378294D01*
X126009774Y-81472969D01*
X126125726Y-81539915D01*
X126255055Y-81574568D01*
X126255057Y-81574568D01*
X126388943Y-81574568D01*
X126388945Y-81574568D01*
X126518274Y-81539915D01*
X126634226Y-81472969D01*
X126728901Y-81378294D01*
X126795847Y-81262342D01*
X126830500Y-81133013D01*
X126830500Y-80999123D01*
X126795847Y-80869794D01*
X126728901Y-80753842D01*
X126634226Y-80659167D01*
X126518274Y-80592221D01*
X126388945Y-80557568D01*
X126255055Y-80557568D01*
X126125725Y-80592221D01*
X126009774Y-80659167D01*
X126009771Y-80659169D01*
X125915101Y-80753839D01*
X125915099Y-80753842D01*
X125848153Y-80869793D01*
X125848153Y-80869794D01*
X125813500Y-80999123D01*
X121136143Y-80999123D01*
X121160609Y-80907813D01*
X121160609Y-80773923D01*
X121125956Y-80644594D01*
X121059010Y-80528642D01*
X120964335Y-80433967D01*
X120848383Y-80367021D01*
X120719054Y-80332368D01*
X120585164Y-80332368D01*
X120585162Y-80332368D01*
X120458792Y-80366228D01*
X120388943Y-80364565D01*
X120331080Y-80325402D01*
X120303577Y-80261173D01*
X120302700Y-80246453D01*
X120302700Y-80211725D01*
X120302700Y-80211723D01*
X120268047Y-80082394D01*
X120254958Y-80059723D01*
X149871500Y-80059723D01*
X149871500Y-80193613D01*
X149906153Y-80322942D01*
X149973099Y-80438894D01*
X150067774Y-80533569D01*
X150183726Y-80600515D01*
X150313055Y-80635168D01*
X150313057Y-80635168D01*
X150446943Y-80635168D01*
X150446945Y-80635168D01*
X150576274Y-80600515D01*
X150692226Y-80533569D01*
X150786901Y-80438894D01*
X150853847Y-80322942D01*
X150888500Y-80193613D01*
X150888500Y-80059723D01*
X150853847Y-79930394D01*
X150786901Y-79814442D01*
X150692226Y-79719767D01*
X150576274Y-79652821D01*
X150446945Y-79618168D01*
X150313055Y-79618168D01*
X150183725Y-79652821D01*
X150067774Y-79719767D01*
X150067771Y-79719769D01*
X149973101Y-79814439D01*
X149973099Y-79814442D01*
X149906153Y-79930393D01*
X149886268Y-80004607D01*
X149871500Y-80059723D01*
X120254958Y-80059723D01*
X120201101Y-79966442D01*
X120106426Y-79871767D01*
X120046434Y-79837130D01*
X119998220Y-79786563D01*
X119984998Y-79717956D01*
X119988658Y-79697663D01*
X120008500Y-79623613D01*
X120008500Y-79489723D01*
X119997296Y-79447910D01*
X119990976Y-79424323D01*
X126143700Y-79424323D01*
X126143700Y-79558213D01*
X126178353Y-79687542D01*
X126245299Y-79803494D01*
X126339974Y-79898169D01*
X126455926Y-79965115D01*
X126585255Y-79999768D01*
X126585257Y-79999768D01*
X126719143Y-79999768D01*
X126719145Y-79999768D01*
X126848474Y-79965115D01*
X126964426Y-79898169D01*
X127059101Y-79803494D01*
X127126047Y-79687542D01*
X127160700Y-79558213D01*
X127160700Y-79424323D01*
X127126047Y-79294994D01*
X127112727Y-79271923D01*
X127769300Y-79271923D01*
X127769300Y-79405813D01*
X127803953Y-79535142D01*
X127870899Y-79651094D01*
X127965574Y-79745769D01*
X128081526Y-79812715D01*
X128210855Y-79847368D01*
X128210857Y-79847368D01*
X128344743Y-79847368D01*
X128344745Y-79847368D01*
X128474074Y-79812715D01*
X128590026Y-79745769D01*
X128684701Y-79651094D01*
X128751647Y-79535142D01*
X128786300Y-79405813D01*
X128786300Y-79271923D01*
X128751647Y-79142594D01*
X128750682Y-79140922D01*
X128734907Y-79113599D01*
X128734905Y-79113597D01*
X128730674Y-79106269D01*
X128703800Y-79059723D01*
X137371500Y-79059723D01*
X137371500Y-79193613D01*
X137406153Y-79322942D01*
X137473099Y-79438894D01*
X137567774Y-79533569D01*
X137683726Y-79600515D01*
X137813055Y-79635168D01*
X137813057Y-79635168D01*
X137946943Y-79635168D01*
X137946945Y-79635168D01*
X138076274Y-79600515D01*
X138192226Y-79533569D01*
X138286901Y-79438894D01*
X138353847Y-79322942D01*
X138388500Y-79193613D01*
X138388500Y-79059723D01*
X138353847Y-78930394D01*
X138286901Y-78814442D01*
X138192226Y-78719767D01*
X138192223Y-78719765D01*
X138192219Y-78719762D01*
X138088681Y-78659983D01*
X138088680Y-78659983D01*
X138076277Y-78652822D01*
X138076274Y-78652821D01*
X137946945Y-78618168D01*
X137813055Y-78618168D01*
X137683725Y-78652821D01*
X137567774Y-78719767D01*
X137567771Y-78719769D01*
X137473101Y-78814439D01*
X137473099Y-78814442D01*
X137406153Y-78930393D01*
X137402333Y-78944650D01*
X137371500Y-79059723D01*
X128703800Y-79059723D01*
X128684701Y-79026642D01*
X128590026Y-78931967D01*
X128474074Y-78865021D01*
X128344745Y-78830368D01*
X128210855Y-78830368D01*
X128081525Y-78865021D01*
X127965574Y-78931967D01*
X127965571Y-78931969D01*
X127870901Y-79026639D01*
X127870899Y-79026642D01*
X127803953Y-79142593D01*
X127792673Y-79184691D01*
X127769300Y-79271923D01*
X127112727Y-79271923D01*
X127059101Y-79179042D01*
X126964426Y-79084367D01*
X126848474Y-79017421D01*
X126719145Y-78982768D01*
X126585255Y-78982768D01*
X126455925Y-79017421D01*
X126339974Y-79084367D01*
X126339971Y-79084369D01*
X126245301Y-79179039D01*
X126245299Y-79179042D01*
X126178353Y-79294993D01*
X126170864Y-79322942D01*
X126143700Y-79424323D01*
X119990976Y-79424323D01*
X119986017Y-79405813D01*
X119973847Y-79360394D01*
X119906901Y-79244442D01*
X119812226Y-79149767D01*
X119696274Y-79082821D01*
X119566945Y-79048168D01*
X119433055Y-79048168D01*
X119303725Y-79082821D01*
X119187774Y-79149767D01*
X119187771Y-79149769D01*
X119093101Y-79244439D01*
X119093099Y-79244442D01*
X119026153Y-79360393D01*
X118991501Y-79489721D01*
X118991500Y-79489723D01*
X97804898Y-79489723D01*
X97816102Y-79447910D01*
X97816102Y-79314020D01*
X97800220Y-79254748D01*
X97799574Y-79241512D01*
X97804785Y-79219916D01*
X97805314Y-79197706D01*
X97812821Y-79186613D01*
X97815964Y-79173592D01*
X97832024Y-79158240D01*
X97844476Y-79139844D01*
X97859228Y-79132238D01*
X97866472Y-79125315D01*
X97876391Y-79123390D01*
X97891332Y-79115688D01*
X97926486Y-79106269D01*
X98042438Y-79039323D01*
X98137113Y-78944648D01*
X98204059Y-78828696D01*
X98238712Y-78699367D01*
X98238712Y-78565477D01*
X98204059Y-78436148D01*
X98137113Y-78320196D01*
X98042438Y-78225521D01*
X97983721Y-78191620D01*
X97926487Y-78158575D01*
X97859152Y-78140533D01*
X97859149Y-78140532D01*
X97797157Y-78123922D01*
X97759044Y-78123922D01*
X97748962Y-78122249D01*
X97726332Y-78111316D01*
X97702222Y-78104237D01*
X97695413Y-78096379D01*
X97686050Y-78091856D01*
X97672923Y-78070424D01*
X97656467Y-78051433D01*
X97654987Y-78041141D01*
X97649556Y-78032274D01*
X97649663Y-78027323D01*
X109354300Y-78027323D01*
X109354300Y-78161213D01*
X109388953Y-78290542D01*
X109455899Y-78406494D01*
X109550574Y-78501169D01*
X109666526Y-78568115D01*
X109795855Y-78602768D01*
X109795857Y-78602768D01*
X109929743Y-78602768D01*
X109929745Y-78602768D01*
X110059074Y-78568115D01*
X110175026Y-78501169D01*
X110229701Y-78446493D01*
X110291020Y-78413011D01*
X110360712Y-78417995D01*
X110405060Y-78446496D01*
X110451338Y-78492774D01*
X110567290Y-78559720D01*
X110696619Y-78594373D01*
X110696621Y-78594373D01*
X110830507Y-78594373D01*
X110830509Y-78594373D01*
X110959838Y-78559720D01*
X111075790Y-78492774D01*
X111170465Y-78398099D01*
X111170468Y-78398092D01*
X111172267Y-78395750D01*
X111174294Y-78394269D01*
X111176212Y-78392352D01*
X111176510Y-78392650D01*
X111228693Y-78354545D01*
X111298439Y-78350388D01*
X111332644Y-78363845D01*
X111413886Y-78410751D01*
X111543215Y-78445404D01*
X111543217Y-78445404D01*
X111677103Y-78445404D01*
X111677105Y-78445404D01*
X111806434Y-78410751D01*
X111922386Y-78343805D01*
X112008420Y-78257770D01*
X112069739Y-78224288D01*
X112139431Y-78229272D01*
X112195365Y-78271143D01*
X112203484Y-78283453D01*
X112217405Y-78307565D01*
X112217408Y-78307569D01*
X112217410Y-78307572D01*
X112312085Y-78402247D01*
X112428037Y-78469193D01*
X112557366Y-78503846D01*
X112557368Y-78503846D01*
X112691254Y-78503846D01*
X112691256Y-78503846D01*
X112820585Y-78469193D01*
X112936537Y-78402247D01*
X113031212Y-78307572D01*
X113098158Y-78191620D01*
X113109384Y-78149723D01*
X123491500Y-78149723D01*
X123491500Y-78283613D01*
X123526153Y-78412942D01*
X123593099Y-78528894D01*
X123687774Y-78623569D01*
X123803726Y-78690515D01*
X123933055Y-78725168D01*
X123933057Y-78725168D01*
X124066943Y-78725168D01*
X124066945Y-78725168D01*
X124196274Y-78690515D01*
X124312226Y-78623569D01*
X124375072Y-78560723D01*
X138564300Y-78560723D01*
X138564300Y-78694613D01*
X138598953Y-78823942D01*
X138665899Y-78939894D01*
X138760574Y-79034569D01*
X138876526Y-79101515D01*
X139005855Y-79136168D01*
X139005857Y-79136168D01*
X139139743Y-79136168D01*
X139139745Y-79136168D01*
X139269074Y-79101515D01*
X139385026Y-79034569D01*
X139479701Y-78939894D01*
X139546647Y-78823942D01*
X139581300Y-78694613D01*
X139581300Y-78560723D01*
X139546647Y-78431394D01*
X139479701Y-78315442D01*
X139385026Y-78220767D01*
X139269074Y-78153821D01*
X139139745Y-78119168D01*
X139005855Y-78119168D01*
X138876525Y-78153821D01*
X138760574Y-78220767D01*
X138760571Y-78220769D01*
X138665901Y-78315439D01*
X138665899Y-78315442D01*
X138598953Y-78431393D01*
X138580258Y-78501166D01*
X138564300Y-78560723D01*
X124375072Y-78560723D01*
X124406901Y-78528894D01*
X124473847Y-78412942D01*
X124508500Y-78283613D01*
X124508500Y-78149723D01*
X124473847Y-78020394D01*
X124406901Y-77904442D01*
X124312226Y-77809767D01*
X124208228Y-77749723D01*
X149001500Y-77749723D01*
X149001500Y-77883613D01*
X149036153Y-78012942D01*
X149103099Y-78128894D01*
X149197774Y-78223569D01*
X149313726Y-78290515D01*
X149443055Y-78325168D01*
X149443057Y-78325168D01*
X149576943Y-78325168D01*
X149576945Y-78325168D01*
X149706274Y-78290515D01*
X149822226Y-78223569D01*
X149916901Y-78128894D01*
X149983847Y-78012942D01*
X150018500Y-77883613D01*
X150018500Y-77749723D01*
X149983847Y-77620394D01*
X149916901Y-77504442D01*
X149822226Y-77409767D01*
X149706274Y-77342821D01*
X149576945Y-77308168D01*
X149443055Y-77308168D01*
X149313725Y-77342821D01*
X149197774Y-77409767D01*
X149197771Y-77409769D01*
X149103101Y-77504439D01*
X149103099Y-77504442D01*
X149036153Y-77620393D01*
X149020457Y-77678972D01*
X149001500Y-77749723D01*
X124208228Y-77749723D01*
X124196274Y-77742821D01*
X124066945Y-77708168D01*
X123933055Y-77708168D01*
X123803725Y-77742821D01*
X123687774Y-77809767D01*
X123687771Y-77809769D01*
X123593101Y-77904439D01*
X123593099Y-77904442D01*
X123526153Y-78020393D01*
X123498413Y-78123922D01*
X123491500Y-78149723D01*
X113109384Y-78149723D01*
X113132811Y-78062291D01*
X113132811Y-77928401D01*
X113098158Y-77799072D01*
X113031212Y-77683120D01*
X112936537Y-77588445D01*
X112820585Y-77521499D01*
X112691256Y-77486846D01*
X112557366Y-77486846D01*
X112428036Y-77521499D01*
X112312085Y-77588444D01*
X112226053Y-77674477D01*
X112164729Y-77707961D01*
X112095038Y-77702977D01*
X112039104Y-77661105D01*
X112030985Y-77648795D01*
X112017061Y-77624678D01*
X111922386Y-77530003D01*
X111806434Y-77463057D01*
X111677105Y-77428404D01*
X111543215Y-77428404D01*
X111413885Y-77463057D01*
X111297935Y-77530002D01*
X111203255Y-77624681D01*
X111201451Y-77627033D01*
X111199424Y-77628512D01*
X111197512Y-77630425D01*
X111197213Y-77630126D01*
X111145022Y-77668234D01*
X111075275Y-77672386D01*
X111041077Y-77658930D01*
X110959839Y-77612026D01*
X110861840Y-77585768D01*
X110830509Y-77577373D01*
X110696619Y-77577373D01*
X110567289Y-77612026D01*
X110451338Y-77678971D01*
X110396665Y-77733645D01*
X110335341Y-77767129D01*
X110265649Y-77762144D01*
X110221303Y-77733644D01*
X110175028Y-77687369D01*
X110175026Y-77687367D01*
X110059074Y-77620421D01*
X109929745Y-77585768D01*
X109795855Y-77585768D01*
X109666525Y-77620421D01*
X109550574Y-77687367D01*
X109550571Y-77687369D01*
X109455901Y-77782039D01*
X109455899Y-77782042D01*
X109388953Y-77897993D01*
X109380805Y-77928403D01*
X109354300Y-78027323D01*
X97649663Y-78027323D01*
X97650099Y-78007150D01*
X97646523Y-77982275D01*
X97650861Y-77971975D01*
X97651068Y-77962421D01*
X97661254Y-77947299D01*
X97667970Y-77931355D01*
X97667237Y-77930932D01*
X97670608Y-77925091D01*
X97670886Y-77924434D01*
X97671293Y-77923901D01*
X97671301Y-77923894D01*
X97738247Y-77807942D01*
X97772900Y-77678613D01*
X97772900Y-77619168D01*
X97792585Y-77552129D01*
X97845389Y-77506374D01*
X97896900Y-77495168D01*
X97976943Y-77495168D01*
X97976945Y-77495168D01*
X98106274Y-77460515D01*
X98222226Y-77393569D01*
X98316901Y-77298894D01*
X98383847Y-77182942D01*
X98408565Y-77090689D01*
X98444928Y-77031031D01*
X98507775Y-77000501D01*
X98577150Y-77008795D01*
X98631029Y-77053280D01*
X98648114Y-77090690D01*
X98670153Y-77172942D01*
X98737099Y-77288894D01*
X98831774Y-77383569D01*
X98947726Y-77450515D01*
X99077055Y-77485168D01*
X99077057Y-77485168D01*
X99210943Y-77485168D01*
X99210945Y-77485168D01*
X99340274Y-77450515D01*
X99456226Y-77383569D01*
X99550901Y-77288894D01*
X99617847Y-77172942D01*
X99652500Y-77043613D01*
X99652500Y-76909723D01*
X99626349Y-76812123D01*
X100083300Y-76812123D01*
X100083300Y-76946013D01*
X100117953Y-77075342D01*
X100184899Y-77191294D01*
X100279574Y-77285969D01*
X100395526Y-77352915D01*
X100524855Y-77387568D01*
X100524857Y-77387568D01*
X100658743Y-77387568D01*
X100658745Y-77387568D01*
X100788074Y-77352915D01*
X100904026Y-77285969D01*
X100998701Y-77191294D01*
X101065647Y-77075342D01*
X101100300Y-76946013D01*
X101100300Y-76812123D01*
X101065647Y-76682794D01*
X100998701Y-76566842D01*
X100904026Y-76472167D01*
X100788074Y-76405221D01*
X100658745Y-76370568D01*
X100524855Y-76370568D01*
X100395525Y-76405221D01*
X100279574Y-76472167D01*
X100279571Y-76472169D01*
X100184901Y-76566839D01*
X100184899Y-76566842D01*
X100117953Y-76682793D01*
X100117953Y-76682794D01*
X100083300Y-76812123D01*
X99626349Y-76812123D01*
X99617847Y-76780394D01*
X99550901Y-76664442D01*
X99456226Y-76569767D01*
X99340274Y-76502821D01*
X99210945Y-76468168D01*
X99077055Y-76468168D01*
X98947725Y-76502821D01*
X98831774Y-76569767D01*
X98831771Y-76569769D01*
X98737101Y-76664439D01*
X98737099Y-76664442D01*
X98673863Y-76773969D01*
X98670153Y-76780394D01*
X98661651Y-76812125D01*
X98645435Y-76872645D01*
X98609070Y-76932305D01*
X98546223Y-76962834D01*
X98476847Y-76954539D01*
X98422969Y-76910054D01*
X98405886Y-76872646D01*
X98383847Y-76790394D01*
X98316901Y-76674442D01*
X98222226Y-76579767D01*
X98106274Y-76512821D01*
X97976945Y-76478168D01*
X97843055Y-76478168D01*
X97713725Y-76512821D01*
X97597774Y-76579767D01*
X97597771Y-76579769D01*
X97503101Y-76674439D01*
X97503099Y-76674442D01*
X97436153Y-76790393D01*
X97401500Y-76919723D01*
X97401500Y-76979168D01*
X97381815Y-77046207D01*
X97329011Y-77091962D01*
X97277500Y-77103168D01*
X97197455Y-77103168D01*
X97068125Y-77137821D01*
X96952174Y-77204767D01*
X96952171Y-77204769D01*
X96857501Y-77299439D01*
X96857499Y-77299442D01*
X96790553Y-77415393D01*
X96778463Y-77460514D01*
X96755900Y-77544723D01*
X96755900Y-77678613D01*
X96790553Y-77807942D01*
X96857499Y-77923894D01*
X96952174Y-78018569D01*
X97068126Y-78085515D01*
X97197455Y-78120168D01*
X97197457Y-78120168D01*
X97225351Y-78120168D01*
X97292390Y-78139853D01*
X97338145Y-78192657D01*
X97348089Y-78261815D01*
X97326641Y-78312734D01*
X97327375Y-78313158D01*
X97324003Y-78318998D01*
X97323726Y-78319656D01*
X97323311Y-78320196D01*
X97256365Y-78436147D01*
X97221712Y-78565477D01*
X97221712Y-78699366D01*
X97234162Y-78745831D01*
X97232499Y-78815681D01*
X97193336Y-78873543D01*
X97146483Y-78897698D01*
X97111328Y-78907118D01*
X97111327Y-78907118D01*
X97111325Y-78907119D01*
X96995376Y-78974064D01*
X96995373Y-78974066D01*
X96900703Y-79068736D01*
X96900701Y-79068739D01*
X96833755Y-79184690D01*
X96799100Y-79314025D01*
X96798135Y-79321359D01*
X96769866Y-79385254D01*
X96711540Y-79423723D01*
X96675197Y-79429168D01*
X96624055Y-79429168D01*
X96494725Y-79463821D01*
X96378774Y-79530767D01*
X96378771Y-79530769D01*
X96284101Y-79625439D01*
X96284099Y-79625442D01*
X96217153Y-79741393D01*
X96214059Y-79752942D01*
X96182500Y-79870723D01*
X96182500Y-80004613D01*
X96217153Y-80133942D01*
X96284099Y-80249894D01*
X96378774Y-80344569D01*
X96486527Y-80406781D01*
X96534742Y-80457349D01*
X96547964Y-80525956D01*
X96521996Y-80590821D01*
X96465081Y-80631348D01*
X96424526Y-80638168D01*
X96353055Y-80638168D01*
X96223725Y-80672821D01*
X96107774Y-80739767D01*
X96107771Y-80739769D01*
X96013101Y-80834439D01*
X96013099Y-80834442D01*
X95946153Y-80950393D01*
X95914150Y-81069832D01*
X95911500Y-81079723D01*
X95911500Y-81213613D01*
X95946153Y-81342942D01*
X96013099Y-81458894D01*
X96013101Y-81458896D01*
X96032121Y-81477916D01*
X96065606Y-81539239D01*
X96060622Y-81608931D01*
X96025689Y-81656188D01*
X96026836Y-81657335D01*
X95926416Y-81757754D01*
X95926414Y-81757757D01*
X95859468Y-81873708D01*
X95839605Y-81947841D01*
X95824815Y-82003038D01*
X65935497Y-82003038D01*
X65912226Y-81979767D01*
X65796274Y-81912821D01*
X65666945Y-81878168D01*
X65533055Y-81878168D01*
X65403725Y-81912821D01*
X65287774Y-81979767D01*
X65287771Y-81979769D01*
X65193101Y-82074439D01*
X65193099Y-82074442D01*
X65126153Y-82190393D01*
X65098742Y-82292695D01*
X65091500Y-82319723D01*
X60496302Y-82319723D01*
X62626315Y-76300123D01*
X112656300Y-76300123D01*
X112656300Y-76434013D01*
X112690953Y-76563342D01*
X112757899Y-76679294D01*
X112852574Y-76773969D01*
X112968526Y-76840915D01*
X113097855Y-76875568D01*
X113097857Y-76875568D01*
X113231742Y-76875568D01*
X113231745Y-76875568D01*
X113359185Y-76841421D01*
X113429030Y-76843084D01*
X113486893Y-76882246D01*
X113498657Y-76899190D01*
X113556020Y-76998543D01*
X113650695Y-77093218D01*
X113766647Y-77160164D01*
X113895976Y-77194817D01*
X113895978Y-77194817D01*
X114029864Y-77194817D01*
X114029866Y-77194817D01*
X114159195Y-77160164D01*
X114275147Y-77093218D01*
X114369822Y-76998543D01*
X114436768Y-76882591D01*
X114471421Y-76753262D01*
X114471421Y-76619372D01*
X114436768Y-76490043D01*
X114369822Y-76374091D01*
X114275147Y-76279416D01*
X114159195Y-76212470D01*
X114029866Y-76177817D01*
X113895976Y-76177817D01*
X113768539Y-76211963D01*
X113698689Y-76210300D01*
X113640827Y-76171137D01*
X113629059Y-76154188D01*
X113571703Y-76054845D01*
X113571698Y-76054839D01*
X113477028Y-75960169D01*
X113477026Y-75960167D01*
X113361074Y-75893221D01*
X113231745Y-75858568D01*
X113097855Y-75858568D01*
X112968525Y-75893221D01*
X112852574Y-75960167D01*
X112852571Y-75960169D01*
X112757901Y-76054839D01*
X112757899Y-76054842D01*
X112690953Y-76170793D01*
X112679922Y-76211963D01*
X112656300Y-76300123D01*
X62626315Y-76300123D01*
X62849592Y-75669123D01*
X106914700Y-75669123D01*
X106914700Y-75803013D01*
X106949353Y-75932342D01*
X107016299Y-76048294D01*
X107110974Y-76142969D01*
X107226926Y-76209915D01*
X107356255Y-76244568D01*
X107356257Y-76244568D01*
X107490143Y-76244568D01*
X107490145Y-76244568D01*
X107619474Y-76209915D01*
X107735426Y-76142969D01*
X107830101Y-76048294D01*
X107897047Y-75932342D01*
X107931700Y-75803013D01*
X107931700Y-75669123D01*
X107897047Y-75539794D01*
X107830101Y-75423842D01*
X107735426Y-75329167D01*
X107701749Y-75309723D01*
X115171500Y-75309723D01*
X115171500Y-75443613D01*
X115206153Y-75572942D01*
X115273099Y-75688894D01*
X115367774Y-75783569D01*
X115483726Y-75850515D01*
X115613055Y-75885168D01*
X115613057Y-75885168D01*
X115746943Y-75885168D01*
X115746945Y-75885168D01*
X115876274Y-75850515D01*
X115992226Y-75783569D01*
X116086901Y-75688894D01*
X116153847Y-75572942D01*
X116188500Y-75443613D01*
X116188500Y-75309723D01*
X116153847Y-75180394D01*
X116086901Y-75064442D01*
X115992226Y-74969767D01*
X115876274Y-74902821D01*
X115746945Y-74868168D01*
X115613055Y-74868168D01*
X115483725Y-74902821D01*
X115367774Y-74969767D01*
X115367771Y-74969769D01*
X115273101Y-75064439D01*
X115273099Y-75064442D01*
X115206153Y-75180393D01*
X115173967Y-75300515D01*
X115171500Y-75309723D01*
X107701749Y-75309723D01*
X107619474Y-75262221D01*
X107490145Y-75227568D01*
X107356255Y-75227568D01*
X107226925Y-75262221D01*
X107110974Y-75329167D01*
X107110971Y-75329169D01*
X107016301Y-75423839D01*
X107016299Y-75423842D01*
X106949353Y-75539793D01*
X106949353Y-75539794D01*
X106914700Y-75669123D01*
X62849592Y-75669123D01*
X63242149Y-74559723D01*
X92871500Y-74559723D01*
X92871500Y-74693613D01*
X92906153Y-74822942D01*
X92973099Y-74938894D01*
X93067774Y-75033569D01*
X93183726Y-75100515D01*
X93313055Y-75135168D01*
X93313057Y-75135168D01*
X93446943Y-75135168D01*
X93446945Y-75135168D01*
X93576274Y-75100515D01*
X93692226Y-75033569D01*
X93786901Y-74938894D01*
X93853847Y-74822942D01*
X93870786Y-74759723D01*
X104171500Y-74759723D01*
X104171500Y-74893613D01*
X104206153Y-75022942D01*
X104273099Y-75138894D01*
X104367774Y-75233569D01*
X104483726Y-75300515D01*
X104613055Y-75335168D01*
X104613057Y-75335168D01*
X104746943Y-75335168D01*
X104746945Y-75335168D01*
X104876274Y-75300515D01*
X104992226Y-75233569D01*
X105086901Y-75138894D01*
X105153847Y-75022942D01*
X105188500Y-74893613D01*
X105188500Y-74759723D01*
X105153847Y-74630394D01*
X105135331Y-74598323D01*
X109735300Y-74598323D01*
X109735300Y-74732213D01*
X109769953Y-74861542D01*
X109836899Y-74977494D01*
X109931574Y-75072169D01*
X110047526Y-75139115D01*
X110176855Y-75173768D01*
X110176857Y-75173768D01*
X110310743Y-75173768D01*
X110310745Y-75173768D01*
X110440074Y-75139115D01*
X110556026Y-75072169D01*
X110650701Y-74977494D01*
X110717647Y-74861542D01*
X110752300Y-74732213D01*
X110752300Y-74598323D01*
X110745494Y-74572923D01*
X111360900Y-74572923D01*
X111360900Y-74706813D01*
X111395553Y-74836142D01*
X111462499Y-74952094D01*
X111557174Y-75046769D01*
X111673126Y-75113715D01*
X111802455Y-75148368D01*
X111802457Y-75148368D01*
X111936343Y-75148368D01*
X111936345Y-75148368D01*
X112065674Y-75113715D01*
X112181626Y-75046769D01*
X112276301Y-74952094D01*
X112343247Y-74836142D01*
X112377900Y-74706813D01*
X112377900Y-74599723D01*
X147551500Y-74599723D01*
X147551500Y-74733613D01*
X147586153Y-74862942D01*
X147653099Y-74978894D01*
X147747774Y-75073569D01*
X147863726Y-75140515D01*
X147993055Y-75175168D01*
X147993057Y-75175168D01*
X148126943Y-75175168D01*
X148126945Y-75175168D01*
X148256274Y-75140515D01*
X148372226Y-75073569D01*
X148466901Y-74978894D01*
X148533847Y-74862942D01*
X148568500Y-74733613D01*
X148568500Y-74599723D01*
X148533847Y-74470394D01*
X148466901Y-74354442D01*
X148372226Y-74259767D01*
X148256274Y-74192821D01*
X148126945Y-74158168D01*
X147993055Y-74158168D01*
X147863725Y-74192821D01*
X147747774Y-74259767D01*
X147747771Y-74259769D01*
X147653101Y-74354439D01*
X147653099Y-74354442D01*
X147586153Y-74470393D01*
X147571095Y-74526593D01*
X147551500Y-74599723D01*
X112377900Y-74599723D01*
X112377900Y-74572923D01*
X112343247Y-74443594D01*
X112276301Y-74327642D01*
X112181626Y-74232967D01*
X112065674Y-74166021D01*
X111936345Y-74131368D01*
X111802455Y-74131368D01*
X111673125Y-74166021D01*
X111557174Y-74232967D01*
X111557171Y-74232969D01*
X111462501Y-74327639D01*
X111462499Y-74327642D01*
X111395553Y-74443593D01*
X111383663Y-74487968D01*
X111360900Y-74572923D01*
X110745494Y-74572923D01*
X110717647Y-74468994D01*
X110650701Y-74353042D01*
X110556026Y-74258367D01*
X110440074Y-74191421D01*
X110310745Y-74156768D01*
X110176855Y-74156768D01*
X110047525Y-74191421D01*
X109931574Y-74258367D01*
X109931571Y-74258369D01*
X109836901Y-74353039D01*
X109836899Y-74353042D01*
X109769953Y-74468993D01*
X109767677Y-74477487D01*
X109735300Y-74598323D01*
X105135331Y-74598323D01*
X105086901Y-74514442D01*
X104992226Y-74419767D01*
X104876274Y-74352821D01*
X104746945Y-74318168D01*
X104613055Y-74318168D01*
X104483725Y-74352821D01*
X104367774Y-74419767D01*
X104367771Y-74419769D01*
X104273101Y-74514439D01*
X104273099Y-74514442D01*
X104206153Y-74630393D01*
X104206153Y-74630394D01*
X104171500Y-74759723D01*
X93870786Y-74759723D01*
X93888500Y-74693613D01*
X93888500Y-74589250D01*
X93888808Y-74584892D01*
X93899527Y-74556076D01*
X93908185Y-74526593D01*
X93911594Y-74523638D01*
X93913169Y-74519407D01*
X93937766Y-74500960D01*
X93960989Y-74480838D01*
X93967922Y-74478345D01*
X93969067Y-74477487D01*
X93970623Y-74477374D01*
X93980401Y-74473858D01*
X94057074Y-74453315D01*
X94173026Y-74386369D01*
X94267701Y-74291694D01*
X94334647Y-74175742D01*
X94369300Y-74046413D01*
X94369300Y-73912523D01*
X94334647Y-73783194D01*
X94267701Y-73667242D01*
X94173026Y-73572567D01*
X94057074Y-73505621D01*
X93927745Y-73470968D01*
X93793855Y-73470968D01*
X93664525Y-73505621D01*
X93548574Y-73572567D01*
X93548571Y-73572569D01*
X93453901Y-73667239D01*
X93453899Y-73667242D01*
X93386953Y-73783193D01*
X93352300Y-73912523D01*
X93352300Y-74012503D01*
X93332615Y-74079542D01*
X93279811Y-74125297D01*
X93260394Y-74132278D01*
X93183724Y-74152821D01*
X93067774Y-74219767D01*
X93067771Y-74219769D01*
X92973101Y-74314439D01*
X92973099Y-74314442D01*
X92906153Y-74430393D01*
X92895810Y-74468994D01*
X92871500Y-74559723D01*
X63242149Y-74559723D01*
X63901293Y-72696925D01*
X110318228Y-72696925D01*
X110318228Y-72830815D01*
X110352881Y-72960144D01*
X110419827Y-73076096D01*
X110514502Y-73170771D01*
X110630454Y-73237717D01*
X110759783Y-73272370D01*
X110759785Y-73272370D01*
X110799663Y-73272370D01*
X110866702Y-73292055D01*
X110912457Y-73344859D01*
X110923663Y-73396370D01*
X110923663Y-73441032D01*
X110958316Y-73570361D01*
X111025262Y-73686313D01*
X111119937Y-73780988D01*
X111235889Y-73847934D01*
X111365218Y-73882587D01*
X111365220Y-73882587D01*
X111499106Y-73882587D01*
X111499108Y-73882587D01*
X111628437Y-73847934D01*
X111744389Y-73780988D01*
X111839064Y-73686313D01*
X111906010Y-73570361D01*
X111940663Y-73441032D01*
X111940663Y-73307142D01*
X111912309Y-73201323D01*
X120200100Y-73201323D01*
X120200100Y-73335213D01*
X120234753Y-73464542D01*
X120301699Y-73580494D01*
X120396374Y-73675169D01*
X120512326Y-73742115D01*
X120641655Y-73776768D01*
X120641657Y-73776768D01*
X120775543Y-73776768D01*
X120775545Y-73776768D01*
X120904874Y-73742115D01*
X121020826Y-73675169D01*
X121115501Y-73580494D01*
X121182447Y-73464542D01*
X121210278Y-73360673D01*
X121246642Y-73301015D01*
X121309488Y-73270485D01*
X121330052Y-73268768D01*
X121334343Y-73268768D01*
X121334345Y-73268768D01*
X121463674Y-73234115D01*
X121579626Y-73167169D01*
X121674301Y-73072494D01*
X121741247Y-72956542D01*
X121775900Y-72827213D01*
X121775900Y-72789723D01*
X146941500Y-72789723D01*
X146941500Y-72923613D01*
X146976153Y-73052942D01*
X147043099Y-73168894D01*
X147137774Y-73263569D01*
X147253726Y-73330515D01*
X147383055Y-73365168D01*
X147383057Y-73365168D01*
X147516943Y-73365168D01*
X147516945Y-73365168D01*
X147646274Y-73330515D01*
X147762226Y-73263569D01*
X147856901Y-73168894D01*
X147923847Y-73052942D01*
X147958500Y-72923613D01*
X147958500Y-72789723D01*
X147923847Y-72660394D01*
X147856901Y-72544442D01*
X147762226Y-72449767D01*
X147646274Y-72382821D01*
X147516945Y-72348168D01*
X147383055Y-72348168D01*
X147253725Y-72382821D01*
X147137774Y-72449767D01*
X147137771Y-72449769D01*
X147043101Y-72544439D01*
X147043099Y-72544442D01*
X146976153Y-72660393D01*
X146976153Y-72660394D01*
X146941500Y-72789723D01*
X121775900Y-72789723D01*
X121775900Y-72693323D01*
X121741247Y-72563994D01*
X121674301Y-72448042D01*
X121579626Y-72353367D01*
X121463674Y-72286421D01*
X121334345Y-72251768D01*
X121200455Y-72251768D01*
X121071125Y-72286421D01*
X120955174Y-72353367D01*
X120955171Y-72353369D01*
X120860501Y-72448039D01*
X120860499Y-72448042D01*
X120793553Y-72563992D01*
X120780377Y-72613168D01*
X120765721Y-72667862D01*
X120729358Y-72727521D01*
X120666512Y-72758051D01*
X120645948Y-72759768D01*
X120641655Y-72759768D01*
X120512325Y-72794421D01*
X120396374Y-72861367D01*
X120396371Y-72861369D01*
X120301701Y-72956039D01*
X120301699Y-72956042D01*
X120234753Y-73071993D01*
X120208286Y-73170771D01*
X120200100Y-73201323D01*
X111912309Y-73201323D01*
X111906010Y-73177813D01*
X111839064Y-73061861D01*
X111744389Y-72967186D01*
X111628437Y-72900240D01*
X111499108Y-72865587D01*
X111459228Y-72865587D01*
X111392189Y-72845902D01*
X111346434Y-72793098D01*
X111335228Y-72741587D01*
X111335228Y-72696927D01*
X111335228Y-72696925D01*
X111300575Y-72567596D01*
X111233629Y-72451644D01*
X111138954Y-72356969D01*
X111023002Y-72290023D01*
X110893673Y-72255370D01*
X110759783Y-72255370D01*
X110630453Y-72290023D01*
X110514502Y-72356969D01*
X110514499Y-72356971D01*
X110419829Y-72451641D01*
X110419827Y-72451644D01*
X110352881Y-72567595D01*
X110319193Y-72693323D01*
X110318228Y-72696925D01*
X63901293Y-72696925D01*
X64441687Y-71169723D01*
X101111500Y-71169723D01*
X101111500Y-71303613D01*
X101146153Y-71432942D01*
X101213099Y-71548894D01*
X101307774Y-71643569D01*
X101423726Y-71710515D01*
X101553055Y-71745168D01*
X101553057Y-71745168D01*
X101686943Y-71745168D01*
X101686945Y-71745168D01*
X101816274Y-71710515D01*
X101932226Y-71643569D01*
X102026901Y-71548894D01*
X102093847Y-71432942D01*
X102105584Y-71389136D01*
X102141946Y-71329478D01*
X102204792Y-71298947D01*
X102274168Y-71307241D01*
X102328047Y-71351725D01*
X102345131Y-71389129D01*
X102346152Y-71392941D01*
X102349030Y-71397925D01*
X102413099Y-71508894D01*
X102507774Y-71603569D01*
X102623726Y-71670515D01*
X102753055Y-71705168D01*
X102753057Y-71705168D01*
X102886943Y-71705168D01*
X102886945Y-71705168D01*
X103016274Y-71670515D01*
X103132226Y-71603569D01*
X103226901Y-71508894D01*
X103290971Y-71397923D01*
X146438300Y-71397923D01*
X146438300Y-71531813D01*
X146472953Y-71661142D01*
X146539899Y-71777094D01*
X146634574Y-71871769D01*
X146750526Y-71938715D01*
X146879855Y-71973368D01*
X146879857Y-71973368D01*
X147013743Y-71973368D01*
X147013745Y-71973368D01*
X147143074Y-71938715D01*
X147259026Y-71871769D01*
X147353701Y-71777094D01*
X147420647Y-71661142D01*
X147455300Y-71531813D01*
X147455300Y-71397923D01*
X147420647Y-71268594D01*
X147353701Y-71152642D01*
X147259026Y-71057967D01*
X147143074Y-70991021D01*
X147013745Y-70956368D01*
X146879855Y-70956368D01*
X146750525Y-70991021D01*
X146634574Y-71057967D01*
X146634571Y-71057969D01*
X146539901Y-71152639D01*
X146539899Y-71152642D01*
X146472953Y-71268593D01*
X146449077Y-71357701D01*
X146438300Y-71397923D01*
X103290971Y-71397923D01*
X103293847Y-71392942D01*
X103328500Y-71263613D01*
X103328500Y-71129723D01*
X103293847Y-71000394D01*
X103226901Y-70884442D01*
X103132226Y-70789767D01*
X103016274Y-70722821D01*
X102886945Y-70688168D01*
X102753055Y-70688168D01*
X102623725Y-70722821D01*
X102507774Y-70789767D01*
X102507771Y-70789769D01*
X102413101Y-70884439D01*
X102413099Y-70884442D01*
X102351565Y-70991021D01*
X102346153Y-71000394D01*
X102334416Y-71044199D01*
X102298051Y-71103859D01*
X102235204Y-71134388D01*
X102165828Y-71126093D01*
X102111950Y-71081608D01*
X102094867Y-71044201D01*
X102093847Y-71040394D01*
X102026901Y-70924442D01*
X101932226Y-70829767D01*
X101816274Y-70762821D01*
X101686945Y-70728168D01*
X101553055Y-70728168D01*
X101423725Y-70762821D01*
X101307774Y-70829767D01*
X101307771Y-70829769D01*
X101213101Y-70924439D01*
X101213099Y-70924442D01*
X101146153Y-71040393D01*
X101146153Y-71040394D01*
X101111500Y-71169723D01*
X64441687Y-71169723D01*
X64905226Y-69859723D01*
X125261500Y-69859723D01*
X125261500Y-69993613D01*
X125296153Y-70122942D01*
X125363099Y-70238894D01*
X125457774Y-70333569D01*
X125573726Y-70400515D01*
X125703055Y-70435168D01*
X125703057Y-70435168D01*
X125836943Y-70435168D01*
X125836945Y-70435168D01*
X125966274Y-70400515D01*
X126082226Y-70333569D01*
X126176901Y-70238894D01*
X126243847Y-70122942D01*
X126278500Y-69993613D01*
X126278500Y-69859723D01*
X126243847Y-69730394D01*
X126176901Y-69614442D01*
X126082226Y-69519767D01*
X125966274Y-69452821D01*
X125836945Y-69418168D01*
X125703055Y-69418168D01*
X125573725Y-69452821D01*
X125457774Y-69519767D01*
X125457771Y-69519769D01*
X125363101Y-69614439D01*
X125363099Y-69614442D01*
X125296153Y-69730393D01*
X125296153Y-69730394D01*
X125261500Y-69859723D01*
X64905226Y-69859723D01*
X65635505Y-67795891D01*
X125880685Y-67795891D01*
X125880685Y-67929781D01*
X125915338Y-68059110D01*
X125982284Y-68175062D01*
X126076959Y-68269737D01*
X126192911Y-68336683D01*
X126322240Y-68371336D01*
X126322242Y-68371336D01*
X126456128Y-68371336D01*
X126456130Y-68371336D01*
X126585459Y-68336683D01*
X126701411Y-68269737D01*
X126796086Y-68175062D01*
X126863032Y-68059110D01*
X126897685Y-67929781D01*
X126897685Y-67899723D01*
X144781500Y-67899723D01*
X144781500Y-68033613D01*
X144816153Y-68162942D01*
X144883099Y-68278894D01*
X144977774Y-68373569D01*
X145093726Y-68440515D01*
X145223055Y-68475168D01*
X145223057Y-68475168D01*
X145356943Y-68475168D01*
X145356945Y-68475168D01*
X145486274Y-68440515D01*
X145602226Y-68373569D01*
X145696901Y-68278894D01*
X145763847Y-68162942D01*
X145798500Y-68033613D01*
X145798500Y-67899723D01*
X145763847Y-67770394D01*
X145696901Y-67654442D01*
X145602226Y-67559767D01*
X145486274Y-67492821D01*
X145356945Y-67458168D01*
X145223055Y-67458168D01*
X145093725Y-67492821D01*
X144977774Y-67559767D01*
X144977771Y-67559769D01*
X144883101Y-67654439D01*
X144883099Y-67654442D01*
X144816153Y-67770393D01*
X144781500Y-67899723D01*
X126897685Y-67899723D01*
X126897685Y-67795891D01*
X126863032Y-67666562D01*
X126796086Y-67550610D01*
X126701411Y-67455935D01*
X126585459Y-67388989D01*
X126456130Y-67354336D01*
X126322240Y-67354336D01*
X126192910Y-67388989D01*
X126076959Y-67455935D01*
X126076956Y-67455937D01*
X125982286Y-67550607D01*
X125982284Y-67550610D01*
X125915338Y-67666561D01*
X125915338Y-67666562D01*
X125880685Y-67795891D01*
X65635505Y-67795891D01*
X66648745Y-64932387D01*
X111108300Y-64932387D01*
X111108300Y-66171012D01*
X111135341Y-66306954D01*
X111135344Y-66306966D01*
X111188386Y-66435023D01*
X111265401Y-66550285D01*
X111363414Y-66648298D01*
X111478676Y-66725313D01*
X111606733Y-66778355D01*
X111606738Y-66778357D01*
X111742687Y-66805399D01*
X111742690Y-66805400D01*
X111742692Y-66805400D01*
X111881310Y-66805400D01*
X111881311Y-66805399D01*
X112017262Y-66778357D01*
X112081294Y-66751834D01*
X112145323Y-66725313D01*
X112145324Y-66725312D01*
X112145327Y-66725311D01*
X112260583Y-66648300D01*
X112358600Y-66550283D01*
X112435611Y-66435027D01*
X112488657Y-66306962D01*
X112515700Y-66171008D01*
X112515700Y-65380950D01*
X112535385Y-65313911D01*
X112588189Y-65268156D01*
X112657347Y-65258212D01*
X112720903Y-65287237D01*
X112747086Y-65318949D01*
X112779485Y-65375065D01*
X112886635Y-65482215D01*
X113017865Y-65557981D01*
X113164234Y-65597200D01*
X113164236Y-65597200D01*
X113315764Y-65597200D01*
X113315766Y-65597200D01*
X113462135Y-65557981D01*
X113593365Y-65482215D01*
X113700515Y-65375065D01*
X113776281Y-65243835D01*
X113815500Y-65097466D01*
X113815500Y-64945934D01*
X118444500Y-64945934D01*
X118444500Y-65097466D01*
X118463444Y-65168168D01*
X118483719Y-65243836D01*
X118508777Y-65287237D01*
X118559485Y-65375065D01*
X118666635Y-65482215D01*
X118797865Y-65557981D01*
X118944234Y-65597200D01*
X118944236Y-65597200D01*
X119095764Y-65597200D01*
X119095766Y-65597200D01*
X119242135Y-65557981D01*
X119373365Y-65482215D01*
X119480515Y-65375065D01*
X119512913Y-65318949D01*
X119563480Y-65270734D01*
X119632087Y-65257511D01*
X119696952Y-65283479D01*
X119737480Y-65340394D01*
X119744300Y-65380950D01*
X119744300Y-66171012D01*
X119771341Y-66306954D01*
X119771344Y-66306966D01*
X119824386Y-66435023D01*
X119901401Y-66550285D01*
X119999414Y-66648298D01*
X120114676Y-66725313D01*
X120242733Y-66778355D01*
X120242738Y-66778357D01*
X120378687Y-66805399D01*
X120378690Y-66805400D01*
X120378692Y-66805400D01*
X120517310Y-66805400D01*
X120517311Y-66805399D01*
X120653262Y-66778357D01*
X120717294Y-66751834D01*
X120781323Y-66725313D01*
X120781324Y-66725312D01*
X120781327Y-66725311D01*
X120896583Y-66648300D01*
X120994600Y-66550283D01*
X121071611Y-66435027D01*
X121124657Y-66306962D01*
X121151700Y-66171008D01*
X121151700Y-65609723D01*
X122621500Y-65609723D01*
X122621500Y-65743613D01*
X122656153Y-65872942D01*
X122723099Y-65988894D01*
X122817774Y-66083569D01*
X122933726Y-66150515D01*
X123063055Y-66185168D01*
X123063057Y-66185168D01*
X123196943Y-66185168D01*
X123196945Y-66185168D01*
X123326274Y-66150515D01*
X123442226Y-66083569D01*
X123536901Y-65988894D01*
X123603847Y-65872942D01*
X123638500Y-65743613D01*
X123638500Y-65609723D01*
X123603847Y-65480394D01*
X123536901Y-65364442D01*
X123442226Y-65269767D01*
X123326274Y-65202821D01*
X123196945Y-65168168D01*
X123063055Y-65168168D01*
X122933725Y-65202821D01*
X122817774Y-65269767D01*
X122817771Y-65269769D01*
X122723101Y-65364439D01*
X122723099Y-65364442D01*
X122656153Y-65480393D01*
X122656153Y-65480394D01*
X122621500Y-65609723D01*
X121151700Y-65609723D01*
X121151700Y-64999723D01*
X143751500Y-64999723D01*
X143751500Y-65133613D01*
X143786153Y-65262942D01*
X143853099Y-65378894D01*
X143947774Y-65473569D01*
X144063726Y-65540515D01*
X144193055Y-65575168D01*
X144193057Y-65575168D01*
X144326943Y-65575168D01*
X144326945Y-65575168D01*
X144456274Y-65540515D01*
X144572226Y-65473569D01*
X144666901Y-65378894D01*
X144733847Y-65262942D01*
X144768500Y-65133613D01*
X144768500Y-64999723D01*
X144733847Y-64870394D01*
X144666901Y-64754442D01*
X144572226Y-64659767D01*
X144456274Y-64592821D01*
X144326945Y-64558168D01*
X144193055Y-64558168D01*
X144063725Y-64592821D01*
X143947774Y-64659767D01*
X143947771Y-64659769D01*
X143853101Y-64754439D01*
X143853099Y-64754442D01*
X143786153Y-64870393D01*
X143786153Y-64870394D01*
X143751500Y-64999723D01*
X121151700Y-64999723D01*
X121151700Y-64932392D01*
X121151700Y-64932389D01*
X121151699Y-64932387D01*
X121139368Y-64870394D01*
X121124657Y-64796438D01*
X121119026Y-64782843D01*
X121071613Y-64668376D01*
X120994598Y-64553114D01*
X120896585Y-64455101D01*
X120781323Y-64378086D01*
X120653266Y-64325044D01*
X120653254Y-64325041D01*
X120517311Y-64298000D01*
X120517308Y-64298000D01*
X120378692Y-64298000D01*
X120378689Y-64298000D01*
X120242745Y-64325041D01*
X120242733Y-64325044D01*
X120114676Y-64378086D01*
X119999414Y-64455101D01*
X119901401Y-64553114D01*
X119824388Y-64668374D01*
X119776974Y-64782843D01*
X119733133Y-64837246D01*
X119666839Y-64859311D01*
X119599140Y-64842032D01*
X119555026Y-64797391D01*
X119530227Y-64754439D01*
X119480515Y-64668335D01*
X119373365Y-64561185D01*
X119307750Y-64523302D01*
X119242136Y-64485419D01*
X119128985Y-64455101D01*
X119095766Y-64446200D01*
X118944234Y-64446200D01*
X118797863Y-64485419D01*
X118666635Y-64561185D01*
X118666632Y-64561187D01*
X118559487Y-64668332D01*
X118559485Y-64668335D01*
X118483719Y-64799563D01*
X118444500Y-64945934D01*
X113815500Y-64945934D01*
X113776281Y-64799565D01*
X113700515Y-64668335D01*
X113593365Y-64561185D01*
X113527750Y-64523302D01*
X113462136Y-64485419D01*
X113348985Y-64455101D01*
X113315766Y-64446200D01*
X113164234Y-64446200D01*
X113017863Y-64485419D01*
X112886635Y-64561185D01*
X112886632Y-64561187D01*
X112779487Y-64668332D01*
X112779481Y-64668341D01*
X112704972Y-64797391D01*
X112654405Y-64845606D01*
X112585798Y-64858828D01*
X112520933Y-64832860D01*
X112483025Y-64782842D01*
X112471261Y-64754442D01*
X112435611Y-64668373D01*
X112358600Y-64553117D01*
X112358598Y-64553114D01*
X112260585Y-64455101D01*
X112145323Y-64378086D01*
X112017266Y-64325044D01*
X112017254Y-64325041D01*
X111881311Y-64298000D01*
X111881308Y-64298000D01*
X111742692Y-64298000D01*
X111742689Y-64298000D01*
X111606745Y-64325041D01*
X111606733Y-64325044D01*
X111478676Y-64378086D01*
X111363414Y-64455101D01*
X111265401Y-64553114D01*
X111188386Y-64668376D01*
X111135344Y-64796433D01*
X111135341Y-64796445D01*
X111108300Y-64932387D01*
X66648745Y-64932387D01*
X67438447Y-62700620D01*
X97129499Y-62700620D01*
X97158340Y-62845607D01*
X97158343Y-62845617D01*
X97214912Y-62982188D01*
X97214919Y-62982201D01*
X97297048Y-63105115D01*
X97297051Y-63105119D01*
X97401580Y-63209648D01*
X97401584Y-63209651D01*
X97524498Y-63291780D01*
X97524511Y-63291787D01*
X97661082Y-63348356D01*
X97661087Y-63348358D01*
X97661091Y-63348358D01*
X97661092Y-63348359D01*
X97806079Y-63377200D01*
X97806082Y-63377200D01*
X97953920Y-63377200D01*
X98051462Y-63357796D01*
X98098913Y-63348358D01*
X98235495Y-63291784D01*
X98358416Y-63209651D01*
X98462951Y-63105116D01*
X98545084Y-62982195D01*
X98601658Y-62845613D01*
X98630500Y-62700620D01*
X105129499Y-62700620D01*
X105158340Y-62845607D01*
X105158343Y-62845617D01*
X105214912Y-62982188D01*
X105214919Y-62982201D01*
X105297048Y-63105115D01*
X105297051Y-63105119D01*
X105401580Y-63209648D01*
X105401584Y-63209651D01*
X105524498Y-63291780D01*
X105524511Y-63291787D01*
X105661082Y-63348356D01*
X105661087Y-63348358D01*
X105661091Y-63348358D01*
X105661092Y-63348359D01*
X105806079Y-63377200D01*
X105806082Y-63377200D01*
X105953920Y-63377200D01*
X105982458Y-63371523D01*
X143339500Y-63371523D01*
X143339500Y-63505413D01*
X143374153Y-63634742D01*
X143441099Y-63750694D01*
X143535774Y-63845369D01*
X143651726Y-63912315D01*
X143781055Y-63946968D01*
X143781057Y-63946968D01*
X143914943Y-63946968D01*
X143914945Y-63946968D01*
X144044274Y-63912315D01*
X144160226Y-63845369D01*
X144254901Y-63750694D01*
X144321847Y-63634742D01*
X144356500Y-63505413D01*
X144356500Y-63371523D01*
X144321847Y-63242194D01*
X144254901Y-63126242D01*
X144160226Y-63031567D01*
X144044274Y-62964621D01*
X143914945Y-62929968D01*
X143781055Y-62929968D01*
X143651725Y-62964621D01*
X143535774Y-63031567D01*
X143535771Y-63031569D01*
X143441101Y-63126239D01*
X143441099Y-63126242D01*
X143374153Y-63242193D01*
X143360865Y-63291787D01*
X143339500Y-63371523D01*
X105982458Y-63371523D01*
X106051462Y-63357796D01*
X106098913Y-63348358D01*
X106235495Y-63291784D01*
X106235501Y-63291780D01*
X106282624Y-63260294D01*
X106315778Y-63238140D01*
X106358416Y-63209651D01*
X106462951Y-63105116D01*
X106545084Y-62982195D01*
X106601658Y-62845613D01*
X106630500Y-62700618D01*
X106630500Y-62552782D01*
X106630500Y-62552779D01*
X106601659Y-62407792D01*
X106601658Y-62407791D01*
X106601658Y-62407787D01*
X106588243Y-62375400D01*
X106545087Y-62271211D01*
X106545080Y-62271198D01*
X106462951Y-62148284D01*
X106462948Y-62148280D01*
X106358419Y-62043751D01*
X106358415Y-62043748D01*
X106235501Y-61961619D01*
X106235488Y-61961612D01*
X106098917Y-61905043D01*
X106098907Y-61905040D01*
X105953920Y-61876200D01*
X105953918Y-61876200D01*
X105806082Y-61876200D01*
X105806080Y-61876200D01*
X105661092Y-61905040D01*
X105661082Y-61905043D01*
X105524511Y-61961612D01*
X105524498Y-61961619D01*
X105401584Y-62043748D01*
X105401580Y-62043751D01*
X105297051Y-62148280D01*
X105297048Y-62148284D01*
X105214919Y-62271198D01*
X105214912Y-62271211D01*
X105158343Y-62407782D01*
X105158340Y-62407792D01*
X105129500Y-62552779D01*
X105129500Y-62552782D01*
X105129500Y-62700618D01*
X105129500Y-62700620D01*
X105129499Y-62700620D01*
X98630500Y-62700620D01*
X98630500Y-62700618D01*
X98630500Y-62552782D01*
X98630500Y-62552779D01*
X98601659Y-62407792D01*
X98601658Y-62407791D01*
X98601658Y-62407787D01*
X98588243Y-62375400D01*
X98545087Y-62271211D01*
X98545080Y-62271198D01*
X98462951Y-62148284D01*
X98462948Y-62148280D01*
X98358419Y-62043751D01*
X98358415Y-62043748D01*
X98235501Y-61961619D01*
X98235488Y-61961612D01*
X98098917Y-61905043D01*
X98098907Y-61905040D01*
X97953920Y-61876200D01*
X97953918Y-61876200D01*
X97806082Y-61876200D01*
X97806080Y-61876200D01*
X97661092Y-61905040D01*
X97661082Y-61905043D01*
X97524511Y-61961612D01*
X97524498Y-61961619D01*
X97401584Y-62043748D01*
X97401580Y-62043751D01*
X97297051Y-62148280D01*
X97297048Y-62148284D01*
X97214919Y-62271198D01*
X97214912Y-62271211D01*
X97158343Y-62407782D01*
X97158340Y-62407792D01*
X97129500Y-62552779D01*
X97129500Y-62552782D01*
X97129500Y-62700618D01*
X97129500Y-62700620D01*
X97129499Y-62700620D01*
X67438447Y-62700620D01*
X68049687Y-60973204D01*
X110812000Y-60973204D01*
X110812000Y-61121700D01*
X111512000Y-61121700D01*
X111512000Y-61621700D01*
X110812000Y-61621700D01*
X110812000Y-61770195D01*
X110850427Y-61963381D01*
X110850430Y-61963393D01*
X110925807Y-62145371D01*
X110925814Y-62145384D01*
X111035248Y-62309162D01*
X111035251Y-62309166D01*
X111174533Y-62448448D01*
X111174537Y-62448451D01*
X111338315Y-62557885D01*
X111338328Y-62557892D01*
X111520308Y-62633269D01*
X111562000Y-62641562D01*
X111562000Y-61838688D01*
X111571940Y-61855905D01*
X111627795Y-61911760D01*
X111696204Y-61951256D01*
X111772504Y-61971700D01*
X111851496Y-61971700D01*
X111927796Y-61951256D01*
X111996205Y-61911760D01*
X112052060Y-61855905D01*
X112062000Y-61838688D01*
X112062000Y-62641562D01*
X112103690Y-62633269D01*
X112103692Y-62633269D01*
X112285671Y-62557892D01*
X112285684Y-62557885D01*
X112449462Y-62448451D01*
X112449466Y-62448448D01*
X112588748Y-62309166D01*
X112588751Y-62309162D01*
X112698185Y-62145384D01*
X112698192Y-62145371D01*
X112773569Y-61963393D01*
X112773572Y-61963381D01*
X112811999Y-61770195D01*
X112812000Y-61770192D01*
X112812000Y-61621700D01*
X112112000Y-61621700D01*
X112112000Y-61121700D01*
X112812000Y-61121700D01*
X112812000Y-61002387D01*
X119744300Y-61002387D01*
X119744300Y-61741012D01*
X119771341Y-61876954D01*
X119771344Y-61876966D01*
X119824386Y-62005023D01*
X119901401Y-62120285D01*
X119999414Y-62218298D01*
X120114676Y-62295313D01*
X120242733Y-62348355D01*
X120242738Y-62348357D01*
X120378687Y-62375399D01*
X120378690Y-62375400D01*
X120378692Y-62375400D01*
X120517310Y-62375400D01*
X120517311Y-62375399D01*
X120653262Y-62348357D01*
X120737248Y-62313569D01*
X120781323Y-62295313D01*
X120781324Y-62295312D01*
X120781327Y-62295311D01*
X120896583Y-62218300D01*
X120994600Y-62120283D01*
X121071611Y-62005027D01*
X121084624Y-61973612D01*
X121110243Y-61911760D01*
X121124657Y-61876962D01*
X121132064Y-61839723D01*
X133651500Y-61839723D01*
X133651500Y-61973613D01*
X133686153Y-62102942D01*
X133753099Y-62218894D01*
X133847774Y-62313569D01*
X133963726Y-62380515D01*
X134093055Y-62415168D01*
X134093057Y-62415168D01*
X134226943Y-62415168D01*
X134226945Y-62415168D01*
X134356274Y-62380515D01*
X134472226Y-62313569D01*
X134566901Y-62218894D01*
X134633847Y-62102942D01*
X134668500Y-61973613D01*
X134668500Y-61839723D01*
X134633847Y-61710394D01*
X134566901Y-61594442D01*
X134472226Y-61499767D01*
X134356274Y-61432821D01*
X134226945Y-61398168D01*
X134093055Y-61398168D01*
X133963725Y-61432821D01*
X133847774Y-61499767D01*
X133847771Y-61499769D01*
X133753101Y-61594439D01*
X133753099Y-61594442D01*
X133686153Y-61710393D01*
X133677949Y-61741012D01*
X133651500Y-61839723D01*
X121132064Y-61839723D01*
X121142453Y-61787496D01*
X121151700Y-61741010D01*
X121151700Y-61002389D01*
X121151699Y-61002387D01*
X121142453Y-60955904D01*
X121124657Y-60866438D01*
X121124655Y-60866433D01*
X121071613Y-60738376D01*
X120994598Y-60623114D01*
X120896585Y-60525101D01*
X120781323Y-60448086D01*
X120653266Y-60395044D01*
X120653254Y-60395041D01*
X120517311Y-60368000D01*
X120517308Y-60368000D01*
X120378692Y-60368000D01*
X120378689Y-60368000D01*
X120242745Y-60395041D01*
X120242733Y-60395044D01*
X120114676Y-60448086D01*
X119999414Y-60525101D01*
X119901401Y-60623114D01*
X119824386Y-60738376D01*
X119771344Y-60866433D01*
X119771341Y-60866445D01*
X119744300Y-61002387D01*
X112812000Y-61002387D01*
X112812000Y-60973208D01*
X112811999Y-60973204D01*
X112773572Y-60780018D01*
X112773569Y-60780006D01*
X112698192Y-60598028D01*
X112698185Y-60598015D01*
X112588751Y-60434237D01*
X112588748Y-60434233D01*
X112449466Y-60294951D01*
X112449462Y-60294948D01*
X112285684Y-60185514D01*
X112285671Y-60185507D01*
X112103691Y-60110129D01*
X112103683Y-60110127D01*
X112062000Y-60101835D01*
X112062000Y-60904711D01*
X112052060Y-60887495D01*
X111996205Y-60831640D01*
X111927796Y-60792144D01*
X111851496Y-60771700D01*
X111772504Y-60771700D01*
X111696204Y-60792144D01*
X111627795Y-60831640D01*
X111571940Y-60887495D01*
X111562000Y-60904711D01*
X111562000Y-60101836D01*
X111561999Y-60101835D01*
X111520316Y-60110127D01*
X111520308Y-60110129D01*
X111338328Y-60185507D01*
X111338315Y-60185514D01*
X111174537Y-60294948D01*
X111174533Y-60294951D01*
X111035251Y-60434233D01*
X111035248Y-60434237D01*
X110925814Y-60598015D01*
X110925807Y-60598028D01*
X110850430Y-60780006D01*
X110850427Y-60780018D01*
X110812000Y-60973204D01*
X68049687Y-60973204D01*
X68866715Y-58664211D01*
X68907635Y-58607579D01*
X68912647Y-58603890D01*
X70088506Y-57783523D01*
X73438700Y-57783523D01*
X73438700Y-57917413D01*
X73473353Y-58046742D01*
X73540299Y-58162694D01*
X73634974Y-58257369D01*
X73750926Y-58324315D01*
X73880255Y-58358968D01*
X73880257Y-58358968D01*
X74014143Y-58358968D01*
X74014145Y-58358968D01*
X74143474Y-58324315D01*
X74259426Y-58257369D01*
X74354101Y-58162694D01*
X74421047Y-58046742D01*
X74455700Y-57917413D01*
X74455700Y-57783523D01*
X74421047Y-57654194D01*
X74354101Y-57538242D01*
X74259426Y-57443567D01*
X74143474Y-57376621D01*
X74014145Y-57341968D01*
X73880255Y-57341968D01*
X73750925Y-57376621D01*
X73634974Y-57443567D01*
X73634971Y-57443569D01*
X73540301Y-57538239D01*
X73540299Y-57538242D01*
X73473353Y-57654193D01*
X73457444Y-57713568D01*
X73438700Y-57783523D01*
X70088506Y-57783523D01*
X71253519Y-56970723D01*
X82455700Y-56970723D01*
X82455700Y-57104613D01*
X82490353Y-57233942D01*
X82557299Y-57349894D01*
X82651974Y-57444569D01*
X82767926Y-57511515D01*
X82897255Y-57546168D01*
X82897257Y-57546168D01*
X83031143Y-57546168D01*
X83031145Y-57546168D01*
X83160474Y-57511515D01*
X83276426Y-57444569D01*
X83371101Y-57349894D01*
X83438047Y-57233942D01*
X83472700Y-57104613D01*
X83472700Y-56970723D01*
X83438047Y-56841394D01*
X83371101Y-56725442D01*
X83276426Y-56630767D01*
X83160474Y-56563821D01*
X83031145Y-56529168D01*
X82897255Y-56529168D01*
X82767925Y-56563821D01*
X82651974Y-56630767D01*
X82651971Y-56630769D01*
X82557301Y-56725439D01*
X82557299Y-56725442D01*
X82490353Y-56841393D01*
X82468101Y-56924442D01*
X82455700Y-56970723D01*
X71253519Y-56970723D01*
X73183073Y-55624523D01*
X82201700Y-55624523D01*
X82201700Y-55758413D01*
X82236353Y-55887742D01*
X82303299Y-56003694D01*
X82397974Y-56098369D01*
X82513926Y-56165315D01*
X82643255Y-56199968D01*
X82643257Y-56199968D01*
X82777143Y-56199968D01*
X82777145Y-56199968D01*
X82906474Y-56165315D01*
X83022426Y-56098369D01*
X83117101Y-56003694D01*
X83184047Y-55887742D01*
X83218700Y-55758413D01*
X83218700Y-55624523D01*
X83184047Y-55495194D01*
X83117101Y-55379242D01*
X83022426Y-55284567D01*
X82906474Y-55217621D01*
X82777145Y-55182968D01*
X82643255Y-55182968D01*
X82513925Y-55217621D01*
X82397974Y-55284567D01*
X82397971Y-55284569D01*
X82303301Y-55379239D01*
X82303299Y-55379242D01*
X82236353Y-55495193D01*
X82201700Y-55624523D01*
X73183073Y-55624523D01*
X75476693Y-54024323D01*
X81795300Y-54024323D01*
X81795300Y-54158213D01*
X81829953Y-54287542D01*
X81896899Y-54403494D01*
X81991574Y-54498169D01*
X82107526Y-54565115D01*
X82236855Y-54599768D01*
X82236857Y-54599768D01*
X82370743Y-54599768D01*
X82370745Y-54599768D01*
X82500074Y-54565115D01*
X82616026Y-54498169D01*
X82710701Y-54403494D01*
X82777647Y-54287542D01*
X82812300Y-54158213D01*
X82812300Y-54024323D01*
X82777647Y-53894994D01*
X82710701Y-53779042D01*
X82616026Y-53684367D01*
X82500074Y-53617421D01*
X82370745Y-53582768D01*
X82236855Y-53582768D01*
X82107525Y-53617421D01*
X81991574Y-53684367D01*
X81991571Y-53684369D01*
X81896901Y-53779039D01*
X81896899Y-53779042D01*
X81829953Y-53894993D01*
X81795300Y-54024323D01*
X75476693Y-54024323D01*
X78163620Y-52149723D01*
X83091500Y-52149723D01*
X83091500Y-52283613D01*
X83126153Y-52412942D01*
X83193099Y-52528894D01*
X83287774Y-52623569D01*
X83403726Y-52690515D01*
X83533055Y-52725168D01*
X83533057Y-52725168D01*
X83666943Y-52725168D01*
X83666945Y-52725168D01*
X83796274Y-52690515D01*
X83912226Y-52623569D01*
X84006901Y-52528894D01*
X84073847Y-52412942D01*
X84108500Y-52283613D01*
X84108500Y-52262759D01*
X84128185Y-52195720D01*
X84180989Y-52149965D01*
X84200400Y-52142986D01*
X84238529Y-52132770D01*
X84354481Y-52065824D01*
X84449156Y-51971149D01*
X84516102Y-51855197D01*
X84550755Y-51725868D01*
X84550755Y-51591978D01*
X84516102Y-51462649D01*
X84449156Y-51346697D01*
X84354481Y-51252022D01*
X84238529Y-51185076D01*
X84109200Y-51150423D01*
X83975310Y-51150423D01*
X83845980Y-51185076D01*
X83730029Y-51252022D01*
X83730026Y-51252024D01*
X83635356Y-51346694D01*
X83635354Y-51346697D01*
X83568408Y-51462648D01*
X83533755Y-51591978D01*
X83533755Y-51612831D01*
X83514070Y-51679870D01*
X83461266Y-51725625D01*
X83441850Y-51732605D01*
X83403727Y-51742820D01*
X83403726Y-51742820D01*
X83287774Y-51809767D01*
X83287771Y-51809769D01*
X83193101Y-51904439D01*
X83193099Y-51904442D01*
X83126153Y-52020393D01*
X83113980Y-52065824D01*
X83091500Y-52149723D01*
X78163620Y-52149723D01*
X83003865Y-48772808D01*
X87542000Y-48772808D01*
X87542000Y-48904591D01*
X87576108Y-49031887D01*
X87609054Y-49088950D01*
X87642000Y-49146014D01*
X87735186Y-49239200D01*
X87849314Y-49305092D01*
X87976608Y-49339200D01*
X87976610Y-49339200D01*
X88108390Y-49339200D01*
X88108392Y-49339200D01*
X88235686Y-49305092D01*
X88349814Y-49239200D01*
X88443000Y-49146014D01*
X88508892Y-49031886D01*
X88543000Y-48904592D01*
X88543000Y-48772808D01*
X88508892Y-48645514D01*
X88443000Y-48531386D01*
X88349814Y-48438200D01*
X88292750Y-48405254D01*
X88235687Y-48372308D01*
X88172039Y-48355254D01*
X88108392Y-48338200D01*
X87976608Y-48338200D01*
X87849312Y-48372308D01*
X87735186Y-48438200D01*
X87735183Y-48438202D01*
X87642002Y-48531383D01*
X87642000Y-48531386D01*
X87576108Y-48645512D01*
X87542000Y-48772808D01*
X83003865Y-48772808D01*
X84764586Y-47544398D01*
X84830826Y-47522185D01*
X84898565Y-47539311D01*
X84946291Y-47590340D01*
X84958852Y-47659072D01*
X84955308Y-47678188D01*
X84941500Y-47729721D01*
X84941500Y-47729723D01*
X84941500Y-47863613D01*
X84976153Y-47992942D01*
X85043099Y-48108894D01*
X85137774Y-48203569D01*
X85253726Y-48270515D01*
X85383055Y-48305168D01*
X85383057Y-48305168D01*
X85516943Y-48305168D01*
X85516945Y-48305168D01*
X85646274Y-48270515D01*
X85762226Y-48203569D01*
X85856901Y-48108894D01*
X85923847Y-47992942D01*
X85958500Y-47863613D01*
X85958500Y-47729723D01*
X85923847Y-47600394D01*
X85856901Y-47484442D01*
X85762226Y-47389767D01*
X85646274Y-47322821D01*
X85516939Y-47288166D01*
X85509910Y-47287241D01*
X85446015Y-47258970D01*
X85407548Y-47200643D01*
X85406721Y-47130778D01*
X85443797Y-47071557D01*
X85455135Y-47062619D01*
X90184552Y-43763026D01*
X90250794Y-43740813D01*
X90318532Y-43757939D01*
X90366258Y-43808968D01*
X90379500Y-43864724D01*
X90379500Y-58547693D01*
X90380000Y-58550207D01*
X90380000Y-58626667D01*
X90380000Y-58626668D01*
X97113716Y-58524642D01*
X97115595Y-58524628D01*
X123380207Y-58524628D01*
X123380500Y-58524335D01*
X123380500Y-57239723D01*
X135171500Y-57239723D01*
X135171500Y-57373613D01*
X135206153Y-57502942D01*
X135273099Y-57618894D01*
X135367774Y-57713569D01*
X135483726Y-57780515D01*
X135613055Y-57815168D01*
X135613057Y-57815168D01*
X135746943Y-57815168D01*
X135746945Y-57815168D01*
X135876274Y-57780515D01*
X135992226Y-57713569D01*
X136086901Y-57618894D01*
X136153847Y-57502942D01*
X136188500Y-57373613D01*
X136188500Y-57239723D01*
X136164385Y-57149723D01*
X136871500Y-57149723D01*
X136871500Y-57283613D01*
X136906153Y-57412942D01*
X136973099Y-57528894D01*
X137067774Y-57623569D01*
X137183726Y-57690515D01*
X137313055Y-57725168D01*
X137313057Y-57725168D01*
X137446943Y-57725168D01*
X137446945Y-57725168D01*
X137576274Y-57690515D01*
X137692226Y-57623569D01*
X137786901Y-57528894D01*
X137816839Y-57477039D01*
X137867406Y-57428824D01*
X137936013Y-57415601D01*
X138000878Y-57441570D01*
X138031612Y-57477039D01*
X138061549Y-57528890D01*
X138073099Y-57548894D01*
X138167774Y-57643569D01*
X138283726Y-57710515D01*
X138413055Y-57745168D01*
X138413057Y-57745168D01*
X138546943Y-57745168D01*
X138546945Y-57745168D01*
X138676274Y-57710515D01*
X138792226Y-57643569D01*
X138886901Y-57548894D01*
X138953847Y-57432942D01*
X138988500Y-57303613D01*
X138988500Y-57169723D01*
X138953847Y-57040394D01*
X138886901Y-56924442D01*
X138792226Y-56829767D01*
X138676274Y-56762821D01*
X138546945Y-56728168D01*
X138413055Y-56728168D01*
X138283725Y-56762821D01*
X138167774Y-56829767D01*
X138167771Y-56829769D01*
X138073101Y-56924439D01*
X138073096Y-56924445D01*
X138043159Y-56976297D01*
X137992591Y-57024512D01*
X137923983Y-57037733D01*
X137859119Y-57011764D01*
X137828387Y-56976297D01*
X137786901Y-56904442D01*
X137692226Y-56809767D01*
X137576274Y-56742821D01*
X137446945Y-56708168D01*
X137313055Y-56708168D01*
X137183725Y-56742821D01*
X137067774Y-56809767D01*
X137067771Y-56809769D01*
X136973101Y-56904439D01*
X136973099Y-56904442D01*
X136906153Y-57020393D01*
X136882038Y-57110393D01*
X136871500Y-57149723D01*
X136164385Y-57149723D01*
X136153847Y-57110394D01*
X136086901Y-56994442D01*
X135992226Y-56899767D01*
X135876274Y-56832821D01*
X135746945Y-56798168D01*
X135613055Y-56798168D01*
X135483725Y-56832821D01*
X135367774Y-56899767D01*
X135367771Y-56899769D01*
X135273101Y-56994439D01*
X135273099Y-56994442D01*
X135206153Y-57110393D01*
X135189193Y-57173689D01*
X135171500Y-57239723D01*
X123380500Y-57239723D01*
X123380500Y-55269723D01*
X132181500Y-55269723D01*
X132181500Y-55403613D01*
X132216153Y-55532942D01*
X132283099Y-55648894D01*
X132377774Y-55743569D01*
X132493726Y-55810515D01*
X132623055Y-55845168D01*
X132623057Y-55845168D01*
X132756943Y-55845168D01*
X132756945Y-55845168D01*
X132886274Y-55810515D01*
X133002226Y-55743569D01*
X133096901Y-55648894D01*
X133163847Y-55532942D01*
X133198500Y-55403613D01*
X133198500Y-55269723D01*
X133163847Y-55140394D01*
X133096901Y-55024442D01*
X133002226Y-54929767D01*
X132886274Y-54862821D01*
X132756945Y-54828168D01*
X132623055Y-54828168D01*
X132493725Y-54862821D01*
X132377774Y-54929767D01*
X132377771Y-54929769D01*
X132283101Y-55024439D01*
X132283099Y-55024442D01*
X132216153Y-55140393D01*
X132195460Y-55217621D01*
X132181500Y-55269723D01*
X123380500Y-55269723D01*
X123380500Y-53723308D01*
X134379500Y-53723308D01*
X134379500Y-53855091D01*
X134413608Y-53982387D01*
X134446554Y-54039450D01*
X134479500Y-54096514D01*
X134572686Y-54189700D01*
X134686814Y-54255592D01*
X134814108Y-54289700D01*
X134814110Y-54289700D01*
X134945890Y-54289700D01*
X134945892Y-54289700D01*
X135073186Y-54255592D01*
X135187314Y-54189700D01*
X135280500Y-54096514D01*
X135346392Y-53982386D01*
X135380500Y-53855092D01*
X135380500Y-53723308D01*
X135346392Y-53596014D01*
X135280500Y-53481886D01*
X135187314Y-53388700D01*
X135130250Y-53355754D01*
X135073187Y-53322808D01*
X135009539Y-53305754D01*
X134945892Y-53288700D01*
X134814108Y-53288700D01*
X134686812Y-53322808D01*
X134572686Y-53388700D01*
X134572683Y-53388702D01*
X134479502Y-53481883D01*
X134479500Y-53481886D01*
X134413608Y-53596012D01*
X134379500Y-53723308D01*
X123380500Y-53723308D01*
X123380500Y-43851259D01*
X123400185Y-43784220D01*
X123452989Y-43738465D01*
X123522147Y-43728521D01*
X123570435Y-43746243D01*
G37*
%TD.AperFunction*%
%TD*%
M02*
