%TF.GenerationSoftware,KiCad,Pcbnew,9.0.2*%
%TF.CreationDate,2026-05-07T12:11:25+01:00*%
%TF.ProjectId,raylar_v1_00,7261796c-6172-45f7-9631-5f30302e6b69,1*%
%TF.SameCoordinates,Original*%
%TF.FileFunction,Copper,L1,Top*%
%TF.FilePolarity,Positive*%
%FSLAX46Y46*%
G04 Gerber Fmt 4.6, Leading zero omitted, Abs format (unit mm)*
G04 Created by KiCad (PCBNEW 9.0.2) date 2026-05-07 12:11:25*
%MOMM*%
%LPD*%
G01*
G04 APERTURE LIST*
G04 Aperture macros list*
%AMRoundRect*
0 Rectangle with rounded corners*
0 $1 Rounding radius*
0 $2 $3 $4 $5 $6 $7 $8 $9 X,Y pos of 4 corners*
0 Add a 4 corners polygon primitive as box body*
4,1,4,$2,$3,$4,$5,$6,$7,$8,$9,$2,$3,0*
0 Add four circle primitives for the rounded corners*
1,1,$1+$1,$2,$3*
1,1,$1+$1,$4,$5*
1,1,$1+$1,$6,$7*
1,1,$1+$1,$8,$9*
0 Add four rect primitives between the rounded corners*
20,1,$1+$1,$2,$3,$4,$5,0*
20,1,$1+$1,$4,$5,$6,$7,0*
20,1,$1+$1,$6,$7,$8,$9,0*
20,1,$1+$1,$8,$9,$2,$3,0*%
%AMRotRect*
0 Rectangle, with rotation*
0 The origin of the aperture is its center*
0 $1 length*
0 $2 width*
0 $3 Rotation angle, in degrees counterclockwise*
0 Add horizontal line*
21,1,$1,$2,0,0,$3*%
%AMFreePoly0*
4,1,64,0.235856,1.440014,0.383010,1.379061,0.515445,1.290571,0.628071,1.177945,0.716561,1.045510,0.777514,0.898356,0.808588,0.742139,0.808588,0.582861,0.777514,0.426644,0.716561,0.279490,0.628071,0.147055,0.515445,0.034429,0.383010,-0.054061,0.235856,-0.115014,0.079639,-0.146088,0.031751,-0.146088,0.029264,-0.147118,-0.029264,-0.147118,-0.031751,-0.146088,-0.079639,-0.146088,
-0.235856,-0.115014,-0.383010,-0.054061,-0.515445,0.034429,-0.628071,0.147055,-0.716561,0.279490,-0.777514,0.426644,-0.808588,0.582861,-0.808588,0.729972,-0.512500,0.729972,-0.512500,0.595028,-0.477574,0.464683,-0.410102,0.347818,-0.314682,0.252398,-0.197817,0.184926,-0.067472,0.150000,0.067472,0.150000,0.197817,0.184926,0.314682,0.252398,0.410102,0.347818,0.477574,0.464683,
0.512500,0.595028,0.512500,0.729972,0.477574,0.860317,0.410102,0.977182,0.314682,1.072602,0.197817,1.140074,0.067472,1.175000,-0.067472,1.175000,-0.197817,1.140074,-0.314682,1.072602,-0.410102,0.977182,-0.477574,0.860317,-0.512500,0.729972,-0.808588,0.729972,-0.808588,0.742139,-0.777514,0.898356,-0.716561,1.045510,-0.628071,1.177945,-0.515445,1.290571,-0.383010,1.379061,
-0.235856,1.440014,-0.079639,1.471088,0.079639,1.471088,0.235856,1.440014,0.235856,1.440014,$1*%
%AMFreePoly1*
4,1,153,0.406581,0.754743,0.408810,0.754000,0.410000,0.754000,0.411581,0.753743,0.413810,0.753000,0.415000,0.753000,0.416581,0.752743,0.419581,0.751743,0.420236,0.751472,0.421920,0.750630,0.424581,0.749743,0.426536,0.748536,0.427964,0.747108,0.429236,0.746472,0.430536,0.745536,0.431964,0.744108,0.433236,0.743472,0.434536,0.742536,0.442536,0.734536,0.443472,0.733236,
0.444108,0.731964,0.445536,0.730536,0.446472,0.729236,0.447108,0.727964,0.448536,0.726536,0.449743,0.724581,0.450630,0.721920,0.451472,0.720236,0.451743,0.719581,0.452743,0.716581,0.453000,0.715000,0.453000,0.713810,0.453743,0.711581,0.454000,0.710000,0.454000,0.708810,0.454743,0.706581,0.455000,0.705000,0.455000,-0.705000,0.454743,-0.706581,0.454000,-0.708810,
0.454000,-0.710000,0.453743,-0.711581,0.453000,-0.713810,0.453000,-0.715000,0.452743,-0.716581,0.451743,-0.719581,0.451472,-0.720236,0.450630,-0.721920,0.449743,-0.724581,0.448536,-0.726536,0.447108,-0.727964,0.446472,-0.729236,0.445536,-0.730536,0.444108,-0.731964,0.443472,-0.733236,0.442536,-0.734536,0.434536,-0.742536,0.433236,-0.743472,0.431964,-0.744108,0.430536,-0.745536,
0.429236,-0.746472,0.427964,-0.747108,0.426536,-0.748536,0.424581,-0.749743,0.421920,-0.750630,0.420236,-0.751472,0.419581,-0.751743,0.416581,-0.752743,0.415000,-0.753000,0.413810,-0.753000,0.411581,-0.753743,0.410000,-0.754000,0.408810,-0.754000,0.406581,-0.754743,0.405000,-0.755000,-0.405000,-0.755000,-0.406581,-0.754743,-0.408810,-0.754000,-0.410000,-0.754000,-0.411581,-0.753743,
-0.413810,-0.753000,-0.415000,-0.753000,-0.416581,-0.752743,-0.419581,-0.751743,-0.420236,-0.751472,-0.421920,-0.750630,-0.424581,-0.749743,-0.426536,-0.748536,-0.427964,-0.747108,-0.429236,-0.746472,-0.430536,-0.745536,-0.431964,-0.744108,-0.433236,-0.743472,-0.434536,-0.742536,-0.442536,-0.734536,-0.443472,-0.733236,-0.444108,-0.731964,-0.445536,-0.730536,-0.446472,-0.729236,-0.447108,-0.727964,
-0.448536,-0.726536,-0.449743,-0.724581,-0.450630,-0.721920,-0.451472,-0.720236,-0.451743,-0.719581,-0.452743,-0.716581,-0.453000,-0.715000,-0.453000,-0.713810,-0.453743,-0.711581,-0.454000,-0.710000,-0.454000,-0.708810,-0.454743,-0.706581,-0.455000,-0.705000,-0.455000,0.705000,-0.454743,0.706581,-0.454000,0.708810,-0.454000,0.710000,-0.453743,0.711581,-0.453000,0.713810,-0.453000,0.715000,
-0.452743,0.716581,-0.451743,0.719581,-0.451472,0.720236,-0.450630,0.721920,-0.449743,0.724581,-0.448536,0.726536,-0.447108,0.727964,-0.446472,0.729236,-0.445536,0.730536,-0.444108,0.731964,-0.443472,0.733236,-0.442536,0.734536,-0.434536,0.742536,-0.433236,0.743472,-0.431964,0.744108,-0.430536,0.745536,-0.429236,0.746472,-0.427964,0.747108,-0.426536,0.748536,-0.424581,0.749743,
-0.421920,0.750630,-0.420236,0.751472,-0.419581,0.751743,-0.416581,0.752743,-0.415000,0.753000,-0.413810,0.753000,-0.411581,0.753743,-0.410000,0.754000,-0.408810,0.754000,-0.406581,0.754743,-0.405000,0.755000,0.405000,0.755000,0.406581,0.754743,0.406581,0.754743,$1*%
G04 Aperture macros list end*
%ADD10C,0.200000*%
%TA.AperFunction,NonConductor*%
%ADD11C,0.200000*%
%TD*%
%TA.AperFunction,EtchedComponent*%
%ADD12C,0.000000*%
%TD*%
%TA.AperFunction,SMDPad,CuDef*%
%ADD13C,0.500000*%
%TD*%
%TA.AperFunction,SMDPad,CuDef*%
%ADD14RoundRect,0.135000X-0.185000X0.135000X-0.185000X-0.135000X0.185000X-0.135000X0.185000X0.135000X0*%
%TD*%
%TA.AperFunction,SMDPad,CuDef*%
%ADD15RoundRect,0.135000X-0.135000X-0.185000X0.135000X-0.185000X0.135000X0.185000X-0.135000X0.185000X0*%
%TD*%
%TA.AperFunction,SMDPad,CuDef*%
%ADD16RoundRect,0.135000X0.135000X0.185000X-0.135000X0.185000X-0.135000X-0.185000X0.135000X-0.185000X0*%
%TD*%
%TA.AperFunction,SMDPad,CuDef*%
%ADD17RoundRect,0.140000X0.219203X0.021213X0.021213X0.219203X-0.219203X-0.021213X-0.021213X-0.219203X0*%
%TD*%
%TA.AperFunction,SMDPad,CuDef*%
%ADD18R,1.000000X1.900000*%
%TD*%
%TA.AperFunction,SMDPad,CuDef*%
%ADD19RoundRect,0.218750X0.218750X0.256250X-0.218750X0.256250X-0.218750X-0.256250X0.218750X-0.256250X0*%
%TD*%
%TA.AperFunction,SMDPad,CuDef*%
%ADD20RoundRect,0.135000X0.185000X-0.135000X0.185000X0.135000X-0.185000X0.135000X-0.185000X-0.135000X0*%
%TD*%
%TA.AperFunction,SMDPad,CuDef*%
%ADD21RotRect,0.600000X1.350000X300.000000*%
%TD*%
%TA.AperFunction,SMDPad,CuDef*%
%ADD22RotRect,1.200000X2.000000X300.000000*%
%TD*%
%TA.AperFunction,SMDPad,CuDef*%
%ADD23R,1.220000X0.910000*%
%TD*%
%TA.AperFunction,SMDPad,CuDef*%
%ADD24RotRect,1.200000X1.400000X45.000000*%
%TD*%
%TA.AperFunction,SMDPad,CuDef*%
%ADD25RotRect,1.000000X1.800000X315.000000*%
%TD*%
%TA.AperFunction,SMDPad,CuDef*%
%ADD26R,0.660400X1.270000*%
%TD*%
%TA.AperFunction,SMDPad,CuDef*%
%ADD27RoundRect,0.140000X-0.219203X-0.021213X-0.021213X-0.219203X0.219203X0.021213X0.021213X0.219203X0*%
%TD*%
%TA.AperFunction,SMDPad,CuDef*%
%ADD28RoundRect,0.140000X-0.140000X-0.170000X0.140000X-0.170000X0.140000X0.170000X-0.140000X0.170000X0*%
%TD*%
%TA.AperFunction,SMDPad,CuDef*%
%ADD29RotRect,1.270000X1.570000X111.000000*%
%TD*%
%TA.AperFunction,SMDPad,CuDef*%
%ADD30RoundRect,0.140000X-0.170000X0.140000X-0.170000X-0.140000X0.170000X-0.140000X0.170000X0.140000X0*%
%TD*%
%TA.AperFunction,SMDPad,CuDef*%
%ADD31RoundRect,0.140000X0.170000X-0.140000X0.170000X0.140000X-0.170000X0.140000X-0.170000X-0.140000X0*%
%TD*%
%TA.AperFunction,SMDPad,CuDef*%
%ADD32R,0.910000X1.220000*%
%TD*%
%TA.AperFunction,SMDPad,CuDef*%
%ADD33RoundRect,0.250000X0.250000X0.475000X-0.250000X0.475000X-0.250000X-0.475000X0.250000X-0.475000X0*%
%TD*%
%TA.AperFunction,SMDPad,CuDef*%
%ADD34R,0.700000X1.600000*%
%TD*%
%TA.AperFunction,SMDPad,CuDef*%
%ADD35R,1.200000X1.600000*%
%TD*%
%TA.AperFunction,SMDPad,CuDef*%
%ADD36R,1.200000X2.200000*%
%TD*%
%TA.AperFunction,SMDPad,CuDef*%
%ADD37R,1.600000X1.400000*%
%TD*%
%TA.AperFunction,SMDPad,CuDef*%
%ADD38O,2.500000X1.000000*%
%TD*%
%TA.AperFunction,SMDPad,CuDef*%
%ADD39RoundRect,0.140000X0.140000X0.170000X-0.140000X0.170000X-0.140000X-0.170000X0.140000X-0.170000X0*%
%TD*%
%TA.AperFunction,SMDPad,CuDef*%
%ADD40RoundRect,0.140000X0.021213X-0.219203X0.219203X-0.021213X-0.021213X0.219203X-0.219203X0.021213X0*%
%TD*%
%TA.AperFunction,SMDPad,CuDef*%
%ADD41R,1.270000X0.660400*%
%TD*%
%TA.AperFunction,ComponentPad*%
%ADD42RotRect,2.500000X2.500000X60.000000*%
%TD*%
%TA.AperFunction,ComponentPad*%
%ADD43C,2.500000*%
%TD*%
%TA.AperFunction,SMDPad,CuDef*%
%ADD44R,0.900000X1.000000*%
%TD*%
%TA.AperFunction,SMDPad,CuDef*%
%ADD45R,0.375000X0.350000*%
%TD*%
%TA.AperFunction,SMDPad,CuDef*%
%ADD46R,0.350000X0.375000*%
%TD*%
%TA.AperFunction,SMDPad,CuDef*%
%ADD47RoundRect,0.140000X-0.021213X0.219203X-0.219203X0.021213X0.021213X-0.219203X0.219203X-0.021213X0*%
%TD*%
%TA.AperFunction,SMDPad,CuDef*%
%ADD48R,1.600000X0.820000*%
%TD*%
%TA.AperFunction,SMDPad,CuDef*%
%ADD49R,1.300000X3.400000*%
%TD*%
%TA.AperFunction,SMDPad,CuDef*%
%ADD50R,0.300000X1.000000*%
%TD*%
%TA.AperFunction,SMDPad,CuDef*%
%ADD51R,0.600000X1.000000*%
%TD*%
%TA.AperFunction,ComponentPad*%
%ADD52O,1.000000X1.600000*%
%TD*%
%TA.AperFunction,ComponentPad*%
%ADD53O,1.000000X2.100000*%
%TD*%
%TA.AperFunction,SMDPad,CuDef*%
%ADD54R,0.800000X1.500000*%
%TD*%
%TA.AperFunction,SMDPad,CuDef*%
%ADD55RoundRect,0.135000X-0.035355X0.226274X-0.226274X0.035355X0.035355X-0.226274X0.226274X-0.035355X0*%
%TD*%
%TA.AperFunction,SMDPad,CuDef*%
%ADD56RoundRect,0.250000X-0.475000X0.250000X-0.475000X-0.250000X0.475000X-0.250000X0.475000X0.250000X0*%
%TD*%
%TA.AperFunction,SMDPad,CuDef*%
%ADD57RotRect,0.635000X1.270000X135.000000*%
%TD*%
%TA.AperFunction,SMDPad,CuDef*%
%ADD58R,0.522000X0.725000*%
%TD*%
%TA.AperFunction,SMDPad,CuDef*%
%ADD59FreePoly0,270.000000*%
%TD*%
%TA.AperFunction,SMDPad,CuDef*%
%ADD60RoundRect,0.093750X-0.093750X-0.106250X0.093750X-0.106250X0.093750X0.106250X-0.093750X0.106250X0*%
%TD*%
%TA.AperFunction,SMDPad,CuDef*%
%ADD61R,1.000000X1.600000*%
%TD*%
%TA.AperFunction,SMDPad,CuDef*%
%ADD62FreePoly0,90.000000*%
%TD*%
%TA.AperFunction,SMDPad,CuDef*%
%ADD63RotRect,0.660400X1.270000X225.000000*%
%TD*%
%TA.AperFunction,SMDPad,CuDef*%
%ADD64RoundRect,0.250000X-0.250000X-0.475000X0.250000X-0.475000X0.250000X0.475000X-0.250000X0.475000X0*%
%TD*%
%TA.AperFunction,SMDPad,CuDef*%
%ADD65R,0.725000X0.522000*%
%TD*%
%TA.AperFunction,SMDPad,CuDef*%
%ADD66FreePoly0,0.000000*%
%TD*%
%TA.AperFunction,SMDPad,CuDef*%
%ADD67RotRect,1.240000X2.220000X45.000000*%
%TD*%
%TA.AperFunction,SMDPad,CuDef*%
%ADD68RoundRect,0.250000X0.475000X-0.250000X0.475000X0.250000X-0.475000X0.250000X-0.475000X-0.250000X0*%
%TD*%
%TA.AperFunction,SMDPad,CuDef*%
%ADD69RoundRect,0.052000X0.048000X-0.198000X0.048000X0.198000X-0.048000X0.198000X-0.048000X-0.198000X0*%
%TD*%
%TA.AperFunction,SMDPad,CuDef*%
%ADD70FreePoly1,90.000000*%
%TD*%
%TA.AperFunction,ComponentPad*%
%ADD71C,0.300000*%
%TD*%
%TA.AperFunction,SMDPad,CuDef*%
%ADD72RoundRect,0.218750X-0.218750X-0.256250X0.218750X-0.256250X0.218750X0.256250X-0.218750X0.256250X0*%
%TD*%
%TA.AperFunction,SMDPad,CuDef*%
%ADD73R,0.660000X0.320000*%
%TD*%
%TA.AperFunction,SMDPad,CuDef*%
%ADD74RotRect,1.000000X5.500000X240.000000*%
%TD*%
%TA.AperFunction,SMDPad,CuDef*%
%ADD75RotRect,1.600000X3.000000X240.000000*%
%TD*%
%TA.AperFunction,SMDPad,CuDef*%
%ADD76RoundRect,0.075000X-0.459619X-0.565685X0.565685X0.459619X0.459619X0.565685X-0.565685X-0.459619X0*%
%TD*%
%TA.AperFunction,SMDPad,CuDef*%
%ADD77RoundRect,0.075000X0.459619X-0.565685X0.565685X-0.459619X-0.459619X0.565685X-0.565685X0.459619X0*%
%TD*%
%TA.AperFunction,SMDPad,CuDef*%
%ADD78RotRect,0.660400X1.270000X45.000000*%
%TD*%
%TA.AperFunction,SMDPad,CuDef*%
%ADD79FreePoly0,180.000000*%
%TD*%
%TA.AperFunction,SMDPad,CuDef*%
%ADD80R,2.220000X1.240000*%
%TD*%
%TA.AperFunction,ViaPad*%
%ADD81C,0.609600*%
%TD*%
%TA.AperFunction,Conductor*%
%ADD82C,0.152400*%
%TD*%
%TA.AperFunction,Conductor*%
%ADD83C,0.304800*%
%TD*%
%TA.AperFunction,Conductor*%
%ADD84C,0.508000*%
%TD*%
%TA.AperFunction,Conductor*%
%ADD85C,0.101600*%
%TD*%
%TA.AperFunction,Conductor*%
%ADD86C,0.203200*%
%TD*%
G04 APERTURE END LIST*
D10*
D11*
X91504914Y-133105687D02*
X90933486Y-133105687D01*
X91219200Y-133105687D02*
X91219200Y-132105687D01*
X91219200Y-132105687D02*
X91123962Y-132248544D01*
X91123962Y-132248544D02*
X91028724Y-132343782D01*
X91028724Y-132343782D02*
X90933486Y-132391401D01*
D12*
%TA.AperFunction,EtchedComponent*%
%TO.C,JP6*%
G36*
X93109300Y-76276700D02*
G01*
X92609300Y-76276700D01*
X92609300Y-75976700D01*
X93109300Y-75976700D01*
X93109300Y-76276700D01*
G37*
%TD.AperFunction*%
%TA.AperFunction,EtchedComponent*%
%TO.C,JP8*%
G36*
X65760000Y-80856668D02*
G01*
X65460000Y-80856668D01*
X65460000Y-80356668D01*
X65760000Y-80356668D01*
X65760000Y-80856668D01*
G37*
%TD.AperFunction*%
%TA.AperFunction,EtchedComponent*%
%TO.C,JP4*%
G36*
X126878400Y-104684068D02*
G01*
X126578400Y-104684068D01*
X126578400Y-104184068D01*
X126878400Y-104184068D01*
X126878400Y-104684068D01*
G37*
%TD.AperFunction*%
%TA.AperFunction,EtchedComponent*%
%TO.C,JP5*%
G36*
X129120000Y-104667368D02*
G01*
X128820000Y-104667368D01*
X128820000Y-104167368D01*
X129120000Y-104167368D01*
X129120000Y-104667368D01*
G37*
%TD.AperFunction*%
%TA.AperFunction,EtchedComponent*%
%TO.C,JP7*%
G36*
X122077800Y-111415068D02*
G01*
X121777800Y-111415068D01*
X121777800Y-110915068D01*
X122077800Y-110915068D01*
X122077800Y-111415068D01*
G37*
%TD.AperFunction*%
%TA.AperFunction,EtchedComponent*%
%TO.C,JP3*%
G36*
X99794643Y-86424189D02*
G01*
X99441089Y-86777743D01*
X99228957Y-86565611D01*
X99582511Y-86212057D01*
X99794643Y-86424189D01*
G37*
%TD.AperFunction*%
%TA.AperFunction,EtchedComponent*%
%TO.C,JP1*%
G36*
X128794643Y-96924189D02*
G01*
X128441089Y-97277743D01*
X128228957Y-97065611D01*
X128582511Y-96712057D01*
X128794643Y-96924189D01*
G37*
%TD.AperFunction*%
%TD*%
D13*
%TO.P,TP2,1,1*%
%TO.N,Net-(U5-DIO8)*%
X117780000Y-113242400D03*
%TD*%
D14*
%TO.P,R18,1*%
%TO.N,SDIO_D3*%
X99140000Y-74996668D03*
%TO.P,R18,2*%
%TO.N,VCC_SD*%
X99140000Y-76016668D03*
%TD*%
D15*
%TO.P,R16,1*%
%TO.N,V_ADC_BATT*%
X135848100Y-102636600D03*
%TO.P,R16,2*%
%TO.N,Net-(U3-BAT)*%
X136868100Y-102636600D03*
%TD*%
D16*
%TO.P,R28,1*%
%TO.N,SD_PWR*%
X94390000Y-84126700D03*
%TO.P,R28,2*%
%TO.N,Net-(R27-Pad1)*%
X93370000Y-84126700D03*
%TD*%
D17*
%TO.P,C7,1*%
%TO.N,VDD_MCU*%
X110719411Y-92466079D03*
%TO.P,C7,2*%
%TO.N,GND*%
X110040589Y-91787257D03*
%TD*%
D18*
%TO.P,J10,1,Pin_1*%
%TO.N,MBUS_PWM*%
X95460000Y-120126700D03*
%TO.P,J10,2,Pin_2*%
%TO.N,MBUS_INT*%
X92920000Y-116826700D03*
%TO.P,J10,3,Pin_3*%
%TO.N,MBUS_RX_STM_RX*%
X90380000Y-120126700D03*
%TO.P,J10,4,Pin_4*%
%TO.N,MBUS_TX_STM_TX*%
X87840000Y-116826700D03*
%TO.P,J10,5,Pin_5*%
%TO.N,MBUS_SCL*%
X85300000Y-120126700D03*
%TO.P,J10,6,Pin_6*%
%TO.N,MBUS_SDA*%
X82760000Y-116826700D03*
%TO.P,J10,7,Pin_7*%
%TO.N,unconnected-(J10-Pin_7-Pad7)*%
X80220000Y-120126700D03*
%TO.P,J10,8,Pin_8*%
%TO.N,GND*%
X77680000Y-116826700D03*
%TD*%
D19*
%TO.P,D8,1,K*%
%TO.N,GND*%
X87977990Y-57023195D03*
%TO.P,D8,2,A*%
%TO.N,Net-(D8-A)*%
X86402990Y-57023195D03*
%TD*%
D20*
%TO.P,R33,1*%
%TO.N,QWIIC_SCL*%
X73110000Y-99106668D03*
%TO.P,R33,2*%
%TO.N,3.3V*%
X73110000Y-98086668D03*
%TD*%
D15*
%TO.P,R27,1*%
%TO.N,Net-(R27-Pad1)*%
X93360000Y-82626700D03*
%TO.P,R27,2*%
%TO.N,3.3V*%
X94380000Y-82626700D03*
%TD*%
D14*
%TO.P,R20,1*%
%TO.N,SDIO_D1*%
X106600000Y-74806668D03*
%TO.P,R20,2*%
%TO.N,VCC_SD*%
X106600000Y-75826668D03*
%TD*%
D21*
%TO.P,J7,1,Pin_1*%
%TO.N,GND*%
X72412600Y-106065262D03*
%TO.P,J7,2,Pin_2*%
%TO.N,3.3V*%
X72912600Y-106931287D03*
%TO.P,J7,3,Pin_3*%
%TO.N,QWIIC_SDA*%
X73412600Y-107797313D03*
%TO.P,J7,4,Pin_4*%
%TO.N,QWIIC_SCL*%
X73912600Y-108663338D03*
D22*
%TO.P,J7,NC1,NC*%
%TO.N,unconnected-(J7-NC-PadNC1)*%
X71379957Y-111626671D03*
%TO.P,J7,NC2,NC*%
%TO.N,unconnected-(J7-NC-PadNC2)*%
X68579957Y-106776929D03*
%TD*%
D23*
%TO.P,D5,A*%
%TO.N,Net-(U2-VOS)*%
X129157700Y-111938268D03*
%TO.P,D5,C*%
%TO.N,Net-(JP4-A)*%
X129157700Y-108668268D03*
%TD*%
D17*
%TO.P,C6,1*%
%TO.N,Net-(JP2-B)*%
X113844411Y-95191079D03*
%TO.P,C6,2*%
%TO.N,GND*%
X113165589Y-94512257D03*
%TD*%
D24*
%TO.P,Y1,1*%
%TO.N,HSE_OSC_IN*%
X108059400Y-96052068D03*
%TO.P,Y1,2,GND*%
%TO.N,GND*%
X109615035Y-97607703D03*
%TO.P,Y1,3*%
%TO.N,HSE_OSC_OUT*%
X110746406Y-96476332D03*
%TO.P,Y1,4,GND*%
%TO.N,GND*%
X109190771Y-94920697D03*
%TD*%
D25*
%TO.P,Y2,1,1*%
%TO.N,32K_OSC_IN*%
X107021117Y-89667785D03*
%TO.P,Y2,2,2*%
%TO.N,32K_OSC_OUT*%
X108788883Y-91435551D03*
%TD*%
D20*
%TO.P,R12,1*%
%TO.N,USB_VBUS*%
X120880000Y-69136700D03*
%TO.P,R12,2*%
%TO.N,Net-(D4-PadA)*%
X120880000Y-68116700D03*
%TD*%
D26*
%TO.P,JP6,1,A*%
%TO.N,VCC_SD*%
X93380000Y-76126700D03*
%TO.P,JP6,2,B*%
%TO.N,Net-(JP6-B)*%
X92338600Y-76126700D03*
%TD*%
D27*
%TO.P,C9,1*%
%TO.N,VDD_MCU*%
X120201189Y-74947889D03*
%TO.P,C9,2*%
%TO.N,GND*%
X120880011Y-75626711D03*
%TD*%
D28*
%TO.P,C38,1*%
%TO.N,3.3V*%
X151590000Y-87016668D03*
%TO.P,C38,2*%
%TO.N,GND*%
X152550000Y-87016668D03*
%TD*%
D15*
%TO.P,R3,1*%
%TO.N,V_ADC_DC*%
X125860000Y-122626700D03*
%TO.P,R3,2*%
%TO.N,Net-(U2-EN)*%
X126880000Y-122626700D03*
%TD*%
D18*
%TO.P,J6,1,Pin_1*%
%TO.N,MBUS_AN*%
X95460000Y-97826700D03*
%TO.P,J6,2,Pin_2*%
%TO.N,MBUS_RST*%
X92920000Y-94526700D03*
%TO.P,J6,3,Pin_3*%
%TO.N,MBUS_CS*%
X90380000Y-97826700D03*
%TO.P,J6,4,Pin_4*%
%TO.N,MBUS_SCK*%
X87840000Y-94526700D03*
%TO.P,J6,5,Pin_5*%
%TO.N,MBUS_MISO*%
X85300000Y-97826700D03*
%TO.P,J6,6,Pin_6*%
%TO.N,MBUS_MOSI*%
X82760000Y-94526700D03*
%TO.P,J6,7,Pin_7*%
%TO.N,3.3V*%
X80220000Y-97826700D03*
%TO.P,J6,8,Pin_8*%
%TO.N,GND*%
X77680000Y-94526700D03*
%TD*%
D16*
%TO.P,R38,1*%
%TO.N,SW_USER*%
X72044200Y-61762068D03*
%TO.P,R38,2*%
%TO.N,3.3V*%
X71024200Y-61762068D03*
%TD*%
D29*
%TO.P,J9,01,01*%
%TO.N,3.3V*%
X142652138Y-66267093D03*
%TO.P,J9,02,02*%
%TO.N,EXT_OPA_VINP*%
X137396080Y-68284705D03*
%TO.P,J9,03,03*%
%TO.N,TRACE_SWCLK*%
X143562391Y-68638388D03*
%TO.P,J9,04,04*%
%TO.N,EXT_OPA_VINM*%
X138306335Y-70655999D03*
%TO.P,J9,05,05*%
%TO.N,GND*%
X144472647Y-71009682D03*
%TO.P,J9,06,06*%
%TO.N,EXT_OPA_VOUT*%
X139216589Y-73027293D03*
%TO.P,J9,07,07*%
%TO.N,TRACE_SWDIO*%
X145382902Y-73380976D03*
%TO.P,J9,08,08*%
%TO.N,EXT_AN_IN*%
X140126844Y-75398588D03*
%TO.P,J9,09,09*%
%TO.N,NRST*%
X146293156Y-75752270D03*
%TO.P,J9,10,10*%
%TO.N,EXT_I2C_SDA*%
X141037098Y-77769882D03*
%TO.P,J9,11,11*%
%TO.N,TRACE_SWO*%
X147203411Y-78123565D03*
%TO.P,J9,12,12*%
%TO.N,EXT_I2C_SCL*%
X141947353Y-80141176D03*
%TO.P,J9,13,13*%
%TO.N,EXT_3*%
X148113665Y-80494859D03*
%TO.P,J9,14,14*%
%TO.N,EXT_1*%
X142857609Y-82512470D03*
%TO.P,J9,15,15*%
%TO.N,RCC_MCO*%
X149023920Y-82866153D03*
%TO.P,J9,16,16*%
%TO.N,EXT_2*%
X143767862Y-84883765D03*
%TD*%
D13*
%TO.P,TP1,1,1*%
%TO.N,Net-(U5-DIO7)*%
X117780000Y-111626700D03*
%TD*%
D17*
%TO.P,C2,1*%
%TO.N,VDD_MCU*%
X110033411Y-93146479D03*
%TO.P,C2,2*%
%TO.N,GND*%
X109354589Y-92467657D03*
%TD*%
D30*
%TO.P,C46,1*%
%TO.N,3.3V*%
X86880000Y-130666700D03*
%TO.P,C46,2*%
%TO.N,GND*%
X86880000Y-131626700D03*
%TD*%
D31*
%TO.P,C35,1*%
%TO.N,VCC_GPS*%
X65130000Y-78946668D03*
%TO.P,C35,2*%
%TO.N,GND*%
X65130000Y-77986668D03*
%TD*%
D30*
%TO.P,C33,1*%
%TO.N,VCC_SD*%
X101988800Y-75023468D03*
%TO.P,C33,2*%
%TO.N,GND*%
X101988800Y-75983468D03*
%TD*%
D31*
%TO.P,C30,1*%
%TO.N,VCC_RF*%
X118280000Y-110126700D03*
%TO.P,C30,2*%
%TO.N,GND*%
X118280000Y-109166700D03*
%TD*%
D32*
%TO.P,D3,A*%
%TO.N,Net-(J2-Pin_2)*%
X142257200Y-97626700D03*
%TO.P,D3,C*%
%TO.N,Net-(JP4-A)*%
X138987200Y-97626700D03*
%TD*%
%TO.P,D2,A*%
%TO.N,GND*%
X148361647Y-90261770D03*
%TO.P,D2,C*%
%TO.N,V_ADC_SOLAR*%
X145091647Y-90261770D03*
%TD*%
D16*
%TO.P,R35,1*%
%TO.N,PWM_BUZ*%
X78880000Y-103626700D03*
%TO.P,R35,2*%
%TO.N,Net-(R35-Pad2)*%
X77860000Y-103626700D03*
%TD*%
D13*
%TO.P,TP8,1,1*%
%TO.N,MIC_SD0*%
X135680000Y-57306668D03*
%TD*%
D16*
%TO.P,R4,1*%
%TO.N,GND*%
X126880000Y-123626700D03*
%TO.P,R4,2*%
%TO.N,V_ADC_DC*%
X125860000Y-123626700D03*
%TD*%
D33*
%TO.P,C24,1*%
%TO.N,Net-(U3-BAT)*%
X137830000Y-100626700D03*
%TO.P,C24,2*%
%TO.N,GND*%
X135930000Y-100626700D03*
%TD*%
D30*
%TO.P,C39,1*%
%TO.N,3.3V*%
X127961001Y-129907908D03*
%TO.P,C39,2*%
%TO.N,GND*%
X127961001Y-130867908D03*
%TD*%
D34*
%TO.P,J5,1,DAT2*%
%TO.N,SDIO_D2*%
X98680000Y-73126700D03*
%TO.P,J5,2,DAT3/CD*%
%TO.N,SDIO_D3*%
X99780000Y-73126700D03*
%TO.P,J5,3,CMD/SDI*%
%TO.N,SDIO_CMD*%
X100880000Y-73126700D03*
%TO.P,J5,4,VDD*%
%TO.N,VCC_SD*%
X101980000Y-73126700D03*
%TO.P,J5,5,CLK/SCK*%
%TO.N,SDIO_CLK*%
X103080000Y-73126700D03*
%TO.P,J5,6,VSS*%
%TO.N,GND*%
X104180001Y-73126700D03*
%TO.P,J5,7,DAT0/SDO*%
%TO.N,SDIO_D0*%
X105280001Y-73126700D03*
%TO.P,J5,8,DAT1*%
%TO.N,SDIO_D1*%
X106380000Y-73126700D03*
%TO.P,J5,9,~{DET}*%
%TO.N,SD_SW*%
X107480000Y-73126700D03*
D35*
%TO.P,J5,10,SHIELD*%
%TO.N,GND*%
X108680000Y-72526700D03*
D36*
%TO.P,J5,11,SHIELD*%
%TO.N,unconnected-(J5-SHIELD-Pad11)*%
X108680000Y-63026700D03*
%TO.P,J5,12,SHIELD*%
%TO.N,unconnected-(J5-SHIELD-Pad12)*%
X93180000Y-63026700D03*
D37*
%TO.P,J5,13,SHIELD*%
%TO.N,unconnected-(J5-SHIELD-Pad13)*%
X94080000Y-72626700D03*
%TD*%
D38*
%TO.P,U7,1,RXD1*%
%TO.N,GPS_RX_STM_TX*%
X69880000Y-71426700D03*
%TO.P,U7,2,TXD1*%
%TO.N,GPS_TX_STM_RX*%
X69880000Y-73966700D03*
%TO.P,U7,3,GND*%
%TO.N,GND*%
X69880000Y-76506700D03*
%TO.P,U7,4,VCC*%
%TO.N,VCC_GPS*%
X69880000Y-79046700D03*
%TO.P,U7,5,V_BCKP*%
X69880000Y-81586700D03*
%TO.P,U7,6,1PPS*%
%TO.N,GPS_PPS*%
X69880000Y-84126700D03*
%TO.P,U7,7,FORCE_ON*%
%TO.N,GPS_EN*%
X85380000Y-84126700D03*
%TO.P,U7,8,AADET_N*%
%TO.N,unconnected-(U7-AADET_N-Pad8)*%
X85380000Y-81586700D03*
%TO.P,U7,9*%
%TO.N,N/C*%
X85380000Y-79046700D03*
%TO.P,U7,10,~{RESET}*%
%TO.N,GPS_RESET*%
X85380000Y-76506700D03*
%TO.P,U7,11,EX_ANT*%
%TO.N,unconnected-(U7-EX_ANT-Pad11)*%
X85380000Y-73966700D03*
%TO.P,U7,12,GND*%
%TO.N,GND*%
X85380000Y-71426700D03*
%TD*%
D30*
%TO.P,C50,1*%
%TO.N,3.3V*%
X142757500Y-92146668D03*
%TO.P,C50,2*%
%TO.N,GND*%
X142757500Y-93106668D03*
%TD*%
D39*
%TO.P,C42,1*%
%TO.N,3.3V*%
X62340000Y-93626700D03*
%TO.P,C42,2*%
%TO.N,GND*%
X61380000Y-93626700D03*
%TD*%
D40*
%TO.P,C10,1*%
%TO.N,VDD_MCU*%
X106980458Y-83938091D03*
%TO.P,C10,2*%
%TO.N,GND*%
X107659280Y-83259269D03*
%TD*%
D15*
%TO.P,R5,1*%
%TO.N,V_ADC_SOLAR*%
X146280613Y-93846407D03*
%TO.P,R5,2*%
%TO.N,Net-(J2-Pin_2)*%
X147300613Y-93846407D03*
%TD*%
D30*
%TO.P,C53,1*%
%TO.N,3.3V*%
X143757500Y-92146668D03*
%TO.P,C53,2*%
%TO.N,GND*%
X143757500Y-93106668D03*
%TD*%
D41*
%TO.P,JP8,1,A*%
%TO.N,VCC_GPS*%
X65610000Y-80085968D03*
%TO.P,JP8,2,B*%
%TO.N,3.3V*%
X65610000Y-81127368D03*
%TD*%
D42*
%TO.P,J2,1,Pin_1*%
%TO.N,GND*%
X144918595Y-102712900D03*
D43*
%TO.P,J2,2,Pin_2*%
%TO.N,Net-(J2-Pin_2)*%
X146668595Y-99681811D03*
%TD*%
D30*
%TO.P,C45,1*%
%TO.N,3.3V*%
X127000000Y-129896668D03*
%TO.P,C45,2*%
%TO.N,GND*%
X127000000Y-130856668D03*
%TD*%
D44*
%TO.P,SW2,1,1*%
%TO.N,BOOT0*%
X127330000Y-67826700D03*
X131430000Y-67826700D03*
%TO.P,SW2,2,2*%
%TO.N,3.3V*%
X127330000Y-69426700D03*
X131430000Y-69426700D03*
%TD*%
D14*
%TO.P,R14,1*%
%TO.N,GND*%
X128830000Y-114606668D03*
%TO.P,R14,2*%
%TO.N,Net-(U2-FB{slash}VSET)*%
X128830000Y-115626668D03*
%TD*%
D45*
%TO.P,U9,1,SCL/SPC*%
%TO.N,SENS_I2C_SCL*%
X136417500Y-91884168D03*
%TO.P,U9,2,NC*%
%TO.N,unconnected-(U9-NC-Pad2)*%
X136417500Y-92384168D03*
%TO.P,U9,3,~{CS}*%
%TO.N,3.3V*%
X136417500Y-92884168D03*
%TO.P,U9,4,SDA/SDI/SDO*%
%TO.N,SENS_I2C_SDA*%
X136417500Y-93384168D03*
D46*
%TO.P,U9,5,C1*%
%TO.N,Net-(U9-C1)*%
X136930000Y-93396668D03*
%TO.P,U9,6,GND*%
%TO.N,GND*%
X137430000Y-93396668D03*
D45*
%TO.P,U9,7,DRDY*%
%TO.N,unconnected-(U9-DRDY-Pad7)*%
X137942500Y-93384168D03*
%TO.P,U9,8,GND*%
%TO.N,GND*%
X137942500Y-92884168D03*
%TO.P,U9,9,Vdd*%
%TO.N,3.3V*%
X137942500Y-92384168D03*
%TO.P,U9,10,Vdd_IO*%
X137942500Y-91884168D03*
D46*
%TO.P,U9,11,NC*%
%TO.N,unconnected-(U9-NC-Pad11)*%
X137430000Y-91871668D03*
%TO.P,U9,12,NC*%
%TO.N,unconnected-(U9-NC-Pad12)*%
X136930000Y-91871668D03*
%TD*%
D47*
%TO.P,C5,1*%
%TO.N,Net-(C5-Pad1)*%
X131469411Y-91462257D03*
%TO.P,C5,2*%
%TO.N,GND*%
X130790589Y-92141079D03*
%TD*%
D15*
%TO.P,R9,1*%
%TO.N,Net-(J3-CC1)*%
X117870000Y-68626700D03*
%TO.P,R9,2*%
%TO.N,GND*%
X118890000Y-68626700D03*
%TD*%
D48*
%TO.P,U5,1,GND*%
%TO.N,GND*%
X99880000Y-109126700D03*
%TO.P,U5,2,NC*%
%TO.N,unconnected-(U5-NC-Pad2)*%
X99880000Y-110396700D03*
%TO.P,U5,3,MISO*%
%TO.N,RF_MISO*%
X99880000Y-111666700D03*
%TO.P,U5,4,MOSI*%
%TO.N,RF_MOSI*%
X99880000Y-112936700D03*
%TO.P,U5,5,SCK*%
%TO.N,RF_SCK*%
X99880000Y-114206700D03*
%TO.P,U5,6,NSS*%
%TO.N,RF_CS*%
X99880000Y-115476700D03*
%TO.P,U5,7,BUSY*%
%TO.N,RF_BUSY*%
X99880000Y-116746700D03*
%TO.P,U5,8,GND*%
%TO.N,GND*%
X99880000Y-118016700D03*
%TO.P,U5,11,GND*%
X99880000Y-129186700D03*
%TO.P,U5,12,ANT*%
%TO.N,unconnected-(U5-ANT-Pad12)*%
X99880000Y-130456700D03*
%TO.P,U5,13,GND*%
%TO.N,GND*%
X99880000Y-131726700D03*
%TO.P,U5,14,GND*%
X115680000Y-131726700D03*
%TO.P,U5,15,ANT*%
%TO.N,unconnected-(U5-ANT-Pad15)*%
X115680000Y-130456700D03*
%TO.P,U5,16,GND*%
%TO.N,GND*%
X115680000Y-129186700D03*
%TO.P,U5,19,GND*%
X115680000Y-118016700D03*
%TO.P,U5,20,NC*%
%TO.N,unconnected-(U5-NC-Pad20)*%
X115680000Y-116746700D03*
%TO.P,U5,21,LR_NRESET*%
%TO.N,RF_NRST*%
X115680000Y-115476700D03*
%TO.P,U5,22,DIO9/IRQ*%
%TO.N,RF_IRQ*%
X115680000Y-114206700D03*
%TO.P,U5,23,DIO8*%
%TO.N,Net-(U5-DIO8)*%
X115680000Y-112936700D03*
%TO.P,U5,24,DIO7*%
%TO.N,Net-(U5-DIO7)*%
X115680000Y-111666700D03*
%TO.P,U5,25,VCC*%
%TO.N,VCC_RF*%
X115680000Y-110396700D03*
%TO.P,U5,26,GND*%
%TO.N,GND*%
X115680000Y-109126700D03*
%TD*%
D30*
%TO.P,C48,1*%
%TO.N,3.3V*%
X84960000Y-50926668D03*
%TO.P,C48,2*%
%TO.N,GND*%
X84960000Y-51886668D03*
%TD*%
D19*
%TO.P,D10,1,K*%
%TO.N,GND*%
X87977990Y-54023195D03*
%TO.P,D10,2,A*%
%TO.N,Net-(D10-A)*%
X86402990Y-54023195D03*
%TD*%
D28*
%TO.P,C18,1*%
%TO.N,V_ADC_DC*%
X125900000Y-124626700D03*
%TO.P,C18,2*%
%TO.N,GND*%
X126860000Y-124626700D03*
%TD*%
D21*
%TO.P,J8,1,Pin_1*%
%TO.N,GND*%
X68592399Y-99427261D03*
%TO.P,J8,2,Pin_2*%
%TO.N,3.3V*%
X69092400Y-100293287D03*
%TO.P,J8,3,Pin_3*%
%TO.N,QWIIC_SDA*%
X69592400Y-101159313D03*
%TO.P,J8,4,Pin_4*%
%TO.N,QWIIC_SCL*%
X70092401Y-102025339D03*
D22*
%TO.P,J8,NC1,NC*%
%TO.N,unconnected-(J8-NC-PadNC1)*%
X67559757Y-104988672D03*
%TO.P,J8,NC2,NC*%
%TO.N,unconnected-(J8-NC-PadNC2)*%
X64759757Y-100138930D03*
%TD*%
D14*
%TO.P,R11,1*%
%TO.N,GND*%
X130480000Y-114586668D03*
%TO.P,R11,2*%
%TO.N,Net-(U2-MODE{slash}S-CONF)*%
X130480000Y-115606668D03*
%TD*%
D49*
%TO.P,U10,N*%
%TO.N,GND*%
X87230000Y-109126700D03*
%TO.P,U10,P*%
%TO.N,Net-(R35-Pad2)*%
X78530000Y-109126700D03*
%TD*%
D30*
%TO.P,C51,1*%
%TO.N,Net-(U9-C1)*%
X136950000Y-94454168D03*
%TO.P,C51,2*%
%TO.N,GND*%
X136950000Y-95414168D03*
%TD*%
D13*
%TO.P,TP7,1,1*%
%TO.N,MIC_CCLK1*%
X153510000Y-87956668D03*
%TD*%
D45*
%TO.P,U8,1,SCL/SPC*%
%TO.N,SENS_I2C_SCL*%
X140245000Y-91856668D03*
%TO.P,U8,2,~{CS}*%
%TO.N,3.3V*%
X140245000Y-92356668D03*
%TO.P,U8,3,SA0/SDO*%
X140245000Y-92856668D03*
%TO.P,U8,4,SDA/SDI*%
%TO.N,SENS_I2C_SDA*%
X140245000Y-93356668D03*
D46*
%TO.P,U8,5,RES*%
%TO.N,GND*%
X140757500Y-93369168D03*
%TO.P,U8,6,GND*%
X141257500Y-93369168D03*
D45*
%TO.P,U8,7,GND*%
X141770000Y-93356668D03*
%TO.P,U8,8,GND*%
X141770000Y-92856668D03*
%TO.P,U8,9,Vdd*%
%TO.N,3.3V*%
X141770000Y-92356668D03*
%TO.P,U8,10,Vdd_IO*%
X141770000Y-91856668D03*
D46*
%TO.P,U8,11,INT2*%
%TO.N,unconnected-(U8-INT2-Pad11)*%
X141257500Y-91844168D03*
%TO.P,U8,12,INT1*%
%TO.N,unconnected-(U8-INT1-Pad12)*%
X140757500Y-91844168D03*
%TD*%
D30*
%TO.P,C43,1*%
%TO.N,3.3V*%
X85960000Y-50926668D03*
%TO.P,C43,2*%
%TO.N,GND*%
X85960000Y-51886668D03*
%TD*%
D28*
%TO.P,C40,1*%
%TO.N,3.3V*%
X137380000Y-55126700D03*
%TO.P,C40,2*%
%TO.N,GND*%
X138340000Y-55126700D03*
%TD*%
D30*
%TO.P,C49,1*%
%TO.N,Net-(U9-C1)*%
X137930000Y-94454168D03*
%TO.P,C49,2*%
%TO.N,GND*%
X137930000Y-95414168D03*
%TD*%
D44*
%TO.P,SW3,1,1*%
%TO.N,GND*%
X73776800Y-60885868D03*
X77876800Y-60885868D03*
%TO.P,SW3,2,2*%
%TO.N,SW_USER*%
X73776800Y-62485868D03*
X77876800Y-62485868D03*
%TD*%
D40*
%TO.P,C13,1*%
%TO.N,HSE_OSC_IN*%
X106983389Y-94791279D03*
%TO.P,C13,2*%
%TO.N,GND*%
X107662211Y-94112457D03*
%TD*%
D15*
%TO.P,R30,1*%
%TO.N,SYS_GPS_GREEN*%
X83977990Y-54023195D03*
%TO.P,R30,2*%
%TO.N,Net-(D10-A)*%
X84997990Y-54023195D03*
%TD*%
D50*
%TO.P,J3,A5,CC1*%
%TO.N,Net-(J3-CC1)*%
X117380000Y-66126700D03*
%TO.P,J3,A6,D+*%
%TO.N,/Sheet2/USB_DIFF_P*%
X116380000Y-66126700D03*
%TO.P,J3,A7,D-*%
%TO.N,/Sheet2/USB_DIFF_N*%
X115880000Y-66126700D03*
%TO.P,J3,A8,NC*%
%TO.N,unconnected-(J3-NC-PadA8)*%
X114880000Y-66126700D03*
%TO.P,J3,B5,CC2*%
%TO.N,Net-(J3-CC2)*%
X114380000Y-66126700D03*
%TO.P,J3,B6,D+*%
%TO.N,/Sheet2/USB_DIFF_P*%
X115380000Y-66126700D03*
%TO.P,J3,B7,D-*%
%TO.N,/Sheet2/USB_DIFF_N*%
X116880000Y-66126700D03*
%TO.P,J3,B8,NC*%
%TO.N,unconnected-(J3-NC-PadB8)*%
X117880000Y-66126700D03*
D51*
%TO.P,J3,GND,GND*%
%TO.N,GND*%
X119355000Y-66126700D03*
X112905000Y-66126700D03*
D52*
%TO.P,J3,NC1,NC*%
%TO.N,unconnected-(J3-NC-PadNC1)*%
X120448000Y-61371700D03*
D53*
%TO.P,J3,NC2,NC*%
%TO.N,unconnected-(J3-NC-PadNC2)*%
X120448000Y-65551700D03*
%TO.P,J3,NC3,NC*%
%TO.N,unconnected-(J3-NC-PadNC3)*%
X111812000Y-65551700D03*
D52*
%TO.P,J3,S,SHIELD*%
%TO.N,GND*%
X111812000Y-61371700D03*
D51*
%TO.P,J3,VBUS,VBUS*%
%TO.N,Net-(D4-PadA)*%
X118580000Y-66126700D03*
X113680000Y-66126700D03*
%TD*%
D16*
%TO.P,R37,1*%
%TO.N,SYS_MAIN_GREEN*%
X128976300Y-50459068D03*
%TO.P,R37,2*%
%TO.N,Net-(D12-A)*%
X127956300Y-50459068D03*
%TD*%
D54*
%TO.P,U6,1*%
%TO.N,Net-(R27-Pad1)*%
X92980000Y-80976700D03*
%TO.P,U6,2*%
%TO.N,3.3V*%
X94880000Y-80976700D03*
%TO.P,U6,3*%
%TO.N,Net-(JP6-B)*%
X93930000Y-78376700D03*
%TD*%
D15*
%TO.P,R29,1*%
%TO.N,SYS_GPS_RED*%
X83957990Y-55523195D03*
%TO.P,R29,2*%
%TO.N,Net-(D9-A)*%
X84977990Y-55523195D03*
%TD*%
D13*
%TO.P,TP3,1,1*%
%TO.N,GPS_RX_STM_TX*%
X74380000Y-90126700D03*
%TD*%
D47*
%TO.P,C15,1*%
%TO.N,32K_OSC_OUT*%
X107719411Y-92612257D03*
%TO.P,C15,2*%
%TO.N,GND*%
X107040589Y-93291079D03*
%TD*%
D41*
%TO.P,JP4,1,A*%
%TO.N,Net-(JP4-A)*%
X126728400Y-104954768D03*
%TO.P,JP4,2,B*%
%TO.N,Net-(JP4-B)*%
X126728400Y-103913368D03*
%TD*%
D55*
%TO.P,R8,1*%
%TO.N,/Sheet2/USB_DIFF_N*%
X123573585Y-76320608D03*
%TO.P,R8,2*%
%TO.N,USB_D_N*%
X122852337Y-77041856D03*
%TD*%
D56*
%TO.P,C21,1*%
%TO.N,Net-(JP4-A)*%
X127080000Y-106326668D03*
%TO.P,C21,2*%
%TO.N,GND*%
X127080000Y-108226668D03*
%TD*%
D57*
%TO.P,JP2,1,A*%
%TO.N,VDD_MCU*%
X114617368Y-99139036D03*
%TO.P,JP2,2,B*%
%TO.N,Net-(JP2-B)*%
X114042632Y-98564300D03*
%TD*%
D15*
%TO.P,R25,1*%
%TO.N,SYS_SD_BLUE*%
X83957990Y-57023195D03*
%TO.P,R25,2*%
%TO.N,Net-(D8-A)*%
X84977990Y-57023195D03*
%TD*%
D31*
%TO.P,C32,1*%
%TO.N,VCC_RF*%
X120205800Y-110126700D03*
%TO.P,C32,2*%
%TO.N,GND*%
X120205800Y-109166700D03*
%TD*%
D33*
%TO.P,C17,1*%
%TO.N,Net-(U2-EN)*%
X131330000Y-120126700D03*
%TO.P,C17,2*%
%TO.N,GND*%
X129430000Y-120126700D03*
%TD*%
D55*
%TO.P,R7,1*%
%TO.N,/Sheet2/USB_DIFF_P*%
X122660945Y-75432967D03*
%TO.P,R7,2*%
%TO.N,USB_D_P*%
X121939697Y-76154215D03*
%TD*%
D58*
%TO.P,MK5,1,DATA*%
%TO.N,MIC_SD2*%
X62202000Y-89626700D03*
%TO.P,MK5,2,SEL*%
%TO.N,GND*%
X61380000Y-89626700D03*
D59*
%TO.P,MK5,3,GND*%
X59465500Y-90464200D03*
D58*
%TO.P,MK5,4,CLOCK*%
%TO.N,MIC_CCLK1*%
X61380000Y-91301700D03*
%TO.P,MK5,5,VDD*%
%TO.N,3.3V*%
X62202000Y-91301700D03*
%TD*%
D30*
%TO.P,C26,1*%
%TO.N,3.3V*%
X124800000Y-101136668D03*
%TO.P,C26,2*%
%TO.N,GND*%
X124800000Y-102096668D03*
%TD*%
D41*
%TO.P,JP5,1,A*%
%TO.N,Net-(JP5-A)*%
X128970000Y-104938068D03*
%TO.P,JP5,2,B*%
%TO.N,Net-(JP5-B)*%
X128970000Y-103896668D03*
%TD*%
D17*
%TO.P,C3,1*%
%TO.N,Net-(JP2-B)*%
X113169411Y-95866079D03*
%TO.P,C3,2*%
%TO.N,GND*%
X112490589Y-95187257D03*
%TD*%
D60*
%TO.P,U4,1,OUT*%
%TO.N,3.3V*%
X126992500Y-100976700D03*
%TO.P,U4,2,NC*%
%TO.N,unconnected-(U4-NC-Pad2)*%
X126992500Y-101626700D03*
%TO.P,U4,3,GND*%
%TO.N,GND*%
X126992500Y-102276700D03*
%TO.P,U4,4,EN*%
%TO.N,Net-(JP5-B)*%
X128767500Y-102276700D03*
%TO.P,U4,5,NC*%
%TO.N,unconnected-(U4-NC-Pad5)*%
X128767500Y-101626700D03*
%TO.P,U4,6,IN*%
%TO.N,Net-(JP5-B)*%
X128767500Y-100976700D03*
D61*
%TO.P,U4,7,GND*%
%TO.N,GND*%
X127880000Y-101626700D03*
%TD*%
D58*
%TO.P,MK2,1,DATA*%
%TO.N,MIC_SD1*%
X151576000Y-90964200D03*
%TO.P,MK2,2,SEL*%
%TO.N,GND*%
X152398000Y-90964200D03*
D62*
%TO.P,MK2,3,GND*%
X154312500Y-90126700D03*
D58*
%TO.P,MK2,4,CLOCK*%
%TO.N,MIC_CCLK1*%
X152398000Y-89289200D03*
%TO.P,MK2,5,VDD*%
%TO.N,3.3V*%
X151576000Y-89289200D03*
%TD*%
D30*
%TO.P,C16,1*%
%TO.N,BOOT0*%
X132600000Y-68166668D03*
%TO.P,C16,2*%
%TO.N,GND*%
X132600000Y-69126668D03*
%TD*%
D39*
%TO.P,C47,1*%
%TO.N,3.3V*%
X62340000Y-92626700D03*
%TO.P,C47,2*%
%TO.N,GND*%
X61380000Y-92626700D03*
%TD*%
D31*
%TO.P,C36,1*%
%TO.N,VCC_GPS*%
X66100000Y-78946668D03*
%TO.P,C36,2*%
%TO.N,GND*%
X66100000Y-77986668D03*
%TD*%
D28*
%TO.P,C19,1*%
%TO.N,V_ADC_SOLAR*%
X146310613Y-91846407D03*
%TO.P,C19,2*%
%TO.N,GND*%
X147270613Y-91846407D03*
%TD*%
D41*
%TO.P,JP7,1,A*%
%TO.N,VCC_RF*%
X121927800Y-110644368D03*
%TO.P,JP7,2,B*%
%TO.N,3.3V*%
X121927800Y-111685768D03*
%TD*%
D31*
%TO.P,C54,1*%
%TO.N,SW_USER*%
X79078000Y-62140468D03*
%TO.P,C54,2*%
%TO.N,GND*%
X79078000Y-61180468D03*
%TD*%
D19*
%TO.P,D9,1,K*%
%TO.N,GND*%
X87977990Y-55523195D03*
%TO.P,D9,2,A*%
%TO.N,Net-(D9-A)*%
X86402990Y-55523195D03*
%TD*%
D16*
%TO.P,R10,1*%
%TO.N,Net-(J3-CC2)*%
X114390000Y-68626700D03*
%TO.P,R10,2*%
%TO.N,GND*%
X113370000Y-68626700D03*
%TD*%
D31*
%TO.P,C34,1*%
%TO.N,VCC_RF*%
X117280000Y-110126700D03*
%TO.P,C34,2*%
%TO.N,GND*%
X117280000Y-109166700D03*
%TD*%
D63*
%TO.P,JP3,1,A*%
%TO.N,Net-(JP3-A)*%
X99879991Y-86126709D03*
%TO.P,JP3,2,B*%
%TO.N,VDD_MCU*%
X99143609Y-86863091D03*
%TD*%
D31*
%TO.P,C28,1*%
%TO.N,VCC_RF*%
X119280000Y-110126700D03*
%TO.P,C28,2*%
%TO.N,GND*%
X119280000Y-109166700D03*
%TD*%
%TO.P,C29,1*%
%TO.N,VCC_SD*%
X95380000Y-76606700D03*
%TO.P,C29,2*%
%TO.N,GND*%
X95380000Y-75646700D03*
%TD*%
D40*
%TO.P,C1,1*%
%TO.N,VDD_MCU*%
X106330458Y-83263091D03*
%TO.P,C1,2*%
%TO.N,GND*%
X107009280Y-82584269D03*
%TD*%
D28*
%TO.P,C44,1*%
%TO.N,3.3V*%
X151570000Y-88016668D03*
%TO.P,C44,2*%
%TO.N,GND*%
X152530000Y-88016668D03*
%TD*%
%TO.P,C25,1*%
%TO.N,V_ADC_BATT*%
X135870000Y-103626700D03*
%TO.P,C25,2*%
%TO.N,GND*%
X136830000Y-103626700D03*
%TD*%
D64*
%TO.P,C23,1*%
%TO.N,Net-(JP5-A)*%
X131380000Y-106636700D03*
%TO.P,C23,2*%
%TO.N,GND*%
X133280000Y-106636700D03*
%TD*%
D16*
%TO.P,R6,1*%
%TO.N,GND*%
X147290613Y-92846407D03*
%TO.P,R6,2*%
%TO.N,V_ADC_SOLAR*%
X146270613Y-92846407D03*
%TD*%
D31*
%TO.P,C31,1*%
%TO.N,VCC_SD*%
X96380000Y-76606700D03*
%TO.P,C31,2*%
%TO.N,GND*%
X96380000Y-75646700D03*
%TD*%
D27*
%TO.P,C4,1*%
%TO.N,VDD_MCU*%
X120870289Y-74267289D03*
%TO.P,C4,2*%
%TO.N,GND*%
X121549111Y-74946111D03*
%TD*%
D65*
%TO.P,MK3,1,DATA*%
%TO.N,MIC_SD1*%
X129542500Y-128890200D03*
%TO.P,MK3,2,SEL*%
%TO.N,3.3V*%
X129542500Y-129712200D03*
D66*
%TO.P,MK3,3,GND*%
%TO.N,GND*%
X130380000Y-131626700D03*
D65*
%TO.P,MK3,4,CLOCK*%
%TO.N,MIC_CCLK1*%
X131217500Y-129712200D03*
%TO.P,MK3,5,VDD*%
%TO.N,3.3V*%
X131217500Y-128890200D03*
%TD*%
D67*
%TO.P,L1,1*%
%TO.N,Net-(U1-VLXSMPS)*%
X128609254Y-91622414D03*
%TO.P,L1,2*%
%TO.N,Net-(C5-Pad1)*%
X130150746Y-90080922D03*
%TD*%
D68*
%TO.P,C22,1*%
%TO.N,Net-(U2-VOS)*%
X127110000Y-111886668D03*
%TO.P,C22,2*%
%TO.N,GND*%
X127110000Y-109986668D03*
%TD*%
D69*
%TO.P,U3,1,SYS*%
%TO.N,Net-(JP5-A)*%
X131080000Y-104186700D03*
%TO.P,U3,2,BAT*%
%TO.N,Net-(U3-BAT)*%
X131480000Y-104186700D03*
%TO.P,U3,3,/PG/GPO*%
%TO.N,unconnected-(U3-{slash}PG{slash}GPO-Pad3)*%
X131880000Y-104186700D03*
%TO.P,U3,4,/CE*%
%TO.N,unconnected-(U3-{slash}CE-Pad4)*%
X132280000Y-104186700D03*
%TO.P,U3,5,GND*%
%TO.N,GND*%
X132680000Y-104186700D03*
%TO.P,U3,6,TS/MR*%
%TO.N,Net-(U3-TS{slash}MR)*%
X132680000Y-102086700D03*
%TO.P,U3,7,SDA*%
%TO.N,SENS_I2C_SDA*%
X132280000Y-102086700D03*
%TO.P,U3,8,SCL*%
%TO.N,SENS_I2C_SCL*%
X131880000Y-102086700D03*
%TO.P,U3,9,/INT*%
%TO.N,CHG_INT*%
X131480000Y-102086700D03*
%TO.P,U3,10,IN*%
%TO.N,Net-(JP4-B)*%
X131080000Y-102086700D03*
D70*
%TO.P,U3,11,GND_(THERMAL)*%
%TO.N,GND*%
X131880000Y-103136700D03*
D71*
%TO.P,U3,12*%
%TO.N,N/C*%
X131380000Y-103136700D03*
%TO.P,U3,13*%
X132380000Y-103136700D03*
%TD*%
D23*
%TO.P,D4,A*%
%TO.N,Net-(D4-PadA)*%
X122880000Y-60991700D03*
%TO.P,D4,C*%
%TO.N,Net-(JP4-A)*%
X122880000Y-64261700D03*
%TD*%
D15*
%TO.P,R26,1*%
%TO.N,SD_SW*%
X108370000Y-74656668D03*
%TO.P,R26,2*%
%TO.N,VCC_SD*%
X109390000Y-74656668D03*
%TD*%
D20*
%TO.P,R15,1*%
%TO.N,GND*%
X133880000Y-103636700D03*
%TO.P,R15,2*%
%TO.N,Net-(U3-TS{slash}MR)*%
X133880000Y-102616700D03*
%TD*%
%TO.P,R1,1*%
%TO.N,NRST*%
X133598800Y-63627368D03*
%TO.P,R1,2*%
%TO.N,3.3V*%
X133598800Y-62607368D03*
%TD*%
D13*
%TO.P,TP5,1,1*%
%TO.N,GPS_TX_STM_RX*%
X72380000Y-90126700D03*
%TD*%
D72*
%TO.P,D11,1,K*%
%TO.N,GND*%
X125178800Y-48459068D03*
%TO.P,D11,2,A*%
%TO.N,Net-(D11-A)*%
X126753800Y-48459068D03*
%TD*%
D15*
%TO.P,R32,1*%
%TO.N,SENS_I2C_SCL*%
X140800000Y-90776668D03*
%TO.P,R32,2*%
%TO.N,3.3V*%
X141820000Y-90776668D03*
%TD*%
D73*
%TO.P,U2,1,FB/VSET*%
%TO.N,Net-(U2-FB{slash}VSET)*%
X128910000Y-116626699D03*
%TO.P,U2,2,PG*%
%TO.N,unconnected-(U2-PG-Pad2)*%
X128910000Y-117126700D03*
%TO.P,U2,3,VOS*%
%TO.N,Net-(U2-VOS)*%
X128910000Y-117626700D03*
%TO.P,U2,4,SW*%
%TO.N,Net-(U2-SW)*%
X128910000Y-118126701D03*
%TO.P,U2,5,GND*%
%TO.N,GND*%
X130380000Y-118126701D03*
%TO.P,U2,6,VIN*%
%TO.N,Net-(U2-EN)*%
X130380000Y-117626700D03*
%TO.P,U2,7,EN*%
X130380000Y-117126700D03*
%TO.P,U2,8,MODE/S-CONF*%
%TO.N,Net-(U2-MODE{slash}S-CONF)*%
X130380000Y-116626699D03*
%TD*%
D16*
%TO.P,R36,1*%
%TO.N,SYS_MAIN_RED*%
X128976300Y-48459068D03*
%TO.P,R36,2*%
%TO.N,Net-(D11-A)*%
X127956300Y-48459068D03*
%TD*%
D20*
%TO.P,R2,1*%
%TO.N,GND*%
X133600000Y-69156668D03*
%TO.P,R2,2*%
%TO.N,BOOT0*%
X133600000Y-68136668D03*
%TD*%
D65*
%TO.P,MK4,1,DATA*%
%TO.N,MIC_SD2*%
X83542500Y-128822700D03*
%TO.P,MK4,2,SEL*%
%TO.N,3.3V*%
X83542500Y-129644700D03*
D66*
%TO.P,MK4,3,GND*%
%TO.N,GND*%
X84380000Y-131559200D03*
D65*
%TO.P,MK4,4,CLOCK*%
%TO.N,MIC_CCLK1*%
X85217500Y-129644700D03*
%TO.P,MK4,5,VDD*%
%TO.N,3.3V*%
X85217500Y-128822700D03*
%TD*%
D14*
%TO.P,R19,1*%
%TO.N,SDIO_D2*%
X97870000Y-74986668D03*
%TO.P,R19,2*%
%TO.N,VCC_SD*%
X97870000Y-76006668D03*
%TD*%
D15*
%TO.P,R31,1*%
%TO.N,SENS_I2C_SDA*%
X140540000Y-94536668D03*
%TO.P,R31,2*%
%TO.N,3.3V*%
X141560000Y-94536668D03*
%TD*%
D74*
%TO.P,J4,1,1*%
%TO.N,Net-(U3-BAT)*%
X141431443Y-107135675D03*
%TO.P,J4,2,2*%
%TO.N,GND*%
X140431443Y-108867725D03*
D75*
%TO.P,J4,S1*%
%TO.N,N/C*%
X144580001Y-106182214D03*
%TO.P,J4,S2*%
X141179999Y-112071186D03*
%TD*%
D16*
%TO.P,R23,1*%
%TO.N,SDIO_D0*%
X105200000Y-75756668D03*
%TO.P,R23,2*%
%TO.N,VCC_SD*%
X104180000Y-75756668D03*
%TD*%
D68*
%TO.P,C20,1*%
%TO.N,Net-(U2-VOS)*%
X125110000Y-111886668D03*
%TO.P,C20,2*%
%TO.N,GND*%
X125110000Y-109986668D03*
%TD*%
D31*
%TO.P,C11,1*%
%TO.N,NRST*%
X132620000Y-63606668D03*
%TO.P,C11,2*%
%TO.N,GND*%
X132620000Y-62646668D03*
%TD*%
D47*
%TO.P,C12,1*%
%TO.N,32K_OSC_IN*%
X105869411Y-90787257D03*
%TO.P,C12,2*%
%TO.N,GND*%
X105190589Y-91466079D03*
%TD*%
D32*
%TO.P,D1,A*%
%TO.N,Net-(J1-Pin_2)*%
X132515000Y-123126700D03*
%TO.P,D1,C*%
%TO.N,Net-(U2-EN)*%
X129245000Y-123126700D03*
%TD*%
D13*
%TO.P,TP4,1,1*%
%TO.N,GPS_PPS*%
X69880000Y-90126700D03*
%TD*%
D28*
%TO.P,C37,1*%
%TO.N,3.3V*%
X137380000Y-56126700D03*
%TO.P,C37,2*%
%TO.N,GND*%
X138340000Y-56126700D03*
%TD*%
D72*
%TO.P,D12,1,K*%
%TO.N,GND*%
X125178800Y-50459068D03*
%TO.P,D12,2,A*%
%TO.N,Net-(D12-A)*%
X126753800Y-50459068D03*
%TD*%
D30*
%TO.P,C52,1*%
%TO.N,3.3V*%
X138950000Y-92126668D03*
%TO.P,C52,2*%
%TO.N,GND*%
X138950000Y-93086668D03*
%TD*%
D40*
%TO.P,C8,1*%
%TO.N,VDD_MCU*%
X127780000Y-89826668D03*
%TO.P,C8,2*%
%TO.N,GND*%
X128458822Y-89147846D03*
%TD*%
D76*
%TO.P,U1,1,PE2*%
%TO.N,SW_USER*%
X108210315Y-87311104D03*
%TO.P,U1,2,PE3*%
%TO.N,GPS_RESET*%
X108563868Y-87664657D03*
%TO.P,U1,3,PE4*%
%TO.N,MIC_SD3*%
X108917422Y-88018211D03*
%TO.P,U1,4,PE5*%
%TO.N,MBUS_CS*%
X109270975Y-88371764D03*
%TO.P,U1,5,PE6*%
%TO.N,MBUS_RST*%
X109624528Y-88725317D03*
%TO.P,U1,6,VBAT*%
%TO.N,Net-(JP3-A)*%
X109978082Y-89078871D03*
%TO.P,U1,7,PC13*%
%TO.N,GPS_EN*%
X110331635Y-89432424D03*
%TO.P,U1,8,PC14*%
%TO.N,32K_OSC_IN*%
X110685189Y-89785978D03*
%TO.P,U1,9,PC15*%
%TO.N,32K_OSC_OUT*%
X111038742Y-90139531D03*
%TO.P,U1,10,VSS*%
%TO.N,GND*%
X111392295Y-90493084D03*
%TO.P,U1,11,VDD*%
%TO.N,VDD_MCU*%
X111745849Y-90846638D03*
%TO.P,U1,12,PH0*%
%TO.N,HSE_OSC_IN*%
X112099402Y-91200191D03*
%TO.P,U1,13,PH1*%
%TO.N,HSE_OSC_OUT*%
X112452955Y-91553745D03*
%TO.P,U1,14,NRST*%
%TO.N,NRST*%
X112806509Y-91907298D03*
%TO.P,U1,15,PC0*%
%TO.N,MBUS_SCL*%
X113160062Y-92260851D03*
%TO.P,U1,16,PC1*%
%TO.N,MBUS_SDA*%
X113513616Y-92614405D03*
%TO.P,U1,17,PC2*%
%TO.N,MIC_CCLK1*%
X113867169Y-92967958D03*
%TO.P,U1,18,PC3*%
%TO.N,MBUS_MOSI*%
X114220722Y-93321511D03*
%TO.P,U1,19,VSSA*%
%TO.N,GND*%
X114574276Y-93675065D03*
%TO.P,U1,20,VREF+*%
%TO.N,Net-(JP2-B)*%
X114927829Y-94028618D03*
%TO.P,U1,21,VDDA*%
%TO.N,VDD_MCU*%
X115281383Y-94382172D03*
%TO.P,U1,22,PA0*%
%TO.N,V_ADC_DC*%
X115634936Y-94735725D03*
%TO.P,U1,23,PA1*%
%TO.N,V_ADC_BATT*%
X115988489Y-95089278D03*
%TO.P,U1,24,PA2*%
%TO.N,GPS_RX_STM_TX*%
X116342043Y-95442832D03*
%TO.P,U1,25,PA3*%
%TO.N,GPS_TX_STM_RX*%
X116695596Y-95796385D03*
D77*
%TO.P,U1,26,VSS*%
%TO.N,GND*%
X119064404Y-95796385D03*
%TO.P,U1,27,VDD*%
%TO.N,VDD_MCU*%
X119417957Y-95442832D03*
%TO.P,U1,28,PA4*%
%TO.N,MBUS_AN*%
X119771511Y-95089278D03*
%TO.P,U1,29,PA5*%
%TO.N,PWM_BUZ*%
X120125064Y-94735725D03*
%TO.P,U1,30,PA6*%
%TO.N,EXT_OPA_VINP*%
X120478617Y-94382172D03*
%TO.P,U1,31,PA7*%
%TO.N,EXT_OPA_VINM*%
X120832171Y-94028618D03*
%TO.P,U1,32,PB0*%
%TO.N,EXT_OPA_VOUT*%
X121185724Y-93675065D03*
%TO.P,U1,33,PB1*%
%TO.N,V_ADC_SOLAR*%
X121539278Y-93321511D03*
%TO.P,U1,34,PB2*%
%TO.N,MBUS_PWM*%
X121892831Y-92967958D03*
%TO.P,U1,35,PE7*%
%TO.N,MIC_SD2*%
X122246384Y-92614405D03*
%TO.P,U1,36,PE8*%
%TO.N,RF_CS*%
X122599938Y-92260851D03*
%TO.P,U1,37,PE9*%
%TO.N,CHG_INT*%
X122953491Y-91907298D03*
%TO.P,U1,38,PE10*%
%TO.N,RF_BUSY*%
X123307045Y-91553745D03*
%TO.P,U1,39,PE11*%
%TO.N,RF_NRST*%
X123660598Y-91200191D03*
%TO.P,U1,40,PE12*%
%TO.N,RF_IRQ*%
X124014151Y-90846638D03*
%TO.P,U1,41,PE13*%
%TO.N,RF_SCK*%
X124367705Y-90493084D03*
%TO.P,U1,42,PE14*%
%TO.N,RF_MISO*%
X124721258Y-90139531D03*
%TO.P,U1,43,PE15*%
%TO.N,RF_MOSI*%
X125074811Y-89785978D03*
%TO.P,U1,44,PB10*%
%TO.N,EXT_I2C_SCL*%
X125428365Y-89432424D03*
%TO.P,U1,45,PB11*%
%TO.N,MBUS_RX_STM_RX*%
X125781918Y-89078871D03*
%TO.P,U1,46,VLXSMPS*%
%TO.N,Net-(U1-VLXSMPS)*%
X126135472Y-88725317D03*
%TO.P,U1,47,VDDSMPS*%
%TO.N,VDD_MCU*%
X126489025Y-88371764D03*
%TO.P,U1,48,VSSSMPS*%
%TO.N,GND*%
X126842578Y-88018211D03*
%TO.P,U1,49,VDD11*%
%TO.N,Net-(C5-Pad1)*%
X127196132Y-87664657D03*
%TO.P,U1,50,VSS*%
%TO.N,GND*%
X127549685Y-87311104D03*
D76*
%TO.P,U1,51,VDD*%
%TO.N,unconnected-(U1-VDD-Pad51)*%
X127549685Y-84942296D03*
%TO.P,U1,52,PB13*%
%TO.N,MBUS_SCK*%
X127196132Y-84588743D03*
%TO.P,U1,53,PB14*%
%TO.N,MBUS_MISO*%
X126842578Y-84235189D03*
%TO.P,U1,54,PB15*%
%TO.N,SYS_MAIN_RED*%
X126489025Y-83881636D03*
%TO.P,U1,55,PD8*%
%TO.N,MBUS_TX_STM_TX*%
X126135472Y-83528083D03*
%TO.P,U1,56,PD9*%
%TO.N,EXT_AN_IN*%
X125781918Y-83174529D03*
%TO.P,U1,57,PD10*%
%TO.N,SYS_MAIN_GREEN*%
X125428365Y-82820976D03*
%TO.P,U1,58,PD11*%
%TO.N,EXT_3*%
X125074811Y-82467422D03*
%TO.P,U1,59,PD12*%
%TO.N,unconnected-(U1-PD12-Pad59)*%
X124721258Y-82113869D03*
%TO.P,U1,60,PD13*%
%TO.N,EXT_I2C_SDA*%
X124367705Y-81760316D03*
%TO.P,U1,61,PD14*%
%TO.N,unconnected-(U1-PD14-Pad61)*%
X124014151Y-81406762D03*
%TO.P,U1,62,PD15*%
%TO.N,unconnected-(U1-PD15-Pad62)*%
X123660598Y-81053209D03*
%TO.P,U1,63,PC6*%
%TO.N,EXT_1*%
X123307045Y-80699655D03*
%TO.P,U1,64,PC7*%
%TO.N,EXT_2*%
X122953491Y-80346102D03*
%TO.P,U1,65,PC8*%
%TO.N,SDIO_D0*%
X122599938Y-79992549D03*
%TO.P,U1,66,PC9*%
%TO.N,SDIO_D1*%
X122246384Y-79638995D03*
%TO.P,U1,67,PA8*%
%TO.N,RCC_MCO*%
X121892831Y-79285442D03*
%TO.P,U1,68,PA9*%
%TO.N,USB_VBUS*%
X121539278Y-78931889D03*
%TO.P,U1,69,PA10*%
%TO.N,unconnected-(U1-PA10-Pad69)*%
X121185724Y-78578335D03*
%TO.P,U1,70,PA11*%
%TO.N,USB_D_N*%
X120832171Y-78224782D03*
%TO.P,U1,71,PA12*%
%TO.N,USB_D_P*%
X120478617Y-77871228D03*
%TO.P,U1,72,PA13*%
%TO.N,TRACE_SWDIO*%
X120125064Y-77517675D03*
%TO.P,U1,73,VDDUSB*%
%TO.N,VDD_MCU*%
X119771511Y-77164122D03*
%TO.P,U1,74,VSS*%
%TO.N,GND*%
X119417957Y-76810568D03*
%TO.P,U1,75,VDD*%
%TO.N,VDD_MCU*%
X119064404Y-76457015D03*
D77*
%TO.P,U1,76,PA14*%
%TO.N,TRACE_SWCLK*%
X116695596Y-76457015D03*
%TO.P,U1,77,PA15*%
%TO.N,unconnected-(U1-PA15-Pad77)*%
X116342043Y-76810568D03*
%TO.P,U1,78,PC10*%
%TO.N,SDIO_D2*%
X115988489Y-77164122D03*
%TO.P,U1,79,PC11*%
%TO.N,SDIO_D3*%
X115634936Y-77517675D03*
%TO.P,U1,80,PC12*%
%TO.N,SDIO_CLK*%
X115281383Y-77871228D03*
%TO.P,U1,81,PD0*%
%TO.N,SENS_I2C_SDA*%
X114927829Y-78224782D03*
%TO.P,U1,82,PD1*%
%TO.N,SENS_I2C_SCL*%
X114574276Y-78578335D03*
%TO.P,U1,83,PD2*%
%TO.N,SDIO_CMD*%
X114220722Y-78931889D03*
%TO.P,U1,84,PD3*%
%TO.N,MIC_SD0*%
X113867169Y-79285442D03*
%TO.P,U1,85,PD4*%
%TO.N,SD_SW*%
X113513616Y-79638995D03*
%TO.P,U1,86,PD5*%
%TO.N,SYS_SD_BLUE*%
X113160062Y-79992549D03*
%TO.P,U1,87,PD6*%
%TO.N,MIC_SD1*%
X112806509Y-80346102D03*
%TO.P,U1,88,PD7*%
%TO.N,SYS_GPS_RED*%
X112452955Y-80699655D03*
%TO.P,U1,89,PB3*%
%TO.N,TRACE_SWO*%
X112099402Y-81053209D03*
%TO.P,U1,90,PB4*%
%TO.N,SYS_GPS_GREEN*%
X111745849Y-81406762D03*
%TO.P,U1,91,PB5*%
%TO.N,MBUS_INT*%
X111392295Y-81760316D03*
%TO.P,U1,92,PB6*%
%TO.N,QWIIC_SCL*%
X111038742Y-82113869D03*
%TO.P,U1,93,PB7*%
%TO.N,QWIIC_SDA*%
X110685189Y-82467422D03*
%TO.P,U1,94,PH3*%
%TO.N,BOOT0*%
X110331635Y-82820976D03*
%TO.P,U1,95,PB8*%
%TO.N,MIC_CCLK0*%
X109978082Y-83174529D03*
%TO.P,U1,96,PB9*%
%TO.N,GPS_PPS*%
X109624528Y-83528083D03*
%TO.P,U1,97,PE0*%
%TO.N,SD_PWR*%
X109270975Y-83881636D03*
%TO.P,U1,98,VDD11*%
%TO.N,Net-(C5-Pad1)*%
X108917422Y-84235189D03*
%TO.P,U1,99,VSS*%
%TO.N,GND*%
X108563868Y-84588743D03*
%TO.P,U1,100,VDD*%
%TO.N,VDD_MCU*%
X108210315Y-84942296D03*
%TD*%
D78*
%TO.P,JP1,1,A*%
%TO.N,3.3V*%
X128143609Y-97363091D03*
%TO.P,JP1,2,B*%
%TO.N,VDD_MCU*%
X128879991Y-96626709D03*
%TD*%
D65*
%TO.P,MK1,1,DATA*%
%TO.N,MIC_SD0*%
X135717500Y-55863200D03*
%TO.P,MK1,2,SEL*%
%TO.N,3.3V*%
X135717500Y-55041200D03*
D79*
%TO.P,MK1,3,GND*%
%TO.N,GND*%
X134880000Y-53126700D03*
D65*
%TO.P,MK1,4,CLOCK*%
%TO.N,MIC_CCLK0*%
X134042500Y-55041200D03*
%TO.P,MK1,5,VDD*%
%TO.N,3.3V*%
X134042500Y-55863200D03*
%TD*%
D20*
%TO.P,R34,1*%
%TO.N,QWIIC_SDA*%
X72120000Y-99106668D03*
%TO.P,R34,2*%
%TO.N,3.3V*%
X72120000Y-98086668D03*
%TD*%
D14*
%TO.P,R24,1*%
%TO.N,SDIO_CMD*%
X100600000Y-74993468D03*
%TO.P,R24,2*%
%TO.N,VCC_SD*%
X100600000Y-76013468D03*
%TD*%
%TO.P,R13,1*%
%TO.N,GND*%
X121880000Y-68116700D03*
%TO.P,R13,2*%
%TO.N,USB_VBUS*%
X121880000Y-69136700D03*
%TD*%
D30*
%TO.P,C41,1*%
%TO.N,3.3V*%
X87880000Y-130666700D03*
%TO.P,C41,2*%
%TO.N,GND*%
X87880000Y-131626700D03*
%TD*%
D44*
%TO.P,SW1,1,1*%
%TO.N,GND*%
X127330000Y-61826700D03*
X131430000Y-61826700D03*
%TO.P,SW1,2,2*%
%TO.N,NRST*%
X127330000Y-63426700D03*
X131430000Y-63426700D03*
%TD*%
D65*
%TO.P,MK6,1,DATA*%
%TO.N,MIC_SD3*%
X88880000Y-50912700D03*
%TO.P,MK6,2,SEL*%
%TO.N,3.3V*%
X88880000Y-50090700D03*
D79*
%TO.P,MK6,3,GND*%
%TO.N,GND*%
X88042500Y-48176200D03*
D65*
%TO.P,MK6,4,CLOCK*%
%TO.N,MIC_CCLK1*%
X87205000Y-50090700D03*
%TO.P,MK6,5,VDD*%
%TO.N,3.3V*%
X87205000Y-50912700D03*
%TD*%
D13*
%TO.P,TP6,1,1*%
%TO.N,MIC_CCLK0*%
X134080000Y-57276668D03*
%TD*%
D42*
%TO.P,J1,1,Pin_1*%
%TO.N,GND*%
X136918400Y-117712900D03*
D43*
%TO.P,J1,2,Pin_2*%
%TO.N,Net-(J1-Pin_2)*%
X138668400Y-114681811D03*
%TD*%
D47*
%TO.P,C14,1*%
%TO.N,HSE_OSC_OUT*%
X111396011Y-97947857D03*
%TO.P,C14,2*%
%TO.N,GND*%
X110717189Y-98626679D03*
%TD*%
D30*
%TO.P,C27,1*%
%TO.N,3.3V*%
X125800000Y-101136668D03*
%TO.P,C27,2*%
%TO.N,GND*%
X125800000Y-102096668D03*
%TD*%
D16*
%TO.P,R17,1*%
%TO.N,GND*%
X136890000Y-104626700D03*
%TO.P,R17,2*%
%TO.N,V_ADC_BATT*%
X135870000Y-104626700D03*
%TD*%
D80*
%TO.P,L2,1*%
%TO.N,Net-(U2-SW)*%
X126880000Y-120216700D03*
%TO.P,L2,2*%
%TO.N,Net-(U2-VOS)*%
X126880000Y-118036700D03*
%TD*%
D81*
%TO.N,V_ADC_DC*%
X121925738Y-95789104D03*
X122880000Y-108626668D03*
%TO.N,V_ADC_SOLAR*%
X123489720Y-95474387D03*
X143380000Y-95626668D03*
%TO.N,Net-(JP4-B)*%
X124874200Y-103341868D03*
X130490000Y-99936668D03*
%TO.N,VDD_MCU*%
X125700862Y-86805668D03*
X104830000Y-84276668D03*
X130661443Y-96145226D03*
X112269000Y-89126668D03*
X97380000Y-86626668D03*
X120708600Y-73268268D03*
X129386443Y-94870226D03*
X129986443Y-95470226D03*
X121267400Y-72760268D03*
X116252327Y-93430919D03*
X112301200Y-99760468D03*
%TO.N,3.3V*%
X70410000Y-99326668D03*
X62630000Y-95006668D03*
X83600000Y-52216668D03*
X81330000Y-99726668D03*
X65600000Y-82386668D03*
X124800000Y-99966668D03*
X125730000Y-99976668D03*
X142760000Y-94076668D03*
X123096199Y-113146267D03*
X73947200Y-57850468D03*
X134160000Y-61906668D03*
X88860000Y-130656668D03*
X125770000Y-69926668D03*
X96333315Y-82069983D03*
X125820000Y-129616668D03*
X143750000Y-91046668D03*
X122029400Y-115152868D03*
X144260000Y-65066668D03*
X138480000Y-57236668D03*
X128954498Y-99423536D03*
X150550000Y-87566668D03*
X137380000Y-57216668D03*
X74420000Y-105686668D03*
X122031000Y-113108390D03*
X84042255Y-51658923D03*
X150560000Y-86716668D03*
X96420000Y-81146668D03*
%TO.N,GND*%
X134856400Y-102376668D03*
X112785015Y-66990868D03*
X134500000Y-100176668D03*
X101975077Y-76574268D03*
X150620000Y-95076668D03*
X115880000Y-92126668D03*
X133111000Y-61216668D03*
X121973288Y-67011436D03*
X94978400Y-73852468D03*
X118244800Y-131739068D03*
X105900400Y-82386868D03*
X134900000Y-106416668D03*
X104470000Y-70956668D03*
X118780000Y-108201668D03*
X105920000Y-70956668D03*
X118380000Y-69626668D03*
X73871000Y-59831668D03*
X73590000Y-105146668D03*
X133256200Y-70398068D03*
X126339626Y-86230431D03*
X139060000Y-94236668D03*
X87307600Y-52897468D03*
X65620000Y-76976668D03*
X151630000Y-85936668D03*
X117630000Y-118426668D03*
X88040000Y-47026668D03*
X125687000Y-47233268D03*
X155570000Y-90546668D03*
X152540000Y-85926668D03*
X134856400Y-103189468D03*
X118244800Y-129249868D03*
X137100000Y-107446668D03*
X117755000Y-108176668D03*
X131620000Y-114036668D03*
X117635200Y-120105868D03*
X123570000Y-101546668D03*
X130313411Y-93193257D03*
X96832600Y-73928668D03*
X118270200Y-130545268D03*
X97315200Y-131726700D03*
X87960000Y-71986668D03*
X89040000Y-131666668D03*
X122308800Y-73242868D03*
X143880000Y-94126668D03*
X125880000Y-131136668D03*
X139398821Y-56565272D03*
X87960000Y-70676668D03*
X98760000Y-107996668D03*
X84370000Y-132676668D03*
X146290000Y-70296668D03*
X108135600Y-98490468D03*
X106680000Y-91801668D03*
X119730000Y-108226668D03*
X61400000Y-87756668D03*
X139460000Y-57526668D03*
X117864268Y-94185562D03*
X127840000Y-125126668D03*
X134890000Y-107276668D03*
X127980000Y-121886668D03*
X85450000Y-52926668D03*
X87794131Y-69392320D03*
X112380000Y-69126668D03*
X125130000Y-108516668D03*
X88780000Y-108751668D03*
X97340600Y-129224468D03*
X123510000Y-103366668D03*
X121800800Y-73801668D03*
X78230000Y-114986668D03*
X69920000Y-98426668D03*
X97330000Y-130519868D03*
X136482000Y-108726668D03*
X98102600Y-120131268D03*
X137910000Y-103496668D03*
X109880000Y-72626668D03*
X123540000Y-102516668D03*
X98128000Y-118708868D03*
X78830000Y-92376668D03*
X124220000Y-108516668D03*
%TO.N,SDIO_D3*%
X110763564Y-78085873D03*
X111432163Y-73374087D03*
%TO.N,SDIO_D2*%
X109862800Y-78094268D03*
X110826728Y-72763870D03*
%TO.N,SD_SW*%
X111869400Y-74639868D03*
X111610160Y-77936904D03*
%TO.N,SDIO_D1*%
X119794200Y-80278668D03*
X113962921Y-76686317D03*
%TO.N,SDIO_D0*%
X120652109Y-80840868D03*
X113164800Y-76367068D03*
%TO.N,Net-(C5-Pad1)*%
X131750000Y-89556668D03*
X110252025Y-85119631D03*
%TO.N,Net-(JP3-A)*%
X112321370Y-87263799D03*
X101667599Y-86886068D03*
%TO.N,NRST*%
X148060000Y-74666668D03*
X114473841Y-84226760D03*
X134424600Y-84063268D03*
X143848000Y-63438468D03*
%TO.N,BOOT0*%
X111749000Y-83735387D03*
X126389185Y-67862836D03*
%TO.N,CHG_INT*%
X121730000Y-90576668D03*
X131180000Y-99056668D03*
%TO.N,Net-(JP4-A)*%
X123130000Y-65676668D03*
X124848800Y-105018268D03*
X137740000Y-97636668D03*
%TO.N,V_ADC_BATT*%
X122442859Y-96474266D03*
X134880000Y-105126668D03*
%TO.N,SYS_SD_BLUE*%
X97730212Y-78632422D03*
X82964200Y-57037668D03*
%TO.N,SYS_GPS_RED*%
X97307602Y-79380965D03*
X82710200Y-55691468D03*
%TO.N,SYS_GPS_GREEN*%
X82303800Y-54091268D03*
X96691000Y-79937668D03*
%TO.N,GPS_RX_STM_TX*%
X75268000Y-90692668D03*
X72348685Y-91325983D03*
%TO.N,GPS_PPS*%
X70880000Y-89626668D03*
X95380000Y-83126668D03*
%TO.N,TRACE_SWCLK*%
X115680000Y-75376668D03*
X145290000Y-67966668D03*
%TO.N,MIC_SD1*%
X149810000Y-90946668D03*
X115385352Y-84503467D03*
X132760000Y-127506668D03*
%TO.N,MIC_SD0*%
X135680000Y-57306668D03*
X112624311Y-77995346D03*
%TO.N,MIC_CCLK1*%
X85450000Y-47796668D03*
X132770000Y-128396668D03*
X116120000Y-87436668D03*
X131452800Y-87436668D03*
X86620000Y-129216668D03*
X154500000Y-87936668D03*
X63590000Y-94366668D03*
%TO.N,TRACE_SWDIO*%
X147450000Y-72856668D03*
X119500000Y-79556668D03*
%TO.N,RF_MOSI*%
X98680000Y-106986668D03*
X98570000Y-112146668D03*
%TO.N,RF_NRST*%
X120727632Y-101305614D03*
X120660000Y-115296668D03*
%TO.N,RF_CS*%
X120384100Y-89859751D03*
X120031000Y-101740805D03*
%TO.N,RF_BUSY*%
X119060500Y-102416168D03*
X119438728Y-88199518D03*
%TO.N,RF_IRQ*%
X121299729Y-100733517D03*
X121400000Y-114186668D03*
%TO.N,QWIIC_SDA*%
X99801619Y-81062468D03*
X71240000Y-99986668D03*
%TO.N,QWIIC_SCL*%
X98871105Y-80757606D03*
X75090200Y-98998468D03*
%TO.N,MIC_CCLK0*%
X132690000Y-55336668D03*
X111183600Y-84266468D03*
%TO.N,MIC_SD2*%
X64180000Y-93666668D03*
X118644275Y-88552393D03*
X83560000Y-127606668D03*
%TO.N,SENS_I2C_SDA*%
X132900600Y-97830068D03*
X121279432Y-87991361D03*
%TO.N,SENS_I2C_SCL*%
X120440000Y-88366668D03*
X131810915Y-98346275D03*
%TO.N,TRACE_SWO*%
X113503179Y-82260067D03*
X149510000Y-77816668D03*
%TO.N,MBUS_SCK*%
X115165711Y-101938842D03*
X123844328Y-85923655D03*
%TO.N,MBUS_RST*%
X110318502Y-101897468D03*
X111211165Y-87045963D03*
%TO.N,MBUS_MISO*%
X113509000Y-101587555D03*
X123140000Y-85532468D03*
%TO.N,MBUS_MOSI*%
X89380000Y-90800468D03*
X84190000Y-92367268D03*
%TO.N,MBUS_CS*%
X109518704Y-101969145D03*
X110353059Y-87096668D03*
%TO.N,MBUS_SDA*%
X112151157Y-94051665D03*
X111691600Y-102706868D03*
%TO.N,MBUS_SCL*%
X111124046Y-103307714D03*
X112151158Y-93261169D03*
%TO.N,MBUS_INT*%
X111996400Y-84952268D03*
X92880000Y-115126668D03*
%TO.N,VCC_SD*%
X110243800Y-74665268D03*
X102820000Y-71196668D03*
X93380000Y-74626668D03*
X93860800Y-73979468D03*
X104680000Y-74826668D03*
X100591800Y-76879068D03*
X101620000Y-71236668D03*
X97264400Y-77611668D03*
X107423200Y-75736068D03*
X97910000Y-76986668D03*
X99144000Y-76976668D03*
%TO.N,EXT_OPA_VINP*%
X135246292Y-84111404D03*
X116742619Y-83270468D03*
%TO.N,RCC_MCO*%
X146946800Y-71464868D03*
X124000000Y-78216668D03*
%TO.N,EXT_1*%
X139936400Y-82082068D03*
X121729802Y-81774268D03*
%TO.N,EXT_I2C_SCL*%
X137218600Y-85638068D03*
X126524921Y-90481746D03*
%TO.N,EXT_2*%
X120683198Y-81980467D03*
X139326800Y-83021868D03*
%TO.N,EXT_3*%
X126322000Y-81066068D03*
X150380000Y-80126668D03*
%TO.N,EXT_OPA_VOUT*%
X136456600Y-82941668D03*
X118295430Y-82666268D03*
%TO.N,EXT_I2C_SDA*%
X126652200Y-79491268D03*
X139072800Y-78627668D03*
%TO.N,EXT_AN_IN*%
X128277800Y-79338868D03*
X137880000Y-79126668D03*
%TO.N,EXT_OPA_VINM*%
X135729810Y-83400681D03*
X117533828Y-82949668D03*
%TO.N,PWM_BUZ*%
X94540000Y-103446668D03*
X119350000Y-92666668D03*
%TO.N,MBUS_TX_STM_TX*%
X112275800Y-103265668D03*
X122150000Y-85303066D03*
%TO.N,MBUS_RX_STM_RX*%
X123642841Y-86759310D03*
X116874510Y-103673378D03*
%TD*%
D82*
%TO.N,V_ADC_DC*%
X122880000Y-108626668D02*
X124155400Y-109902068D01*
X124155400Y-120922100D02*
X125860000Y-122626700D01*
X116731953Y-93945616D02*
X118184800Y-95398463D01*
X119857851Y-97126668D02*
X120756594Y-97126668D01*
X118184800Y-95398463D02*
X118184800Y-95453617D01*
X116425045Y-93945616D02*
X116731953Y-93945616D01*
X125860000Y-122626700D02*
X125860000Y-124586700D01*
X120756594Y-97126668D02*
X121925738Y-95957524D01*
X118184800Y-95453617D02*
X119857851Y-97126668D01*
X125860000Y-124586700D02*
X125900000Y-124626700D01*
X115634936Y-94735725D02*
X116425045Y-93945616D01*
X121925738Y-95957524D02*
X121925738Y-95789104D01*
X124155400Y-109902068D02*
X124155400Y-120922100D01*
D83*
%TO.N,V_ADC_SOLAR*%
X145532193Y-91846407D02*
X146310613Y-91846407D01*
X146310613Y-91846407D02*
X146310613Y-93816407D01*
D82*
X145452766Y-91925834D02*
X145091647Y-91564715D01*
X145452766Y-94630539D02*
X145452766Y-91925834D01*
D83*
X146310613Y-93816407D02*
X146280613Y-93846407D01*
D82*
X121539278Y-93321511D02*
X123489720Y-95271953D01*
X143380000Y-95626668D02*
X144456637Y-95626668D01*
X144456637Y-95626668D02*
X145452766Y-94630539D01*
X145091647Y-91564715D02*
X145091647Y-90261770D01*
X123489720Y-95271953D02*
X123489720Y-95474387D01*
D83*
X145452766Y-91925834D02*
X145532193Y-91846407D01*
%TO.N,Net-(JP5-A)*%
X128970000Y-104938068D02*
X129681368Y-104938068D01*
X129681368Y-104938068D02*
X131380000Y-106636700D01*
D82*
X130748600Y-104938068D02*
X131080000Y-104606668D01*
X128970000Y-104938068D02*
X130748600Y-104938068D01*
X131080000Y-104186700D02*
X131080000Y-104606668D01*
%TO.N,Net-(JP4-B)*%
X126728400Y-103913368D02*
X125445700Y-103913368D01*
X131080000Y-100526668D02*
X131080000Y-102086700D01*
X130490000Y-99936668D02*
X131080000Y-100526668D01*
X125445700Y-103913368D02*
X124874200Y-103341868D01*
D83*
%TO.N,Net-(JP5-B)*%
X129460032Y-100976700D02*
X129510000Y-101026668D01*
X128970000Y-102479200D02*
X128767500Y-102276700D01*
X129510000Y-101026668D02*
X129510000Y-102076668D01*
X128767500Y-100976700D02*
X129460032Y-100976700D01*
X129510000Y-102076668D02*
X129107468Y-102479200D01*
X128970000Y-103896668D02*
X128970000Y-102479200D01*
X129107468Y-102479200D02*
X128970000Y-102479200D01*
D82*
%TO.N,VDD_MCU*%
X104916400Y-84190268D02*
X104830000Y-84276668D01*
X107576800Y-84317268D02*
X107359635Y-84317268D01*
X108201828Y-84942296D02*
X107576800Y-84317268D01*
X120870289Y-74267289D02*
X120870289Y-74278789D01*
X120201189Y-75320230D02*
X119064404Y-76457015D01*
X120870289Y-73429957D02*
X120708600Y-73268268D01*
X113995936Y-99760468D02*
X112301200Y-99760468D01*
X114617368Y-99139036D02*
X113995936Y-99760468D01*
D83*
X129523558Y-95470226D02*
X129386443Y-95333111D01*
D82*
X106980458Y-83938091D02*
X106980458Y-83913091D01*
X119771511Y-77164122D02*
X118739765Y-78195868D01*
X111745849Y-90846638D02*
X112380000Y-90212487D01*
X118880000Y-93626668D02*
X117880000Y-92626668D01*
D83*
X106330458Y-83263091D02*
X105843577Y-83263091D01*
D82*
X110713811Y-92466079D02*
X110033411Y-93146479D01*
X127780000Y-89662739D02*
X127780000Y-89826668D01*
D83*
X105843577Y-83263091D02*
X104830000Y-84276668D01*
D82*
X119064404Y-76457015D02*
X119018453Y-76457015D01*
D83*
X129386443Y-95333111D02*
X129386443Y-94870226D01*
D82*
X120870289Y-74267289D02*
X120870289Y-73429957D01*
X120870289Y-74278789D02*
X120201189Y-74947889D01*
D83*
X129986443Y-95933111D02*
X129986443Y-95470226D01*
D82*
X108210315Y-84942296D02*
X108201828Y-84942296D01*
D83*
X120708600Y-73268268D02*
X120759400Y-73268268D01*
D82*
X117880000Y-92626668D02*
X117056578Y-92626668D01*
X126489025Y-88360693D02*
X125700862Y-87572530D01*
D83*
X130198558Y-96145226D02*
X129986443Y-95933111D01*
D82*
X118041600Y-77687868D02*
X118041600Y-77459268D01*
X111745849Y-90846638D02*
X110719411Y-91873076D01*
X118880000Y-94904875D02*
X118880000Y-93626668D01*
X107359635Y-84317268D02*
X106980458Y-83938091D01*
D83*
X120759400Y-73268268D02*
X121267400Y-72760268D01*
X99143609Y-86863091D02*
X97616423Y-86863091D01*
D82*
X110719411Y-92466079D02*
X110713811Y-92466079D01*
D83*
X129986443Y-95470226D02*
X129523558Y-95470226D01*
D82*
X118041600Y-77459268D02*
X118062151Y-77459268D01*
X126489025Y-88371764D02*
X126489025Y-88360693D01*
X112380000Y-89237668D02*
X112269000Y-89126668D01*
X115281383Y-94382172D02*
X116232636Y-93430919D01*
D83*
X129986443Y-95520257D02*
X129986443Y-95470226D01*
D82*
X120201189Y-74947889D02*
X120201189Y-75320230D01*
X119417957Y-95442832D02*
X118880000Y-94904875D01*
X118062151Y-77459268D02*
X119064404Y-76457015D01*
X110719411Y-91873076D02*
X110719411Y-92466079D01*
X106980458Y-83913091D02*
X106330458Y-83263091D01*
X125700862Y-87572530D02*
X125700862Y-86805668D01*
X118549600Y-78195868D02*
X118041600Y-77687868D01*
X112380000Y-90212487D02*
X112380000Y-89237668D01*
D83*
X128879991Y-96626709D02*
X129986443Y-95520257D01*
D82*
X126489025Y-88371764D02*
X127780000Y-89662739D01*
X118739765Y-78195868D02*
X118549600Y-78195868D01*
D83*
X130661443Y-96145226D02*
X130198558Y-96145226D01*
D82*
X116232636Y-93430919D02*
X116252327Y-93430919D01*
D83*
X97616423Y-86863091D02*
X97380000Y-86626668D01*
D82*
X117056578Y-92626668D02*
X116252327Y-93430919D01*
%TO.N,Net-(JP2-B)*%
X113844411Y-95191079D02*
X113169411Y-95866079D01*
X113155000Y-95880490D02*
X113169411Y-95866079D01*
X113155000Y-97676668D02*
X113155000Y-95880490D01*
X114042632Y-98564300D02*
X113155000Y-97676668D01*
X114927829Y-94028618D02*
X114927829Y-94107661D01*
X114927829Y-94028618D02*
X114928050Y-94028618D01*
X114927829Y-94107661D02*
X113844411Y-95191079D01*
D83*
%TO.N,3.3V*%
X134583200Y-55863200D02*
X135405200Y-55041200D01*
X62340000Y-92626700D02*
X62340000Y-93626700D01*
X83600000Y-52101178D02*
X84042255Y-51658923D01*
D82*
X143757500Y-92146668D02*
X143757500Y-91054168D01*
D83*
X137380000Y-55126700D02*
X137380000Y-56126700D01*
X80220000Y-97826700D02*
X80220000Y-98616668D01*
D82*
X141820000Y-90776668D02*
X142280000Y-90776668D01*
X137942500Y-92384168D02*
X137942500Y-91884168D01*
D83*
X84960000Y-50926668D02*
X87191032Y-50926668D01*
X80220000Y-98616668D02*
X81330000Y-99726668D01*
X62340000Y-94716668D02*
X62630000Y-95006668D01*
D82*
X87251000Y-128955299D02*
X87251000Y-130605699D01*
X96250032Y-80976700D02*
X96420000Y-81146668D01*
X94880000Y-80976700D02*
X96250032Y-80976700D01*
X86705001Y-128409300D02*
X87251000Y-128955299D01*
D83*
X122031000Y-113108390D02*
X122031000Y-115151268D01*
X137380000Y-57216668D02*
X138460000Y-57216668D01*
X138460000Y-57216668D02*
X138480000Y-57236668D01*
X122068878Y-113146268D02*
X123096199Y-113146267D01*
D82*
X69092400Y-100293287D02*
X69857800Y-99836668D01*
X143757500Y-91054168D02*
X143750000Y-91046668D01*
X140245000Y-92356668D02*
X140245000Y-92856668D01*
D83*
X151590000Y-87016668D02*
X151590000Y-87566668D01*
X65610000Y-82376668D02*
X65600000Y-82386668D01*
D82*
X140245000Y-92356668D02*
X141770000Y-92356668D01*
X71024200Y-61762068D02*
X72042200Y-60744068D01*
X94880000Y-80976700D02*
X94880000Y-82126700D01*
D83*
X124800000Y-101136668D02*
X124800000Y-99966668D01*
X127330000Y-69426700D02*
X131430000Y-69426700D01*
X73175381Y-106931287D02*
X74420000Y-105686668D01*
X122031000Y-113108390D02*
X122068878Y-113146268D01*
X135717500Y-55041200D02*
X137294500Y-55041200D01*
X65610000Y-81127368D02*
X65610000Y-82376668D01*
D82*
X141770000Y-92356668D02*
X141770000Y-91856668D01*
X142300000Y-94536668D02*
X142760000Y-94076668D01*
X87880000Y-130666700D02*
X88849968Y-130666700D01*
X85319000Y-128822700D02*
X85732400Y-128409300D01*
X127000000Y-129896668D02*
X126100000Y-129896668D01*
X62202000Y-91301700D02*
X62340000Y-92626700D01*
D83*
X84960000Y-50926668D02*
X84774510Y-50926668D01*
D82*
X142757500Y-92146668D02*
X143757500Y-92146668D01*
X72042200Y-60744068D02*
X72042200Y-59755468D01*
D83*
X125959968Y-100976700D02*
X126992500Y-100976700D01*
X137380000Y-56126700D02*
X137380000Y-57216668D01*
D82*
X85217500Y-128822700D02*
X85319000Y-128822700D01*
X87465700Y-50912700D02*
X87205000Y-50912700D01*
X129358032Y-129896668D02*
X129542500Y-129712200D01*
D83*
X121927800Y-113005190D02*
X122031000Y-113108390D01*
X143059575Y-66267093D02*
X144260000Y-65066668D01*
X137294500Y-55041200D02*
X137380000Y-55126700D01*
X124800000Y-99966668D02*
X125720000Y-99966668D01*
D82*
X87189999Y-130666700D02*
X86880000Y-130666700D01*
X94880000Y-82126700D02*
X94380000Y-82626700D01*
X142757500Y-91254168D02*
X142757500Y-92146668D01*
X136417500Y-92884168D02*
X137120800Y-92884168D01*
X126100000Y-129896668D02*
X125820000Y-129616668D01*
D83*
X62340000Y-93626700D02*
X62340000Y-94716668D01*
D82*
X139180000Y-92356668D02*
X140245000Y-92356668D01*
D83*
X133459268Y-62607400D02*
X134160000Y-61906668D01*
D82*
X96420000Y-81146668D02*
X96420000Y-81983298D01*
X142280000Y-90776668D02*
X142757500Y-91254168D01*
D83*
X150550000Y-86726668D02*
X150560000Y-86716668D01*
X135405200Y-55041200D02*
X135717500Y-55041200D01*
D82*
X127000000Y-129896668D02*
X129358032Y-129896668D01*
D83*
X121927800Y-111685768D02*
X121927800Y-113005190D01*
X73110000Y-98086668D02*
X72120000Y-98086668D01*
D82*
X138950000Y-92126668D02*
X139180000Y-92356668D01*
X141770000Y-92356668D02*
X142547500Y-92356668D01*
X71650000Y-98086668D02*
X70410000Y-99326668D01*
D83*
X151590000Y-87566668D02*
X151590000Y-89275200D01*
D82*
X138692500Y-92384168D02*
X138950000Y-92126668D01*
X96420000Y-81983298D02*
X96333315Y-82069983D01*
X130956800Y-128890200D02*
X131217500Y-128890200D01*
D83*
X128954498Y-98173980D02*
X128954498Y-99423536D01*
X125800000Y-101136668D02*
X125959968Y-100976700D01*
X83600000Y-52216668D02*
X83600000Y-52101178D01*
D82*
X72042200Y-59755468D02*
X73947200Y-57850468D01*
X137120800Y-92884168D02*
X137620800Y-92384168D01*
X85732400Y-128409300D02*
X86705001Y-128409300D01*
D83*
X72912600Y-106931287D02*
X73175381Y-106931287D01*
D82*
X137620800Y-92384168D02*
X137942500Y-92384168D01*
D83*
X125720000Y-99966668D02*
X125730000Y-99976668D01*
D82*
X86880000Y-130666700D02*
X87880000Y-130666700D01*
D83*
X151590000Y-87566668D02*
X150550000Y-87566668D01*
D82*
X88287700Y-50090700D02*
X87465700Y-50912700D01*
X69857800Y-99836668D02*
X70410000Y-99326668D01*
D83*
X122031000Y-115151268D02*
X122029400Y-115152868D01*
D82*
X142547500Y-92356668D02*
X142757500Y-92146668D01*
D83*
X84774510Y-50926668D02*
X84042255Y-51658923D01*
X126269968Y-69426700D02*
X125770000Y-69926668D01*
X87191032Y-50926668D02*
X87205000Y-50912700D01*
D82*
X88880000Y-50090700D02*
X88287700Y-50090700D01*
X130134800Y-129712200D02*
X130956800Y-128890200D01*
D83*
X151590000Y-89275200D02*
X151576000Y-89289200D01*
D82*
X88849968Y-130666700D02*
X88860000Y-130656668D01*
X72120000Y-98086668D02*
X71650000Y-98086668D01*
D83*
X128143609Y-97363091D02*
X128954498Y-98173980D01*
X150550000Y-87566668D02*
X150550000Y-86726668D01*
D82*
X87251000Y-130605699D02*
X87189999Y-130666700D01*
D83*
X134042500Y-55863200D02*
X134583200Y-55863200D01*
X127330000Y-69426700D02*
X126269968Y-69426700D01*
X142652138Y-66267093D02*
X143059575Y-66267093D01*
D82*
X141560000Y-94536668D02*
X142300000Y-94536668D01*
D83*
X124800000Y-101136668D02*
X125800000Y-101136668D01*
D82*
X129542500Y-129712200D02*
X130134800Y-129712200D01*
X83542500Y-129644700D02*
X85217500Y-128822700D01*
X137942500Y-92384168D02*
X138692500Y-92384168D01*
%TO.N,USB_VBUS*%
X121880000Y-69136700D02*
X120880000Y-69136700D01*
X122969200Y-77891068D02*
X125760000Y-75100268D01*
X121649800Y-70296468D02*
X120880000Y-69526668D01*
X122065581Y-78413687D02*
X122588200Y-77891068D01*
X125760000Y-75100268D02*
X125760000Y-72934868D01*
X123121600Y-70296468D02*
X121649800Y-70296468D01*
X125760000Y-72934868D02*
X123121600Y-70296468D01*
X122588200Y-77891068D02*
X122969200Y-77891068D01*
X122057480Y-78413687D02*
X122065581Y-78413687D01*
X120880000Y-69526668D02*
X120880000Y-69136700D01*
X121539278Y-78931889D02*
X122057480Y-78413687D01*
D83*
%TO.N,GND*%
X59465500Y-90464200D02*
X59465500Y-88971168D01*
D82*
X143757500Y-94004168D02*
X143880000Y-94126668D01*
D83*
X117755000Y-109126700D02*
X118780000Y-109126700D01*
X130480000Y-114586668D02*
X131070000Y-114586668D01*
X147270613Y-92826407D02*
X147290613Y-92846407D01*
X69880000Y-76506700D02*
X67579968Y-76506700D01*
X134900000Y-106821668D02*
X135796200Y-106821668D01*
X130380000Y-119176700D02*
X129430000Y-120126700D01*
D82*
X113370000Y-68626700D02*
X112879968Y-68626700D01*
X118890000Y-68626700D02*
X118890000Y-69116668D01*
X127549685Y-87311104D02*
X126469012Y-86230431D01*
D83*
X98102600Y-118734268D02*
X98102600Y-120131268D01*
X151640000Y-85926668D02*
X151630000Y-85936668D01*
X99880000Y-131726700D02*
X97315200Y-131726700D01*
X60030000Y-88406668D02*
X61350000Y-88406668D01*
X77680000Y-116826700D02*
X77680000Y-115536668D01*
D82*
X140757500Y-93369168D02*
X141757500Y-93369168D01*
D83*
X123540000Y-101576668D02*
X123570000Y-101546668D01*
X118181632Y-129186700D02*
X118244800Y-129249868D01*
X134679968Y-106636700D02*
X134900000Y-106416668D01*
X106078200Y-82209068D02*
X105900400Y-82386868D01*
X72671406Y-106065262D02*
X73590000Y-105146668D01*
X152540000Y-85926668D02*
X151640000Y-85926668D01*
D82*
X132630000Y-69156668D02*
X132600000Y-69126668D01*
X134880000Y-53126700D02*
X136340000Y-53126700D01*
X127549685Y-87296353D02*
X127549685Y-87246353D01*
X113165589Y-94512257D02*
X113737084Y-94512257D01*
X109208239Y-94938165D02*
X109208239Y-97200907D01*
D83*
X85480000Y-52896668D02*
X85450000Y-52926668D01*
D82*
X138747500Y-92884168D02*
X138950000Y-93086668D01*
X108552033Y-93270213D02*
X109354589Y-92467657D01*
D84*
X129430000Y-120436668D02*
X127980000Y-121886668D01*
D83*
X87960000Y-70676668D02*
X87960000Y-71986668D01*
X130380000Y-118126701D02*
X130380000Y-119176700D01*
D84*
X137100000Y-107499068D02*
X136786800Y-107812268D01*
D82*
X89000032Y-131626700D02*
X89040000Y-131666668D01*
X127972213Y-89147846D02*
X128458822Y-89147846D01*
D83*
X139398821Y-56365489D02*
X139398821Y-56565272D01*
D82*
X132680000Y-104738868D02*
X133103800Y-104738868D01*
D83*
X97340600Y-130509268D02*
X97340600Y-129224468D01*
X61380000Y-87776668D02*
X61400000Y-87756668D01*
X150550068Y-93303042D02*
X150550068Y-95006736D01*
X133280000Y-106636700D02*
X134679968Y-106636700D01*
D82*
X132680000Y-103936700D02*
X132307200Y-103563900D01*
D83*
X98128000Y-118663900D02*
X98128000Y-118708868D01*
D82*
X133880000Y-103962668D02*
X133880000Y-103636700D01*
D83*
X144472647Y-71009682D02*
X145576986Y-71009682D01*
X147270613Y-91846407D02*
X147270613Y-91451407D01*
X136830000Y-103626700D02*
X136830000Y-104566700D01*
X77876800Y-60885868D02*
X78783400Y-60885868D01*
X96380000Y-74381268D02*
X96832600Y-73928668D01*
X125800000Y-102096668D02*
X125980032Y-102276700D01*
D82*
X120880011Y-75626711D02*
X120601814Y-75626711D01*
D83*
X134900000Y-106821668D02*
X134900000Y-107266668D01*
D82*
X138247900Y-93788768D02*
X138950000Y-93086668D01*
X84380000Y-131559200D02*
X86812500Y-131559200D01*
D83*
X127110000Y-109986668D02*
X127110000Y-108386668D01*
X117630000Y-120100668D02*
X117635200Y-120105868D01*
D82*
X107015589Y-93291079D02*
X107040589Y-93291079D01*
D84*
X136472000Y-108218668D02*
X136472000Y-108716668D01*
D83*
X121800800Y-73750868D02*
X122308800Y-73242868D01*
D82*
X133103800Y-104738868D02*
X133880000Y-103962668D01*
X136950000Y-95414168D02*
X137930000Y-95414168D01*
D83*
X65620000Y-77986668D02*
X65620000Y-76976668D01*
D82*
X107040589Y-93291079D02*
X107441827Y-93291079D01*
X106090589Y-92366079D02*
X106655000Y-91801668D01*
X119064404Y-95796385D02*
X117864268Y-94596249D01*
D83*
X106634079Y-82209068D02*
X106078200Y-82209068D01*
X107009280Y-82584269D02*
X106634079Y-82209068D01*
X125178800Y-47741468D02*
X125687000Y-47233268D01*
D82*
X127031483Y-86792902D02*
X127549685Y-87311104D01*
D83*
X78783400Y-60885868D02*
X79078000Y-61180468D01*
D82*
X59465500Y-90464200D02*
X59465500Y-91588774D01*
X133880000Y-103636700D02*
X134409168Y-103636700D01*
X127961001Y-130867908D02*
X128719793Y-131626700D01*
D83*
X137779968Y-103626700D02*
X137910000Y-103496668D01*
X118244800Y-129249868D02*
X118270200Y-129275268D01*
X125130000Y-108516668D02*
X124220000Y-108516668D01*
X94978400Y-73928668D02*
X94978400Y-73852468D01*
D82*
X127549685Y-87296353D02*
X127549685Y-87196353D01*
D83*
X115680000Y-129186700D02*
X118181632Y-129186700D01*
X95380000Y-75646700D02*
X95380000Y-74626668D01*
X134950032Y-100626700D02*
X134500000Y-100176668D01*
X154312500Y-90126700D02*
X155150032Y-90126700D01*
X87977990Y-54023195D02*
X87977990Y-57023195D01*
D82*
X127549685Y-87311104D02*
X127549685Y-87296353D01*
X109208239Y-97200907D02*
X109615035Y-97607703D01*
D83*
X127330000Y-61826700D02*
X131430000Y-61826700D01*
D82*
X137430000Y-93693368D02*
X137525400Y-93788768D01*
D83*
X112905000Y-66870883D02*
X112785015Y-66990868D01*
X72412600Y-106065262D02*
X72671406Y-106065262D01*
X97330000Y-130519868D02*
X97340600Y-130509268D01*
X112380000Y-67395883D02*
X112785015Y-66990868D01*
D82*
X126880000Y-124606700D02*
X126860000Y-124626700D01*
D83*
X99880000Y-118016700D02*
X98775200Y-118016700D01*
X123540000Y-102516668D02*
X123540000Y-101576668D01*
X126790000Y-108516668D02*
X127080000Y-108226668D01*
D82*
X101988800Y-75983468D02*
X101988800Y-76560545D01*
X114574276Y-93675065D02*
X115880000Y-92369341D01*
D83*
X98760000Y-108396700D02*
X98760000Y-107996668D01*
X118270200Y-130545268D02*
X118270200Y-131713668D01*
D82*
X126160000Y-130856668D02*
X125880000Y-131136668D01*
X139060000Y-94236668D02*
X139060000Y-93196668D01*
D83*
X148361647Y-90360373D02*
X148361647Y-90261770D01*
D82*
X121549111Y-74946111D02*
X121549111Y-74957611D01*
D83*
X152398000Y-90964200D02*
X153736547Y-90964200D01*
D82*
X121549111Y-74946111D02*
X121549111Y-74053357D01*
X132203048Y-103563900D02*
X131880000Y-103240852D01*
D83*
X61380000Y-88376668D02*
X61380000Y-87776668D01*
X147270613Y-91451407D02*
X148361647Y-90360373D01*
X148793437Y-91996505D02*
X149243531Y-91996505D01*
D82*
X142507500Y-92856668D02*
X142757500Y-93106668D01*
X110040589Y-91787257D02*
X111334762Y-90493084D01*
D83*
X138340000Y-55676668D02*
X138340000Y-56126700D01*
X119730000Y-109126700D02*
X119730000Y-108226668D01*
D82*
X107659280Y-83234269D02*
X107009280Y-82584269D01*
D83*
X67579968Y-76506700D02*
X66100000Y-77986668D01*
D82*
X110034989Y-91787257D02*
X109354589Y-92467657D01*
D84*
X136786800Y-107812268D02*
X136482000Y-108117068D01*
D83*
X124800000Y-102096668D02*
X123960000Y-102096668D01*
X77680000Y-115536668D02*
X78230000Y-114986668D01*
D82*
X109190771Y-94920697D02*
X109208239Y-94938165D01*
X87327262Y-52897468D02*
X87307600Y-52897468D01*
D83*
X119355000Y-66601668D02*
X119880000Y-67126668D01*
D82*
X112879968Y-68626700D02*
X112380000Y-69126668D01*
D83*
X148361647Y-91564715D02*
X148793437Y-91996505D01*
X131070000Y-114586668D02*
X131620000Y-114036668D01*
D82*
X126324377Y-87080338D02*
X126611813Y-86792902D01*
D83*
X139470000Y-57516668D02*
X139470000Y-56636451D01*
D82*
X134856400Y-103189468D02*
X134856400Y-102376668D01*
D83*
X138710000Y-55676668D02*
X139398821Y-56365489D01*
X97315200Y-130534668D02*
X97315200Y-131726700D01*
X118270200Y-129275268D02*
X118270200Y-130545268D01*
D82*
X119355000Y-66126700D02*
X119355000Y-66601668D01*
D83*
X68592399Y-99427261D02*
X68919407Y-99427261D01*
D82*
X121880000Y-68116700D02*
X121880000Y-67104724D01*
D83*
X121858056Y-67126668D02*
X121973288Y-67011436D01*
X112905000Y-66126700D02*
X112905000Y-66870883D01*
X135930000Y-100626700D02*
X134950032Y-100626700D01*
D82*
X115880000Y-92369341D02*
X115880000Y-92126668D01*
X126880000Y-123626700D02*
X126880000Y-124606700D01*
D83*
X134900000Y-107266668D02*
X134890000Y-107276668D01*
D82*
X84960000Y-51886668D02*
X85960000Y-51886668D01*
X113737084Y-94512257D02*
X114574276Y-93675065D01*
X109615035Y-97607703D02*
X108732270Y-98490468D01*
D83*
X134900000Y-106416668D02*
X134900000Y-106821668D01*
D82*
X101988800Y-76560545D02*
X101975077Y-76574268D01*
D83*
X87960000Y-70676668D02*
X87960000Y-69486668D01*
D82*
X128719793Y-131626700D02*
X130380000Y-131626700D01*
X127549685Y-87296353D02*
X127549685Y-87221353D01*
D83*
X61380000Y-88376668D02*
X61360000Y-88356668D01*
X125130000Y-108516668D02*
X126790000Y-108516668D01*
D82*
X126469012Y-86230431D02*
X126339626Y-86230431D01*
D83*
X154312500Y-90388247D02*
X154312500Y-90126700D01*
X87865652Y-69392320D02*
X87794131Y-69392320D01*
X59465500Y-88971168D02*
X60030000Y-88406668D01*
X130790589Y-92141079D02*
X130790589Y-92716079D01*
D82*
X139060000Y-94284168D02*
X139060000Y-94236668D01*
D83*
X149243531Y-91996505D02*
X150550068Y-93303042D01*
D82*
X110634011Y-98626679D02*
X110717189Y-98626679D01*
D84*
X136472000Y-108716668D02*
X136482000Y-108726668D01*
X140431443Y-108867725D02*
X137701200Y-107329668D01*
D83*
X115680000Y-109126700D02*
X117755000Y-109126700D01*
X99880000Y-109126700D02*
X99490000Y-109126700D01*
X96380000Y-74626668D02*
X95380000Y-74626668D01*
X138340000Y-55126700D02*
X138340000Y-55676668D01*
X85380000Y-71426700D02*
X87209968Y-71426700D01*
X118232432Y-131726700D02*
X118244800Y-131739068D01*
D82*
X136340000Y-53126700D02*
X138340000Y-55126700D01*
X141757500Y-93369168D02*
X141770000Y-93356668D01*
D83*
X150550068Y-95006736D02*
X150620000Y-95076668D01*
X123960000Y-102096668D02*
X123540000Y-102516668D01*
D82*
X117864268Y-94596249D02*
X117864268Y-94185562D01*
D83*
X139460000Y-57526668D02*
X139470000Y-57516668D01*
X147270613Y-91846407D02*
X147270613Y-92826407D01*
D82*
X127549685Y-87311104D02*
X127549685Y-87221353D01*
D84*
X104470000Y-70956668D02*
X105920000Y-70956668D01*
D82*
X137525400Y-93788768D02*
X138247900Y-93788768D01*
D85*
X126992500Y-102276700D02*
X127230000Y-102276700D01*
D82*
X60503426Y-92626700D02*
X61380000Y-92626700D01*
X141770000Y-93356668D02*
X141770000Y-92856668D01*
D83*
X118270200Y-131713668D02*
X118244800Y-131739068D01*
X124800000Y-102096668D02*
X125800000Y-102096668D01*
X128830000Y-114606668D02*
X130460000Y-114606668D01*
D82*
X126860000Y-124626700D02*
X127340032Y-124626700D01*
X87977990Y-54023195D02*
X87977990Y-53548196D01*
X108732270Y-98490468D02*
X108135600Y-98490468D01*
D83*
X148361647Y-90261770D02*
X148361647Y-91564715D01*
X95384800Y-74621868D02*
X95384800Y-74335068D01*
X121800800Y-73801668D02*
X121800800Y-73750868D01*
D84*
X137100000Y-107446668D02*
X137100000Y-107499068D01*
D82*
X137942500Y-92884168D02*
X138747500Y-92884168D01*
X142757500Y-93106668D02*
X143757500Y-93106668D01*
D83*
X118780000Y-109126700D02*
X119730000Y-109126700D01*
D82*
X132680000Y-104186700D02*
X132680000Y-103936700D01*
D83*
X77876800Y-60885868D02*
X77935968Y-60826700D01*
D84*
X136482000Y-108117068D02*
X136482000Y-108726668D01*
D83*
X134890000Y-107276668D02*
X134890000Y-107446668D01*
D82*
X107659280Y-83259269D02*
X107844411Y-83444400D01*
D83*
X97378368Y-129186700D02*
X97340600Y-129224468D01*
X73776800Y-60885868D02*
X73776800Y-59925868D01*
D82*
X127000000Y-130856668D02*
X127949761Y-130856668D01*
D83*
X98128000Y-118708868D02*
X98102600Y-118734268D01*
X115680000Y-131726700D02*
X118232432Y-131726700D01*
D85*
X127230000Y-102276700D02*
X127880000Y-101626700D01*
D82*
X107441827Y-93291079D02*
X107462693Y-93270213D01*
D83*
X73776800Y-60885868D02*
X77876800Y-60885868D01*
X97405000Y-129376668D02*
X97340600Y-129312268D01*
D82*
X126611813Y-86792902D02*
X127031483Y-86792902D01*
D84*
X129430000Y-120126700D02*
X129430000Y-120436668D01*
D83*
X136830000Y-103626700D02*
X137779968Y-103626700D01*
D82*
X127549685Y-87296353D02*
X127549685Y-87171353D01*
D83*
X153736547Y-90964200D02*
X154312500Y-90388247D01*
X119880000Y-67126668D02*
X121858056Y-67126668D01*
D82*
X126324377Y-87500010D02*
X126324377Y-87080338D01*
X107659280Y-83259269D02*
X107659280Y-83234269D01*
D83*
X131430000Y-61826700D02*
X132500968Y-61826700D01*
X131430000Y-61826700D02*
X131560000Y-61826700D01*
D82*
X107844411Y-83444400D02*
X107844411Y-83869286D01*
X87977990Y-53548196D02*
X87327262Y-52897468D01*
D83*
X132600000Y-69126668D02*
X132600000Y-69741868D01*
X145576986Y-71009682D02*
X146290000Y-70296668D01*
X123540000Y-102516668D02*
X123540000Y-103336668D01*
X118780000Y-109126700D02*
X118780000Y-108201668D01*
D82*
X127549685Y-87221353D02*
X127405000Y-87076668D01*
X139060000Y-93196668D02*
X138950000Y-93086668D01*
X107040589Y-93490835D02*
X107662211Y-94112457D01*
X134409168Y-103636700D02*
X134856400Y-103189468D01*
X86812500Y-131559200D02*
X86880000Y-131626700D01*
D83*
X87209968Y-71426700D02*
X87960000Y-70676668D01*
X87960000Y-69486668D02*
X87865652Y-69392320D01*
D82*
X111334762Y-90493084D02*
X111392295Y-90493084D01*
D83*
X77680000Y-94526700D02*
X77680000Y-93526668D01*
X132500968Y-61826700D02*
X133111000Y-61216668D01*
X125980032Y-102276700D02*
X126992500Y-102276700D01*
X131560000Y-61826700D02*
X132380000Y-62646700D01*
D84*
X137701200Y-107329668D02*
X137100000Y-107446668D01*
D83*
X85480000Y-51886668D02*
X85480000Y-52896668D01*
X88404968Y-109126700D02*
X88780000Y-108751668D01*
X61380000Y-89626700D02*
X61380000Y-88376668D01*
X97340600Y-129312268D02*
X97340600Y-129224468D01*
D82*
X106655000Y-91801668D02*
X106680000Y-91801668D01*
X121549111Y-74053357D02*
X121673800Y-73928668D01*
D83*
X117755000Y-109126700D02*
X117755000Y-108176668D01*
X132600000Y-69741868D02*
X133256200Y-70398068D01*
D82*
X131880000Y-103240852D02*
X131880000Y-103136700D01*
X127340032Y-124626700D02*
X127840000Y-125126668D01*
D83*
X96380000Y-75646700D02*
X96380000Y-74626668D01*
D82*
X121880000Y-67104724D02*
X121973288Y-67011436D01*
D83*
X123540000Y-103336668D02*
X123510000Y-103366668D01*
D82*
X121549111Y-74957611D02*
X120880011Y-75626711D01*
D83*
X125110000Y-109986668D02*
X125110000Y-108536668D01*
D82*
X86880000Y-131626700D02*
X89000032Y-131626700D01*
D83*
X115680000Y-118016700D02*
X117220032Y-118016700D01*
X152530000Y-85936668D02*
X152540000Y-85926668D01*
X73776800Y-59925868D02*
X73871000Y-59831668D01*
D82*
X107040589Y-93291079D02*
X107040589Y-93490835D01*
D83*
X88042500Y-47029168D02*
X88040000Y-47026668D01*
X77680000Y-93526668D02*
X78830000Y-92376668D01*
D82*
X59465500Y-91588774D02*
X60503426Y-92626700D01*
X110040589Y-91787257D02*
X110034989Y-91787257D01*
X127000000Y-130856668D02*
X126160000Y-130856668D01*
D83*
X155150032Y-90126700D02*
X155570000Y-90546668D01*
D82*
X109615035Y-97607703D02*
X110634011Y-98626679D01*
X133600000Y-69156668D02*
X132630000Y-69156668D01*
D83*
X95384800Y-74335068D02*
X94978400Y-73928668D01*
D82*
X105190589Y-91466079D02*
X106090589Y-92366079D01*
D83*
X138340000Y-55676668D02*
X138710000Y-55676668D01*
X117630000Y-118426668D02*
X117630000Y-120100668D01*
D82*
X127549685Y-87271353D02*
X127455000Y-87176668D01*
X127949761Y-130856668D02*
X127961001Y-130867908D01*
X107844411Y-83869286D02*
X108563868Y-84588743D01*
D83*
X119730000Y-109126700D02*
X120165800Y-109126700D01*
D82*
X84380000Y-131559200D02*
X84380000Y-132666668D01*
X107462693Y-93270213D02*
X108552033Y-93270213D01*
D83*
X61350000Y-88406668D02*
X61380000Y-88376668D01*
D82*
X118890000Y-69116668D02*
X118380000Y-69626668D01*
X121673800Y-73928668D02*
X121800800Y-73801668D01*
D83*
X135796200Y-106821668D02*
X136786800Y-107812268D01*
X87230000Y-109126700D02*
X88404968Y-109126700D01*
D82*
X126842578Y-88018211D02*
X127972213Y-89147846D01*
D83*
X65130000Y-77986668D02*
X65620000Y-77986668D01*
X125178800Y-48459068D02*
X125178800Y-47741468D01*
D82*
X137430000Y-93396668D02*
X137430000Y-93693368D01*
D83*
X95380000Y-74626668D02*
X95384800Y-74621868D01*
D82*
X113165589Y-94512257D02*
X112490589Y-95187257D01*
D83*
X136830000Y-104566700D02*
X136890000Y-104626700D01*
D82*
X109780032Y-72526700D02*
X109880000Y-72626668D01*
D83*
X97330000Y-130519868D02*
X97315200Y-130534668D01*
X139470000Y-56636451D02*
X139398821Y-56565272D01*
D82*
X141770000Y-92856668D02*
X142507500Y-92856668D01*
D83*
X88042500Y-48176200D02*
X88042500Y-47029168D01*
X152530000Y-88016668D02*
X152530000Y-85936668D01*
D82*
X108680000Y-72526700D02*
X109780032Y-72526700D01*
D83*
X99490000Y-109126700D02*
X98760000Y-108396700D01*
X120165800Y-109126700D02*
X120205800Y-109166700D01*
D82*
X126842578Y-88018211D02*
X126324377Y-87500010D01*
X132307200Y-103563900D02*
X132203048Y-103563900D01*
D83*
X68919407Y-99427261D02*
X69920000Y-98426668D01*
X125178800Y-48459068D02*
X125178800Y-50459068D01*
X130790589Y-92716079D02*
X130313411Y-93193257D01*
X98775200Y-118016700D02*
X98128000Y-118663900D01*
D82*
X106090589Y-92366079D02*
X107015589Y-93291079D01*
X84380000Y-132666668D02*
X84370000Y-132676668D01*
D83*
X125110000Y-109986668D02*
X127110000Y-109986668D01*
D82*
X127549685Y-87296353D02*
X127549685Y-87271353D01*
X137930000Y-95414168D02*
X139060000Y-94284168D01*
D84*
X104180001Y-73126700D02*
X104180001Y-71246667D01*
D83*
X96380000Y-74626668D02*
X96380000Y-74381268D01*
X65620000Y-77986668D02*
X66100000Y-77986668D01*
X130460000Y-114606668D02*
X130480000Y-114586668D01*
D82*
X132680000Y-104186700D02*
X132680000Y-104738868D01*
D83*
X117220032Y-118016700D02*
X117630000Y-118426668D01*
D82*
X143757500Y-93106668D02*
X143757500Y-94004168D01*
D83*
X112380000Y-69126668D02*
X112380000Y-67395883D01*
D84*
X104180001Y-71246667D02*
X104470000Y-70956668D01*
D83*
X99880000Y-129186700D02*
X97378368Y-129186700D01*
X125110000Y-108536668D02*
X125130000Y-108516668D01*
D82*
X61380000Y-92626700D02*
X61380000Y-93626700D01*
X120601814Y-75626711D02*
X119417957Y-76810568D01*
%TO.N,SDIO_D3*%
X115634936Y-77517675D02*
X111491348Y-73374087D01*
X111491348Y-73374087D02*
X111432163Y-73374087D01*
X99780000Y-74356668D02*
X99140000Y-74996668D01*
X110187759Y-77510068D02*
X110763564Y-78085873D01*
X99780000Y-73126700D02*
X99780000Y-74356668D01*
X99140000Y-74996668D02*
X99704000Y-74996668D01*
X99779000Y-77510068D02*
X110187759Y-77510068D01*
X99779000Y-75071668D02*
X99779000Y-77510068D01*
X99704000Y-74996668D02*
X99779000Y-75071668D01*
%TO.N,SDIO_CLK*%
X113338688Y-77252068D02*
X114662223Y-77252068D01*
X112940288Y-76853668D02*
X113338688Y-77252068D01*
X103389800Y-76853668D02*
X112940288Y-76853668D01*
X114662223Y-77252068D02*
X115281383Y-77871228D01*
X103080000Y-73126700D02*
X103080000Y-76543868D01*
X103080000Y-76543868D02*
X103389800Y-76853668D01*
%TO.N,SDIO_D2*%
X109862800Y-78094268D02*
X109685000Y-77916468D01*
X115988489Y-77164122D02*
X111588237Y-72763870D01*
X98686800Y-77916468D02*
X98559800Y-77789468D01*
X98559800Y-77789468D02*
X98559800Y-75676468D01*
X111588237Y-72763870D02*
X110826728Y-72763870D01*
X109685000Y-77916468D02*
X98686800Y-77916468D01*
X98559800Y-75676468D02*
X97870000Y-74986668D01*
X98680000Y-74176668D02*
X97870000Y-74986668D01*
X98680000Y-73126700D02*
X98680000Y-74176668D01*
%TO.N,SDIO_CMD*%
X113231692Y-77942859D02*
X114220722Y-78931889D01*
X101176000Y-75087955D02*
X101176000Y-77205268D01*
X112606000Y-77205268D02*
X113231692Y-77830960D01*
X100880000Y-73126700D02*
X100880000Y-74756668D01*
X101176000Y-77205268D02*
X112606000Y-77205268D01*
X100643200Y-74993468D02*
X100600000Y-74993468D01*
X101081513Y-74993468D02*
X101176000Y-75087955D01*
X113231692Y-77830960D02*
X113231692Y-77942859D01*
X100880000Y-74756668D02*
X100643200Y-74993468D01*
X100600000Y-74993468D02*
X101081513Y-74993468D01*
%TO.N,SD_SW*%
X109072600Y-73954068D02*
X111183600Y-73954068D01*
X108080000Y-73726700D02*
X108080000Y-74366668D01*
X108370000Y-74656668D02*
X109072600Y-73954068D01*
X111183600Y-73954068D02*
X111869400Y-74639868D01*
X111811526Y-77936904D02*
X111610160Y-77936904D01*
X112363645Y-78489023D02*
X111811526Y-77936904D01*
X112363645Y-78489023D02*
X112197489Y-78322868D01*
X107480000Y-73126700D02*
X108080000Y-73726700D01*
X108080000Y-74366668D02*
X108370000Y-74656668D01*
X113513616Y-79638995D02*
X112363645Y-78489023D01*
%TO.N,SDIO_D1*%
X106600000Y-74806668D02*
X107284569Y-74806668D01*
X108311569Y-75833668D02*
X113518463Y-75833668D01*
X106380000Y-74586668D02*
X106600000Y-74806668D01*
X113962921Y-76278126D02*
X113962921Y-76686317D01*
X107284569Y-74806668D02*
X108311569Y-75833668D01*
X106380000Y-73126700D02*
X106380000Y-74586668D01*
X113518463Y-75833668D02*
X113962921Y-76278126D01*
X122246384Y-79638995D02*
X121606711Y-80278668D01*
X121606711Y-80278668D02*
X119794200Y-80278668D01*
%TO.N,SDIO_D0*%
X105200000Y-76076667D02*
X105541201Y-76417868D01*
X105280001Y-73126700D02*
X105280001Y-75676667D01*
X122599938Y-79992549D02*
X121755019Y-80837468D01*
X120655509Y-80837468D02*
X120652109Y-80840868D01*
X113114000Y-76417868D02*
X113164800Y-76367068D01*
X105200000Y-75756668D02*
X105200000Y-76076667D01*
X105541201Y-76417868D02*
X113114000Y-76417868D01*
X105280001Y-75676667D02*
X105200000Y-75756668D01*
X121755019Y-80837468D02*
X120655509Y-80837468D01*
%TO.N,SD_PWR*%
X106713600Y-81345868D02*
X101053169Y-81345868D01*
X109249368Y-83881636D02*
X106713600Y-81345868D01*
X101053169Y-81345868D02*
X98272337Y-84126700D01*
X109270975Y-83881636D02*
X109249368Y-83881636D01*
X98272337Y-84126700D02*
X94390000Y-84126700D01*
%TO.N,Net-(C5-Pad1)*%
X132300000Y-90086668D02*
X132300000Y-90631668D01*
X132300000Y-90631668D02*
X131469411Y-91462257D01*
D83*
X127930000Y-88376668D02*
X127805000Y-88251668D01*
D82*
X132200000Y-89986668D02*
X132300000Y-90086668D01*
D83*
X128521492Y-88376668D02*
X127930000Y-88376668D01*
D82*
X108917422Y-84235189D02*
X109801864Y-85119631D01*
X132180000Y-89986668D02*
X132200000Y-89986668D01*
D83*
X130150746Y-90080922D02*
X130150746Y-90143592D01*
D82*
X127217989Y-87664657D02*
X127805000Y-88251668D01*
X127196132Y-87664657D02*
X127217989Y-87664657D01*
X131750000Y-89556668D02*
X132180000Y-89986668D01*
D83*
X129800746Y-89655922D02*
X128521492Y-88376668D01*
X130150746Y-90143592D02*
X131469411Y-91462257D01*
X129800746Y-89718592D02*
X129800746Y-89655922D01*
D82*
X109801864Y-85119631D02*
X110252025Y-85119631D01*
%TO.N,Net-(JP3-A)*%
X111420285Y-87636668D02*
X111948501Y-87636668D01*
X99879991Y-86126709D02*
X100639350Y-86886068D01*
X111948501Y-87636668D02*
X112321370Y-87263799D01*
X109978082Y-89078871D02*
X111420285Y-87636668D01*
X100639350Y-86886068D02*
X101667599Y-86886068D01*
D83*
%TO.N,NRST*%
X127330000Y-63426700D02*
X133158100Y-63426700D01*
D82*
X148060000Y-74666668D02*
X147378758Y-74666668D01*
X134983400Y-63616268D02*
X135161200Y-63438468D01*
X134526200Y-64073468D02*
X134983400Y-63616268D01*
X134500800Y-71896668D02*
X134551600Y-71947468D01*
X133598800Y-63627368D02*
X134044900Y-64073468D01*
X112458705Y-92255102D02*
X114230000Y-90483807D01*
X134983400Y-63616268D02*
X134577000Y-64022668D01*
X147378758Y-74666668D02*
X146293156Y-75752270D01*
X114230000Y-90483807D02*
X114230000Y-84470601D01*
X135161200Y-63438468D02*
X143848000Y-63438468D01*
X134551600Y-83936268D02*
X134424600Y-84063268D01*
X134577000Y-64022668D02*
X134577000Y-71820468D01*
X114230000Y-84470601D02*
X114473841Y-84226760D01*
X134551600Y-71947468D02*
X134551600Y-83936268D01*
X134577000Y-71820468D02*
X134500800Y-71896668D01*
X134044900Y-64073468D02*
X134526200Y-64073468D01*
D83*
X133158100Y-63426700D02*
X133358800Y-63627400D01*
%TO.N,BOOT0*%
X132600000Y-68166668D02*
X133570000Y-68166668D01*
D82*
X127330000Y-67826700D02*
X126425321Y-67826700D01*
D83*
X133570000Y-68166668D02*
X133600000Y-68136668D01*
D82*
X110331635Y-82820976D02*
X110373108Y-82820976D01*
X111287519Y-83735387D02*
X111749000Y-83735387D01*
X110373108Y-82820976D02*
X111287519Y-83735387D01*
X126425321Y-67826700D02*
X126389185Y-67862836D01*
D83*
X127330000Y-67826700D02*
X131430000Y-67826700D01*
X131430000Y-67826700D02*
X132260032Y-67826700D01*
X132260032Y-67826700D02*
X132600000Y-68166668D01*
D82*
%TO.N,CHG_INT*%
X121730000Y-90576668D02*
X121730000Y-90683807D01*
X131480000Y-99356668D02*
X131180000Y-99056668D01*
X121730000Y-90683807D02*
X122953491Y-91907298D01*
X131480000Y-102086700D02*
X131480000Y-99356668D01*
%TO.N,HSE_OSC_IN*%
X107449800Y-95442468D02*
X107449800Y-95213868D01*
X109215164Y-93771858D02*
X108891810Y-93771858D01*
X107405978Y-95213868D02*
X106983389Y-94791279D01*
X108891810Y-93771858D02*
X107449800Y-95213868D01*
X108059400Y-96052068D02*
X107449800Y-95442468D01*
X107449800Y-95213868D02*
X107405978Y-95213868D01*
X112099402Y-91200191D02*
X111310600Y-91988993D01*
X109895174Y-94451868D02*
X109215164Y-93771858D01*
X111310600Y-91988993D02*
X111310600Y-93664468D01*
X111310600Y-93664468D02*
X110523200Y-94451868D01*
X110523200Y-94451868D02*
X109895174Y-94451868D01*
%TO.N,HSE_OSC_OUT*%
X110746406Y-96476332D02*
X111396011Y-97125937D01*
X111615758Y-92390942D02*
X111615758Y-93898110D01*
X111396011Y-97125937D02*
X111396011Y-97947857D01*
X111615758Y-93898110D02*
X110746406Y-94767462D01*
X112452955Y-91553745D02*
X111615758Y-92390942D01*
X110746406Y-94767462D02*
X110746406Y-96476332D01*
D83*
%TO.N,Net-(JP4-A)*%
X127080000Y-106326668D02*
X127080000Y-104958068D01*
D84*
X122880000Y-64261700D02*
X122880000Y-65426668D01*
X137749968Y-97626700D02*
X137740000Y-97636668D01*
D83*
X129157700Y-108404368D02*
X129157700Y-108668268D01*
X127080000Y-106326668D02*
X129157700Y-108404368D01*
X127076700Y-104954768D02*
X126728400Y-104954768D01*
D84*
X138987200Y-97626700D02*
X137749968Y-97626700D01*
X124912300Y-104954768D02*
X124848800Y-105018268D01*
X122880000Y-65426668D02*
X123130000Y-65676668D01*
D83*
X127080000Y-104958068D02*
X127076700Y-104954768D01*
D84*
X126728400Y-104954768D02*
X124912300Y-104954768D01*
D82*
%TO.N,V_ADC_BATT*%
X122442859Y-96563809D02*
X122442859Y-96474266D01*
X117880000Y-95579869D02*
X119880000Y-97579869D01*
X116926362Y-94571077D02*
X117880000Y-95524715D01*
X117880000Y-95524715D02*
X117880000Y-95579869D01*
D83*
X135848100Y-102636600D02*
X135848100Y-104604800D01*
D82*
X119880000Y-97579869D02*
X121426799Y-97579869D01*
X134880000Y-105126668D02*
X135370032Y-105126668D01*
X135370032Y-105126668D02*
X135870000Y-104626700D01*
X115988489Y-95089278D02*
X116506690Y-94571077D01*
X121426799Y-97579869D02*
X122442859Y-96563809D01*
D83*
X135848100Y-104604800D02*
X135870000Y-104626700D01*
D82*
X116506690Y-94571077D02*
X116926362Y-94571077D01*
%TO.N,32K_OSC_IN*%
X109153830Y-90203002D02*
X107556334Y-90203002D01*
X107021117Y-89667785D02*
X105901645Y-90787257D01*
X107556334Y-90203002D02*
X107021117Y-89667785D01*
X110166988Y-90304179D02*
X109255007Y-90304179D01*
X110685189Y-89785978D02*
X110166988Y-90304179D01*
X109255007Y-90304179D02*
X109153830Y-90203002D01*
X105901645Y-90787257D02*
X105869411Y-90787257D01*
%TO.N,32K_OSC_OUT*%
X110520540Y-90657733D02*
X109566701Y-90657733D01*
X107719411Y-92505023D02*
X107719411Y-92612257D01*
X111038742Y-90139531D02*
X110520540Y-90657733D01*
X109566701Y-90657733D02*
X108788883Y-91435551D01*
X108788883Y-91435551D02*
X107719411Y-92505023D01*
D83*
%TO.N,Net-(D11-A)*%
X126753800Y-48459068D02*
X127956300Y-48459068D01*
D82*
%TO.N,Net-(U2-EN)*%
X130850032Y-117126700D02*
X131300000Y-117576668D01*
X128050032Y-123126700D02*
X129245000Y-123126700D01*
D84*
X131330000Y-120126700D02*
X131330000Y-117606668D01*
D82*
X126880000Y-122626700D02*
X127550032Y-122626700D01*
D84*
X131330000Y-121041700D02*
X129245000Y-123126700D01*
D82*
X130380000Y-117126700D02*
X130850032Y-117126700D01*
D84*
X131330000Y-120126700D02*
X131330000Y-121041700D01*
D82*
X127550032Y-122626700D02*
X128050032Y-123126700D01*
D84*
X131330000Y-117606668D02*
X131300000Y-117576668D01*
D82*
X131300000Y-117576668D02*
X131249968Y-117626700D01*
X131249968Y-117626700D02*
X130380000Y-117626700D01*
D83*
%TO.N,Net-(U2-VOS)*%
X129106100Y-111886668D02*
X129157700Y-111938268D01*
X128910000Y-117626700D02*
X127290000Y-117626700D01*
X126880000Y-118036700D02*
X126880000Y-113656668D01*
X125110000Y-111886668D02*
X129106100Y-111886668D01*
X127290000Y-117626700D02*
X126880000Y-118036700D01*
X126880000Y-113656668D02*
X125110000Y-111886668D01*
D82*
%TO.N,SYS_MAIN_RED*%
X124380000Y-52724076D02*
X124380000Y-47647899D01*
X125948369Y-46602268D02*
X127099569Y-47753468D01*
X129380000Y-74626668D02*
X124380000Y-69626668D01*
X125425631Y-46602268D02*
X125948369Y-46602268D01*
X129380000Y-80990661D02*
X129380000Y-74626668D01*
X127099569Y-47753468D02*
X128270700Y-47753468D01*
X126489025Y-83881636D02*
X129380000Y-80990661D01*
X124380000Y-69626668D02*
X124380000Y-52724076D01*
X124380000Y-47647899D02*
X125425631Y-46602268D01*
X128270700Y-47753468D02*
X128976300Y-48459068D01*
%TO.N,SYS_MAIN_GREEN*%
X125195732Y-46297468D02*
X126074621Y-46297468D01*
X124074200Y-69820868D02*
X124074200Y-52597409D01*
X125428365Y-82820976D02*
X127287200Y-80962141D01*
X127225821Y-47448668D02*
X128805264Y-47448668D01*
X129475900Y-48119304D02*
X129475900Y-49959468D01*
X124074200Y-52597409D02*
X124074200Y-47419000D01*
X129475900Y-49959468D02*
X128976300Y-50459068D01*
X127287200Y-73033868D02*
X124074200Y-69820868D01*
X126074621Y-46297468D02*
X127225821Y-47448668D01*
X124074200Y-47419000D02*
X125195732Y-46297468D01*
X127287200Y-80962141D02*
X127287200Y-73033868D01*
X128805264Y-47448668D02*
X129475900Y-48119304D01*
%TO.N,SYS_SD_BLUE*%
X83943517Y-57037668D02*
X82964200Y-57037668D01*
X111795181Y-78627668D02*
X97734966Y-78627668D01*
X83957990Y-57023195D02*
X83943517Y-57037668D01*
X113160062Y-79992549D02*
X111795181Y-78627668D01*
X97734966Y-78627668D02*
X97730212Y-78632422D01*
%TO.N,SYS_GPS_RED*%
X97316305Y-79389668D02*
X97307602Y-79380965D01*
X112452955Y-80699655D02*
X111142968Y-79389668D01*
X111142968Y-79389668D02*
X97316305Y-79389668D01*
X82878473Y-55523195D02*
X82710200Y-55691468D01*
X83957990Y-55523195D02*
X82878473Y-55523195D01*
%TO.N,SYS_GPS_GREEN*%
X110276755Y-79937668D02*
X96691000Y-79937668D01*
X111745849Y-81406762D02*
X110276755Y-79937668D01*
X82371873Y-54023195D02*
X82303800Y-54091268D01*
X83977990Y-54023195D02*
X82371873Y-54023195D01*
D83*
%TO.N,GPS_RX_STM_TX*%
X63060000Y-87456668D02*
X67017200Y-91413868D01*
D82*
X114959756Y-100432468D02*
X107853333Y-100432468D01*
D83*
X63110000Y-87406668D02*
X63060000Y-87456668D01*
D82*
X115565100Y-96219775D02*
X115565100Y-96749820D01*
X89560333Y-91413268D02*
X89555533Y-91408468D01*
X93044354Y-91408468D02*
X91475406Y-91408469D01*
D83*
X63110000Y-76434668D02*
X63110000Y-87406668D01*
D82*
X107853333Y-100432468D02*
X98819734Y-91398868D01*
X116949156Y-98443068D02*
X114959756Y-100432468D01*
D83*
X74945968Y-90692668D02*
X74380000Y-90126700D01*
X69880000Y-71426700D02*
X68117968Y-71426700D01*
D82*
X91475406Y-91408469D02*
X91470606Y-91413268D01*
X116949156Y-98133876D02*
X116949156Y-98443068D01*
D83*
X72260800Y-91413868D02*
X72348685Y-91325983D01*
D82*
X75983800Y-91408468D02*
X75268000Y-90692668D01*
X115565100Y-96749820D02*
X116949156Y-98133876D01*
D83*
X75268000Y-90692668D02*
X74945968Y-90692668D01*
D82*
X116342043Y-95442832D02*
X115565100Y-96219775D01*
D83*
X67017200Y-91413868D02*
X72260800Y-91413868D01*
D82*
X98819734Y-91398868D02*
X93053955Y-91398868D01*
X91470606Y-91413268D02*
X89560333Y-91413268D01*
D83*
X68117968Y-71426700D02*
X63110000Y-76434668D01*
D82*
X89555533Y-91408468D02*
X75983800Y-91408468D01*
X93053955Y-91398868D02*
X93044354Y-91408468D01*
%TO.N,GPS_TX_STM_RX*%
X93180207Y-91703668D02*
X93170606Y-91713268D01*
D83*
X71819712Y-90618778D02*
X72345458Y-90618778D01*
X71481822Y-90956668D02*
X71819712Y-90618778D01*
D82*
X89429283Y-91713269D02*
X73628340Y-91713269D01*
X107727081Y-100737268D02*
X98693482Y-91703668D01*
X116009600Y-96763268D02*
X117325408Y-98079076D01*
X117325408Y-98079076D02*
X117325408Y-98497868D01*
X116695596Y-95796385D02*
X116695596Y-95797872D01*
X91596858Y-91718068D02*
X89434081Y-91718068D01*
D83*
X66356546Y-73966700D02*
X63590000Y-76733246D01*
D82*
X115086008Y-100737268D02*
X107727081Y-100737268D01*
D83*
X72380000Y-90126700D02*
X72380000Y-90584236D01*
D82*
X89434081Y-91718068D02*
X89429283Y-91713269D01*
D83*
X63590000Y-87106668D02*
X67440000Y-90956668D01*
D82*
X73628340Y-91713269D02*
X72533849Y-90618778D01*
X93170606Y-91713268D02*
X91601658Y-91713269D01*
D83*
X63590000Y-76733246D02*
X63590000Y-87106668D01*
D82*
X91601658Y-91713269D02*
X91596858Y-91718068D01*
X98693482Y-91703668D02*
X93180207Y-91703668D01*
D83*
X67440000Y-90956668D02*
X71481822Y-90956668D01*
D82*
X72533849Y-90618778D02*
X72345458Y-90618778D01*
X116695596Y-95797872D02*
X116009600Y-96483868D01*
D83*
X72380000Y-90584236D02*
X72345458Y-90618778D01*
D82*
X116009600Y-96483868D02*
X116009600Y-96763268D01*
X117325408Y-98497868D02*
X115086008Y-100737268D01*
D83*
X69880000Y-73966700D02*
X66356546Y-73966700D01*
D82*
%TO.N,GPS_PPS*%
X67336032Y-90126700D02*
X65997000Y-88787668D01*
X66212968Y-84126700D02*
X69880000Y-84126700D01*
X69880000Y-90126700D02*
X67336032Y-90126700D01*
X98380000Y-83126668D02*
X95380000Y-83126668D01*
X108351288Y-82247704D02*
X107144652Y-81041068D01*
X70380032Y-89626668D02*
X69880000Y-90126700D01*
X70880000Y-89626668D02*
X70380032Y-89626668D01*
X100062988Y-81693468D02*
X99813200Y-81693468D01*
X100715388Y-81041068D02*
X100062988Y-81693468D01*
X99813200Y-81693468D02*
X98380000Y-83126668D01*
X107144652Y-81041068D02*
X100715388Y-81041068D01*
X65997000Y-88787668D02*
X65997000Y-84342668D01*
X65997000Y-84342668D02*
X66212968Y-84126700D01*
X108351288Y-82254843D02*
X108351288Y-82247704D01*
X109624528Y-83528083D02*
X108351288Y-82254843D01*
%TO.N,GPS_EN*%
X91146368Y-89143068D02*
X86130000Y-84126700D01*
X107870954Y-88487659D02*
X107499744Y-88487659D01*
X109765680Y-89998379D02*
X109381674Y-89998379D01*
X105627756Y-89142068D02*
X105626756Y-89143068D01*
X105629170Y-89142068D02*
X105627756Y-89142068D01*
X110331635Y-89432424D02*
X109765680Y-89998379D01*
X105626756Y-89143068D02*
X91146368Y-89143068D01*
X109381674Y-89998379D02*
X107870954Y-88487659D01*
X106669370Y-88101868D02*
X105629170Y-89142068D01*
X86130000Y-84126700D02*
X85380000Y-84126700D01*
X107499744Y-88487659D02*
X107113953Y-88101868D01*
X107113953Y-88101868D02*
X106669370Y-88101868D01*
%TO.N,GPS_RESET*%
X88879000Y-79255700D02*
X86130000Y-76506700D01*
X86130000Y-76506700D02*
X85380000Y-76506700D01*
X107240205Y-87797068D02*
X106543118Y-87797068D01*
X106543118Y-87797068D02*
X105502918Y-88837268D01*
X88879000Y-86389186D02*
X88879000Y-79255700D01*
X108563868Y-87664657D02*
X108045666Y-88182859D01*
X105502918Y-88837268D02*
X91327081Y-88837268D01*
X107625996Y-88182859D02*
X107240205Y-87797068D01*
X91327081Y-88837268D02*
X88879000Y-86389186D01*
X99878045Y-88838268D02*
X99877459Y-88838268D01*
X108045666Y-88182859D02*
X107625996Y-88182859D01*
%TO.N,TRACE_SWCLK*%
X116695596Y-76392264D02*
X115680000Y-75376668D01*
X145290000Y-67966668D02*
X144234111Y-67966668D01*
X116695596Y-76457015D02*
X116695596Y-76392264D01*
X144234111Y-67966668D02*
X143562391Y-68638388D01*
%TO.N,MIC_SD1*%
X112806509Y-80346102D02*
X115385352Y-82924945D01*
X151576000Y-90964200D02*
X149827532Y-90964200D01*
X149827532Y-90964200D02*
X149810000Y-90946668D01*
X130760000Y-127516668D02*
X129542500Y-128890200D01*
X132760000Y-127506668D02*
X130760000Y-127516668D01*
X115385352Y-82924945D02*
X115385352Y-84503467D01*
%TO.N,MIC_SD0*%
X112624311Y-78042584D02*
X113867169Y-79285442D01*
D83*
X135717500Y-57269168D02*
X135680000Y-57306668D01*
D82*
X112624311Y-77995346D02*
X112624311Y-78042584D01*
D83*
X135717500Y-55863200D02*
X135717500Y-57269168D01*
D82*
%TO.N,MIC_CCLK1*%
X85450000Y-49336668D02*
X86204032Y-50090700D01*
X153380000Y-85126668D02*
X151380000Y-85126668D01*
X132140000Y-129716668D02*
X132770000Y-128396668D01*
X154480000Y-87956668D02*
X154500000Y-87936668D01*
X154500000Y-86246668D02*
X153380000Y-85126668D01*
X116040000Y-87436668D02*
X116120000Y-87436668D01*
X115857200Y-90976668D02*
X115857200Y-87479468D01*
X61570132Y-90596668D02*
X63220000Y-90596668D01*
X86204032Y-50090700D02*
X87205000Y-50090700D01*
X115970000Y-87366668D02*
X116040000Y-87436668D01*
X61380000Y-90786800D02*
X61570132Y-90596668D01*
X86191968Y-129644700D02*
X86620000Y-129216668D01*
X61380000Y-91301700D02*
X61380000Y-90786800D01*
X63580000Y-91186668D02*
X63590000Y-91196668D01*
X152398000Y-89289200D02*
X152717468Y-89289200D01*
X115858459Y-90976668D02*
X115857200Y-90976668D01*
X131217500Y-129712200D02*
X132140000Y-129716668D01*
X115857200Y-87479468D02*
X115970000Y-87366668D01*
X154500000Y-87936668D02*
X154500000Y-86246668D01*
X85450000Y-47796668D02*
X85450000Y-49336668D01*
X151380000Y-85126668D02*
X149070000Y-87436668D01*
X63590000Y-91196668D02*
X63590000Y-94366668D01*
X63220000Y-90596668D02*
X63580000Y-90956668D01*
X113867169Y-92967958D02*
X115858459Y-90976668D01*
X153510000Y-88496668D02*
X153510000Y-87956668D01*
X152717468Y-89289200D02*
X153510000Y-88496668D01*
X149070000Y-87436668D02*
X131452800Y-87436668D01*
X153510000Y-87956668D02*
X154480000Y-87956668D01*
X85217500Y-129644700D02*
X86191968Y-129644700D01*
X63580000Y-90956668D02*
X63580000Y-91186668D01*
%TO.N,TRACE_SWDIO*%
X147450000Y-72856668D02*
X146925692Y-73380976D01*
X120125064Y-77517675D02*
X119500000Y-78142739D01*
X146925692Y-73380976D02*
X145382902Y-73380976D01*
X119500000Y-78142739D02*
X119500000Y-79556668D01*
%TO.N,RF_MOSI*%
X128210000Y-95688068D02*
X128210000Y-92921167D01*
X98680000Y-106986668D02*
X99127200Y-106539468D01*
X99880000Y-112936700D02*
X99360032Y-112936700D01*
X128210000Y-92921167D02*
X125074811Y-89785978D01*
X99127200Y-106539468D02*
X117358600Y-106539468D01*
X99360032Y-112936700D02*
X98570000Y-112146668D01*
X117358600Y-106539468D02*
X128210000Y-95688068D01*
%TO.N,RF_NRST*%
X121737506Y-100033043D02*
X120968886Y-100033043D01*
X120727632Y-100274297D02*
X120727632Y-101305614D01*
X123660598Y-91200191D02*
X123660598Y-91247266D01*
X125406940Y-96363609D02*
X121737506Y-100033043D01*
X120968886Y-100033043D02*
X120727632Y-100274297D01*
X125314800Y-92911268D02*
X125396800Y-92993268D01*
X123660598Y-91247266D02*
X125314800Y-92901468D01*
X125396800Y-92993268D02*
X125396800Y-96397009D01*
X120479968Y-115476700D02*
X115680000Y-115476700D01*
X125314800Y-92901468D02*
X125314800Y-92911268D01*
X120660000Y-115296668D02*
X120479968Y-115476700D01*
%TO.N,RF_CS*%
X99490000Y-115476700D02*
X97518400Y-113505100D01*
X97518400Y-113505100D02*
X97518400Y-106392381D01*
X120354755Y-89889096D02*
X120384100Y-89859751D01*
X122599938Y-92260851D02*
X120354755Y-90015668D01*
X120031000Y-102519037D02*
X120031000Y-101740805D01*
X116985920Y-105564117D02*
X120031000Y-102519037D01*
X99880000Y-115476700D02*
X99490000Y-115476700D01*
X98346664Y-105564117D02*
X116985920Y-105564117D01*
X120354755Y-90015668D02*
X120354755Y-89889096D01*
X97518400Y-106392381D02*
X98346664Y-105564117D01*
%TO.N,RF_BUSY*%
X99490000Y-116746700D02*
X97213600Y-114470300D01*
X99880000Y-116746700D02*
X99490000Y-116746700D01*
X119060500Y-103058485D02*
X119060500Y-102416168D01*
X123307045Y-91553745D02*
X122401000Y-90647700D01*
X120536910Y-89297700D02*
X119438728Y-88199518D01*
X97213600Y-106266129D02*
X98220412Y-105259317D01*
X98220412Y-105259317D02*
X116859668Y-105259317D01*
X116859668Y-105259317D02*
X119060500Y-103058485D01*
X97213600Y-114470300D02*
X97213600Y-106266129D01*
X122401000Y-90395299D02*
X121303401Y-89297700D01*
X122401000Y-90647700D02*
X122401000Y-90395299D01*
X121303401Y-89297700D02*
X120536910Y-89297700D01*
%TO.N,RF_IRQ*%
X124014151Y-90846638D02*
X124014151Y-90980819D01*
X121562099Y-100733517D02*
X121299729Y-100733517D01*
X125791600Y-96504016D02*
X121562099Y-100733517D01*
X121379968Y-114206700D02*
X115680000Y-114206700D01*
X124014151Y-90980819D02*
X125791600Y-92758268D01*
X125791600Y-92758268D02*
X125791600Y-96504016D01*
X121400000Y-114186668D02*
X121379968Y-114206700D01*
%TO.N,RF_SCK*%
X127510000Y-95216668D02*
X127510000Y-93635379D01*
X127510000Y-95471089D02*
X127510000Y-95216668D01*
X97823200Y-106518633D02*
X98472916Y-105868917D01*
X98472916Y-105868917D02*
X117112172Y-105868917D01*
X99880000Y-114206700D02*
X99490000Y-114206700D01*
X117112172Y-105868917D02*
X127510000Y-95471089D01*
X99490000Y-114206700D02*
X97823200Y-112539900D01*
X127510000Y-93635379D02*
X124367705Y-90493084D01*
X97823200Y-112539900D02*
X97823200Y-106518633D01*
%TO.N,RF_MISO*%
X98129000Y-106645299D02*
X98539631Y-106234668D01*
X98129000Y-110305700D02*
X98129000Y-106645299D01*
X98539631Y-106234668D02*
X117179136Y-106234668D01*
X99880000Y-111666700D02*
X99490000Y-111666700D01*
X127870000Y-95570868D02*
X127870000Y-95356668D01*
X117179136Y-106234668D02*
X117206200Y-106234668D01*
X127870000Y-95356668D02*
X127870000Y-93346668D01*
X99490000Y-111666700D02*
X98129000Y-110305700D01*
X117206200Y-106234668D02*
X127870000Y-95570868D01*
X124721258Y-90197926D02*
X124721258Y-90139531D01*
X127870000Y-93346668D02*
X124721258Y-90197926D01*
%TO.N,QWIIC_SDA*%
X71240000Y-99986668D02*
X72120000Y-99106668D01*
X71580000Y-108326668D02*
X71980000Y-108426668D01*
X69592400Y-101159313D02*
X70480000Y-100626668D01*
X71980000Y-108426668D02*
X73412600Y-107797313D01*
X108954035Y-80736268D02*
X100127819Y-80736268D01*
X68180000Y-102226668D02*
X71580000Y-108326668D01*
X68380000Y-101826668D02*
X68180000Y-102226668D01*
X69592400Y-101159313D02*
X68380000Y-101826668D01*
X110685189Y-82467422D02*
X108954035Y-80736268D01*
X70480000Y-100626668D02*
X71240000Y-99986668D01*
X100127819Y-80736268D02*
X99801619Y-81062468D01*
%TO.N,QWIIC_SCL*%
X75480000Y-105526668D02*
X72511495Y-100195173D01*
X73130000Y-99126668D02*
X73110000Y-99106668D01*
X99197243Y-80431468D02*
X98871105Y-80757606D01*
X74962000Y-99126668D02*
X73130000Y-99126668D01*
X73912600Y-108663338D02*
X75180000Y-107926668D01*
X109356341Y-80431468D02*
X99197243Y-80431468D01*
X75090200Y-98998468D02*
X74962000Y-99126668D01*
X111038742Y-82113869D02*
X109356341Y-80431468D01*
X75180000Y-107926668D02*
X75480000Y-105526668D01*
X72511495Y-100195173D02*
X72511495Y-99705173D01*
X72311495Y-100195173D02*
X72511495Y-100195173D01*
X72511495Y-99705173D02*
X73110000Y-99106668D01*
X70092401Y-102025339D02*
X71180000Y-101326668D01*
X71180000Y-101326668D02*
X72311495Y-100195173D01*
D83*
%TO.N,MIC_CCLK0*%
X132985468Y-55041200D02*
X132690000Y-55336668D01*
X133120000Y-57276668D02*
X134080000Y-57276668D01*
X132690000Y-55336668D02*
X132690000Y-56846668D01*
D82*
X110091661Y-83174529D02*
X111183600Y-84266468D01*
X109978082Y-83174529D02*
X110091661Y-83174529D01*
D83*
X134042500Y-55041200D02*
X132985468Y-55041200D01*
X132690000Y-56846668D02*
X133120000Y-57276668D01*
D82*
%TO.N,MIC_SD2*%
X62980032Y-89626700D02*
X62202000Y-89626700D01*
X64180000Y-93666668D02*
X64180000Y-90826668D01*
X118500000Y-88696668D02*
X118644275Y-88552393D01*
X118500000Y-88868021D02*
X118500000Y-88696668D01*
X64180000Y-90826668D02*
X62980032Y-89626700D01*
X122246384Y-92614405D02*
X118500000Y-88868021D01*
X83542500Y-128822700D02*
X83560000Y-127606668D01*
%TO.N,MIC_SD3*%
X105250000Y-88226668D02*
X107570000Y-85906668D01*
X107570000Y-85906668D02*
X108887631Y-85906668D01*
X91580000Y-88226668D02*
X105250000Y-88226668D01*
X88880000Y-50912700D02*
X88981500Y-50912700D01*
X88981500Y-50912700D02*
X89873000Y-51804200D01*
X109722059Y-87213574D02*
X108917422Y-88018211D01*
X89873000Y-86519668D02*
X91580000Y-88226668D01*
X89873000Y-51804200D02*
X89873000Y-86519668D01*
X108887631Y-85906668D02*
X109722059Y-86741096D01*
X109722059Y-86741096D02*
X109722059Y-87213574D01*
%TO.N,SENS_I2C_SDA*%
X114927829Y-78224782D02*
X116683915Y-79980868D01*
X136623026Y-95923768D02*
X138256974Y-95923768D01*
X117083400Y-79980868D02*
X121170000Y-84067468D01*
X132900600Y-96888568D02*
X132900600Y-97830068D01*
X136417500Y-93384168D02*
X136405000Y-93384168D01*
X138256974Y-95923768D02*
X139727900Y-94452842D01*
X132900600Y-98148959D02*
X132900600Y-97830068D01*
X140245000Y-94241668D02*
X140540000Y-94536668D01*
X132280000Y-98769559D02*
X132900600Y-98148959D01*
X136410400Y-95711142D02*
X136623026Y-95923768D01*
X132280000Y-102086700D02*
X132280000Y-98769559D01*
X121170000Y-84067468D02*
X121170000Y-87881929D01*
X136410400Y-93391268D02*
X136410400Y-95711142D01*
X136417500Y-93384168D02*
X136410400Y-93391268D01*
X121170000Y-87881929D02*
X121279432Y-87991361D01*
X136405000Y-93384168D02*
X132900600Y-96888568D01*
X140245000Y-93356668D02*
X140245000Y-94241668D01*
X139727900Y-94452842D02*
X139727900Y-93873768D01*
X139727900Y-93873768D02*
X140245000Y-93356668D01*
X116683915Y-79980868D02*
X117083400Y-79980868D01*
%TO.N,SENS_I2C_SCL*%
X120540000Y-88266668D02*
X120540000Y-83894668D01*
X131880000Y-98415360D02*
X131810915Y-98346275D01*
X140245000Y-91856668D02*
X140245000Y-91331668D01*
X116931000Y-80285668D02*
X116281609Y-80285668D01*
X136520000Y-91176668D02*
X140120000Y-91176668D01*
X140245000Y-91331668D02*
X140800000Y-90776668D01*
X131810915Y-96150853D02*
X136077600Y-91884168D01*
X140120000Y-91176668D02*
X140245000Y-91301668D01*
X120540000Y-83894668D02*
X116931000Y-80285668D01*
X136417500Y-91279168D02*
X136520000Y-91176668D01*
X131810915Y-98346275D02*
X131810915Y-96150853D01*
X131880000Y-102086700D02*
X131880000Y-98415360D01*
X120440000Y-88366668D02*
X120540000Y-88266668D01*
X136417500Y-91884168D02*
X136417500Y-91279168D01*
X116281609Y-80285668D02*
X114574276Y-78578335D01*
X136077600Y-91884168D02*
X136417500Y-91884168D01*
X140245000Y-91301668D02*
X140245000Y-91856668D01*
%TO.N,TRACE_SWO*%
X113423399Y-82260067D02*
X113503179Y-82260067D01*
X112216541Y-81053209D02*
X113423399Y-82260067D01*
X112099402Y-81053209D02*
X112216541Y-81053209D01*
X147203411Y-78123565D02*
X149203103Y-78123565D01*
X149203103Y-78123565D02*
X149510000Y-77816668D01*
%TO.N,MBUS_SCK*%
X89176779Y-92322869D02*
X89181578Y-92327668D01*
X123931315Y-85836668D02*
X123844328Y-85923655D01*
X89181578Y-92327668D02*
X91849362Y-92327669D01*
X112375944Y-101346868D02*
X113233842Y-102204766D01*
X127196132Y-84588743D02*
X125948207Y-85836668D01*
X91849362Y-92327669D02*
X91854162Y-92322869D01*
X91854162Y-92322869D02*
X93423110Y-92322869D01*
X114899787Y-102204766D02*
X115165711Y-101938842D01*
X93423110Y-92322869D02*
X93432711Y-92313268D01*
X93432711Y-92313268D02*
X98440978Y-92313268D01*
X87840000Y-94526700D02*
X87840000Y-92598668D01*
X113233842Y-102204766D02*
X114899787Y-102204766D01*
X88115799Y-92322869D02*
X89176779Y-92322869D01*
X107474577Y-101346868D02*
X112375944Y-101346868D01*
X87840000Y-92598668D02*
X88115799Y-92322869D01*
X98440978Y-92313268D02*
X107474577Y-101346868D01*
X125948207Y-85836668D02*
X123931315Y-85836668D01*
%TO.N,MBUS_AN*%
X98067221Y-93232668D02*
X107778664Y-102944111D01*
X123118631Y-96780406D02*
X123118631Y-95995668D01*
X110164228Y-102944111D02*
X110985671Y-102122668D01*
X122356946Y-95233983D02*
X121628285Y-95233983D01*
X110985671Y-102122668D02*
X112250400Y-102122668D01*
X95460000Y-97826700D02*
X95460000Y-93648668D01*
X112697574Y-102569842D02*
X117329195Y-102569842D01*
X107778664Y-102944111D02*
X110164228Y-102944111D01*
X117329195Y-102569842D02*
X121967569Y-97931468D01*
X95876000Y-93232668D02*
X98067221Y-93232668D01*
X95460000Y-93648668D02*
X95876000Y-93232668D01*
X123118631Y-95995668D02*
X122356946Y-95233983D01*
X121628285Y-95233983D02*
X120772251Y-96090018D01*
X121967569Y-97931468D02*
X123118631Y-96780406D01*
X120772251Y-96090018D02*
X119771511Y-95089278D01*
X112250400Y-102122668D02*
X112697574Y-102569842D01*
%TO.N,MBUS_RST*%
X92920000Y-93132068D02*
X93119599Y-92932469D01*
X111211165Y-87135503D02*
X111211165Y-87045963D01*
X107904917Y-102639311D02*
X109719957Y-102639311D01*
X93119599Y-92932469D02*
X93675614Y-92932469D01*
X109624528Y-88722140D02*
X111211165Y-87135503D01*
X93685215Y-92922868D02*
X98188473Y-92922868D01*
X98188473Y-92922868D02*
X107904917Y-102639311D01*
X92920000Y-94526700D02*
X92920000Y-93132068D01*
X93675614Y-92932469D02*
X93685215Y-92922868D01*
X109624528Y-88725317D02*
X109624528Y-88722140D01*
X110318502Y-102040766D02*
X110318502Y-101897468D01*
X109719957Y-102639311D02*
X110318502Y-102040766D01*
%TO.N,MBUS_MISO*%
X93296858Y-92018069D02*
X93306459Y-92008468D01*
X85300000Y-97826700D02*
X85300000Y-93306668D01*
X91723110Y-92022869D02*
X91727910Y-92018069D01*
X98567230Y-92008468D02*
X107600829Y-101042068D01*
X85300000Y-93306668D02*
X86588600Y-92018068D01*
X89307830Y-92022868D02*
X91723110Y-92022869D01*
X123375800Y-85296668D02*
X123140000Y-85532468D01*
X125781099Y-85296668D02*
X123375800Y-85296668D01*
X91727910Y-92018069D02*
X93296858Y-92018069D01*
X107600829Y-101042068D02*
X112963513Y-101042068D01*
X126842578Y-84235189D02*
X125781099Y-85296668D01*
X86588600Y-92018068D02*
X89303031Y-92018069D01*
X112963513Y-101042068D02*
X113509000Y-101587555D01*
X93306459Y-92008468D02*
X98567230Y-92008468D01*
X89303031Y-92018069D02*
X89307830Y-92022868D01*
%TO.N,MBUS_MOSI*%
X107980000Y-100126668D02*
X98946400Y-91093068D01*
X91348740Y-91102668D02*
X91343940Y-91107468D01*
X111046000Y-100126668D02*
X109780000Y-100126668D01*
X112656800Y-98515868D02*
X111046000Y-100126668D01*
X114220722Y-93321511D02*
X113702520Y-93839713D01*
X109780000Y-100126668D02*
X107980000Y-100126668D01*
X91343940Y-91107468D02*
X89687000Y-91107468D01*
X84190000Y-92646700D02*
X84190000Y-92367268D01*
X112656800Y-96403155D02*
X112656800Y-98515868D01*
X92917688Y-91102668D02*
X91348740Y-91102668D01*
X98946400Y-91093068D02*
X92927288Y-91093068D01*
X112357697Y-96104052D02*
X112656800Y-96403155D01*
X82760000Y-94076700D02*
X84190000Y-92646700D01*
X111899042Y-95058122D02*
X111899042Y-95645397D01*
X113117451Y-93839713D02*
X111899042Y-95058122D01*
X89687000Y-91107468D02*
X89380000Y-90800468D01*
X113702520Y-93839713D02*
X113117451Y-93839713D01*
X111899042Y-95645397D02*
X112357697Y-96104052D01*
X82760000Y-94526700D02*
X82760000Y-94076700D01*
X92927288Y-91093068D02*
X92917688Y-91102668D01*
%TO.N,MBUS_CS*%
X107881600Y-102173468D02*
X109314381Y-102173468D01*
X90380000Y-97826700D02*
X90380000Y-94228083D01*
X93558963Y-92618068D02*
X98314726Y-92618068D01*
X91980414Y-92627669D02*
X93549362Y-92627669D01*
X98314726Y-92618068D02*
X107371279Y-101674621D01*
X90380000Y-94228083D02*
X91980414Y-92627669D01*
X93549362Y-92627669D02*
X93558963Y-92618068D01*
X110353059Y-87289680D02*
X110353059Y-87096668D01*
X107371279Y-101674621D02*
X107382754Y-101674622D01*
X107382754Y-101674622D02*
X107881600Y-102173468D01*
X109314381Y-102173468D02*
X109518704Y-101969145D01*
X109270975Y-88371764D02*
X110353059Y-87289680D01*
%TO.N,MBUS_SDA*%
X96569957Y-103248911D02*
X94343400Y-105475468D01*
X83726200Y-114594068D02*
X82760000Y-115560268D01*
X113513616Y-92653052D02*
X113513616Y-92614405D01*
X110832523Y-102706868D02*
X111691600Y-102706868D01*
X82760000Y-116826700D02*
X82992168Y-116826700D01*
X94343400Y-110377668D02*
X90127000Y-114594068D01*
X112203877Y-93998945D02*
X112203877Y-93962791D01*
X82760000Y-115560268D02*
X82760000Y-116826700D01*
X96569957Y-103248911D02*
X110290480Y-103248911D01*
X112203877Y-93962791D02*
X113513616Y-92653052D01*
X110290480Y-103248911D02*
X110832523Y-102706868D01*
X112151157Y-94051665D02*
X112203877Y-93998945D01*
X94343400Y-105475468D02*
X94343400Y-110377668D01*
X90127000Y-114594068D02*
X83726200Y-114594068D01*
%TO.N,MBUS_SCL*%
X112151158Y-93261169D02*
X112151158Y-93135637D01*
X86799600Y-114898868D02*
X90355458Y-114898868D01*
X85300000Y-120126700D02*
X85300000Y-116398468D01*
X96723443Y-103553711D02*
X110878049Y-103553711D01*
X90355458Y-114898868D02*
X94683600Y-110570726D01*
X113160062Y-92276606D02*
X113160062Y-92260851D01*
X94683600Y-105593554D02*
X96723443Y-103553711D01*
X94683600Y-110570726D02*
X94683600Y-105593554D01*
X110878049Y-103553711D02*
X111124046Y-103307714D01*
X112151158Y-93135637D02*
X112251354Y-93035441D01*
X112251354Y-93035441D02*
X112401227Y-93035441D01*
X85300000Y-116398468D02*
X86799600Y-114898868D01*
X112401227Y-93035441D02*
X113160062Y-92276606D01*
%TO.N,MBUS_PWM*%
X95460000Y-117135068D02*
X96832600Y-115762468D01*
X118163421Y-102406042D02*
X124188321Y-96381142D01*
X98132009Y-104916668D02*
X116447892Y-104916668D01*
X124188400Y-96381142D02*
X124188400Y-94528068D01*
X96832600Y-106228289D02*
X96820387Y-106228289D01*
X96820387Y-106228289D02*
X98132009Y-104916668D01*
X118163421Y-103194647D02*
X118163421Y-102406042D01*
X123641369Y-93995668D02*
X122920541Y-93995668D01*
X124188400Y-94528068D02*
X123656000Y-93995668D01*
X123656000Y-93995668D02*
X123641369Y-93995668D01*
X116447892Y-104916668D02*
X116444646Y-104913422D01*
X116444646Y-104913422D02*
X118163421Y-103194647D01*
X95460000Y-120126700D02*
X95460000Y-117135068D01*
X122920541Y-93995668D02*
X121892831Y-92967958D01*
X124188321Y-96381142D02*
X124188400Y-96381142D01*
X96832600Y-115762468D02*
X96832600Y-106228289D01*
%TO.N,MBUS_INT*%
X92920000Y-115166668D02*
X92920000Y-116826700D01*
X92880000Y-115126668D02*
X92920000Y-115166668D01*
X112380000Y-84568668D02*
X111996400Y-84952268D01*
X111392295Y-81760316D02*
X112380000Y-82748021D01*
X112380000Y-82748021D02*
X112380000Y-84568668D01*
D83*
%TO.N,Net-(U3-BAT)*%
X137830000Y-100626700D02*
X137830000Y-101674700D01*
D86*
X137938000Y-105746668D02*
X134568800Y-105746668D01*
X138361600Y-105323068D02*
X139149000Y-103367268D01*
X138361600Y-105323068D02*
X137938000Y-105746668D01*
X139149000Y-103367268D02*
X138723132Y-102636600D01*
X138361600Y-105323068D02*
X141431443Y-107135675D01*
X136868100Y-102636600D02*
X138723132Y-102636600D01*
X131757600Y-105272268D02*
X131480000Y-104994668D01*
D83*
X137830000Y-101674700D02*
X136868100Y-102636600D01*
D86*
X134094400Y-105272268D02*
X131757600Y-105272268D01*
X134568800Y-105746668D02*
X134094400Y-105272268D01*
X131480000Y-104994668D02*
X131480000Y-104186700D01*
D83*
%TO.N,VCC_RF*%
X121605000Y-110680968D02*
X121150732Y-110226700D01*
X119280000Y-110126700D02*
X117280000Y-110126700D01*
X121891200Y-110680968D02*
X121605000Y-110680968D01*
X121927800Y-110644368D02*
X121891200Y-110680968D01*
X121150732Y-110226700D02*
X119380000Y-110226700D01*
X115680000Y-110396700D02*
X117010000Y-110396700D01*
X119380000Y-110226700D02*
X119280000Y-110126700D01*
X120205800Y-110126700D02*
X119280000Y-110126700D01*
X117010000Y-110396700D02*
X117280000Y-110126700D01*
%TO.N,VCC_SD*%
X96259432Y-76606700D02*
X97264400Y-77611668D01*
D82*
X99140000Y-76972668D02*
X99144000Y-76976668D01*
D83*
X93880032Y-76126700D02*
X94380000Y-76626668D01*
D82*
X100600000Y-76013468D02*
X100600000Y-76870868D01*
D83*
X94399968Y-76606700D02*
X95380000Y-76606700D01*
X93380000Y-76126700D02*
X93880032Y-76126700D01*
D82*
X94380000Y-76626668D02*
X94399968Y-76606700D01*
D84*
X101620000Y-71236668D02*
X102780000Y-71236668D01*
D83*
X95867400Y-76606700D02*
X96259432Y-76606700D01*
X93380000Y-74626668D02*
X93380000Y-74460268D01*
D82*
X97910000Y-76046668D02*
X97910000Y-76986668D01*
X101988800Y-74555468D02*
X101988800Y-75023468D01*
X97870000Y-76006668D02*
X97910000Y-76046668D01*
X110235200Y-74656668D02*
X110243800Y-74665268D01*
D83*
X93380000Y-76126700D02*
X93380000Y-74626668D01*
X96380000Y-76606700D02*
X95867400Y-76606700D01*
D82*
X100600000Y-76870868D02*
X100591800Y-76879068D01*
D84*
X101980000Y-73126700D02*
X101980000Y-71596668D01*
D82*
X101980000Y-74546668D02*
X101988800Y-74555468D01*
D83*
X97264400Y-77611668D02*
X97285000Y-77611668D01*
D82*
X104180000Y-75756668D02*
X104180000Y-75326668D01*
X101980000Y-73126700D02*
X101980000Y-74546668D01*
D83*
X97285000Y-77611668D02*
X97910000Y-76986668D01*
D82*
X106600000Y-75826668D02*
X107332600Y-75826668D01*
D83*
X95867400Y-76606700D02*
X95380000Y-76606700D01*
D82*
X107332600Y-75826668D02*
X107423200Y-75736068D01*
X104180000Y-75326668D02*
X104680000Y-74826668D01*
X99140000Y-76016668D02*
X99140000Y-76972668D01*
D84*
X101980000Y-71596668D02*
X101620000Y-71236668D01*
X102780000Y-71236668D02*
X102820000Y-71196668D01*
D82*
X109390000Y-74656668D02*
X110235200Y-74656668D01*
D83*
X93380000Y-74460268D02*
X93860800Y-73979468D01*
%TO.N,VCC_GPS*%
X67530000Y-79046700D02*
X66200032Y-79046700D01*
X65610000Y-80085968D02*
X65610000Y-79436668D01*
X67530000Y-81096668D02*
X67530000Y-79046700D01*
X65610000Y-79436668D02*
X66100000Y-78946668D01*
X69880000Y-81586700D02*
X68020032Y-81586700D01*
X69880000Y-79046700D02*
X67530000Y-79046700D01*
X68020032Y-81586700D02*
X67530000Y-81096668D01*
X66200032Y-79046700D02*
X66100000Y-78946668D01*
X65610000Y-80085968D02*
X65610000Y-79426668D01*
X65610000Y-79426668D02*
X65130000Y-78946668D01*
D82*
%TO.N,Net-(U9-C1)*%
X136950000Y-93416668D02*
X136930000Y-93396668D01*
X137930000Y-94454168D02*
X136950000Y-94454168D01*
X136950000Y-94454168D02*
X136950000Y-93416668D01*
%TO.N,SW_USER*%
X106596616Y-87311104D02*
X108210315Y-87311104D01*
X79078000Y-62140468D02*
X79944200Y-62140468D01*
X88526800Y-58256868D02*
X89517400Y-59247468D01*
X80551200Y-61533468D02*
X80551200Y-59247468D01*
X72044200Y-61762068D02*
X73053000Y-61762068D01*
X91453748Y-88531468D02*
X105376252Y-88531468D01*
X81541800Y-58256868D02*
X88526800Y-58256868D01*
X89517400Y-59247468D02*
X89517400Y-86595120D01*
X79944200Y-62140468D02*
X80551200Y-61533468D01*
D83*
X73776800Y-62485868D02*
X77876800Y-62485868D01*
D82*
X105376252Y-88531468D02*
X106596616Y-87311104D01*
D83*
X77876800Y-62485868D02*
X78732600Y-62485868D01*
D82*
X73053000Y-61762068D02*
X73776800Y-62485868D01*
D83*
X77876800Y-62485868D02*
X77935968Y-62426700D01*
D82*
X89517400Y-86595120D02*
X91453748Y-88531468D01*
X80551200Y-59247468D02*
X81541800Y-58256868D01*
D83*
X78732600Y-62485868D02*
X79078000Y-62140468D01*
D84*
%TO.N,Net-(J1-Pin_2)*%
X132515000Y-123126700D02*
X132515000Y-115690868D01*
X134549200Y-113656668D02*
X137643257Y-113656668D01*
X132515000Y-115690868D02*
X134549200Y-113656668D01*
X137643257Y-113656668D02*
X138668400Y-114681811D01*
D83*
%TO.N,Net-(J2-Pin_2)*%
X147300613Y-93846407D02*
X147300613Y-95843658D01*
X146668595Y-99182006D02*
X146668595Y-99681811D01*
X145517571Y-97626700D02*
X142257200Y-97626700D01*
X142257200Y-97626700D02*
X145113289Y-97626700D01*
X147300613Y-95843658D02*
X145517571Y-97626700D01*
X145113289Y-97626700D02*
X146668595Y-99182006D01*
%TO.N,Net-(D4-PadA)*%
X113680000Y-65611813D02*
X114165145Y-65126668D01*
X114165145Y-65126668D02*
X115232016Y-65126668D01*
X116880000Y-65126668D02*
X118094855Y-65126668D01*
X116880000Y-64626668D02*
X116880000Y-65126668D01*
X118580000Y-65611813D02*
X118580000Y-66126700D01*
X115232016Y-65126668D02*
X115342585Y-65016100D01*
X116769432Y-65016100D02*
X116880000Y-65126668D01*
X115342585Y-65016100D02*
X116769432Y-65016100D01*
X118380000Y-63126668D02*
X116880000Y-64626668D01*
X122880000Y-60991700D02*
X122880000Y-61626668D01*
D82*
X120880000Y-68116700D02*
X119889968Y-68116700D01*
D83*
X121380000Y-63126668D02*
X118380000Y-63126668D01*
X113680000Y-66126700D02*
X113680000Y-65611813D01*
D82*
X119889968Y-68116700D02*
X119880000Y-68126668D01*
X119880000Y-68126668D02*
X118580000Y-66826668D01*
D83*
X122880000Y-61626668D02*
X121380000Y-63126668D01*
D82*
X118580000Y-66826668D02*
X118580000Y-66126700D01*
D83*
X118094855Y-65126668D02*
X118580000Y-65611813D01*
%TO.N,Net-(D8-A)*%
X84977990Y-57023195D02*
X86402990Y-57023195D01*
%TO.N,Net-(D9-A)*%
X84977990Y-55523195D02*
X86402990Y-55523195D01*
%TO.N,Net-(D10-A)*%
X84997990Y-54023195D02*
X86402990Y-54023195D01*
%TO.N,Net-(D12-A)*%
X126753800Y-50459068D02*
X127956300Y-50459068D01*
D82*
%TO.N,Net-(J3-CC1)*%
X117870000Y-68626700D02*
X117870000Y-67616668D01*
X117380000Y-67126668D02*
X117380000Y-66126700D01*
X117870000Y-67616668D02*
X117380000Y-67126668D01*
%TO.N,Net-(J3-CC2)*%
X114390000Y-66136700D02*
X114380000Y-66126700D01*
X114390000Y-68626700D02*
X114390000Y-66136700D01*
%TO.N,EXT_OPA_VINP*%
X120478617Y-94382172D02*
X119960416Y-93863971D01*
X116780000Y-83307849D02*
X116742619Y-83270468D01*
X119960416Y-93863971D02*
X119960416Y-92307084D01*
X135098810Y-70581975D02*
X135098810Y-83963922D01*
X116780000Y-89126668D02*
X116780000Y-83307849D01*
X137396080Y-68284705D02*
X135098810Y-70581975D01*
X119960416Y-92307084D02*
X116780000Y-89126668D01*
X135098810Y-83963922D02*
X135246292Y-84111404D01*
%TO.N,RCC_MCO*%
X150426600Y-82361468D02*
X151722000Y-80812068D01*
X122961605Y-78216668D02*
X124000000Y-78216668D01*
X121892831Y-79285442D02*
X122961605Y-78216668D01*
X151722000Y-80812068D02*
X148496200Y-71896668D01*
X148496200Y-71896668D02*
X146946800Y-71464868D01*
X149023920Y-82866153D02*
X150426600Y-82361468D01*
%TO.N,EXT_1*%
X140366802Y-82512470D02*
X139936400Y-82082068D01*
X121982636Y-81632868D02*
X121931877Y-81632868D01*
X121920887Y-81621878D02*
X121882192Y-81621878D01*
X123307045Y-80699655D02*
X122380032Y-81626668D01*
X142857609Y-82512470D02*
X140366802Y-82512470D01*
X121988836Y-81626668D02*
X121982636Y-81632868D01*
X121931877Y-81632868D02*
X121920887Y-81621878D01*
X121882192Y-81621878D02*
X121729802Y-81774268D01*
X122380032Y-81626668D02*
X121988836Y-81626668D01*
%TO.N,EXT_I2C_SCL*%
X137218600Y-81015268D02*
X137218600Y-85638068D01*
X125475599Y-89432424D02*
X126524921Y-90481746D01*
X138092692Y-80141176D02*
X137218600Y-81015268D01*
X141947353Y-80141176D02*
X138092692Y-80141176D01*
X125428365Y-89432424D02*
X125475599Y-89432424D01*
%TO.N,EXT_2*%
X141188697Y-84883765D02*
X139326800Y-83021868D01*
X122953491Y-80346102D02*
X122059725Y-81239868D01*
X121423800Y-81239868D02*
X120683201Y-81980467D01*
X122059725Y-81239868D02*
X121423800Y-81239868D01*
X143767862Y-84883765D02*
X141188697Y-84883765D01*
X120683201Y-81980467D02*
X120683198Y-81980467D01*
%TO.N,EXT_3*%
X126322000Y-81066068D02*
X126380000Y-81124068D01*
X150380000Y-80126668D02*
X150011809Y-80494859D01*
X126380000Y-81162233D02*
X125074811Y-82467422D01*
X126380000Y-81124068D02*
X126380000Y-81162233D01*
X150011809Y-80494859D02*
X148113665Y-80494859D01*
%TO.N,EXT_OPA_VOUT*%
X117638616Y-88439103D02*
X120667523Y-91468011D01*
X120667523Y-93156864D02*
X121185724Y-93675065D01*
X118339291Y-83794417D02*
X117638616Y-84495092D01*
X118339291Y-82710129D02*
X118339291Y-83794417D01*
X120667523Y-91468011D02*
X120667523Y-93156864D01*
X117638616Y-84495092D02*
X117638616Y-88439103D01*
X139216589Y-73027293D02*
X136456600Y-75787282D01*
X136456600Y-75787282D02*
X136456600Y-82941668D01*
X118295430Y-82666268D02*
X118339291Y-82710129D01*
%TO.N,EXT_I2C_SDA*%
X124367705Y-81760316D02*
X126263353Y-79864668D01*
X141037098Y-77769882D02*
X139072800Y-78627668D01*
X126263353Y-79864668D02*
X126278800Y-79864668D01*
X126278800Y-79864668D02*
X126652200Y-79491268D01*
%TO.N,EXT_AN_IN*%
X137523400Y-78770068D02*
X137523400Y-76983268D01*
X137880000Y-79126668D02*
X137523400Y-78770068D01*
X138880000Y-75626668D02*
X139898764Y-75626668D01*
X125781918Y-83174529D02*
X128277800Y-80678647D01*
X128277800Y-80678647D02*
X128277800Y-79338868D01*
X139898764Y-75626668D02*
X140126844Y-75398588D01*
X137523400Y-76983268D02*
X138880000Y-75626668D01*
%TO.N,EXT_OPA_VINM*%
X120832171Y-94028618D02*
X120313969Y-93510416D01*
X120313969Y-92130637D02*
X117119000Y-88935668D01*
X120313969Y-93510416D02*
X120313969Y-92130637D01*
X138306335Y-70655999D02*
X135729810Y-73232524D01*
X117119000Y-84583656D02*
X117533828Y-84168828D01*
X117533828Y-84168828D02*
X117533828Y-82949668D01*
X117119000Y-88935668D02*
X117119000Y-84583656D01*
X135729810Y-73232524D02*
X135729810Y-83400681D01*
%TO.N,Net-(JP6-B)*%
X92338568Y-76126668D02*
X92338600Y-76126700D01*
D83*
X93930000Y-78376700D02*
X93254232Y-78376700D01*
D82*
X92338600Y-76126668D02*
X92338568Y-76126668D01*
D83*
X92338600Y-77461068D02*
X92338600Y-76126668D01*
X93254232Y-78376700D02*
X92338600Y-77461068D01*
D82*
%TO.N,Net-(U1-VLXSMPS)*%
X126135472Y-88725317D02*
X126153649Y-88725317D01*
X126153649Y-88725317D02*
X127005000Y-89576668D01*
D83*
X127005000Y-89576668D02*
X127005000Y-89943160D01*
X127005000Y-89943160D02*
X128259254Y-91197414D01*
%TO.N,Net-(U2-SW)*%
X127349968Y-120216700D02*
X128910000Y-118656668D01*
X126880000Y-120216700D02*
X127349968Y-120216700D01*
X128910000Y-118656668D02*
X128910000Y-118126701D01*
%TO.N,Net-(U2-MODE{slash}S-CONF)*%
X130380000Y-115706668D02*
X130480000Y-115606668D01*
X130380000Y-116626699D02*
X130380000Y-115706668D01*
%TO.N,Net-(U2-FB{slash}VSET)*%
X128910000Y-116626699D02*
X128910000Y-115706668D01*
X128910000Y-115706668D02*
X128830000Y-115626668D01*
D82*
%TO.N,Net-(U3-TS{slash}MR)*%
X132799000Y-101208268D02*
X133688000Y-101208268D01*
X133880000Y-101400268D02*
X133880000Y-102616700D01*
X133688000Y-101208268D02*
X133880000Y-101400268D01*
X132680000Y-101327268D02*
X132799000Y-101208268D01*
X132680000Y-102086700D02*
X132680000Y-101327268D01*
%TO.N,Net-(R27-Pad1)*%
X92980000Y-82246700D02*
X93360000Y-82626700D01*
X92980000Y-80976700D02*
X92980000Y-82246700D01*
X93360000Y-84116700D02*
X93370000Y-84126700D01*
X93360000Y-82626700D02*
X93360000Y-84116700D01*
D83*
%TO.N,Net-(R35-Pad2)*%
X78530000Y-109126700D02*
X77170032Y-109126700D01*
X76730000Y-108686668D02*
X76730000Y-104106668D01*
X77209968Y-103626700D02*
X77860000Y-103626700D01*
X76730000Y-104106668D02*
X77209968Y-103626700D01*
X77170032Y-109126700D02*
X76730000Y-108686668D01*
D82*
%TO.N,PWM_BUZ*%
X78880000Y-103626700D02*
X94359968Y-103626700D01*
X119350000Y-93960661D02*
X120125064Y-94735725D01*
X119350000Y-92666668D02*
X119350000Y-93960661D01*
X94359968Y-103626700D02*
X94540000Y-103446668D01*
%TO.N,Net-(U5-DIO7)*%
X117740000Y-111666700D02*
X117780000Y-111626700D01*
X115680000Y-111666700D02*
X117740000Y-111666700D01*
%TO.N,Net-(U5-DIO8)*%
X117474300Y-112936700D02*
X117780000Y-113242400D01*
X115680000Y-112936700D02*
X117474300Y-112936700D01*
%TO.N,MBUS_TX_STM_TX*%
X87840000Y-116826700D02*
X87840000Y-115458668D01*
X112313915Y-103227553D02*
X112275800Y-103265668D01*
X87840000Y-115458668D02*
X88095000Y-115203668D01*
X122786400Y-84666668D02*
X122150000Y-85303066D01*
X94988400Y-105719806D02*
X96849695Y-103858511D01*
X90481710Y-115203668D02*
X94988400Y-110696978D01*
X126135472Y-83528083D02*
X124996887Y-84666668D01*
X111682957Y-103858511D02*
X112313915Y-103227553D01*
X88095000Y-115203668D02*
X90481710Y-115203668D01*
X94988400Y-110696978D02*
X94988400Y-105719806D01*
X124996887Y-84666668D02*
X122786400Y-84666668D01*
X96849695Y-103858511D02*
X111682957Y-103858511D01*
%TO.N,MBUS_RX_STM_RX*%
X125781918Y-89078871D02*
X123642841Y-86939794D01*
X95293200Y-110842416D02*
X95293200Y-105846058D01*
X90380000Y-115755616D02*
X95293200Y-110842416D01*
X95293200Y-105846058D02*
X96975947Y-104163311D01*
X96975947Y-104163311D02*
X116384578Y-104163311D01*
X116384578Y-104163311D02*
X116874510Y-103673378D01*
X90380000Y-120126700D02*
X90380000Y-115755616D01*
X123642841Y-86939794D02*
X123642841Y-86759310D01*
%TO.N,/Sheet2/USB_DIFF_N*%
X115880000Y-66876701D02*
X115833200Y-66923501D01*
X115880000Y-66126700D02*
X115880000Y-66779100D01*
X116880000Y-66779100D02*
X116880000Y-66126700D01*
X115833200Y-68792500D02*
X117964168Y-70923468D01*
X115957200Y-66856300D02*
X116802800Y-66856300D01*
X125083200Y-74344834D02*
X123573585Y-75854449D01*
X122964168Y-70923468D02*
X125083200Y-73042500D01*
X115880000Y-66126700D02*
X115880000Y-66876701D01*
X117964168Y-70923468D02*
X122964168Y-70923468D01*
X116802800Y-66856300D02*
X116880000Y-66779100D01*
X123573585Y-75854449D02*
X123573585Y-76320608D01*
X115833200Y-66923501D02*
X115833200Y-68792500D01*
X125083200Y-73042500D02*
X125083200Y-74344834D01*
X115880000Y-66779100D02*
X115957200Y-66856300D01*
%TO.N,/Sheet2/USB_DIFF_P*%
X117795832Y-71329868D02*
X122795832Y-71329868D01*
X115426800Y-68960836D02*
X117795832Y-71329868D01*
X115380000Y-66876701D02*
X115426800Y-66923501D01*
X122795832Y-71329868D02*
X124676800Y-73210836D01*
X124676800Y-74176496D02*
X123286216Y-75567080D01*
X116380000Y-65474300D02*
X116302800Y-65397100D01*
X115500400Y-65397100D02*
X115380000Y-65517500D01*
X116380000Y-66126700D02*
X116380000Y-65474300D01*
X122795058Y-75567080D02*
X122660945Y-75432967D01*
X115426800Y-66923501D02*
X115426800Y-68960836D01*
X116302800Y-65397100D02*
X115500400Y-65397100D01*
X115380000Y-66126700D02*
X115380000Y-66876701D01*
X124676800Y-73210836D02*
X124676800Y-74176496D01*
X115380000Y-65517500D02*
X115380000Y-66126700D01*
X123286216Y-75567080D02*
X122795058Y-75567080D01*
%TO.N,USB_D_P*%
X120478617Y-77871228D02*
X121939697Y-76410148D01*
X121939697Y-76410148D02*
X121939697Y-76154215D01*
%TO.N,USB_D_N*%
X120832171Y-78224782D02*
X120832171Y-78199297D01*
X120832171Y-78224782D02*
X122015097Y-77041856D01*
X122015097Y-77041856D02*
X122852337Y-77041856D01*
%TD*%
M02*
